%TF.GenerationSoftware,KiCad,Pcbnew,9.0.7-9.0.7~ubuntu24.04.1*%
%TF.CreationDate,2026-03-08T12:20:42-06:00*%
%TF.ProjectId,controller_pcb,636f6e74-726f-46c6-9c65-725f7063622e,rev?*%
%TF.SameCoordinates,Original*%
%TF.FileFunction,Legend,Top*%
%TF.FilePolarity,Positive*%
%FSLAX46Y46*%
G04 Gerber Fmt 4.6, Leading zero omitted, Abs format (unit mm)*
G04 Created by KiCad (PCBNEW 9.0.7-9.0.7~ubuntu24.04.1) date 2026-03-08 12:20:42*
%MOMM*%
%LPD*%
G01*
G04 APERTURE LIST*
%ADD10C,0.254000*%
%ADD11C,0.150000*%
%ADD12C,0.200000*%
%ADD13C,0.120000*%
G04 APERTURE END LIST*
D10*
X141568333Y-120903365D02*
X141507857Y-120963842D01*
X141507857Y-120963842D02*
X141326428Y-121024318D01*
X141326428Y-121024318D02*
X141205476Y-121024318D01*
X141205476Y-121024318D02*
X141024047Y-120963842D01*
X141024047Y-120963842D02*
X140903095Y-120842889D01*
X140903095Y-120842889D02*
X140842618Y-120721937D01*
X140842618Y-120721937D02*
X140782142Y-120480032D01*
X140782142Y-120480032D02*
X140782142Y-120298603D01*
X140782142Y-120298603D02*
X140842618Y-120056699D01*
X140842618Y-120056699D02*
X140903095Y-119935746D01*
X140903095Y-119935746D02*
X141024047Y-119814794D01*
X141024047Y-119814794D02*
X141205476Y-119754318D01*
X141205476Y-119754318D02*
X141326428Y-119754318D01*
X141326428Y-119754318D02*
X141507857Y-119814794D01*
X141507857Y-119814794D02*
X141568333Y-119875270D01*
X141991666Y-119754318D02*
X142838333Y-119754318D01*
X142838333Y-119754318D02*
X142294047Y-121024318D01*
X133098333Y-115983365D02*
X133037857Y-116043842D01*
X133037857Y-116043842D02*
X132856428Y-116104318D01*
X132856428Y-116104318D02*
X132735476Y-116104318D01*
X132735476Y-116104318D02*
X132554047Y-116043842D01*
X132554047Y-116043842D02*
X132433095Y-115922889D01*
X132433095Y-115922889D02*
X132372618Y-115801937D01*
X132372618Y-115801937D02*
X132312142Y-115560032D01*
X132312142Y-115560032D02*
X132312142Y-115378603D01*
X132312142Y-115378603D02*
X132372618Y-115136699D01*
X132372618Y-115136699D02*
X132433095Y-115015746D01*
X132433095Y-115015746D02*
X132554047Y-114894794D01*
X132554047Y-114894794D02*
X132735476Y-114834318D01*
X132735476Y-114834318D02*
X132856428Y-114834318D01*
X132856428Y-114834318D02*
X133037857Y-114894794D01*
X133037857Y-114894794D02*
X133098333Y-114955270D01*
X134307857Y-116104318D02*
X133582142Y-116104318D01*
X133944999Y-116104318D02*
X133944999Y-114834318D01*
X133944999Y-114834318D02*
X133824047Y-115015746D01*
X133824047Y-115015746D02*
X133703095Y-115136699D01*
X133703095Y-115136699D02*
X133582142Y-115197175D01*
X132878333Y-134703365D02*
X132817857Y-134763842D01*
X132817857Y-134763842D02*
X132636428Y-134824318D01*
X132636428Y-134824318D02*
X132515476Y-134824318D01*
X132515476Y-134824318D02*
X132334047Y-134763842D01*
X132334047Y-134763842D02*
X132213095Y-134642889D01*
X132213095Y-134642889D02*
X132152618Y-134521937D01*
X132152618Y-134521937D02*
X132092142Y-134280032D01*
X132092142Y-134280032D02*
X132092142Y-134098603D01*
X132092142Y-134098603D02*
X132152618Y-133856699D01*
X132152618Y-133856699D02*
X132213095Y-133735746D01*
X132213095Y-133735746D02*
X132334047Y-133614794D01*
X132334047Y-133614794D02*
X132515476Y-133554318D01*
X132515476Y-133554318D02*
X132636428Y-133554318D01*
X132636428Y-133554318D02*
X132817857Y-133614794D01*
X132817857Y-133614794D02*
X132878333Y-133675270D01*
X134027380Y-133554318D02*
X133422618Y-133554318D01*
X133422618Y-133554318D02*
X133362142Y-134159080D01*
X133362142Y-134159080D02*
X133422618Y-134098603D01*
X133422618Y-134098603D02*
X133543571Y-134038127D01*
X133543571Y-134038127D02*
X133845952Y-134038127D01*
X133845952Y-134038127D02*
X133966904Y-134098603D01*
X133966904Y-134098603D02*
X134027380Y-134159080D01*
X134027380Y-134159080D02*
X134087857Y-134280032D01*
X134087857Y-134280032D02*
X134087857Y-134582413D01*
X134087857Y-134582413D02*
X134027380Y-134703365D01*
X134027380Y-134703365D02*
X133966904Y-134763842D01*
X133966904Y-134763842D02*
X133845952Y-134824318D01*
X133845952Y-134824318D02*
X133543571Y-134824318D01*
X133543571Y-134824318D02*
X133422618Y-134763842D01*
X133422618Y-134763842D02*
X133362142Y-134703365D01*
X151528333Y-134793365D02*
X151467857Y-134853842D01*
X151467857Y-134853842D02*
X151286428Y-134914318D01*
X151286428Y-134914318D02*
X151165476Y-134914318D01*
X151165476Y-134914318D02*
X150984047Y-134853842D01*
X150984047Y-134853842D02*
X150863095Y-134732889D01*
X150863095Y-134732889D02*
X150802618Y-134611937D01*
X150802618Y-134611937D02*
X150742142Y-134370032D01*
X150742142Y-134370032D02*
X150742142Y-134188603D01*
X150742142Y-134188603D02*
X150802618Y-133946699D01*
X150802618Y-133946699D02*
X150863095Y-133825746D01*
X150863095Y-133825746D02*
X150984047Y-133704794D01*
X150984047Y-133704794D02*
X151165476Y-133644318D01*
X151165476Y-133644318D02*
X151286428Y-133644318D01*
X151286428Y-133644318D02*
X151467857Y-133704794D01*
X151467857Y-133704794D02*
X151528333Y-133765270D01*
X152012142Y-133765270D02*
X152072618Y-133704794D01*
X152072618Y-133704794D02*
X152193571Y-133644318D01*
X152193571Y-133644318D02*
X152495952Y-133644318D01*
X152495952Y-133644318D02*
X152616904Y-133704794D01*
X152616904Y-133704794D02*
X152677380Y-133765270D01*
X152677380Y-133765270D02*
X152737857Y-133886222D01*
X152737857Y-133886222D02*
X152737857Y-134007175D01*
X152737857Y-134007175D02*
X152677380Y-134188603D01*
X152677380Y-134188603D02*
X151951666Y-134914318D01*
X151951666Y-134914318D02*
X152737857Y-134914318D01*
X150682380Y-127963842D02*
X150863809Y-128024318D01*
X150863809Y-128024318D02*
X151166190Y-128024318D01*
X151166190Y-128024318D02*
X151287142Y-127963842D01*
X151287142Y-127963842D02*
X151347618Y-127903365D01*
X151347618Y-127903365D02*
X151408095Y-127782413D01*
X151408095Y-127782413D02*
X151408095Y-127661461D01*
X151408095Y-127661461D02*
X151347618Y-127540508D01*
X151347618Y-127540508D02*
X151287142Y-127480032D01*
X151287142Y-127480032D02*
X151166190Y-127419556D01*
X151166190Y-127419556D02*
X150924285Y-127359080D01*
X150924285Y-127359080D02*
X150803333Y-127298603D01*
X150803333Y-127298603D02*
X150742856Y-127238127D01*
X150742856Y-127238127D02*
X150682380Y-127117175D01*
X150682380Y-127117175D02*
X150682380Y-126996222D01*
X150682380Y-126996222D02*
X150742856Y-126875270D01*
X150742856Y-126875270D02*
X150803333Y-126814794D01*
X150803333Y-126814794D02*
X150924285Y-126754318D01*
X150924285Y-126754318D02*
X151226666Y-126754318D01*
X151226666Y-126754318D02*
X151408095Y-126814794D01*
X151891904Y-126875270D02*
X151952380Y-126814794D01*
X151952380Y-126814794D02*
X152073333Y-126754318D01*
X152073333Y-126754318D02*
X152375714Y-126754318D01*
X152375714Y-126754318D02*
X152496666Y-126814794D01*
X152496666Y-126814794D02*
X152557142Y-126875270D01*
X152557142Y-126875270D02*
X152617619Y-126996222D01*
X152617619Y-126996222D02*
X152617619Y-127117175D01*
X152617619Y-127117175D02*
X152557142Y-127298603D01*
X152557142Y-127298603D02*
X151831428Y-128024318D01*
X151831428Y-128024318D02*
X152617619Y-128024318D01*
X132978333Y-153023365D02*
X132917857Y-153083842D01*
X132917857Y-153083842D02*
X132736428Y-153144318D01*
X132736428Y-153144318D02*
X132615476Y-153144318D01*
X132615476Y-153144318D02*
X132434047Y-153083842D01*
X132434047Y-153083842D02*
X132313095Y-152962889D01*
X132313095Y-152962889D02*
X132252618Y-152841937D01*
X132252618Y-152841937D02*
X132192142Y-152600032D01*
X132192142Y-152600032D02*
X132192142Y-152418603D01*
X132192142Y-152418603D02*
X132252618Y-152176699D01*
X132252618Y-152176699D02*
X132313095Y-152055746D01*
X132313095Y-152055746D02*
X132434047Y-151934794D01*
X132434047Y-151934794D02*
X132615476Y-151874318D01*
X132615476Y-151874318D02*
X132736428Y-151874318D01*
X132736428Y-151874318D02*
X132917857Y-151934794D01*
X132917857Y-151934794D02*
X132978333Y-151995270D01*
X133401666Y-151874318D02*
X134187857Y-151874318D01*
X134187857Y-151874318D02*
X133764523Y-152358127D01*
X133764523Y-152358127D02*
X133945952Y-152358127D01*
X133945952Y-152358127D02*
X134066904Y-152418603D01*
X134066904Y-152418603D02*
X134127380Y-152479080D01*
X134127380Y-152479080D02*
X134187857Y-152600032D01*
X134187857Y-152600032D02*
X134187857Y-152902413D01*
X134187857Y-152902413D02*
X134127380Y-153023365D01*
X134127380Y-153023365D02*
X134066904Y-153083842D01*
X134066904Y-153083842D02*
X133945952Y-153144318D01*
X133945952Y-153144318D02*
X133583095Y-153144318D01*
X133583095Y-153144318D02*
X133462142Y-153083842D01*
X133462142Y-153083842D02*
X133401666Y-153023365D01*
X133213365Y-119151666D02*
X133273842Y-119212142D01*
X133273842Y-119212142D02*
X133334318Y-119393571D01*
X133334318Y-119393571D02*
X133334318Y-119514523D01*
X133334318Y-119514523D02*
X133273842Y-119695952D01*
X133273842Y-119695952D02*
X133152889Y-119816904D01*
X133152889Y-119816904D02*
X133031937Y-119877381D01*
X133031937Y-119877381D02*
X132790032Y-119937857D01*
X132790032Y-119937857D02*
X132608603Y-119937857D01*
X132608603Y-119937857D02*
X132366699Y-119877381D01*
X132366699Y-119877381D02*
X132245746Y-119816904D01*
X132245746Y-119816904D02*
X132124794Y-119695952D01*
X132124794Y-119695952D02*
X132064318Y-119514523D01*
X132064318Y-119514523D02*
X132064318Y-119393571D01*
X132064318Y-119393571D02*
X132124794Y-119212142D01*
X132124794Y-119212142D02*
X132185270Y-119151666D01*
X132064318Y-118063095D02*
X132064318Y-118305000D01*
X132064318Y-118305000D02*
X132124794Y-118425952D01*
X132124794Y-118425952D02*
X132185270Y-118486428D01*
X132185270Y-118486428D02*
X132366699Y-118607381D01*
X132366699Y-118607381D02*
X132608603Y-118667857D01*
X132608603Y-118667857D02*
X133092413Y-118667857D01*
X133092413Y-118667857D02*
X133213365Y-118607381D01*
X133213365Y-118607381D02*
X133273842Y-118546904D01*
X133273842Y-118546904D02*
X133334318Y-118425952D01*
X133334318Y-118425952D02*
X133334318Y-118184047D01*
X133334318Y-118184047D02*
X133273842Y-118063095D01*
X133273842Y-118063095D02*
X133213365Y-118002619D01*
X133213365Y-118002619D02*
X133092413Y-117942142D01*
X133092413Y-117942142D02*
X132790032Y-117942142D01*
X132790032Y-117942142D02*
X132669080Y-118002619D01*
X132669080Y-118002619D02*
X132608603Y-118063095D01*
X132608603Y-118063095D02*
X132548127Y-118184047D01*
X132548127Y-118184047D02*
X132548127Y-118425952D01*
X132548127Y-118425952D02*
X132608603Y-118546904D01*
X132608603Y-118546904D02*
X132669080Y-118607381D01*
X132669080Y-118607381D02*
X132790032Y-118667857D01*
X132382380Y-109553842D02*
X132563809Y-109614318D01*
X132563809Y-109614318D02*
X132866190Y-109614318D01*
X132866190Y-109614318D02*
X132987142Y-109553842D01*
X132987142Y-109553842D02*
X133047618Y-109493365D01*
X133047618Y-109493365D02*
X133108095Y-109372413D01*
X133108095Y-109372413D02*
X133108095Y-109251461D01*
X133108095Y-109251461D02*
X133047618Y-109130508D01*
X133047618Y-109130508D02*
X132987142Y-109070032D01*
X132987142Y-109070032D02*
X132866190Y-109009556D01*
X132866190Y-109009556D02*
X132624285Y-108949080D01*
X132624285Y-108949080D02*
X132503333Y-108888603D01*
X132503333Y-108888603D02*
X132442856Y-108828127D01*
X132442856Y-108828127D02*
X132382380Y-108707175D01*
X132382380Y-108707175D02*
X132382380Y-108586222D01*
X132382380Y-108586222D02*
X132442856Y-108465270D01*
X132442856Y-108465270D02*
X132503333Y-108404794D01*
X132503333Y-108404794D02*
X132624285Y-108344318D01*
X132624285Y-108344318D02*
X132926666Y-108344318D01*
X132926666Y-108344318D02*
X133108095Y-108404794D01*
X134317619Y-109614318D02*
X133591904Y-109614318D01*
X133954761Y-109614318D02*
X133954761Y-108344318D01*
X133954761Y-108344318D02*
X133833809Y-108525746D01*
X133833809Y-108525746D02*
X133712857Y-108646699D01*
X133712857Y-108646699D02*
X133591904Y-108707175D01*
X107619047Y-118795270D02*
X107498095Y-118734794D01*
X107498095Y-118734794D02*
X107377142Y-118613842D01*
X107377142Y-118613842D02*
X107195714Y-118432413D01*
X107195714Y-118432413D02*
X107074761Y-118371937D01*
X107074761Y-118371937D02*
X106953809Y-118371937D01*
X107014285Y-118674318D02*
X106893333Y-118613842D01*
X106893333Y-118613842D02*
X106772380Y-118492889D01*
X106772380Y-118492889D02*
X106711904Y-118250984D01*
X106711904Y-118250984D02*
X106711904Y-117827651D01*
X106711904Y-117827651D02*
X106772380Y-117585746D01*
X106772380Y-117585746D02*
X106893333Y-117464794D01*
X106893333Y-117464794D02*
X107014285Y-117404318D01*
X107014285Y-117404318D02*
X107256190Y-117404318D01*
X107256190Y-117404318D02*
X107377142Y-117464794D01*
X107377142Y-117464794D02*
X107498095Y-117585746D01*
X107498095Y-117585746D02*
X107558571Y-117827651D01*
X107558571Y-117827651D02*
X107558571Y-118250984D01*
X107558571Y-118250984D02*
X107498095Y-118492889D01*
X107498095Y-118492889D02*
X107377142Y-118613842D01*
X107377142Y-118613842D02*
X107256190Y-118674318D01*
X107256190Y-118674318D02*
X107014285Y-118674318D01*
X108768095Y-118674318D02*
X108042380Y-118674318D01*
X108405237Y-118674318D02*
X108405237Y-117404318D01*
X108405237Y-117404318D02*
X108284285Y-117585746D01*
X108284285Y-117585746D02*
X108163333Y-117706699D01*
X108163333Y-117706699D02*
X108042380Y-117767175D01*
D11*
X158688095Y-103284819D02*
X159259523Y-103284819D01*
X158973809Y-104284819D02*
X158973809Y-103284819D01*
X159592857Y-104284819D02*
X159592857Y-103284819D01*
X159592857Y-103284819D02*
X159973809Y-103284819D01*
X159973809Y-103284819D02*
X160069047Y-103332438D01*
X160069047Y-103332438D02*
X160116666Y-103380057D01*
X160116666Y-103380057D02*
X160164285Y-103475295D01*
X160164285Y-103475295D02*
X160164285Y-103618152D01*
X160164285Y-103618152D02*
X160116666Y-103713390D01*
X160116666Y-103713390D02*
X160069047Y-103761009D01*
X160069047Y-103761009D02*
X159973809Y-103808628D01*
X159973809Y-103808628D02*
X159592857Y-103808628D01*
X161116666Y-104284819D02*
X160545238Y-104284819D01*
X160830952Y-104284819D02*
X160830952Y-103284819D01*
X160830952Y-103284819D02*
X160735714Y-103427676D01*
X160735714Y-103427676D02*
X160640476Y-103522914D01*
X160640476Y-103522914D02*
X160545238Y-103570533D01*
D10*
X140276667Y-110224318D02*
X140276667Y-111131461D01*
X140276667Y-111131461D02*
X140216190Y-111312889D01*
X140216190Y-111312889D02*
X140095238Y-111433842D01*
X140095238Y-111433842D02*
X139913809Y-111494318D01*
X139913809Y-111494318D02*
X139792857Y-111494318D01*
X141546667Y-111494318D02*
X140820952Y-111494318D01*
X141183809Y-111494318D02*
X141183809Y-110224318D01*
X141183809Y-110224318D02*
X141062857Y-110405746D01*
X141062857Y-110405746D02*
X140941905Y-110526699D01*
X140941905Y-110526699D02*
X140820952Y-110587175D01*
X141078809Y-152074318D02*
X140474047Y-152074318D01*
X140474047Y-152074318D02*
X140474047Y-150804318D01*
X141502142Y-151409080D02*
X141925476Y-151409080D01*
X142106904Y-152074318D02*
X141502142Y-152074318D01*
X141502142Y-152074318D02*
X141502142Y-150804318D01*
X141502142Y-150804318D02*
X142106904Y-150804318D01*
X142651190Y-152074318D02*
X142651190Y-150804318D01*
X142651190Y-150804318D02*
X142953571Y-150804318D01*
X142953571Y-150804318D02*
X143135000Y-150864794D01*
X143135000Y-150864794D02*
X143255952Y-150985746D01*
X143255952Y-150985746D02*
X143316429Y-151106699D01*
X143316429Y-151106699D02*
X143376905Y-151348603D01*
X143376905Y-151348603D02*
X143376905Y-151530032D01*
X143376905Y-151530032D02*
X143316429Y-151771937D01*
X143316429Y-151771937D02*
X143255952Y-151892889D01*
X143255952Y-151892889D02*
X143135000Y-152013842D01*
X143135000Y-152013842D02*
X142953571Y-152074318D01*
X142953571Y-152074318D02*
X142651190Y-152074318D01*
X144586429Y-152074318D02*
X143860714Y-152074318D01*
X144223571Y-152074318D02*
X144223571Y-150804318D01*
X144223571Y-150804318D02*
X144102619Y-150985746D01*
X144102619Y-150985746D02*
X143981667Y-151106699D01*
X143981667Y-151106699D02*
X143860714Y-151167175D01*
X114168333Y-134883365D02*
X114107857Y-134943842D01*
X114107857Y-134943842D02*
X113926428Y-135004318D01*
X113926428Y-135004318D02*
X113805476Y-135004318D01*
X113805476Y-135004318D02*
X113624047Y-134943842D01*
X113624047Y-134943842D02*
X113503095Y-134822889D01*
X113503095Y-134822889D02*
X113442618Y-134701937D01*
X113442618Y-134701937D02*
X113382142Y-134460032D01*
X113382142Y-134460032D02*
X113382142Y-134278603D01*
X113382142Y-134278603D02*
X113442618Y-134036699D01*
X113442618Y-134036699D02*
X113503095Y-133915746D01*
X113503095Y-133915746D02*
X113624047Y-133794794D01*
X113624047Y-133794794D02*
X113805476Y-133734318D01*
X113805476Y-133734318D02*
X113926428Y-133734318D01*
X113926428Y-133734318D02*
X114107857Y-133794794D01*
X114107857Y-133794794D02*
X114168333Y-133855270D01*
X115256904Y-134157651D02*
X115256904Y-135004318D01*
X114954523Y-133673842D02*
X114652142Y-134580984D01*
X114652142Y-134580984D02*
X115438333Y-134580984D01*
X132182380Y-128233842D02*
X132363809Y-128294318D01*
X132363809Y-128294318D02*
X132666190Y-128294318D01*
X132666190Y-128294318D02*
X132787142Y-128233842D01*
X132787142Y-128233842D02*
X132847618Y-128173365D01*
X132847618Y-128173365D02*
X132908095Y-128052413D01*
X132908095Y-128052413D02*
X132908095Y-127931461D01*
X132908095Y-127931461D02*
X132847618Y-127810508D01*
X132847618Y-127810508D02*
X132787142Y-127750032D01*
X132787142Y-127750032D02*
X132666190Y-127689556D01*
X132666190Y-127689556D02*
X132424285Y-127629080D01*
X132424285Y-127629080D02*
X132303333Y-127568603D01*
X132303333Y-127568603D02*
X132242856Y-127508127D01*
X132242856Y-127508127D02*
X132182380Y-127387175D01*
X132182380Y-127387175D02*
X132182380Y-127266222D01*
X132182380Y-127266222D02*
X132242856Y-127145270D01*
X132242856Y-127145270D02*
X132303333Y-127084794D01*
X132303333Y-127084794D02*
X132424285Y-127024318D01*
X132424285Y-127024318D02*
X132726666Y-127024318D01*
X132726666Y-127024318D02*
X132908095Y-127084794D01*
X134057142Y-127024318D02*
X133452380Y-127024318D01*
X133452380Y-127024318D02*
X133391904Y-127629080D01*
X133391904Y-127629080D02*
X133452380Y-127568603D01*
X133452380Y-127568603D02*
X133573333Y-127508127D01*
X133573333Y-127508127D02*
X133875714Y-127508127D01*
X133875714Y-127508127D02*
X133996666Y-127568603D01*
X133996666Y-127568603D02*
X134057142Y-127629080D01*
X134057142Y-127629080D02*
X134117619Y-127750032D01*
X134117619Y-127750032D02*
X134117619Y-128052413D01*
X134117619Y-128052413D02*
X134057142Y-128173365D01*
X134057142Y-128173365D02*
X133996666Y-128233842D01*
X133996666Y-128233842D02*
X133875714Y-128294318D01*
X133875714Y-128294318D02*
X133573333Y-128294318D01*
X133573333Y-128294318D02*
X133452380Y-128233842D01*
X133452380Y-128233842D02*
X133391904Y-128173365D01*
X121780237Y-113094318D02*
X121780237Y-111824318D01*
X123110714Y-112973365D02*
X123050238Y-113033842D01*
X123050238Y-113033842D02*
X122868809Y-113094318D01*
X122868809Y-113094318D02*
X122747857Y-113094318D01*
X122747857Y-113094318D02*
X122566428Y-113033842D01*
X122566428Y-113033842D02*
X122445476Y-112912889D01*
X122445476Y-112912889D02*
X122384999Y-112791937D01*
X122384999Y-112791937D02*
X122324523Y-112550032D01*
X122324523Y-112550032D02*
X122324523Y-112368603D01*
X122324523Y-112368603D02*
X122384999Y-112126699D01*
X122384999Y-112126699D02*
X122445476Y-112005746D01*
X122445476Y-112005746D02*
X122566428Y-111884794D01*
X122566428Y-111884794D02*
X122747857Y-111824318D01*
X122747857Y-111824318D02*
X122868809Y-111824318D01*
X122868809Y-111824318D02*
X123050238Y-111884794D01*
X123050238Y-111884794D02*
X123110714Y-111945270D01*
X124320238Y-113094318D02*
X123594523Y-113094318D01*
X123957380Y-113094318D02*
X123957380Y-111824318D01*
X123957380Y-111824318D02*
X123836428Y-112005746D01*
X123836428Y-112005746D02*
X123715476Y-112126699D01*
X123715476Y-112126699D02*
X123594523Y-112187175D01*
X141678333Y-142394318D02*
X141254999Y-141789556D01*
X140952618Y-142394318D02*
X140952618Y-141124318D01*
X140952618Y-141124318D02*
X141436428Y-141124318D01*
X141436428Y-141124318D02*
X141557380Y-141184794D01*
X141557380Y-141184794D02*
X141617857Y-141245270D01*
X141617857Y-141245270D02*
X141678333Y-141366222D01*
X141678333Y-141366222D02*
X141678333Y-141547651D01*
X141678333Y-141547651D02*
X141617857Y-141668603D01*
X141617857Y-141668603D02*
X141557380Y-141729080D01*
X141557380Y-141729080D02*
X141436428Y-141789556D01*
X141436428Y-141789556D02*
X140952618Y-141789556D01*
X142766904Y-141124318D02*
X142524999Y-141124318D01*
X142524999Y-141124318D02*
X142404047Y-141184794D01*
X142404047Y-141184794D02*
X142343571Y-141245270D01*
X142343571Y-141245270D02*
X142222618Y-141426699D01*
X142222618Y-141426699D02*
X142162142Y-141668603D01*
X142162142Y-141668603D02*
X142162142Y-142152413D01*
X142162142Y-142152413D02*
X142222618Y-142273365D01*
X142222618Y-142273365D02*
X142283095Y-142333842D01*
X142283095Y-142333842D02*
X142404047Y-142394318D01*
X142404047Y-142394318D02*
X142645952Y-142394318D01*
X142645952Y-142394318D02*
X142766904Y-142333842D01*
X142766904Y-142333842D02*
X142827380Y-142273365D01*
X142827380Y-142273365D02*
X142887857Y-142152413D01*
X142887857Y-142152413D02*
X142887857Y-141850032D01*
X142887857Y-141850032D02*
X142827380Y-141729080D01*
X142827380Y-141729080D02*
X142766904Y-141668603D01*
X142766904Y-141668603D02*
X142645952Y-141608127D01*
X142645952Y-141608127D02*
X142404047Y-141608127D01*
X142404047Y-141608127D02*
X142283095Y-141668603D01*
X142283095Y-141668603D02*
X142222618Y-141729080D01*
X142222618Y-141729080D02*
X142162142Y-141850032D01*
X132352380Y-146733842D02*
X132533809Y-146794318D01*
X132533809Y-146794318D02*
X132836190Y-146794318D01*
X132836190Y-146794318D02*
X132957142Y-146733842D01*
X132957142Y-146733842D02*
X133017618Y-146673365D01*
X133017618Y-146673365D02*
X133078095Y-146552413D01*
X133078095Y-146552413D02*
X133078095Y-146431461D01*
X133078095Y-146431461D02*
X133017618Y-146310508D01*
X133017618Y-146310508D02*
X132957142Y-146250032D01*
X132957142Y-146250032D02*
X132836190Y-146189556D01*
X132836190Y-146189556D02*
X132594285Y-146129080D01*
X132594285Y-146129080D02*
X132473333Y-146068603D01*
X132473333Y-146068603D02*
X132412856Y-146008127D01*
X132412856Y-146008127D02*
X132352380Y-145887175D01*
X132352380Y-145887175D02*
X132352380Y-145766222D01*
X132352380Y-145766222D02*
X132412856Y-145645270D01*
X132412856Y-145645270D02*
X132473333Y-145584794D01*
X132473333Y-145584794D02*
X132594285Y-145524318D01*
X132594285Y-145524318D02*
X132896666Y-145524318D01*
X132896666Y-145524318D02*
X133078095Y-145584794D01*
X133501428Y-145524318D02*
X134287619Y-145524318D01*
X134287619Y-145524318D02*
X133864285Y-146008127D01*
X133864285Y-146008127D02*
X134045714Y-146008127D01*
X134045714Y-146008127D02*
X134166666Y-146068603D01*
X134166666Y-146068603D02*
X134227142Y-146129080D01*
X134227142Y-146129080D02*
X134287619Y-146250032D01*
X134287619Y-146250032D02*
X134287619Y-146552413D01*
X134287619Y-146552413D02*
X134227142Y-146673365D01*
X134227142Y-146673365D02*
X134166666Y-146733842D01*
X134166666Y-146733842D02*
X134045714Y-146794318D01*
X134045714Y-146794318D02*
X133682857Y-146794318D01*
X133682857Y-146794318D02*
X133561904Y-146733842D01*
X133561904Y-146733842D02*
X133501428Y-146673365D01*
X113722380Y-128183842D02*
X113903809Y-128244318D01*
X113903809Y-128244318D02*
X114206190Y-128244318D01*
X114206190Y-128244318D02*
X114327142Y-128183842D01*
X114327142Y-128183842D02*
X114387618Y-128123365D01*
X114387618Y-128123365D02*
X114448095Y-128002413D01*
X114448095Y-128002413D02*
X114448095Y-127881461D01*
X114448095Y-127881461D02*
X114387618Y-127760508D01*
X114387618Y-127760508D02*
X114327142Y-127700032D01*
X114327142Y-127700032D02*
X114206190Y-127639556D01*
X114206190Y-127639556D02*
X113964285Y-127579080D01*
X113964285Y-127579080D02*
X113843333Y-127518603D01*
X113843333Y-127518603D02*
X113782856Y-127458127D01*
X113782856Y-127458127D02*
X113722380Y-127337175D01*
X113722380Y-127337175D02*
X113722380Y-127216222D01*
X113722380Y-127216222D02*
X113782856Y-127095270D01*
X113782856Y-127095270D02*
X113843333Y-127034794D01*
X113843333Y-127034794D02*
X113964285Y-126974318D01*
X113964285Y-126974318D02*
X114266666Y-126974318D01*
X114266666Y-126974318D02*
X114448095Y-127034794D01*
X115536666Y-127397651D02*
X115536666Y-128244318D01*
X115234285Y-126913842D02*
X114931904Y-127820984D01*
X114931904Y-127820984D02*
X115718095Y-127820984D01*
D12*
%TO.C,R2*%
X144400000Y-129775000D02*
X144400000Y-129775000D01*
X144600000Y-129775000D02*
X144600000Y-129775000D01*
X144400000Y-129775000D02*
G75*
G02*
X144600000Y-129775000I100000J0D01*
G01*
X144600000Y-129775000D02*
G75*
G02*
X144400000Y-129775000I-100000J0D01*
G01*
%TO.C,R4*%
X107400000Y-125575000D02*
X107400000Y-125575000D01*
X107600000Y-125575000D02*
X107600000Y-125575000D01*
X107400000Y-125575000D02*
G75*
G02*
X107600000Y-125575000I100000J0D01*
G01*
X107600000Y-125575000D02*
G75*
G02*
X107400000Y-125575000I-100000J0D01*
G01*
%TO.C,R3*%
X125900000Y-148275000D02*
X125900000Y-148275000D01*
X126100000Y-148275000D02*
X126100000Y-148275000D01*
X125900000Y-148275000D02*
G75*
G02*
X126100000Y-148275000I100000J0D01*
G01*
X126100000Y-148275000D02*
G75*
G02*
X125900000Y-148275000I-100000J0D01*
G01*
%TO.C,S2*%
X148750000Y-126050000D02*
X148750000Y-128450000D01*
X149250000Y-124250000D02*
X154250000Y-124250000D01*
X149250000Y-130250000D02*
X154250000Y-130250000D01*
X154750000Y-126050000D02*
X154750000Y-128450000D01*
X156379880Y-130523000D02*
G75*
G02*
X156174120Y-130523000I-102880J0D01*
G01*
X156174120Y-130523000D02*
G75*
G02*
X156379880Y-130523000I102880J0D01*
G01*
%TO.C,C6*%
X128950000Y-118925000D02*
X128950000Y-117525000D01*
X129650000Y-120625000D02*
X129650000Y-120625000D01*
X129850000Y-120625000D02*
X129850000Y-120625000D01*
X130550000Y-118925000D02*
X130550000Y-117525000D01*
X129650000Y-120625000D02*
G75*
G02*
X129850000Y-120625000I100000J0D01*
G01*
X129850000Y-120625000D02*
G75*
G02*
X129650000Y-120625000I-100000J0D01*
G01*
%TO.C,S1*%
X130250000Y-107550000D02*
X130250000Y-109950000D01*
X130750000Y-105750000D02*
X135750000Y-105750000D01*
X130750000Y-111750000D02*
X135750000Y-111750000D01*
X136250000Y-107550000D02*
X136250000Y-109950000D01*
X137879880Y-112023000D02*
G75*
G02*
X137674120Y-112023000I-102880J0D01*
G01*
X137674120Y-112023000D02*
G75*
G02*
X137879880Y-112023000I102880J0D01*
G01*
%TO.C,Q1*%
X110750000Y-116750000D02*
X112050000Y-116750000D01*
X112400000Y-116790000D02*
X112500000Y-116790000D01*
X112400000Y-119710000D02*
X112400000Y-116790000D01*
X112500000Y-116790000D02*
X112500000Y-119710000D01*
X112500000Y-119710000D02*
X112400000Y-119710000D01*
%TO.C,R1*%
X125650000Y-107075000D02*
X125650000Y-107075000D01*
X125850000Y-107075000D02*
X125850000Y-107075000D01*
X125650000Y-107075000D02*
G75*
G02*
X125850000Y-107075000I100000J0D01*
G01*
X125850000Y-107075000D02*
G75*
G02*
X125650000Y-107075000I-100000J0D01*
G01*
%TO.C,R5*%
X125900000Y-129775000D02*
X125900000Y-129775000D01*
X126100000Y-129775000D02*
X126100000Y-129775000D01*
X125900000Y-129775000D02*
G75*
G02*
X126100000Y-129775000I100000J0D01*
G01*
X126100000Y-129775000D02*
G75*
G02*
X125900000Y-129775000I-100000J0D01*
G01*
%TO.C,J2*%
X142320000Y-106240000D02*
X142320000Y-104840000D01*
X142320000Y-106240000D02*
X143945000Y-106240000D01*
X149345000Y-101990000D02*
X143545000Y-101990000D01*
X150570000Y-106240000D02*
X148945000Y-106240000D01*
X150570000Y-106240000D02*
X150570000Y-104840000D01*
D13*
%TO.C,TP1*%
X154180000Y-102680000D02*
X156580000Y-102680000D01*
X154180000Y-105080000D02*
X154180000Y-102680000D01*
X156580000Y-102680000D02*
X156580000Y-105080000D01*
X156580000Y-105080000D02*
X154180000Y-105080000D01*
D12*
%TO.C,J1*%
X141610000Y-108470000D02*
X141610000Y-109840000D01*
X141610000Y-118830000D02*
X151970000Y-118830000D01*
X151970000Y-108470000D02*
X141610000Y-108470000D01*
%TO.C,LED1*%
X141550000Y-150050000D02*
X144250000Y-150050000D01*
X144250000Y-147950000D02*
X141550000Y-147950000D01*
X144250000Y-150050000D02*
X144250000Y-147950000D01*
%TO.C,S5*%
X130250000Y-126050000D02*
X130250000Y-128450000D01*
X130750000Y-124250000D02*
X135750000Y-124250000D01*
X130750000Y-130250000D02*
X135750000Y-130250000D01*
X136250000Y-126050000D02*
X136250000Y-128450000D01*
X137879880Y-130523000D02*
G75*
G02*
X137674120Y-130523000I-102880J0D01*
G01*
X137674120Y-130523000D02*
G75*
G02*
X137879880Y-130523000I102880J0D01*
G01*
%TO.C,IC1*%
X117650000Y-114135000D02*
X118950000Y-114135000D01*
X119898000Y-113998000D02*
X123402000Y-113998000D01*
X119898000Y-120502000D02*
X119898000Y-113998000D01*
X123402000Y-113998000D02*
X123402000Y-120502000D01*
X123402000Y-120502000D02*
X119898000Y-120502000D01*
%TO.C,R6*%
X140475000Y-143900000D02*
X140475000Y-143900000D01*
X140475000Y-144100000D02*
X140475000Y-144100000D01*
X142675000Y-143475000D02*
X142675000Y-144525000D01*
X140475000Y-143900000D02*
G75*
G02*
X140475000Y-144100000I0J-100000D01*
G01*
X140475000Y-144100000D02*
G75*
G02*
X140475000Y-143900000I0J100000D01*
G01*
%TO.C,S3*%
X130250000Y-144550000D02*
X130250000Y-146950000D01*
X130750000Y-142750000D02*
X135750000Y-142750000D01*
X130750000Y-148750000D02*
X135750000Y-148750000D01*
X136250000Y-144550000D02*
X136250000Y-146950000D01*
X137879880Y-149023000D02*
G75*
G02*
X137674120Y-149023000I-102880J0D01*
G01*
X137674120Y-149023000D02*
G75*
G02*
X137879880Y-149023000I102880J0D01*
G01*
%TO.C,S4*%
X111750000Y-126050000D02*
X111750000Y-128450000D01*
X112250000Y-124250000D02*
X117250000Y-124250000D01*
X112250000Y-130250000D02*
X117250000Y-130250000D01*
X117750000Y-126050000D02*
X117750000Y-128450000D01*
X119379880Y-130523000D02*
G75*
G02*
X119174120Y-130523000I-102880J0D01*
G01*
X119174120Y-130523000D02*
G75*
G02*
X119379880Y-130523000I102880J0D01*
G01*
%TD*%
M02*
