%TF.GenerationSoftware,KiCad,Pcbnew,9.0.7-9.0.7~ubuntu24.04.1*%
%TF.CreationDate,2026-03-08T12:20:42-06:00*%
%TF.ProjectId,controller_pcb,636f6e74-726f-46c6-9c65-725f7063622e,rev?*%
%TF.SameCoordinates,Original*%
%TF.FileFunction,Legend,Bot*%
%TF.FilePolarity,Positive*%
%FSLAX46Y46*%
G04 Gerber Fmt 4.6, Leading zero omitted, Abs format (unit mm)*
G04 Created by KiCad (PCBNEW 9.0.7-9.0.7~ubuntu24.04.1) date 2026-03-08 12:20:42*
%MOMM*%
%LPD*%
G01*
G04 APERTURE LIST*
%ADD10C,0.000000*%
G04 APERTURE END LIST*
D10*
%TO.C,G\u002A\u002A\u002A*%
G36*
X129752887Y-127550447D02*
G01*
X129808988Y-127570091D01*
X129854446Y-127623992D01*
X129865405Y-127733262D01*
X129865405Y-127887836D01*
X129657746Y-127874512D01*
X129594350Y-127869800D01*
X129497515Y-127852567D01*
X129453023Y-127814673D01*
X129436289Y-127741333D01*
X129439023Y-127684184D01*
X129497026Y-127592291D01*
X129608447Y-127543613D01*
X129752887Y-127550447D01*
G37*
G36*
X135949159Y-127749257D02*
G01*
X136004026Y-127832134D01*
X136033707Y-127891954D01*
X136067743Y-127990661D01*
X136048921Y-128044023D01*
X135974958Y-128070781D01*
X135909974Y-128083513D01*
X135851091Y-128095681D01*
X135816725Y-128092671D01*
X135795124Y-128032902D01*
X135820553Y-127912118D01*
X135856168Y-127816049D01*
X135902725Y-127742652D01*
X135949159Y-127749257D01*
G37*
G36*
X131370893Y-127769621D02*
G01*
X131422771Y-127850699D01*
X131465318Y-127947747D01*
X131482961Y-128033887D01*
X131458501Y-128080785D01*
X131359094Y-128101634D01*
X131267907Y-128094754D01*
X131209652Y-128076059D01*
X131207626Y-128073351D01*
X131206918Y-128012582D01*
X131230884Y-127912160D01*
X131268899Y-127807981D01*
X131310337Y-127735940D01*
X131325257Y-127731394D01*
X131370893Y-127769621D01*
G37*
G36*
X127882165Y-130342319D02*
G01*
X127924024Y-130373726D01*
X127970327Y-130447621D01*
X128029314Y-130577318D01*
X128109227Y-130776129D01*
X128176869Y-130955231D01*
X128230914Y-131121702D01*
X128250917Y-131227144D01*
X128239400Y-131281350D01*
X128207916Y-131301601D01*
X128103690Y-131326474D01*
X127958283Y-131338896D01*
X127797288Y-131339215D01*
X127646295Y-131327777D01*
X127530895Y-131304928D01*
X127476681Y-131271017D01*
X127475756Y-131233023D01*
X127496537Y-131122026D01*
X127539084Y-130963847D01*
X127598277Y-130779192D01*
X127624846Y-130703021D01*
X127690587Y-130528485D01*
X127743038Y-130419189D01*
X127789953Y-130360979D01*
X127839088Y-130339700D01*
X127882165Y-130342319D01*
G37*
G36*
X132593989Y-111776756D02*
G01*
X132725201Y-111796069D01*
X132798709Y-111821985D01*
X132842092Y-111845883D01*
X132956254Y-111888645D01*
X133100517Y-111929692D01*
X133340965Y-111988477D01*
X133187953Y-112019987D01*
X133159655Y-112024625D01*
X133024035Y-112034821D01*
X132842309Y-112037687D01*
X132645694Y-112032503D01*
X132605689Y-112030599D01*
X132383521Y-112021340D01*
X132164190Y-112014011D01*
X131989928Y-112010059D01*
X131868401Y-112005150D01*
X131793227Y-111994755D01*
X131788985Y-111981328D01*
X131803726Y-111975012D01*
X131894091Y-111927593D01*
X132007574Y-111860217D01*
X132010289Y-111858523D01*
X132126911Y-111801698D01*
X132261836Y-111774108D01*
X132448967Y-111768725D01*
X132593989Y-111776756D01*
G37*
G36*
X140536789Y-129983698D02*
G01*
X140652065Y-129990774D01*
X140717696Y-130006827D01*
X140750498Y-130035356D01*
X140767283Y-130079862D01*
X140781557Y-130144180D01*
X140793740Y-130298218D01*
X140775479Y-130424359D01*
X140729325Y-130494710D01*
X140698865Y-130504207D01*
X140589249Y-130519667D01*
X140427867Y-130531709D01*
X140237500Y-130538313D01*
X140133087Y-130539197D01*
X139910712Y-130531026D01*
X139759616Y-130503488D01*
X139668690Y-130451425D01*
X139626823Y-130369682D01*
X139622906Y-130253104D01*
X139629542Y-130201822D01*
X139664020Y-130109752D01*
X139735641Y-130046749D01*
X139856861Y-130007813D01*
X140040133Y-129987943D01*
X140297914Y-129982141D01*
X140355058Y-129982097D01*
X140536789Y-129983698D01*
G37*
G36*
X136041423Y-130359969D02*
G01*
X136087486Y-130421603D01*
X136144235Y-130537863D01*
X136220819Y-130722682D01*
X136260788Y-130824163D01*
X136333179Y-131024668D01*
X136370418Y-131163970D01*
X136375196Y-131254228D01*
X136350202Y-131307601D01*
X136344582Y-131310949D01*
X136273192Y-131324068D01*
X136142978Y-131333273D01*
X135977229Y-131336746D01*
X135868323Y-131335638D01*
X135724215Y-131326562D01*
X135642801Y-131305965D01*
X135608178Y-131271017D01*
X135607253Y-131233023D01*
X135628035Y-131122026D01*
X135670581Y-130963847D01*
X135729774Y-130779192D01*
X135753410Y-130711345D01*
X135820144Y-130533408D01*
X135873302Y-130421516D01*
X135920521Y-130361665D01*
X135969442Y-130339850D01*
X135996899Y-130339027D01*
X136041423Y-130359969D01*
G37*
G36*
X140434819Y-131339142D02*
G01*
X140600479Y-131346147D01*
X140713628Y-131356651D01*
X140756809Y-131369535D01*
X140763011Y-131425258D01*
X140769696Y-131546867D01*
X140773655Y-131693606D01*
X140774508Y-131837358D01*
X140771875Y-131950008D01*
X140765376Y-132003442D01*
X140765324Y-132003526D01*
X140716081Y-132016228D01*
X140597271Y-132026626D01*
X140426641Y-132033650D01*
X140221940Y-132036230D01*
X140065880Y-132035868D01*
X139890599Y-132032554D01*
X139773219Y-132023225D01*
X139695953Y-132004860D01*
X139641013Y-131974433D01*
X139590613Y-131928923D01*
X139561450Y-131897067D01*
X139491446Y-131756902D01*
X139508053Y-131611394D01*
X139611096Y-131464537D01*
X139659466Y-131417874D01*
X139713609Y-131378642D01*
X139780583Y-131354673D01*
X139879039Y-131342207D01*
X140027629Y-131337485D01*
X140245003Y-131336746D01*
X140434819Y-131339142D01*
G37*
G36*
X139109545Y-114651721D02*
G01*
X139243907Y-114717522D01*
X139253529Y-114723277D01*
X139392902Y-114793662D01*
X139541931Y-114852869D01*
X139580411Y-114866555D01*
X139661745Y-114905540D01*
X139681681Y-114933666D01*
X139679645Y-114935261D01*
X139618484Y-114955600D01*
X139497295Y-114982633D01*
X139339940Y-115010963D01*
X139321968Y-115013721D01*
X139180670Y-115029278D01*
X138999107Y-115042196D01*
X138795498Y-115052047D01*
X138588059Y-115058404D01*
X138395006Y-115060841D01*
X138234557Y-115058931D01*
X138124929Y-115052248D01*
X138084338Y-115040366D01*
X138084495Y-115037298D01*
X138126057Y-114979471D01*
X138220467Y-114920324D01*
X138337690Y-114878988D01*
X138342626Y-114877883D01*
X138445168Y-114844726D01*
X138501735Y-114808082D01*
X138538762Y-114783250D01*
X138628393Y-114767727D01*
X138733076Y-114749664D01*
X138855331Y-114702420D01*
X138860535Y-114699719D01*
X138995523Y-114646322D01*
X139109545Y-114651721D01*
G37*
G36*
X143686305Y-120018123D02*
G01*
X143691035Y-120369159D01*
X143694996Y-120768432D01*
X143698306Y-121220297D01*
X143701084Y-121729109D01*
X143703446Y-122299223D01*
X143705512Y-122934995D01*
X143707398Y-123640781D01*
X143709223Y-124420935D01*
X143711105Y-125279814D01*
X143713161Y-126221772D01*
X143714331Y-126774179D01*
X143715733Y-127553880D01*
X143716094Y-127754930D01*
X143717257Y-128651505D01*
X143717812Y-129466038D01*
X143717749Y-130200661D01*
X143717687Y-130259143D01*
X143717058Y-130857506D01*
X143715731Y-131438707D01*
X143713758Y-131946394D01*
X143711130Y-132382703D01*
X143707837Y-132749763D01*
X143703872Y-133049709D01*
X143699223Y-133284673D01*
X143693882Y-133456788D01*
X143687841Y-133568185D01*
X143681088Y-133620998D01*
X143632980Y-133784939D01*
X133785131Y-133784939D01*
X133610846Y-133784937D01*
X132475799Y-133784807D01*
X131425124Y-133784464D01*
X130456150Y-133783895D01*
X129566207Y-133783086D01*
X128752625Y-133782023D01*
X128012732Y-133780690D01*
X127343859Y-133779075D01*
X126743334Y-133777163D01*
X126208487Y-133774939D01*
X125736649Y-133772391D01*
X125325148Y-133769502D01*
X124971313Y-133766261D01*
X124672475Y-133762651D01*
X124425963Y-133758659D01*
X124229106Y-133754272D01*
X124079233Y-133749474D01*
X123973675Y-133744252D01*
X123909761Y-133738591D01*
X123884820Y-133732478D01*
X123882066Y-133727015D01*
X123875216Y-133685974D01*
X123868968Y-133603874D01*
X123863301Y-133477625D01*
X123858192Y-133304134D01*
X123853619Y-133080310D01*
X123849560Y-132803062D01*
X123849164Y-132765978D01*
X125681989Y-132765978D01*
X125687925Y-132816861D01*
X125713607Y-132845864D01*
X125742354Y-132855660D01*
X125849257Y-132869862D01*
X126006202Y-132878791D01*
X126190300Y-132882465D01*
X126378663Y-132880906D01*
X126548406Y-132874130D01*
X126676639Y-132862158D01*
X126740477Y-132845008D01*
X126768041Y-132808863D01*
X126820613Y-132705519D01*
X126874562Y-132569186D01*
X126910560Y-132473565D01*
X126961966Y-132359491D01*
X127000531Y-132299790D01*
X127014043Y-132294431D01*
X127102471Y-132281796D01*
X127257102Y-132270457D01*
X127462815Y-132260910D01*
X127704488Y-132253656D01*
X127967000Y-132249190D01*
X128235230Y-132248011D01*
X128494055Y-132250617D01*
X128718402Y-132254819D01*
X128821938Y-132549913D01*
X128925474Y-132845008D01*
X129450087Y-132845008D01*
X129610863Y-132844671D01*
X129781037Y-132841782D01*
X129888913Y-132833787D01*
X129949386Y-132818163D01*
X129977354Y-132792387D01*
X129987714Y-132753936D01*
X129984047Y-132729225D01*
X129951478Y-132628507D01*
X129889094Y-132464229D01*
X129801087Y-132246657D01*
X129691650Y-131986056D01*
X129564975Y-131692691D01*
X129425256Y-131376828D01*
X129377218Y-131269443D01*
X129224836Y-130928415D01*
X129075510Y-130593680D01*
X128935782Y-130279937D01*
X128878398Y-130150832D01*
X130065556Y-130150832D01*
X130066587Y-130464320D01*
X130072995Y-130783675D01*
X130085127Y-131096299D01*
X130096980Y-131293271D01*
X130129068Y-131601830D01*
X130178722Y-131850160D01*
X130251252Y-132055621D01*
X130351971Y-132235572D01*
X130486187Y-132407376D01*
X130667108Y-132589053D01*
X130904029Y-132753936D01*
X130911606Y-132759209D01*
X131198796Y-132878059D01*
X131352490Y-132919651D01*
X131774343Y-132971633D01*
X132218050Y-132939847D01*
X132681539Y-132824367D01*
X132808692Y-132767168D01*
X133817371Y-132767168D01*
X133835195Y-132832112D01*
X133864581Y-132845747D01*
X133970109Y-132864178D01*
X134126473Y-132876902D01*
X134310871Y-132883637D01*
X134500500Y-132884098D01*
X134672559Y-132878002D01*
X134804244Y-132865067D01*
X134872754Y-132845008D01*
X134898398Y-132811979D01*
X134949126Y-132710318D01*
X134999707Y-132575137D01*
X135031048Y-132487430D01*
X135084952Y-132367921D01*
X135130523Y-132300917D01*
X135138609Y-132296066D01*
X135227443Y-132278088D01*
X135401893Y-132266893D01*
X135662478Y-132262459D01*
X136009719Y-132264764D01*
X136830999Y-132276677D01*
X136944495Y-132560843D01*
X137057991Y-132845008D01*
X137582094Y-132845008D01*
X137738046Y-132844687D01*
X137909765Y-132841841D01*
X138018837Y-132833931D01*
X138080154Y-132818457D01*
X138108609Y-132792918D01*
X138119097Y-132754811D01*
X138113243Y-132722415D01*
X138076810Y-132614284D01*
X138010891Y-132443446D01*
X137919618Y-132219948D01*
X137807122Y-131953840D01*
X137681112Y-131663415D01*
X138430001Y-131663415D01*
X138438160Y-131949966D01*
X138452795Y-132024898D01*
X138557524Y-132289796D01*
X138735674Y-132510726D01*
X138983522Y-132683979D01*
X139165924Y-132754811D01*
X139297344Y-132805845D01*
X139336079Y-132815638D01*
X139467120Y-132839187D01*
X139638282Y-132856948D01*
X139861383Y-132869673D01*
X140148241Y-132878114D01*
X140510672Y-132883023D01*
X140611070Y-132883734D01*
X140899059Y-132884337D01*
X141162366Y-132882864D01*
X141385304Y-132879521D01*
X141552189Y-132874515D01*
X141647333Y-132868052D01*
X141822204Y-132845008D01*
X141833620Y-131011535D01*
X141835071Y-130728690D01*
X141835766Y-130259143D01*
X141833850Y-129868928D01*
X141829351Y-129559660D01*
X141822298Y-129332952D01*
X141812719Y-129190417D01*
X141800642Y-129133669D01*
X141796510Y-129130891D01*
X141722577Y-129116914D01*
X141566643Y-129106606D01*
X141333281Y-129100107D01*
X141027064Y-129097553D01*
X140652565Y-129099083D01*
X140546014Y-129100131D01*
X140158284Y-129106538D01*
X139844274Y-129117640D01*
X139592977Y-129135202D01*
X139393388Y-129160992D01*
X139234500Y-129196777D01*
X139105308Y-129244325D01*
X138994804Y-129305402D01*
X138891982Y-129381777D01*
X138819583Y-129448779D01*
X138670878Y-129649772D01*
X138573091Y-129881279D01*
X138528369Y-130124798D01*
X138538861Y-130361827D01*
X138606712Y-130573862D01*
X138734070Y-130742403D01*
X138751147Y-130758065D01*
X138816602Y-130845383D01*
X138806810Y-130927912D01*
X138720708Y-131028408D01*
X138615085Y-131150036D01*
X138491239Y-131389390D01*
X138430001Y-131663415D01*
X137681112Y-131663415D01*
X137677534Y-131655169D01*
X137534983Y-131333985D01*
X137464803Y-131177518D01*
X137311428Y-130835263D01*
X137162964Y-130503575D01*
X137025595Y-130196292D01*
X136905504Y-129927251D01*
X136808875Y-129710290D01*
X136741892Y-129559249D01*
X136659238Y-129379101D01*
X136576018Y-129221384D01*
X136508917Y-129128365D01*
X136451651Y-129089880D01*
X136416648Y-129083341D01*
X136289220Y-129072587D01*
X136113897Y-129066634D01*
X135917701Y-129065464D01*
X135727650Y-129069062D01*
X135570768Y-129077409D01*
X135474073Y-129090490D01*
X135394815Y-129144244D01*
X135325952Y-129275694D01*
X135323880Y-129281969D01*
X135276034Y-129404907D01*
X135203550Y-129569180D01*
X135121267Y-129741049D01*
X135033541Y-129924829D01*
X134950216Y-130113475D01*
X134889569Y-130265662D01*
X134869448Y-130319708D01*
X134795120Y-130505587D01*
X134695282Y-130743051D01*
X134578630Y-131012391D01*
X134463938Y-131271170D01*
X134453863Y-131293901D01*
X134329677Y-131567873D01*
X134214769Y-131814599D01*
X134117838Y-132014371D01*
X134020193Y-132213809D01*
X133908284Y-132462604D01*
X133841205Y-132645528D01*
X133817371Y-132767168D01*
X132808692Y-132767168D01*
X132972115Y-132693653D01*
X133223452Y-132497702D01*
X133406311Y-132248358D01*
X133518473Y-131948718D01*
X133557719Y-131601877D01*
X133559553Y-131271170D01*
X133061637Y-131271170D01*
X132563721Y-131271170D01*
X132512089Y-131474517D01*
X132490308Y-131551809D01*
X132387306Y-131781741D01*
X132243894Y-131935494D01*
X132056664Y-132015787D01*
X131822207Y-132025342D01*
X131660054Y-131994047D01*
X131461032Y-131892015D01*
X131288933Y-131713524D01*
X131269662Y-131685887D01*
X131241911Y-131631298D01*
X131221752Y-131558702D01*
X131207591Y-131454214D01*
X131197829Y-131303947D01*
X131190872Y-131094018D01*
X131185123Y-130810539D01*
X131171450Y-130028129D01*
X131666018Y-130015742D01*
X132160586Y-130003356D01*
X132173249Y-129591956D01*
X132175280Y-129491815D01*
X132173450Y-129324620D01*
X132165139Y-129202284D01*
X132151390Y-129146042D01*
X132144936Y-129142611D01*
X132070260Y-129129802D01*
X131927699Y-129117512D01*
X131732707Y-129106132D01*
X131500740Y-129096055D01*
X131247253Y-129087674D01*
X130987701Y-129081381D01*
X130737539Y-129077568D01*
X130512223Y-129076628D01*
X130327208Y-129078953D01*
X130197948Y-129084936D01*
X130139900Y-129094970D01*
X130129008Y-129112337D01*
X130108320Y-129207517D01*
X130091286Y-129371555D01*
X130078251Y-129591852D01*
X130069559Y-129855810D01*
X130065556Y-130150832D01*
X128878398Y-130150832D01*
X128812194Y-130001885D01*
X128711287Y-129774221D01*
X128639605Y-129611644D01*
X128569439Y-129458066D01*
X128477821Y-129278349D01*
X128402114Y-129155084D01*
X128349567Y-129101034D01*
X128286161Y-129088512D01*
X128150703Y-129077174D01*
X127973675Y-129070017D01*
X127779975Y-129067337D01*
X127594502Y-129069429D01*
X127442154Y-129076590D01*
X127347830Y-129089116D01*
X127315361Y-129104993D01*
X127233950Y-129201844D01*
X127145359Y-129383614D01*
X127130705Y-129419038D01*
X127053368Y-129603324D01*
X126961781Y-129818570D01*
X126872752Y-130025214D01*
X126843494Y-130092646D01*
X126742391Y-130326247D01*
X126632497Y-130580814D01*
X126532908Y-130812134D01*
X126497691Y-130893161D01*
X126401288Y-131110006D01*
X126284480Y-131368025D01*
X126158914Y-131641591D01*
X126036237Y-131905077D01*
X125922102Y-132150044D01*
X125815856Y-132385248D01*
X125742635Y-132559852D01*
X125699119Y-132683535D01*
X125681989Y-132765978D01*
X123849164Y-132765978D01*
X123845993Y-132469296D01*
X123842895Y-132075922D01*
X123840244Y-131619847D01*
X123838019Y-131097980D01*
X123836197Y-130507229D01*
X123834756Y-129844502D01*
X123833674Y-129106707D01*
X123832929Y-128290752D01*
X123832498Y-127393546D01*
X123832482Y-127281927D01*
X127532732Y-127281927D01*
X127554264Y-127315660D01*
X127618272Y-127413441D01*
X127710644Y-127553244D01*
X127819477Y-127717008D01*
X127863256Y-127782898D01*
X127962507Y-127937639D01*
X128024198Y-128051666D01*
X128057236Y-128148403D01*
X128070527Y-128251274D01*
X128072978Y-128383703D01*
X128072978Y-128669965D01*
X128291567Y-128669965D01*
X128510156Y-128669965D01*
X128510156Y-128637177D01*
X128947951Y-128637177D01*
X128965710Y-128649829D01*
X129048744Y-128664105D01*
X129176851Y-128669447D01*
X129240147Y-128669022D01*
X129341788Y-128660524D01*
X129413428Y-128628436D01*
X129481623Y-128556635D01*
X129572933Y-128428999D01*
X129677139Y-128289817D01*
X129764987Y-128205525D01*
X129823211Y-128200706D01*
X129855466Y-128275368D01*
X129865405Y-128429517D01*
X129865405Y-128669965D01*
X130083994Y-128669965D01*
X130302583Y-128669965D01*
X130302583Y-128663124D01*
X130499757Y-128663124D01*
X130514618Y-128669132D01*
X130595778Y-128682852D01*
X130719366Y-128694390D01*
X130785711Y-128698137D01*
X130880885Y-128692759D01*
X130931319Y-128657740D01*
X130965910Y-128579630D01*
X130982955Y-128533915D01*
X131013859Y-128486798D01*
X131068797Y-128462228D01*
X131168902Y-128452866D01*
X131335308Y-128451376D01*
X131404935Y-128451572D01*
X131546173Y-128456013D01*
X131628461Y-128470904D01*
X131672700Y-128502246D01*
X131699790Y-128556042D01*
X131736942Y-128619269D01*
X131809961Y-128657895D01*
X131942949Y-128676883D01*
X132006806Y-128680350D01*
X132114438Y-128677177D01*
X132165584Y-128661878D01*
X132158356Y-128624942D01*
X132120630Y-128519344D01*
X132056508Y-128359203D01*
X131971393Y-128157944D01*
X131944713Y-128097289D01*
X132278507Y-128097289D01*
X132288723Y-128326010D01*
X132342573Y-128488721D01*
X132447433Y-128598447D01*
X132595853Y-128661878D01*
X132610681Y-128668215D01*
X132859816Y-128712352D01*
X133123677Y-128697141D01*
X133349011Y-128614889D01*
X133526806Y-128470945D01*
X133618046Y-128320223D01*
X133756283Y-128320223D01*
X133756283Y-128495094D01*
X133756283Y-128669965D01*
X134316670Y-128669965D01*
X134877056Y-128669965D01*
X134877119Y-128663398D01*
X135090794Y-128663398D01*
X135100587Y-128667468D01*
X135174131Y-128677959D01*
X135291799Y-128685257D01*
X135413299Y-128681824D01*
X135488844Y-128649274D01*
X135546099Y-128571876D01*
X135562307Y-128544380D01*
X135604353Y-128493185D01*
X135664673Y-128465448D01*
X135766314Y-128453995D01*
X135932322Y-128451653D01*
X136001927Y-128451782D01*
X136140598Y-128456134D01*
X136220956Y-128471428D01*
X136264295Y-128504122D01*
X136291911Y-128560671D01*
X136305254Y-128592182D01*
X136346586Y-128642686D01*
X136421902Y-128664968D01*
X136557813Y-128669965D01*
X136622816Y-128669425D01*
X136721975Y-128661491D01*
X136759424Y-128638515D01*
X136753130Y-128593459D01*
X136740363Y-128562466D01*
X136716270Y-128506738D01*
X136903202Y-128506738D01*
X136966316Y-128581039D01*
X137078326Y-128638515D01*
X137110215Y-128654878D01*
X137127386Y-128661748D01*
X137336270Y-128707850D01*
X137562641Y-128703016D01*
X137781500Y-128652747D01*
X137967848Y-128562540D01*
X138096688Y-128437894D01*
X138111491Y-128413285D01*
X138171198Y-128283354D01*
X138219777Y-128136589D01*
X138239222Y-127968261D01*
X138201135Y-127736096D01*
X138099087Y-127518784D01*
X137942686Y-127343808D01*
X137827820Y-127269149D01*
X137698805Y-127227280D01*
X138434080Y-127227280D01*
X138434080Y-127741645D01*
X138435143Y-127869030D01*
X138440260Y-127968261D01*
X138448295Y-128124057D01*
X138480530Y-128313287D01*
X138536953Y-128451481D01*
X138622674Y-128553398D01*
X138742800Y-128633799D01*
X138915453Y-128693198D01*
X139130105Y-128714037D01*
X139341908Y-128692218D01*
X139513971Y-128628017D01*
X139525438Y-128620911D01*
X139639190Y-128530865D01*
X139720311Y-128416600D01*
X139774485Y-128262453D01*
X139807398Y-128052758D01*
X139824736Y-127771853D01*
X139830206Y-127553880D01*
X139824474Y-127385249D01*
X139800576Y-127279774D01*
X139752506Y-127224855D01*
X139674254Y-127207893D01*
X139559811Y-127216287D01*
X139395870Y-127236846D01*
X139395870Y-127666394D01*
X139394611Y-127773730D01*
X139386334Y-127962750D01*
X139372029Y-128115681D01*
X139353699Y-128206862D01*
X139337486Y-128241020D01*
X139243963Y-128328074D01*
X139116263Y-128350658D01*
X138980233Y-128302176D01*
X138946723Y-128278810D01*
X138910879Y-128241045D01*
X138888664Y-128184296D01*
X138876824Y-128091452D01*
X138872107Y-127945399D01*
X138871257Y-127729026D01*
X138871257Y-127227280D01*
X138652669Y-127227280D01*
X138434080Y-127227280D01*
X137698805Y-127227280D01*
X137597061Y-127194261D01*
X137348646Y-127193835D01*
X137103359Y-127269705D01*
X136982535Y-127336351D01*
X136917031Y-127405262D01*
X136927431Y-127479249D01*
X137009129Y-127573147D01*
X137050751Y-127609587D01*
X137126395Y-127646122D01*
X137202985Y-127624485D01*
X137262953Y-127597248D01*
X137435663Y-127568938D01*
X137592164Y-127607285D01*
X137718210Y-127698886D01*
X137799557Y-127830334D01*
X137821960Y-127988226D01*
X137771173Y-128159156D01*
X137707260Y-128254664D01*
X137582479Y-128343326D01*
X137424935Y-128353986D01*
X137228687Y-128288055D01*
X137069553Y-128212169D01*
X136967011Y-128340769D01*
X136915079Y-128419273D01*
X136903202Y-128506738D01*
X136716270Y-128506738D01*
X136694638Y-128456702D01*
X136624024Y-128296084D01*
X136535330Y-128096070D01*
X136435364Y-127872116D01*
X136146630Y-127227280D01*
X135924176Y-127227730D01*
X135701722Y-127228181D01*
X135388813Y-127938143D01*
X135299312Y-128143300D01*
X135212349Y-128347425D01*
X135145038Y-128510837D01*
X135102735Y-128620505D01*
X135090794Y-128663398D01*
X134877119Y-128663398D01*
X134884029Y-127948622D01*
X134891002Y-127227280D01*
X134673384Y-127227280D01*
X134455767Y-127227280D01*
X134455767Y-127773751D01*
X134455767Y-127932265D01*
X134455767Y-128320223D01*
X134106025Y-128320223D01*
X133756283Y-128320223D01*
X133618046Y-128320223D01*
X133648048Y-128270661D01*
X133703726Y-128019385D01*
X133707148Y-127932265D01*
X133674680Y-127683955D01*
X133572935Y-127484400D01*
X133398634Y-127326152D01*
X133348527Y-127295899D01*
X133119589Y-127211892D01*
X132871562Y-127191097D01*
X132631279Y-127233190D01*
X132425570Y-127337851D01*
X132399101Y-127358510D01*
X132368479Y-127398649D01*
X132388488Y-127447241D01*
X132464547Y-127531150D01*
X132494437Y-127561978D01*
X132567415Y-127624019D01*
X132628016Y-127632535D01*
X132711075Y-127596803D01*
X132843360Y-127547536D01*
X133013340Y-127545860D01*
X133150464Y-127617422D01*
X133242042Y-127754313D01*
X133275388Y-127948622D01*
X133273467Y-128001375D01*
X133226026Y-128184442D01*
X133120231Y-128304838D01*
X132963113Y-128357255D01*
X132761705Y-128336386D01*
X132695974Y-128301043D01*
X132663340Y-128205830D01*
X132663358Y-128201074D01*
X132675140Y-128136152D01*
X132725303Y-128107845D01*
X132838211Y-128101634D01*
X132888755Y-128101302D01*
X132974626Y-128090287D01*
X133007668Y-128047310D01*
X133013082Y-127950603D01*
X133006399Y-127855488D01*
X132967555Y-127802075D01*
X132870999Y-127777021D01*
X132824766Y-127771322D01*
X132672917Y-127762968D01*
X132510328Y-127764202D01*
X132291739Y-127773933D01*
X132279058Y-128082674D01*
X132278507Y-128097289D01*
X131944713Y-128097289D01*
X131870684Y-127928989D01*
X131556515Y-127227280D01*
X131333938Y-127228026D01*
X131111360Y-127228772D01*
X131005014Y-127479403D01*
X130963864Y-127574864D01*
X130882631Y-127759476D01*
X130796135Y-127953300D01*
X130787088Y-127973572D01*
X130690326Y-128187692D01*
X130614536Y-128358228D01*
X130550185Y-128511703D01*
X130509732Y-128618805D01*
X130499757Y-128663124D01*
X130302583Y-128663124D01*
X130302583Y-127953300D01*
X130301178Y-127699901D01*
X130295691Y-127481944D01*
X130285430Y-127334672D01*
X130269732Y-127249157D01*
X130247935Y-127216469D01*
X130182445Y-127207679D01*
X130048522Y-127205752D01*
X129874443Y-127210832D01*
X129684910Y-127221494D01*
X129504622Y-127236317D01*
X129358283Y-127253879D01*
X129349382Y-127255795D01*
X129270592Y-127272756D01*
X129213451Y-127300588D01*
X129092702Y-127416864D01*
X129023363Y-127574483D01*
X129008843Y-127749697D01*
X129052552Y-127918758D01*
X129157897Y-128057917D01*
X129286935Y-128167211D01*
X129117753Y-128385800D01*
X129038217Y-128492335D01*
X128973155Y-128587966D01*
X128947951Y-128637177D01*
X128510156Y-128637177D01*
X128510156Y-128386136D01*
X128510546Y-128320390D01*
X128516977Y-128207330D01*
X128537961Y-128110340D01*
X128581921Y-128007171D01*
X128657281Y-127875576D01*
X128772462Y-127693309D01*
X128863367Y-127549789D01*
X128952166Y-127405316D01*
X129012512Y-127301960D01*
X129034768Y-127255795D01*
X129016229Y-127244642D01*
X128932217Y-127232143D01*
X128803356Y-127227280D01*
X128777406Y-127227294D01*
X128655900Y-127232063D01*
X128579548Y-127257902D01*
X128518445Y-127322864D01*
X128442685Y-127445001D01*
X128384171Y-127538848D01*
X128320545Y-127628575D01*
X128284387Y-127663590D01*
X128257994Y-127641747D01*
X128197409Y-127562772D01*
X128120850Y-127445868D01*
X127986351Y-127227280D01*
X127742919Y-127227280D01*
X127740894Y-127227280D01*
X127600633Y-127232380D01*
X127535239Y-127249558D01*
X127532732Y-127281927D01*
X123832482Y-127281927D01*
X123832359Y-126411997D01*
X123832438Y-125467355D01*
X123832703Y-124598526D01*
X123833188Y-123808997D01*
X123833928Y-123094686D01*
X123834960Y-122451510D01*
X123836318Y-121875386D01*
X123838037Y-121362230D01*
X123840154Y-120907961D01*
X123842002Y-120618355D01*
X124912852Y-120618355D01*
X125083018Y-120665603D01*
X125258788Y-120704269D01*
X125413213Y-120706225D01*
X125570585Y-120666724D01*
X125662517Y-120645090D01*
X125764647Y-120656570D01*
X125902593Y-120710442D01*
X125961288Y-120734613D01*
X126119818Y-120781960D01*
X126254964Y-120800774D01*
X126264079Y-120800910D01*
X126412546Y-120826530D01*
X126555504Y-120883035D01*
X126580279Y-120896063D01*
X126732234Y-120956376D01*
X126892058Y-120997412D01*
X126902438Y-120999181D01*
X127008121Y-121021780D01*
X127038503Y-121043914D01*
X127004559Y-121072953D01*
X126992831Y-121079030D01*
X126900686Y-121108868D01*
X126755185Y-121132745D01*
X126544972Y-121152114D01*
X126258693Y-121168431D01*
X126095434Y-121182004D01*
X125933119Y-121206983D01*
X125821515Y-121237041D01*
X125713562Y-121263561D01*
X125551992Y-121281676D01*
X125373409Y-121286948D01*
X125276200Y-121285865D01*
X125151985Y-121288650D01*
X125086435Y-121302813D01*
X125060830Y-121334409D01*
X125056455Y-121389494D01*
X125056542Y-121394453D01*
X125070373Y-121495616D01*
X125104444Y-121660349D01*
X125153916Y-121870119D01*
X125213949Y-122106392D01*
X125279702Y-122350637D01*
X125346338Y-122584320D01*
X125409014Y-122788908D01*
X125462893Y-122945868D01*
X125511097Y-123070780D01*
X125614559Y-123312509D01*
X125706375Y-123482736D01*
X125792244Y-123591097D01*
X125877870Y-123647231D01*
X125971833Y-123691840D01*
X126066081Y-123755448D01*
X126091534Y-123775579D01*
X126144050Y-123790021D01*
X126220438Y-123766927D01*
X126345581Y-123701493D01*
X126555226Y-123584320D01*
X126669266Y-123717442D01*
X126716475Y-123764969D01*
X126849370Y-123867436D01*
X126997602Y-123954154D01*
X127211899Y-124057745D01*
X126615072Y-124069908D01*
X126548744Y-124071461D01*
X126340411Y-124079196D01*
X126171990Y-124089783D01*
X126059321Y-124102033D01*
X126018245Y-124114756D01*
X126037883Y-124166089D01*
X126099893Y-124277558D01*
X126195096Y-124432351D01*
X126314065Y-124615949D01*
X126447374Y-124813836D01*
X126585596Y-125011494D01*
X126719304Y-125194405D01*
X126832725Y-125340506D01*
X126983227Y-125524675D01*
X127144213Y-125713815D01*
X127304746Y-125895786D01*
X127453891Y-126058449D01*
X127580711Y-126189667D01*
X127674271Y-126277299D01*
X127723634Y-126309208D01*
X127729057Y-126307828D01*
X127767781Y-126258515D01*
X127809273Y-126160435D01*
X127869528Y-126045293D01*
X127972893Y-125982920D01*
X128087414Y-125954177D01*
X127951833Y-125871725D01*
X127943172Y-125866340D01*
X127838526Y-125784227D01*
X127769430Y-125701784D01*
X127768642Y-125700335D01*
X127697334Y-125616617D01*
X127593016Y-125537744D01*
X127592505Y-125537442D01*
X127488935Y-125448038D01*
X127421433Y-125340731D01*
X127405918Y-125290658D01*
X127407568Y-125226350D01*
X127463511Y-125193586D01*
X127517276Y-125183776D01*
X127594829Y-125196102D01*
X127626377Y-125198909D01*
X127729829Y-125182811D01*
X127882783Y-125146212D01*
X128065186Y-125093487D01*
X128160241Y-125064497D01*
X128379212Y-125001542D01*
X128583806Y-124947265D01*
X128739674Y-124910962D01*
X128835847Y-124888147D01*
X128949846Y-124845355D01*
X128991051Y-124802488D01*
X128964407Y-124749154D01*
X128891159Y-124707847D01*
X128817188Y-124712887D01*
X128788184Y-124713641D01*
X128728345Y-124669311D01*
X128691038Y-124634962D01*
X128616269Y-124604216D01*
X128588113Y-124598634D01*
X128523257Y-124546272D01*
X128496385Y-124514378D01*
X128411791Y-124460209D01*
X128371066Y-124435685D01*
X128335285Y-124370240D01*
X128318823Y-124329954D01*
X128247669Y-124285478D01*
X128197916Y-124260701D01*
X128184605Y-124198585D01*
X128187020Y-124159993D01*
X128136532Y-124106735D01*
X128101139Y-124081881D01*
X128087703Y-124016855D01*
X128090595Y-123975503D01*
X128048521Y-123902576D01*
X128017190Y-123865967D01*
X127985543Y-123770806D01*
X127979659Y-123726393D01*
X127944254Y-123665786D01*
X127931953Y-123647225D01*
X127916499Y-123560487D01*
X127916481Y-123509944D01*
X132063314Y-123509944D01*
X132077577Y-123503853D01*
X132138727Y-123470217D01*
X132205508Y-123442716D01*
X132332705Y-123402003D01*
X132488469Y-123358966D01*
X132626437Y-123317488D01*
X132816541Y-123245012D01*
X132969364Y-123170315D01*
X132985549Y-123160874D01*
X133066018Y-123118566D01*
X133148830Y-123087848D01*
X133250996Y-123065870D01*
X133389525Y-123049785D01*
X133581429Y-123036744D01*
X133843719Y-123023899D01*
X133999253Y-123016744D01*
X134275744Y-123002429D01*
X134488084Y-122987316D01*
X134652108Y-122968762D01*
X134783653Y-122944124D01*
X134898554Y-122910760D01*
X135012647Y-122866027D01*
X135141767Y-122807282D01*
X135149896Y-122803493D01*
X135290411Y-122742204D01*
X135493158Y-122658817D01*
X135739742Y-122560661D01*
X136011773Y-122455068D01*
X136290856Y-122349366D01*
X136363502Y-122322051D01*
X136612654Y-122225688D01*
X136829307Y-122137815D01*
X137001029Y-122063743D01*
X137115389Y-122008779D01*
X137159953Y-121978233D01*
X137162588Y-121954649D01*
X137126623Y-121956775D01*
X137086486Y-121962832D01*
X136985797Y-121949532D01*
X136858402Y-121918494D01*
X136732496Y-121877989D01*
X136636275Y-121836290D01*
X136597935Y-121801669D01*
X136588937Y-121786748D01*
X136532727Y-121790331D01*
X136494728Y-121793694D01*
X136440615Y-121745241D01*
X136419292Y-121710573D01*
X136352811Y-121675128D01*
X136327023Y-121671269D01*
X136291911Y-121634357D01*
X136275129Y-121605083D01*
X136218330Y-121573530D01*
X138447944Y-121573530D01*
X138491723Y-121587693D01*
X138524230Y-121583295D01*
X138587092Y-121543975D01*
X138603174Y-121526559D01*
X138677976Y-121500257D01*
X138703505Y-121495674D01*
X138797877Y-121456717D01*
X138914975Y-121390963D01*
X138966991Y-121359867D01*
X139079386Y-121303859D01*
X139154554Y-121281669D01*
X139185529Y-121276595D01*
X139220999Y-121237951D01*
X139214421Y-121226418D01*
X139148683Y-121203164D01*
X139035199Y-121193636D01*
X139000247Y-121193101D01*
X138858120Y-121183775D01*
X138751033Y-121166679D01*
X138680016Y-121160309D01*
X138652669Y-121204218D01*
X138630995Y-121265774D01*
X138564965Y-121347488D01*
X138511038Y-121407484D01*
X138499009Y-121448606D01*
X138503156Y-121468624D01*
X138472065Y-121529023D01*
X138447944Y-121573530D01*
X136218330Y-121573530D01*
X136204476Y-121565834D01*
X136153381Y-121538699D01*
X136117040Y-121480551D01*
X136100634Y-121442812D01*
X136029605Y-121400155D01*
X135978871Y-121373873D01*
X135942169Y-121307620D01*
X135935069Y-121273459D01*
X135887265Y-121237951D01*
X135854545Y-121226804D01*
X135816169Y-121178696D01*
X135767576Y-121078212D01*
X135700040Y-120910068D01*
X135692095Y-120885625D01*
X135667763Y-120769537D01*
X135650163Y-120628488D01*
X135645078Y-120573166D01*
X135632144Y-120468728D01*
X135620995Y-120421309D01*
X135598491Y-120421677D01*
X135510859Y-120447647D01*
X135376629Y-120497533D01*
X135215660Y-120563419D01*
X135047812Y-120637387D01*
X134892944Y-120711523D01*
X134786580Y-120762680D01*
X134616812Y-120836512D01*
X134477626Y-120888470D01*
X134358425Y-120932585D01*
X134198835Y-121000580D01*
X134190144Y-121004283D01*
X134018589Y-121084817D01*
X133995461Y-121096088D01*
X133803187Y-121181240D01*
X133582795Y-121268486D01*
X133577611Y-121270538D01*
X133362823Y-121346396D01*
X133243395Y-121386518D01*
X133055707Y-121452962D01*
X133055305Y-121453110D01*
X132856304Y-121526442D01*
X132778283Y-121556185D01*
X132664024Y-121599743D01*
X132497705Y-121665652D01*
X132376183Y-121716954D01*
X132318298Y-121746434D01*
X132316179Y-121761584D01*
X132348238Y-121817203D01*
X132361483Y-121843100D01*
X132380322Y-121945617D01*
X132381409Y-122080566D01*
X132378987Y-122148916D01*
X132386219Y-122248164D01*
X132406115Y-122287177D01*
X132422020Y-122293766D01*
X132442637Y-122349772D01*
X132437656Y-122426747D01*
X132406896Y-122480283D01*
X132387272Y-122522558D01*
X132390030Y-122613472D01*
X132391705Y-122692572D01*
X132339334Y-122750774D01*
X132295122Y-122781030D01*
X132315805Y-122836308D01*
X132334995Y-122893290D01*
X132277566Y-122948289D01*
X132229007Y-122994850D01*
X132215769Y-123066351D01*
X132218709Y-123108302D01*
X132175058Y-123178782D01*
X132174026Y-123179561D01*
X132120182Y-123255641D01*
X132081612Y-123369190D01*
X132079052Y-123382329D01*
X132064093Y-123473388D01*
X132063314Y-123509944D01*
X127916481Y-123509944D01*
X127916455Y-123433688D01*
X127918579Y-123370076D01*
X127910530Y-123247062D01*
X127888404Y-123174376D01*
X127873563Y-123145568D01*
X127880441Y-123067311D01*
X127891368Y-123040001D01*
X127911848Y-122936853D01*
X127924769Y-122800422D01*
X127955692Y-122615072D01*
X128047966Y-122440437D01*
X128072492Y-122406629D01*
X128135261Y-122300544D01*
X128160414Y-122224517D01*
X128168725Y-122191245D01*
X128225990Y-122156023D01*
X128256457Y-122149082D01*
X128291567Y-122095779D01*
X128314186Y-122041728D01*
X128385891Y-121972906D01*
X128422738Y-121944676D01*
X128449669Y-121908476D01*
X128465158Y-121854992D01*
X128468372Y-121774448D01*
X128458481Y-121657069D01*
X128434656Y-121493077D01*
X128396064Y-121272699D01*
X128341876Y-120986157D01*
X128271262Y-120623675D01*
X128219391Y-120358951D01*
X128507481Y-120358951D01*
X128512599Y-120432836D01*
X128530350Y-120570884D01*
X128558903Y-120759464D01*
X128596428Y-120984946D01*
X128614803Y-121089491D01*
X128663918Y-121344336D01*
X128707763Y-121522180D01*
X128749941Y-121630391D01*
X128794053Y-121676337D01*
X128843703Y-121667386D01*
X128902493Y-121610904D01*
X128909394Y-121601371D01*
X128922983Y-121556185D01*
X128917021Y-121483268D01*
X128888354Y-121369226D01*
X128833831Y-121200666D01*
X128750300Y-120964193D01*
X128724597Y-120893260D01*
X128649281Y-120689773D01*
X128584488Y-120520983D01*
X128536423Y-120402803D01*
X128511290Y-120351148D01*
X128507481Y-120358951D01*
X128219391Y-120358951D01*
X128191892Y-120218610D01*
X128772745Y-120218610D01*
X128775956Y-120232897D01*
X128803202Y-120316579D01*
X128853729Y-120459663D01*
X128922078Y-120646861D01*
X129002790Y-120862883D01*
X129042173Y-120965632D01*
X129122745Y-121166079D01*
X129192820Y-121327718D01*
X129245963Y-121436086D01*
X129275743Y-121476717D01*
X129276556Y-121476808D01*
X129341724Y-121477354D01*
X129466977Y-121474034D01*
X129625950Y-121467540D01*
X129932965Y-121453110D01*
X129916883Y-121284471D01*
X129911892Y-121238565D01*
X129888421Y-121151792D01*
X129830623Y-121102604D01*
X129732399Y-121069746D01*
X131465951Y-121069746D01*
X131480360Y-121106610D01*
X131566073Y-121148725D01*
X131674035Y-121205067D01*
X131749171Y-121264513D01*
X131780356Y-121295575D01*
X131838056Y-121325387D01*
X131866714Y-121317497D01*
X131870527Y-121268486D01*
X131818270Y-121187418D01*
X131717550Y-121089202D01*
X131687839Y-121064768D01*
X131602042Y-121003634D01*
X131547678Y-120993779D01*
X131499244Y-121028061D01*
X131465951Y-121069746D01*
X129732399Y-121069746D01*
X129712878Y-121063216D01*
X129514137Y-120980682D01*
X129296213Y-120814649D01*
X129131785Y-120595985D01*
X129036829Y-120341738D01*
X129030949Y-120316300D01*
X128990385Y-120240499D01*
X129209639Y-120240499D01*
X129214087Y-120275690D01*
X129258354Y-120396147D01*
X129335056Y-120537163D01*
X129425539Y-120666980D01*
X129511153Y-120753844D01*
X129519772Y-120759877D01*
X129634378Y-120824770D01*
X129746456Y-120866624D01*
X129831600Y-120878561D01*
X129859918Y-120857735D01*
X131715125Y-120857735D01*
X131747248Y-120912455D01*
X131786309Y-120954656D01*
X131870718Y-121018331D01*
X131937015Y-121036533D01*
X131963856Y-121000580D01*
X131928796Y-120931815D01*
X131843009Y-120870597D01*
X131742789Y-120844492D01*
X131723554Y-120853700D01*
X131715125Y-120857735D01*
X129859918Y-120857735D01*
X129865405Y-120853700D01*
X129841526Y-120792491D01*
X129771622Y-120686451D01*
X129671668Y-120557474D01*
X129557825Y-120424386D01*
X129446256Y-120306015D01*
X129353119Y-120221186D01*
X129294578Y-120188726D01*
X129246058Y-120198067D01*
X129209639Y-120240499D01*
X128990385Y-120240499D01*
X128984493Y-120229489D01*
X128891131Y-120196751D01*
X128809747Y-120197052D01*
X128772745Y-120218610D01*
X128191892Y-120218610D01*
X128069633Y-119594668D01*
X128096113Y-118612953D01*
X128103903Y-118280738D01*
X128111067Y-117881317D01*
X128116528Y-117471132D01*
X128119855Y-117082898D01*
X128120619Y-116749331D01*
X128120078Y-116551104D01*
X128118348Y-116300219D01*
X128117844Y-116277139D01*
X128466438Y-116277139D01*
X128466438Y-117271142D01*
X128466438Y-118265146D01*
X128622924Y-118265146D01*
X128654374Y-118265061D01*
X128739536Y-118256692D01*
X128763011Y-118217395D01*
X128745615Y-118123063D01*
X128724886Y-117994116D01*
X128721330Y-117871686D01*
X128723717Y-117837601D01*
X128723860Y-117834747D01*
X134508226Y-117834747D01*
X134513781Y-117865704D01*
X134530395Y-117895696D01*
X134562741Y-117863863D01*
X134623239Y-117762392D01*
X134645115Y-117724035D01*
X134726593Y-117584208D01*
X134795549Y-117469776D01*
X134798722Y-117464594D01*
X134838496Y-117375124D01*
X134836960Y-117320234D01*
X134825186Y-117314139D01*
X134764210Y-117336140D01*
X134683364Y-117406013D01*
X134602916Y-117503801D01*
X134543133Y-117609547D01*
X134513254Y-117718060D01*
X134508226Y-117834747D01*
X128723860Y-117834747D01*
X128729913Y-117714029D01*
X128736795Y-117541772D01*
X128743266Y-117347073D01*
X128747125Y-117256261D01*
X128762479Y-117063936D01*
X128771106Y-117001225D01*
X130034502Y-117001225D01*
X130332484Y-117281555D01*
X130403943Y-117347473D01*
X130531051Y-117457967D01*
X130629357Y-117534608D01*
X130681990Y-117563773D01*
X130688913Y-117563542D01*
X130764269Y-117527641D01*
X130837813Y-117456462D01*
X130870913Y-117386296D01*
X130863226Y-117363690D01*
X130805336Y-117319165D01*
X130764846Y-117281788D01*
X130739760Y-117192330D01*
X130725592Y-117126756D01*
X130660107Y-117065378D01*
X130622042Y-117043897D01*
X130537881Y-116950091D01*
X130454727Y-116810025D01*
X130386721Y-116649566D01*
X130348006Y-116494578D01*
X130341422Y-116454556D01*
X130313192Y-116360208D01*
X130280724Y-116325079D01*
X130273926Y-116328845D01*
X130237012Y-116389649D01*
X130188055Y-116508796D01*
X130135754Y-116665838D01*
X130119631Y-116719244D01*
X130034502Y-117001225D01*
X128771106Y-117001225D01*
X128784521Y-116903708D01*
X128809864Y-116803245D01*
X128815860Y-116788833D01*
X128836863Y-116719244D01*
X128825656Y-116659505D01*
X128771895Y-116586206D01*
X128665236Y-116475937D01*
X128466438Y-116277139D01*
X128117844Y-116277139D01*
X128114301Y-116114995D01*
X128106514Y-115982086D01*
X128093565Y-115888142D01*
X128074033Y-115819817D01*
X128046495Y-115763764D01*
X128009529Y-115706634D01*
X127983683Y-115667977D01*
X127933360Y-115576442D01*
X127929851Y-115526414D01*
X128653267Y-115526414D01*
X128654594Y-115567741D01*
X128700350Y-115642053D01*
X128795383Y-115756045D01*
X128944540Y-115916413D01*
X129152666Y-116129855D01*
X129278546Y-116256193D01*
X129437160Y-116411939D01*
X129567592Y-116535972D01*
X129658919Y-116617964D01*
X129700220Y-116647590D01*
X129738588Y-116613183D01*
X129782124Y-116527366D01*
X129792366Y-116501145D01*
X129837249Y-116389950D01*
X129905496Y-116223390D01*
X129989824Y-116019195D01*
X130082950Y-115795094D01*
X130183995Y-115550445D01*
X130234324Y-115424225D01*
X130652324Y-115424225D01*
X130664630Y-115432892D01*
X130734776Y-115421459D01*
X130846338Y-115380940D01*
X130856434Y-115376662D01*
X131067671Y-115304363D01*
X131294691Y-115252772D01*
X131505919Y-115227515D01*
X131669778Y-115234217D01*
X131799142Y-115266137D01*
X131921368Y-115323850D01*
X131964526Y-115392243D01*
X131968516Y-115420783D01*
X132003595Y-115505988D01*
X132021386Y-115524216D01*
X132071456Y-115527345D01*
X132160159Y-115490255D01*
X132303739Y-115407623D01*
X132307801Y-115405159D01*
X132444710Y-115326208D01*
X132554743Y-115270022D01*
X132614411Y-115248622D01*
X132631737Y-115250268D01*
X132666548Y-115289579D01*
X132644678Y-115370856D01*
X132572338Y-115480202D01*
X132455738Y-115603718D01*
X132411136Y-115645001D01*
X132318196Y-115738544D01*
X132271691Y-115814380D01*
X132257968Y-115903160D01*
X132263373Y-116035534D01*
X132264713Y-116055144D01*
X132293176Y-116245631D01*
X132344316Y-116352465D01*
X132417929Y-116375197D01*
X132432012Y-116375248D01*
X132510377Y-116405264D01*
X132613780Y-116468559D01*
X132646914Y-116492609D01*
X132721323Y-116561697D01*
X132746585Y-116638992D01*
X132739242Y-116763363D01*
X132728024Y-116842004D01*
X132681118Y-116983470D01*
X132591314Y-117071691D01*
X132439659Y-117129856D01*
X132403860Y-117140290D01*
X132301216Y-117190755D01*
X132269880Y-117258200D01*
X132295101Y-117348749D01*
X132329699Y-117386296D01*
X132379603Y-117440453D01*
X132492364Y-117478226D01*
X132526910Y-117486151D01*
X132622550Y-117541620D01*
X132727402Y-117632637D01*
X132777141Y-117682959D01*
X132847335Y-117743125D01*
X132888401Y-117749273D01*
X132919812Y-117709143D01*
X132924165Y-117703990D01*
X134193460Y-117703990D01*
X134206557Y-117774708D01*
X134246700Y-117767275D01*
X134312653Y-117679354D01*
X134403168Y-117512089D01*
X134407249Y-117503838D01*
X134471431Y-117368689D01*
X134513759Y-117269461D01*
X134525252Y-117227115D01*
X134524044Y-117226229D01*
X134487042Y-117250132D01*
X134422319Y-117325765D01*
X134345237Y-117431047D01*
X134271158Y-117543898D01*
X134215445Y-117642239D01*
X134193460Y-117703990D01*
X132924165Y-117703990D01*
X132967976Y-117652121D01*
X133069229Y-117561237D01*
X133197575Y-117462000D01*
X133257149Y-117418387D01*
X133354708Y-117339339D01*
X133436997Y-117255222D01*
X133518414Y-117148177D01*
X133613359Y-117000343D01*
X133736230Y-116793860D01*
X133795360Y-116704998D01*
X133921175Y-116554221D01*
X134068177Y-116408872D01*
X134217954Y-116285082D01*
X134352092Y-116198980D01*
X134452180Y-116166695D01*
X134482404Y-116170715D01*
X134590750Y-116213056D01*
X134710061Y-116286670D01*
X134767853Y-116330575D01*
X134873157Y-116420698D01*
X134913721Y-116479154D01*
X134897189Y-116515283D01*
X134887410Y-116527532D01*
X134860194Y-116606290D01*
X134837722Y-116726765D01*
X134834406Y-116753063D01*
X134828638Y-116862986D01*
X134853248Y-116922958D01*
X134918605Y-116963301D01*
X134973542Y-116982244D01*
X135109363Y-116972612D01*
X135230650Y-116879974D01*
X135332649Y-116707269D01*
X135419750Y-116504071D01*
X135254712Y-116297482D01*
X135186772Y-116212475D01*
X134836502Y-115775503D01*
X134515029Y-115376645D01*
X134225952Y-115020284D01*
X133972867Y-114710801D01*
X133759371Y-114452577D01*
X133589062Y-114249993D01*
X133465537Y-114107431D01*
X133392393Y-114029272D01*
X133373379Y-114011248D01*
X133288502Y-113938388D01*
X133212837Y-113902453D01*
X133114323Y-113894149D01*
X132960903Y-113904181D01*
X132845641Y-113921802D01*
X132681499Y-113962954D01*
X132469674Y-114029298D01*
X132203805Y-114123084D01*
X131877535Y-114246562D01*
X131484504Y-114401983D01*
X131084337Y-114564756D01*
X131018352Y-114591596D01*
X131008481Y-114596375D01*
X130944047Y-114662270D01*
X130872464Y-114796218D01*
X130827481Y-114909638D01*
X130788834Y-115007082D01*
X130758508Y-115091891D01*
X130704040Y-115250107D01*
X130666384Y-115367795D01*
X130652324Y-115424225D01*
X130234324Y-115424225D01*
X130282994Y-115302166D01*
X130350416Y-115118315D01*
X130388729Y-114990327D01*
X130400402Y-114909638D01*
X130387905Y-114867683D01*
X130353706Y-114855898D01*
X130352459Y-114855924D01*
X130266206Y-114876588D01*
X130103426Y-114935088D01*
X129865994Y-115030671D01*
X129555783Y-115162584D01*
X129174664Y-115330072D01*
X129056839Y-115381324D01*
X128893790Y-115448133D01*
X128769662Y-115493931D01*
X128704699Y-115510929D01*
X128691523Y-115511375D01*
X128653267Y-115526414D01*
X127929851Y-115526414D01*
X127928504Y-115507217D01*
X127963221Y-115424388D01*
X128000494Y-115370500D01*
X128114364Y-115281147D01*
X128300881Y-115192678D01*
X128348377Y-115173603D01*
X128485940Y-115118293D01*
X128690996Y-115035806D01*
X128841156Y-114975387D01*
X129428699Y-114975387D01*
X129430910Y-114995523D01*
X129461016Y-115026224D01*
X129471366Y-115024402D01*
X129557711Y-114997054D01*
X129693881Y-114944635D01*
X129861166Y-114875378D01*
X130040856Y-114797520D01*
X130214241Y-114719293D01*
X130362613Y-114648934D01*
X130467261Y-114594677D01*
X130509477Y-114564756D01*
X130508135Y-114560640D01*
X130456013Y-114564451D01*
X130340618Y-114594652D01*
X130176260Y-114647129D01*
X129977251Y-114717768D01*
X129928004Y-114736225D01*
X129732477Y-114814183D01*
X129573959Y-114884785D01*
X129467637Y-114940897D01*
X129428699Y-114975387D01*
X128841156Y-114975387D01*
X128955120Y-114929532D01*
X129269889Y-114802861D01*
X129626876Y-114659184D01*
X130017659Y-114501890D01*
X130430004Y-114335904D01*
X131045784Y-114335904D01*
X131045932Y-114342750D01*
X131051646Y-114359970D01*
X131073662Y-114365223D01*
X131122762Y-114355015D01*
X131209728Y-114325851D01*
X131345344Y-114274239D01*
X131540392Y-114196683D01*
X131805655Y-114089691D01*
X131851964Y-114070966D01*
X132105624Y-113967943D01*
X132289712Y-113891576D01*
X132414284Y-113836848D01*
X132489395Y-113798742D01*
X132525102Y-113772241D01*
X132531458Y-113752326D01*
X132518520Y-113733980D01*
X132513190Y-113732411D01*
X132447290Y-113746617D01*
X132321369Y-113788265D01*
X132151199Y-113850911D01*
X131952551Y-113928108D01*
X131741195Y-114013410D01*
X131532903Y-114100372D01*
X131343445Y-114182548D01*
X131188591Y-114253493D01*
X131084114Y-114306760D01*
X131045784Y-114335904D01*
X130430004Y-114335904D01*
X130433812Y-114334371D01*
X130866911Y-114160016D01*
X131185500Y-114031856D01*
X131646772Y-113846984D01*
X132038116Y-113691547D01*
X132242130Y-113611851D01*
X133024178Y-113611851D01*
X133031472Y-113661044D01*
X133111447Y-113675381D01*
X133125692Y-113675577D01*
X133223106Y-113685853D01*
X133314092Y-113718372D01*
X133365158Y-113752326D01*
X133410602Y-113782542D01*
X133524586Y-113887773D01*
X133667997Y-114043475D01*
X133852784Y-114259058D01*
X133901645Y-114317035D01*
X134080866Y-114529407D01*
X134295596Y-114783529D01*
X134530013Y-115060691D01*
X134768295Y-115342182D01*
X134994619Y-115609294D01*
X135206894Y-115857593D01*
X135399966Y-116077519D01*
X135548897Y-116238871D01*
X135658911Y-116347055D01*
X135735230Y-116407479D01*
X135783076Y-116425550D01*
X135842060Y-116421349D01*
X135938331Y-116396910D01*
X135986005Y-116346797D01*
X135982720Y-116265145D01*
X135926114Y-116146088D01*
X135813824Y-115983759D01*
X135643490Y-115772293D01*
X135412749Y-115505825D01*
X135060996Y-115108981D01*
X134703570Y-114708108D01*
X134397909Y-114368320D01*
X134141316Y-114086719D01*
X133931094Y-113860406D01*
X133764544Y-113686482D01*
X133638970Y-113562047D01*
X133551675Y-113484204D01*
X133499960Y-113450052D01*
X133481838Y-113443721D01*
X133327741Y-113425256D01*
X133179441Y-113457356D01*
X133073828Y-113532853D01*
X133024178Y-113611851D01*
X132242130Y-113611851D01*
X132366382Y-113563313D01*
X132638420Y-113460046D01*
X132861079Y-113379513D01*
X133041211Y-113319482D01*
X133185665Y-113277717D01*
X133301291Y-113251986D01*
X133394940Y-113240055D01*
X133473460Y-113239689D01*
X133543703Y-113248656D01*
X133612519Y-113264722D01*
X133640400Y-113283830D01*
X133725518Y-113362205D01*
X133857851Y-113494517D01*
X134030982Y-113674009D01*
X134238493Y-113893927D01*
X134473967Y-114147513D01*
X134730987Y-114428012D01*
X135003135Y-114728669D01*
X135198511Y-114945348D01*
X135456463Y-115229972D01*
X135692569Y-115488827D01*
X135900757Y-115715345D01*
X136074952Y-115902959D01*
X136209082Y-116045100D01*
X136297074Y-116135201D01*
X136332854Y-116166695D01*
X136360246Y-116156734D01*
X136421694Y-116102769D01*
X136426469Y-116097583D01*
X136506233Y-116044636D01*
X136636411Y-115982343D01*
X136786708Y-115922833D01*
X136926827Y-115878232D01*
X137026471Y-115860671D01*
X137048464Y-115858223D01*
X137148922Y-115826620D01*
X137270781Y-115770201D01*
X137291194Y-115759564D01*
X137362469Y-115728931D01*
X137445921Y-115706821D01*
X137556602Y-115691645D01*
X137709563Y-115681815D01*
X137919855Y-115675741D01*
X138202529Y-115671836D01*
X138471722Y-115669478D01*
X138675103Y-115669699D01*
X138817429Y-115673987D01*
X138912068Y-115683738D01*
X138972386Y-115700349D01*
X139011749Y-115725218D01*
X139043524Y-115759742D01*
X139057241Y-115778725D01*
X139113261Y-115897240D01*
X139150789Y-116038279D01*
X139180010Y-116221013D01*
X139415022Y-116201524D01*
X139525353Y-116196059D01*
X139655594Y-116210322D01*
X139750315Y-116257678D01*
X139773662Y-116276690D01*
X139815809Y-116338683D01*
X139812829Y-116346797D01*
X139792938Y-116400961D01*
X139698846Y-116471933D01*
X139636262Y-116504071D01*
X139527328Y-116560011D01*
X139306267Y-116663551D01*
X139326167Y-117125536D01*
X139326350Y-117129777D01*
X139331246Y-117227115D01*
X139336658Y-117334693D01*
X139340265Y-117375124D01*
X139348486Y-117467291D01*
X139365082Y-117542417D01*
X139389697Y-117574916D01*
X139425580Y-117579633D01*
X139471685Y-117584599D01*
X139540089Y-117634280D01*
X139572310Y-117667862D01*
X139660349Y-117696815D01*
X139709355Y-117708810D01*
X139745612Y-117762392D01*
X139759804Y-117799136D01*
X139827694Y-117827968D01*
X139877414Y-117837218D01*
X139963801Y-117893064D01*
X140000606Y-117925704D01*
X140054669Y-117935388D01*
X140055347Y-117934994D01*
X140102648Y-117952349D01*
X140164038Y-118023305D01*
X140231879Y-118100503D01*
X140297111Y-118133992D01*
X140324586Y-118141009D01*
X140357660Y-118198031D01*
X140375463Y-118246175D01*
X140445095Y-118308863D01*
X140497362Y-118353259D01*
X140532531Y-118437911D01*
X140540565Y-118485017D01*
X140582903Y-118536956D01*
X140583720Y-118537244D01*
X140629220Y-118592348D01*
X140675516Y-118709295D01*
X140716054Y-118863289D01*
X140744284Y-119029529D01*
X140753653Y-119183218D01*
X140753044Y-119222260D01*
X140750834Y-119384379D01*
X140749403Y-119520313D01*
X140749346Y-119524871D01*
X140735695Y-119628933D01*
X140705846Y-119686934D01*
X140684730Y-119726885D01*
X140688925Y-119815035D01*
X140694351Y-119886248D01*
X140667226Y-119946089D01*
X140641762Y-119975288D01*
X140619966Y-120060152D01*
X140612121Y-120108508D01*
X140576249Y-120145008D01*
X140550585Y-120162034D01*
X140532531Y-120233815D01*
X140520957Y-120288485D01*
X140466954Y-120347787D01*
X140436595Y-120366118D01*
X140401378Y-120431371D01*
X140377559Y-120486513D01*
X140305650Y-120556842D01*
X140247378Y-120609451D01*
X140235655Y-120649624D01*
X140277779Y-120645334D01*
X140372277Y-120605858D01*
X140494757Y-120542641D01*
X140621874Y-120468585D01*
X140730282Y-120396594D01*
X140796636Y-120339570D01*
X140833518Y-120307664D01*
X140925332Y-120276161D01*
X140951914Y-120271443D01*
X141047515Y-120226996D01*
X141159043Y-120150885D01*
X141194114Y-120124110D01*
X141330736Y-120033466D01*
X141453257Y-119969038D01*
X141477816Y-119959191D01*
X141561668Y-119938356D01*
X141619914Y-119962940D01*
X141667772Y-120046172D01*
X141720463Y-120201280D01*
X141723614Y-120211574D01*
X141749295Y-120318334D01*
X141736824Y-120380057D01*
X141680243Y-120430725D01*
X141649939Y-120457356D01*
X141572252Y-120569005D01*
X141507418Y-120714216D01*
X141468869Y-120858658D01*
X141470036Y-120968001D01*
X141476117Y-121010957D01*
X141442836Y-121086479D01*
X141343189Y-121179941D01*
X141298806Y-121216937D01*
X141277079Y-121237951D01*
X141219650Y-121293495D01*
X141188298Y-121341116D01*
X141187771Y-121344307D01*
X141153318Y-121399722D01*
X141075655Y-121497210D01*
X140969708Y-121617875D01*
X140954534Y-121634569D01*
X140851478Y-121753303D01*
X140778697Y-121846411D01*
X140751120Y-121894966D01*
X140751632Y-121898109D01*
X140794388Y-121907747D01*
X140884869Y-121886261D01*
X140955131Y-121865952D01*
X141037861Y-121873455D01*
X141125316Y-121939874D01*
X141135499Y-121954649D01*
X141202992Y-122052574D01*
X141231191Y-122209860D01*
X141199661Y-122375668D01*
X141116204Y-122529708D01*
X140988626Y-122651692D01*
X140824731Y-122721330D01*
X140822178Y-122721862D01*
X140724587Y-122760390D01*
X140685461Y-122813557D01*
X140670999Y-122880179D01*
X140626230Y-122981195D01*
X140623613Y-122985852D01*
X140589881Y-123085566D01*
X140619727Y-123182943D01*
X140638911Y-123227458D01*
X140639029Y-123289792D01*
X140598875Y-123370856D01*
X140510078Y-123494432D01*
X140433118Y-123589174D01*
X140326700Y-123702771D01*
X140242906Y-123773165D01*
X140176186Y-123833053D01*
X140158505Y-123892318D01*
X140166373Y-123936842D01*
X140136646Y-124060517D01*
X140053888Y-124205204D01*
X139932084Y-124352710D01*
X139785218Y-124484842D01*
X139627276Y-124583407D01*
X139583324Y-124607165D01*
X139453175Y-124695778D01*
X139326494Y-124801698D01*
X139298869Y-124828068D01*
X139220179Y-124913673D01*
X139197870Y-124970928D01*
X139221976Y-125020712D01*
X139247887Y-125068674D01*
X139230167Y-125128209D01*
X139153908Y-125217845D01*
X139126964Y-125244641D01*
X139036402Y-125317975D01*
X138971000Y-125347418D01*
X138942349Y-125351250D01*
X138891544Y-125399832D01*
X138894365Y-125482172D01*
X138953076Y-125570157D01*
X139015978Y-125642426D01*
X139040618Y-125740236D01*
X138980552Y-125828313D01*
X138977157Y-125831148D01*
X138924371Y-125888825D01*
X138937236Y-125924538D01*
X139022825Y-125942300D01*
X139188211Y-125946124D01*
X139353862Y-125953655D01*
X139546704Y-125993199D01*
X139678957Y-126062383D01*
X139738391Y-126156528D01*
X139751899Y-126209346D01*
X139784321Y-126275911D01*
X139811696Y-126270175D01*
X139889481Y-126212316D01*
X140004524Y-126107496D01*
X140145748Y-125966836D01*
X140302081Y-125801456D01*
X140462446Y-125622477D01*
X140615771Y-125441019D01*
X140740131Y-125283786D01*
X140907122Y-125059176D01*
X141070854Y-124825583D01*
X141224320Y-124594296D01*
X141360512Y-124376608D01*
X141472419Y-124183809D01*
X141553035Y-124027192D01*
X141595349Y-123918047D01*
X141592354Y-123867666D01*
X141583512Y-123864014D01*
X141501868Y-123851359D01*
X141363366Y-123842496D01*
X141192323Y-123839156D01*
X141139453Y-123839056D01*
X140986020Y-123837478D01*
X140878867Y-123834380D01*
X140838571Y-123830278D01*
X140853778Y-123819657D01*
X140934454Y-123780782D01*
X141070567Y-123721198D01*
X141246220Y-123648014D01*
X141344576Y-123619846D01*
X141410072Y-123622536D01*
X141417158Y-123625306D01*
X141489095Y-123615839D01*
X141592596Y-123573164D01*
X141606361Y-123565985D01*
X141716600Y-123509542D01*
X141793633Y-123471743D01*
X141836398Y-123428187D01*
X141903497Y-123307030D01*
X141982198Y-123123432D01*
X142068349Y-122890069D01*
X142157797Y-122619621D01*
X142246390Y-122324763D01*
X142329976Y-122018173D01*
X142404402Y-121712530D01*
X142465515Y-121420509D01*
X142478001Y-121352970D01*
X142508590Y-121166699D01*
X142531057Y-120984129D01*
X142546602Y-120787038D01*
X142556420Y-120557204D01*
X142561710Y-120276405D01*
X142563667Y-119926419D01*
X142563708Y-119882407D01*
X142559812Y-119451639D01*
X142548339Y-119077178D01*
X142529728Y-118769325D01*
X142504419Y-118538381D01*
X142443432Y-118133992D01*
X142296760Y-118133992D01*
X142282109Y-118133774D01*
X142188401Y-118119660D01*
X142150087Y-118090275D01*
X142148708Y-118086848D01*
X142091423Y-118069919D01*
X141955255Y-118057251D01*
X141747397Y-118049308D01*
X141475042Y-118046557D01*
X141343787Y-118045818D01*
X141125311Y-118041002D01*
X140947435Y-118032447D01*
X140825767Y-118021022D01*
X140775919Y-118007596D01*
X140775576Y-118006976D01*
X140803901Y-117976731D01*
X140897134Y-117935426D01*
X141035645Y-117891814D01*
X141036272Y-117891644D01*
X141178937Y-117848600D01*
X141280657Y-117809525D01*
X141319450Y-117782858D01*
X141347419Y-117753733D01*
X141425223Y-117731164D01*
X141511366Y-117726611D01*
X141563521Y-117746396D01*
X141571965Y-117756885D01*
X141648321Y-117783146D01*
X141753012Y-117767853D01*
X141847913Y-117715189D01*
X141917625Y-117672813D01*
X142006723Y-117690280D01*
X142060388Y-117708790D01*
X142150355Y-117696649D01*
X142183312Y-117681057D01*
X142243344Y-117678554D01*
X142279601Y-117687501D01*
X142296253Y-117641330D01*
X142280708Y-117527592D01*
X142232297Y-117341986D01*
X142150351Y-117080213D01*
X142051095Y-116796859D01*
X141734947Y-116058498D01*
X141345554Y-115338595D01*
X140892820Y-114652713D01*
X140386651Y-114016416D01*
X139836952Y-113445266D01*
X139476050Y-113106454D01*
X138375805Y-113102903D01*
X138094465Y-113101528D01*
X137815181Y-113098518D01*
X137610162Y-113093700D01*
X137472088Y-113086669D01*
X137393641Y-113077021D01*
X137367501Y-113064351D01*
X137386351Y-113048256D01*
X137406480Y-113038443D01*
X137523592Y-112971135D01*
X137648657Y-112887865D01*
X137735177Y-112832511D01*
X137825798Y-112799657D01*
X137944161Y-112787488D01*
X138119912Y-112789838D01*
X138126275Y-112790057D01*
X138315903Y-112790113D01*
X138436210Y-112773222D01*
X138503626Y-112737129D01*
X138587392Y-112695549D01*
X138719429Y-112685110D01*
X138739036Y-112686430D01*
X138833021Y-112684975D01*
X138871257Y-112670223D01*
X138855425Y-112646384D01*
X138775343Y-112581610D01*
X138639383Y-112489728D01*
X138460747Y-112378633D01*
X138252641Y-112256225D01*
X138028269Y-112130399D01*
X137800837Y-112009054D01*
X137583548Y-111900086D01*
X137360956Y-111796476D01*
X136548981Y-111477936D01*
X135722809Y-111243424D01*
X134887435Y-111092200D01*
X134047859Y-111023519D01*
X133209076Y-111036640D01*
X132376085Y-111130820D01*
X131553882Y-111305318D01*
X130747465Y-111559389D01*
X129961831Y-111892293D01*
X129201978Y-112303287D01*
X128472902Y-112791628D01*
X127779602Y-113356574D01*
X127644839Y-113483947D01*
X127540350Y-113600073D01*
X127492362Y-113678692D01*
X127504450Y-113713669D01*
X127580188Y-113698869D01*
X127621212Y-113692779D01*
X127706919Y-113723101D01*
X127759140Y-113749862D01*
X127832491Y-113718535D01*
X127909103Y-113686429D01*
X128018292Y-113711238D01*
X128061805Y-113725928D01*
X128201238Y-113760525D01*
X128357144Y-113787801D01*
X128536172Y-113832594D01*
X128748286Y-113942757D01*
X128805113Y-113981380D01*
X128918097Y-114043664D01*
X128997083Y-114068244D01*
X129038176Y-114074605D01*
X129104124Y-114118075D01*
X129091320Y-114133808D01*
X129024534Y-114144673D01*
X128896941Y-114150497D01*
X128701913Y-114151418D01*
X128432821Y-114147571D01*
X128083037Y-114139094D01*
X127031152Y-114110281D01*
X126727146Y-114515510D01*
X126722563Y-114521624D01*
X126228708Y-115247435D01*
X125815635Y-116000195D01*
X125480608Y-116786322D01*
X125220887Y-117612232D01*
X125033736Y-118484343D01*
X125012859Y-118636849D01*
X124989261Y-118874361D01*
X124967796Y-119155969D01*
X124950204Y-119458481D01*
X124938221Y-119758704D01*
X124912852Y-120618355D01*
X123842002Y-120618355D01*
X123842703Y-120508496D01*
X123845721Y-120159750D01*
X123849241Y-119857642D01*
X123853300Y-119598089D01*
X123857933Y-119377008D01*
X123863175Y-119190315D01*
X123869062Y-119033928D01*
X123875629Y-118903765D01*
X123882911Y-118795741D01*
X123890945Y-118705775D01*
X123899764Y-118629783D01*
X124044180Y-117792359D01*
X124282045Y-116890120D01*
X124600012Y-116021984D01*
X124996947Y-115190301D01*
X125471715Y-114397418D01*
X126023182Y-113645682D01*
X126650213Y-112937443D01*
X127276923Y-112344752D01*
X127991524Y-111779905D01*
X128751996Y-111283007D01*
X129550589Y-110858609D01*
X130379556Y-110511265D01*
X131231147Y-110245529D01*
X131624303Y-110147521D01*
X131972142Y-110071669D01*
X132294355Y-110016027D01*
X132613501Y-109977906D01*
X132952141Y-109954614D01*
X133332835Y-109943460D01*
X133778142Y-109941755D01*
X134051112Y-109943587D01*
X134345894Y-109948327D01*
X134587768Y-109957013D01*
X134796304Y-109971049D01*
X134991068Y-109991837D01*
X135191630Y-110020780D01*
X135417557Y-110059280D01*
X135949058Y-110168053D01*
X136855939Y-110421324D01*
X137725869Y-110752435D01*
X138555652Y-111159736D01*
X139342092Y-111641578D01*
X140081993Y-112196312D01*
X140772160Y-112822288D01*
X141035093Y-113094667D01*
X141613180Y-113778067D01*
X142130411Y-114513672D01*
X142581487Y-115291788D01*
X142961107Y-116102720D01*
X143263972Y-116936772D01*
X143484780Y-117784251D01*
X143501241Y-117862449D01*
X143526690Y-117982754D01*
X143549838Y-118094676D01*
X143570802Y-118202569D01*
X143589701Y-118310789D01*
X143606653Y-118423691D01*
X143621775Y-118545632D01*
X143635186Y-118680965D01*
X143647003Y-118834047D01*
X143657343Y-119009232D01*
X143666326Y-119210878D01*
X143674069Y-119443337D01*
X143680689Y-119710967D01*
X143683824Y-119882407D01*
X143686305Y-120018123D01*
G37*
%TD*%
M02*
