M48
; DRILL file {KiCad 9.0.7-9.0.7~ubuntu24.04.1} date 2026-03-08T12:20:45-0600
; FORMAT={-:-/ absolute / metric / decimal}
; #@! TF.CreationDate,2026-03-08T12:20:45-06:00
; #@! TF.GenerationSoftware,Kicad,Pcbnew,9.0.7-9.0.7~ubuntu24.04.1
; #@! TF.FileFunction,Plated,1,2,PTH
FMAT,2
METRIC
; #@! TA.AperFunction,Plated,PTH,ViaDrill
T1C0.300
; #@! TA.AperFunction,Plated,PTH,ComponentDrill
T2C1.050
; #@! TA.AperFunction,Plated,PTH,ComponentDrill
T3C1.100
%
G90
G05
T1
X113.41Y-116.18
X115.25Y-119.5
X117.0Y-119.5
X119.02Y-113.02
X124.97Y-141.74
X127.56Y-141.7
X128.71Y-115.22
X136.29Y-138.62
X141.91Y-138.62
X145.06Y-147.08
X145.61Y-124.12
X148.02Y-120.35
X149.97Y-106.02
X150.6Y-120.53
X156.76Y-120.46
T2
X142.98Y-109.84
X142.98Y-112.38
X142.98Y-114.92
X142.98Y-117.46
X150.6Y-109.84
X150.6Y-112.38
X150.6Y-114.92
X150.6Y-117.46
T3
X111.5Y-125.0
X111.5Y-129.5
X118.0Y-125.0
X118.0Y-129.5
X130.0Y-106.5
X130.0Y-111.0
X130.0Y-125.0
X130.0Y-129.5
X130.0Y-143.5
X130.0Y-148.0
X136.5Y-106.5
X136.5Y-111.0
X136.5Y-125.0
X136.5Y-129.5
X136.5Y-143.5
X136.5Y-148.0
X148.5Y-125.0
X148.5Y-129.5
X155.0Y-125.0
X155.0Y-129.5
M30
