%TF.GenerationSoftware,KiCad,Pcbnew,9.0.7-9.0.7~ubuntu24.04.1*%
%TF.CreationDate,2026-03-08T12:20:42-06:00*%
%TF.ProjectId,controller_pcb,636f6e74-726f-46c6-9c65-725f7063622e,rev?*%
%TF.SameCoordinates,Original*%
%TF.FileFunction,Paste,Top*%
%TF.FilePolarity,Positive*%
%FSLAX46Y46*%
G04 Gerber Fmt 4.6, Leading zero omitted, Abs format (unit mm)*
G04 Created by KiCad (PCBNEW 9.0.7-9.0.7~ubuntu24.04.1) date 2026-03-08 12:20:42*
%MOMM*%
%LPD*%
G01*
G04 APERTURE LIST*
%ADD10R,0.980000X1.430000*%
%ADD11R,1.400000X1.150000*%
%ADD12R,1.600000X1.050000*%
%ADD13R,1.300000X0.600000*%
%ADD14R,0.600000X1.700000*%
%ADD15R,1.000000X2.700000*%
%ADD16R,0.900000X1.400000*%
%ADD17R,1.300000X0.950000*%
%ADD18R,1.300000X3.250000*%
%ADD19R,1.150000X1.150000*%
G04 APERTURE END LIST*
D10*
%TO.C,C7*%
X143980000Y-120430000D03*
X145580000Y-120430000D03*
%TD*%
%TO.C,C1*%
X134300000Y-113500000D03*
X132700000Y-113500000D03*
%TD*%
D11*
%TO.C,R2*%
X144500000Y-128850000D03*
X144500000Y-126500000D03*
%TD*%
D10*
%TO.C,C5*%
X134050000Y-132000000D03*
X132450000Y-132000000D03*
%TD*%
%TO.C,C2*%
X152800000Y-132000000D03*
X151200000Y-132000000D03*
%TD*%
D11*
%TO.C,R4*%
X107500000Y-126500000D03*
X107500000Y-128850000D03*
%TD*%
%TO.C,R3*%
X126000000Y-147350000D03*
X126000000Y-145000000D03*
%TD*%
D10*
%TO.C,C3*%
X134000000Y-150500000D03*
X132400000Y-150500000D03*
%TD*%
D12*
%TO.C,C6*%
X129750000Y-119700000D03*
X129750000Y-116750000D03*
%TD*%
D13*
%TO.C,Q1*%
X111400000Y-117300000D03*
X111400000Y-119200000D03*
X113500000Y-118250000D03*
%TD*%
D11*
%TO.C,R1*%
X125750000Y-108000000D03*
X125750000Y-110350000D03*
%TD*%
%TO.C,R5*%
X126000000Y-128850000D03*
X126000000Y-126500000D03*
%TD*%
D14*
%TO.C,J2*%
X148320000Y-106440000D03*
X147070000Y-106440000D03*
X145820000Y-106440000D03*
X144570000Y-106440000D03*
D15*
X150170000Y-103240000D03*
X142720000Y-103240000D03*
%TD*%
D16*
%TO.C,LED1*%
X143450000Y-149000000D03*
X141550000Y-149000000D03*
%TD*%
D10*
%TO.C,C4*%
X115300000Y-132000000D03*
X113700000Y-132000000D03*
%TD*%
D17*
%TO.C,IC1*%
X118300000Y-114960000D03*
X118300000Y-117250000D03*
X118300000Y-119540000D03*
D18*
X125000000Y-117250000D03*
%TD*%
D19*
%TO.C,R6*%
X141500000Y-144000000D03*
X143850000Y-144000000D03*
%TD*%
M02*
