%TF.GenerationSoftware,KiCad,Pcbnew,9.0.7-9.0.7~ubuntu24.04.1*%
%TF.CreationDate,2026-03-08T12:20:42-06:00*%
%TF.ProjectId,controller_pcb,636f6e74-726f-46c6-9c65-725f7063622e,rev?*%
%TF.SameCoordinates,Original*%
%TF.FileFunction,Copper,L1,Top*%
%TF.FilePolarity,Positive*%
%FSLAX46Y46*%
G04 Gerber Fmt 4.6, Leading zero omitted, Abs format (unit mm)*
G04 Created by KiCad (PCBNEW 9.0.7-9.0.7~ubuntu24.04.1) date 2026-03-08 12:20:42*
%MOMM*%
%LPD*%
G01*
G04 APERTURE LIST*
%TA.AperFunction,SMDPad,CuDef*%
%ADD10R,0.980000X1.430000*%
%TD*%
%TA.AperFunction,SMDPad,CuDef*%
%ADD11R,1.400000X1.150000*%
%TD*%
%TA.AperFunction,ComponentPad*%
%ADD12C,1.650000*%
%TD*%
%TA.AperFunction,SMDPad,CuDef*%
%ADD13R,1.600000X1.050000*%
%TD*%
%TA.AperFunction,SMDPad,CuDef*%
%ADD14R,1.300000X0.600000*%
%TD*%
%TA.AperFunction,SMDPad,CuDef*%
%ADD15R,0.600000X1.700000*%
%TD*%
%TA.AperFunction,SMDPad,CuDef*%
%ADD16R,1.000000X2.700000*%
%TD*%
%TA.AperFunction,SMDPad,CuDef*%
%ADD17R,2.000000X2.000000*%
%TD*%
%TA.AperFunction,ComponentPad*%
%ADD18R,1.575000X1.575000*%
%TD*%
%TA.AperFunction,ComponentPad*%
%ADD19C,1.575000*%
%TD*%
%TA.AperFunction,SMDPad,CuDef*%
%ADD20R,0.900000X1.400000*%
%TD*%
%TA.AperFunction,SMDPad,CuDef*%
%ADD21R,1.300000X0.950000*%
%TD*%
%TA.AperFunction,SMDPad,CuDef*%
%ADD22R,1.300000X3.250000*%
%TD*%
%TA.AperFunction,SMDPad,CuDef*%
%ADD23R,1.150000X1.150000*%
%TD*%
%TA.AperFunction,ViaPad*%
%ADD24C,0.600000*%
%TD*%
%TA.AperFunction,Conductor*%
%ADD25C,0.200000*%
%TD*%
G04 APERTURE END LIST*
D10*
%TO.P,C7,1,1*%
%TO.N,GND*%
X143980000Y-120430000D03*
%TO.P,C7,2,2*%
%TO.N,Net-(IC1-VOUT)*%
X145580000Y-120430000D03*
%TD*%
%TO.P,C1,1,1*%
%TO.N,Net-(C1-Pad1)*%
X134300000Y-113500000D03*
%TO.P,C1,2,2*%
%TO.N,Net-(C1-Pad2)*%
X132700000Y-113500000D03*
%TD*%
D11*
%TO.P,R2,1,1*%
%TO.N,Net-(J1-Pad7)*%
X144500000Y-128850000D03*
%TO.P,R2,2,2*%
%TO.N,Net-(IC1-VOUT)*%
X144500000Y-126500000D03*
%TD*%
D10*
%TO.P,C5,1,1*%
%TO.N,Net-(C5-Pad1)*%
X134050000Y-132000000D03*
%TO.P,C5,2,2*%
%TO.N,Net-(C5-Pad2)*%
X132450000Y-132000000D03*
%TD*%
%TO.P,C2,1,1*%
%TO.N,Net-(C2-Pad1)*%
X152800000Y-132000000D03*
%TO.P,C2,2,2*%
%TO.N,Net-(C2-Pad2)*%
X151200000Y-132000000D03*
%TD*%
D11*
%TO.P,R4,1,1*%
%TO.N,Net-(J1-Pad2)*%
X107500000Y-126500000D03*
%TO.P,R4,2,2*%
%TO.N,Net-(IC1-VOUT)*%
X107500000Y-128850000D03*
%TD*%
%TO.P,R3,1,1*%
%TO.N,Net-(J1-Pad5)*%
X126000000Y-147350000D03*
%TO.P,R3,2,2*%
%TO.N,Net-(IC1-VOUT)*%
X126000000Y-145000000D03*
%TD*%
D12*
%TO.P,S2,1,1*%
%TO.N,Net-(C2-Pad1)*%
X155000000Y-129500000D03*
%TO.P,S2,2,2*%
%TO.N,GND*%
X148500000Y-129500000D03*
%TO.P,S2,3,3*%
%TO.N,Net-(J1-Pad7)*%
X155000000Y-125000000D03*
%TO.P,S2,4,4*%
%TO.N,Net-(C2-Pad2)*%
X148500000Y-125000000D03*
%TD*%
D10*
%TO.P,C3,1,1*%
%TO.N,Net-(C3-Pad1)*%
X134000000Y-150500000D03*
%TO.P,C3,2,2*%
%TO.N,Net-(C3-Pad2)*%
X132400000Y-150500000D03*
%TD*%
D13*
%TO.P,C6,1,1*%
%TO.N,Net-(IC1-VIN)*%
X129750000Y-119700000D03*
%TO.P,C6,2,2*%
%TO.N,GND*%
X129750000Y-116750000D03*
%TD*%
D12*
%TO.P,S1,1,1*%
%TO.N,Net-(C1-Pad1)*%
X136500000Y-111000000D03*
%TO.P,S1,2,2*%
%TO.N,GND*%
X130000000Y-111000000D03*
%TO.P,S1,3,3*%
%TO.N,Net-(J1-Pad1)*%
X136500000Y-106500000D03*
%TO.P,S1,4,4*%
%TO.N,Net-(C1-Pad2)*%
X130000000Y-106500000D03*
%TD*%
D14*
%TO.P,Q1,1,G*%
%TO.N,GND*%
X111400000Y-117300000D03*
%TO.P,Q1,2,S*%
%TO.N,Net-(Q1-S)*%
X111400000Y-119200000D03*
%TO.P,Q1,3,D*%
%TO.N,Net-(IC1-VIN)*%
X113500000Y-118250000D03*
%TD*%
D11*
%TO.P,R1,1,1*%
%TO.N,Net-(J1-Pad1)*%
X125750000Y-108000000D03*
%TO.P,R1,2,2*%
%TO.N,Net-(IC1-VOUT)*%
X125750000Y-110350000D03*
%TD*%
%TO.P,R5,1,1*%
%TO.N,Net-(J1-Pad6)*%
X126000000Y-128850000D03*
%TO.P,R5,2,2*%
%TO.N,Net-(IC1-VOUT)*%
X126000000Y-126500000D03*
%TD*%
D15*
%TO.P,J2,1,1*%
%TO.N,GND*%
X148320000Y-106440000D03*
%TO.P,J2,2,2*%
%TO.N,Net-(J1-Pad3)*%
X147070000Y-106440000D03*
%TO.P,J2,3,3*%
%TO.N,Net-(Q1-S)*%
X145820000Y-106440000D03*
%TO.P,J2,4,4*%
%TO.N,unconnected-(J2-Pad4)*%
X144570000Y-106440000D03*
D16*
%TO.P,J2,5*%
%TO.N,N/C*%
X150170000Y-103240000D03*
%TO.P,J2,6*%
X142720000Y-103240000D03*
%TD*%
D17*
%TO.P,TP1,1,1*%
%TO.N,Net-(J1-Pad3)*%
X155380000Y-103880000D03*
%TD*%
D18*
%TO.P,J1,1,1*%
%TO.N,Net-(J1-Pad1)*%
X142980000Y-109840000D03*
D19*
%TO.P,J1,2,2*%
%TO.N,Net-(J1-Pad2)*%
X142980000Y-112380000D03*
%TO.P,J1,3,3*%
%TO.N,Net-(J1-Pad3)*%
X142980000Y-114920000D03*
%TO.P,J1,4,4*%
%TO.N,GND*%
X142980000Y-117460000D03*
%TO.P,J1,5,5*%
%TO.N,Net-(J1-Pad5)*%
X150600000Y-117460000D03*
%TO.P,J1,6,6*%
%TO.N,Net-(J1-Pad6)*%
X150600000Y-114920000D03*
%TO.P,J1,7,7*%
%TO.N,Net-(J1-Pad7)*%
X150600000Y-112380000D03*
%TO.P,J1,8,8*%
%TO.N,Net-(IC1-VOUT)*%
X150600000Y-109840000D03*
%TD*%
D20*
%TO.P,LED1,1,K*%
%TO.N,GND*%
X143450000Y-149000000D03*
%TO.P,LED1,2,A*%
%TO.N,Net-(LED1-A)*%
X141550000Y-149000000D03*
%TD*%
D10*
%TO.P,C4,1,1*%
%TO.N,Net-(C4-Pad1)*%
X115300000Y-132000000D03*
%TO.P,C4,2,2*%
%TO.N,Net-(C4-Pad2)*%
X113700000Y-132000000D03*
%TD*%
D12*
%TO.P,S5,1,1*%
%TO.N,Net-(C5-Pad1)*%
X136500000Y-129500000D03*
%TO.P,S5,2,2*%
%TO.N,GND*%
X130000000Y-129500000D03*
%TO.P,S5,3,3*%
%TO.N,Net-(J1-Pad6)*%
X136500000Y-125000000D03*
%TO.P,S5,4,4*%
%TO.N,Net-(C5-Pad2)*%
X130000000Y-125000000D03*
%TD*%
D21*
%TO.P,IC1,1,GROUND/ADJUST*%
%TO.N,GND*%
X118300000Y-114960000D03*
%TO.P,IC1,2,VOUT*%
%TO.N,Net-(IC1-VOUT)*%
X118300000Y-117250000D03*
%TO.P,IC1,3,VIN*%
%TO.N,Net-(IC1-VIN)*%
X118300000Y-119540000D03*
D22*
%TO.P,IC1,4,TAB*%
%TO.N,unconnected-(IC1-TAB-Pad4)*%
X125000000Y-117250000D03*
%TD*%
D23*
%TO.P,R6,1,1*%
%TO.N,Net-(LED1-A)*%
X141500000Y-144000000D03*
%TO.P,R6,2,2*%
%TO.N,Net-(IC1-VOUT)*%
X143850000Y-144000000D03*
%TD*%
D12*
%TO.P,S3,1,1*%
%TO.N,Net-(C3-Pad1)*%
X136500000Y-148000000D03*
%TO.P,S3,2,2*%
%TO.N,GND*%
X130000000Y-148000000D03*
%TO.P,S3,3,3*%
%TO.N,Net-(J1-Pad5)*%
X136500000Y-143500000D03*
%TO.P,S3,4,4*%
%TO.N,Net-(C3-Pad2)*%
X130000000Y-143500000D03*
%TD*%
%TO.P,S4,1,1*%
%TO.N,Net-(C4-Pad1)*%
X118000000Y-129500000D03*
%TO.P,S4,2,2*%
%TO.N,GND*%
X111500000Y-129500000D03*
%TO.P,S4,3,3*%
%TO.N,Net-(J1-Pad2)*%
X118000000Y-125000000D03*
%TO.P,S4,4,4*%
%TO.N,Net-(C4-Pad2)*%
X111500000Y-125000000D03*
%TD*%
D24*
%TO.N,GND*%
X128710000Y-115220000D03*
X149970000Y-106020000D03*
X145060000Y-147080000D03*
X119020000Y-113020000D03*
X113410000Y-116180000D03*
%TO.N,Net-(IC1-VIN)*%
X117000000Y-119500000D03*
X115250000Y-119500000D03*
%TO.N,Net-(IC1-VOUT)*%
X148020000Y-120350000D03*
X145610000Y-124120000D03*
X136290000Y-138620000D03*
X141910000Y-138620000D03*
%TO.N,Net-(J1-Pad5)*%
X127560000Y-141700000D03*
X150600000Y-120530000D03*
X124970000Y-141740000D03*
X156760000Y-120460000D03*
%TD*%
D25*
%TO.N,GND*%
X143980000Y-120430000D02*
X143980000Y-118460000D01*
X143980000Y-118460000D02*
X142980000Y-117460000D01*
%TO.N,Net-(IC1-VOUT)*%
X145580000Y-120430000D02*
X147940000Y-120430000D01*
X147940000Y-120430000D02*
X148020000Y-120350000D01*
%TO.N,Net-(C2-Pad1)*%
X152800000Y-132000000D02*
X154240000Y-132000000D01*
X154240000Y-132000000D02*
X155000000Y-131240000D01*
X155000000Y-131240000D02*
X155000000Y-129500000D01*
%TO.N,GND*%
X145060000Y-147080000D02*
X143450000Y-148690000D01*
X143450000Y-148690000D02*
X143450000Y-149000000D01*
X128710000Y-115220000D02*
X128710000Y-115710000D01*
X128710000Y-115710000D02*
X129750000Y-116750000D01*
%TO.N,Net-(J1-Pad3)*%
X147070000Y-107940000D02*
X147070000Y-111990000D01*
X147070000Y-111990000D02*
X144140000Y-114920000D01*
X144140000Y-114920000D02*
X142980000Y-114920000D01*
%TO.N,Net-(IC1-VOUT)*%
X141650000Y-124350000D02*
X141650000Y-127610000D01*
X144500000Y-126500000D02*
X142760000Y-126500000D01*
X142760000Y-126500000D02*
X141650000Y-127610000D01*
X145610000Y-124120000D02*
X141880000Y-124120000D01*
X141880000Y-124120000D02*
X141650000Y-124350000D01*
X138250000Y-136960000D02*
X136270000Y-136960000D01*
X141650000Y-127610000D02*
X141650000Y-133560000D01*
X141650000Y-133560000D02*
X138250000Y-136960000D01*
%TO.N,Net-(C3-Pad1)*%
X136500000Y-148000000D02*
X136500000Y-149350000D01*
X136500000Y-149350000D02*
X135350000Y-150500000D01*
X135350000Y-150500000D02*
X134000000Y-150500000D01*
%TO.N,Net-(J1-Pad5)*%
X124350000Y-147350000D02*
X123030000Y-146030000D01*
X123030000Y-146030000D02*
X123030000Y-143680000D01*
X126000000Y-147350000D02*
X124350000Y-147350000D01*
X123030000Y-143680000D02*
X124970000Y-141740000D01*
%TO.N,GND*%
X118300000Y-114960000D02*
X118300000Y-113740000D01*
X118300000Y-113740000D02*
X119020000Y-113020000D01*
X111400000Y-117300000D02*
X112290000Y-117300000D01*
X112290000Y-117300000D02*
X113410000Y-116180000D01*
X149550000Y-106440000D02*
X149970000Y-106020000D01*
X148320000Y-106440000D02*
X149550000Y-106440000D01*
%TO.N,Net-(C1-Pad2)*%
X128500000Y-112000000D02*
X128500000Y-108000000D01*
X130000000Y-113500000D02*
X128500000Y-112000000D01*
X128500000Y-108000000D02*
X130000000Y-106500000D01*
X132700000Y-113500000D02*
X130000000Y-113500000D01*
%TO.N,Net-(C1-Pad1)*%
X136500000Y-113500000D02*
X136500000Y-111000000D01*
X134300000Y-113500000D02*
X134000000Y-113500000D01*
X134300000Y-113500000D02*
X136500000Y-113500000D01*
%TO.N,Net-(C2-Pad2)*%
X148500000Y-132000000D02*
X147000000Y-130500000D01*
X147000000Y-126500000D02*
X148500000Y-125000000D01*
X151200000Y-132000000D02*
X148500000Y-132000000D01*
X147000000Y-130500000D02*
X147000000Y-126500000D01*
%TO.N,Net-(C3-Pad2)*%
X128500000Y-149000000D02*
X128500000Y-145000000D01*
X132400000Y-150500000D02*
X130000000Y-150500000D01*
X128500000Y-145000000D02*
X130000000Y-143500000D01*
X130000000Y-150500000D02*
X128500000Y-149000000D01*
%TO.N,Net-(C4-Pad1)*%
X118000000Y-132000000D02*
X118000000Y-129500000D01*
X115300000Y-132000000D02*
X118000000Y-132000000D01*
%TO.N,Net-(C4-Pad2)*%
X111500000Y-132000000D02*
X110000000Y-130500000D01*
X113700000Y-132000000D02*
X111500000Y-132000000D01*
X110000000Y-126500000D02*
X111500000Y-125000000D01*
X110000000Y-130500000D02*
X110000000Y-126500000D01*
%TO.N,Net-(C5-Pad1)*%
X136500000Y-132000000D02*
X136500000Y-129500000D01*
X134050000Y-132000000D02*
X136500000Y-132000000D01*
%TO.N,Net-(C5-Pad2)*%
X130000000Y-132000000D02*
X128500000Y-130500000D01*
X128500000Y-130500000D02*
X128500000Y-126500000D01*
X132450000Y-132000000D02*
X130000000Y-132000000D01*
X128500000Y-126500000D02*
X130000000Y-125000000D01*
%TO.N,Net-(IC1-VIN)*%
X114750000Y-119500000D02*
X115250000Y-119500000D01*
X129750000Y-119700000D02*
X129750000Y-121500000D01*
X113500000Y-118250000D02*
X114750000Y-119500000D01*
X129500000Y-121750000D02*
X117250000Y-121750000D01*
X129750000Y-121500000D02*
X129500000Y-121750000D01*
X118260000Y-119500000D02*
X118300000Y-119540000D01*
X117000000Y-121500000D02*
X117000000Y-119500000D01*
X117000000Y-119500000D02*
X118260000Y-119500000D01*
X117250000Y-121750000D02*
X117000000Y-121500000D01*
%TO.N,Net-(IC1-VOUT)*%
X116515000Y-117515000D02*
X116220000Y-117810000D01*
X106510000Y-136960000D02*
X123170000Y-136960000D01*
X123170000Y-127010000D02*
X123170000Y-136960000D01*
X123170000Y-136960000D02*
X126010000Y-136960000D01*
X104490000Y-124870000D02*
X104490000Y-128720000D01*
X116470000Y-117470000D02*
X116515000Y-117515000D01*
X136290000Y-138620000D02*
X136270000Y-138600000D01*
X119440000Y-110350000D02*
X116470000Y-113320000D01*
X104620000Y-128850000D02*
X107500000Y-128850000D01*
X116220000Y-117810000D02*
X116220000Y-120610000D01*
X136270000Y-138600000D02*
X136270000Y-136960000D01*
X150600000Y-109840000D02*
X148020000Y-112420000D01*
X116220000Y-120610000D02*
X115160000Y-121670000D01*
X143850000Y-144000000D02*
X143850000Y-140560000D01*
X116470000Y-113320000D02*
X116470000Y-117470000D01*
X104490000Y-128720000D02*
X104620000Y-128850000D01*
X118300000Y-117250000D02*
X116780000Y-117250000D01*
X148020000Y-112420000D02*
X148020000Y-120350000D01*
X116780000Y-117250000D02*
X116515000Y-117515000D01*
X126010000Y-136960000D02*
X136270000Y-136960000D01*
X104490000Y-134940000D02*
X106510000Y-136960000D01*
X126000000Y-145000000D02*
X126000000Y-136970000D01*
X126000000Y-136970000D02*
X126010000Y-136960000D01*
X104490000Y-128720000D02*
X104490000Y-134940000D01*
X115160000Y-121670000D02*
X107690000Y-121670000D01*
X107690000Y-121670000D02*
X104490000Y-124870000D01*
X143850000Y-140560000D02*
X141910000Y-138620000D01*
X123680000Y-126500000D02*
X123170000Y-127010000D01*
X125750000Y-110350000D02*
X119440000Y-110350000D01*
X126000000Y-126500000D02*
X123680000Y-126500000D01*
%TO.N,Net-(J1-Pad3)*%
X155380000Y-103880000D02*
X154530000Y-103880000D01*
X150470000Y-107940000D02*
X147070000Y-107940000D01*
X147070000Y-107940000D02*
X147070000Y-106440000D01*
X154530000Y-103880000D02*
X150470000Y-107940000D01*
%TO.N,Net-(J1-Pad7)*%
X155000000Y-125000000D02*
X155000000Y-116780000D01*
X158260000Y-135390000D02*
X158260000Y-128260000D01*
X144500000Y-128850000D02*
X144500000Y-133270000D01*
X144500000Y-133270000D02*
X147000000Y-135770000D01*
X155000000Y-116780000D02*
X150600000Y-112380000D01*
X147000000Y-135770000D02*
X157880000Y-135770000D01*
X158260000Y-128260000D02*
X155000000Y-125000000D01*
X157880000Y-135770000D02*
X158260000Y-135390000D01*
%TO.N,Net-(J1-Pad2)*%
X137990000Y-121240000D02*
X136570000Y-122660000D01*
X136570000Y-122660000D02*
X120340000Y-122660000D01*
X110350000Y-123320000D02*
X119680000Y-123320000D01*
X120340000Y-122660000D02*
X119680000Y-123320000D01*
X140540000Y-112380000D02*
X137990000Y-114930000D01*
X142980000Y-112380000D02*
X140540000Y-112380000D01*
X119680000Y-123320000D02*
X118000000Y-125000000D01*
X107500000Y-126500000D02*
X107500000Y-126170000D01*
X107500000Y-126170000D02*
X110350000Y-123320000D01*
X137990000Y-114930000D02*
X137990000Y-121240000D01*
%TO.N,Net-(J1-Pad1)*%
X137390000Y-104250000D02*
X125740000Y-104250000D01*
X125750000Y-104260000D02*
X125750000Y-108000000D01*
X139640000Y-106500000D02*
X139675000Y-106535000D01*
X139675000Y-106535000D02*
X137390000Y-104250000D01*
X136500000Y-106500000D02*
X139640000Y-106500000D01*
X139675000Y-106535000D02*
X142980000Y-109840000D01*
X125740000Y-104250000D02*
X125750000Y-104260000D01*
%TO.N,Net-(J1-Pad6)*%
X126000000Y-135420000D02*
X125940000Y-135480000D01*
X125940000Y-135480000D02*
X137330000Y-135480000D01*
X140460000Y-122130000D02*
X153290000Y-122130000D01*
X126000000Y-128850000D02*
X126000000Y-135420000D01*
X153460000Y-117720000D02*
X153400000Y-117720000D01*
X153460000Y-121960000D02*
X153460000Y-117720000D01*
X153290000Y-122130000D02*
X153460000Y-121960000D01*
X140250000Y-132560000D02*
X140250000Y-122510000D01*
X140250000Y-122340000D02*
X140460000Y-122130000D01*
X140250000Y-122510000D02*
X140250000Y-122340000D01*
X153400000Y-117720000D02*
X150600000Y-114920000D01*
X136500000Y-125000000D02*
X138990000Y-122510000D01*
X138990000Y-122510000D02*
X140250000Y-122510000D01*
X137330000Y-135480000D02*
X140250000Y-132560000D01*
%TO.N,Net-(J1-Pad5)*%
X160880000Y-135560000D02*
X160880000Y-122840000D01*
X159620000Y-136820000D02*
X160880000Y-135560000D01*
X136500000Y-141980000D02*
X136760000Y-141720000D01*
X136760000Y-141720000D02*
X141660000Y-136820000D01*
X141660000Y-136820000D02*
X159620000Y-136820000D01*
X136740000Y-141700000D02*
X136760000Y-141720000D01*
X150600000Y-120530000D02*
X150600000Y-117460000D01*
X136500000Y-143500000D02*
X136500000Y-141980000D01*
X127560000Y-141700000D02*
X136740000Y-141700000D01*
X160880000Y-122840000D02*
X158680000Y-120640000D01*
X158680000Y-120640000D02*
X156940000Y-120640000D01*
%TO.N,Net-(Q1-S)*%
X109900000Y-119200000D02*
X111400000Y-119200000D01*
X145800000Y-108010000D02*
X145780000Y-107990000D01*
X137790000Y-102750000D02*
X125030000Y-102750000D01*
X142530000Y-107990000D02*
X142530000Y-107490000D01*
X142530000Y-107490000D02*
X137790000Y-102750000D01*
X125030000Y-102750000D02*
X111960000Y-115820000D01*
X145780000Y-107990000D02*
X142530000Y-107990000D01*
X111960000Y-115820000D02*
X109900000Y-115820000D01*
X145820000Y-106440000D02*
X145820000Y-107990000D01*
X109900000Y-115820000D02*
X109900000Y-119200000D01*
X145820000Y-107990000D02*
X145800000Y-108010000D01*
%TO.N,Net-(LED1-A)*%
X141500000Y-148950000D02*
X141550000Y-149000000D01*
X141500000Y-144000000D02*
X141500000Y-148950000D01*
%TO.N,Net-(J1-Pad5)*%
X156940000Y-120640000D02*
X156760000Y-120460000D01*
%TD*%
%TA.AperFunction,NonConductor*%
G36*
X160502702Y-101000617D02*
G01*
X160886771Y-101017386D01*
X160897506Y-101018326D01*
X161275971Y-101068152D01*
X161286597Y-101070025D01*
X161659284Y-101152648D01*
X161669710Y-101155442D01*
X162033765Y-101270227D01*
X162043911Y-101273920D01*
X162396578Y-101420000D01*
X162406369Y-101424566D01*
X162447932Y-101446202D01*
X162744942Y-101600816D01*
X162754310Y-101606224D01*
X163076244Y-101811318D01*
X163085105Y-101817523D01*
X163387930Y-102049889D01*
X163396217Y-102056843D01*
X163677635Y-102314715D01*
X163685284Y-102322364D01*
X163943156Y-102603782D01*
X163950110Y-102612069D01*
X164182476Y-102914894D01*
X164188681Y-102923755D01*
X164393775Y-103245689D01*
X164399183Y-103255057D01*
X164575430Y-103593623D01*
X164580002Y-103603427D01*
X164726075Y-103956078D01*
X164729775Y-103966244D01*
X164844554Y-104330278D01*
X164847354Y-104340727D01*
X164929971Y-104713389D01*
X164931849Y-104724042D01*
X164981671Y-105102473D01*
X164982614Y-105113249D01*
X164989528Y-105271611D01*
X164998736Y-105482513D01*
X164999382Y-105497297D01*
X164999500Y-105502706D01*
X164999500Y-148997293D01*
X164999382Y-149002702D01*
X164982614Y-149386750D01*
X164981671Y-149397526D01*
X164931849Y-149775957D01*
X164929971Y-149786610D01*
X164847354Y-150159272D01*
X164844554Y-150169721D01*
X164729775Y-150533755D01*
X164726075Y-150543921D01*
X164580002Y-150896572D01*
X164575430Y-150906376D01*
X164399183Y-151244942D01*
X164393775Y-151254310D01*
X164188681Y-151576244D01*
X164182476Y-151585105D01*
X163950110Y-151887930D01*
X163943156Y-151896217D01*
X163685284Y-152177635D01*
X163677635Y-152185284D01*
X163396217Y-152443156D01*
X163387930Y-152450110D01*
X163085105Y-152682476D01*
X163076244Y-152688681D01*
X162754310Y-152893775D01*
X162744942Y-152899183D01*
X162406376Y-153075430D01*
X162396572Y-153080002D01*
X162043921Y-153226075D01*
X162033755Y-153229775D01*
X161669721Y-153344554D01*
X161659272Y-153347354D01*
X161286610Y-153429971D01*
X161275957Y-153431849D01*
X160897526Y-153481671D01*
X160886750Y-153482614D01*
X160502703Y-153499382D01*
X160497294Y-153499500D01*
X106002706Y-153499500D01*
X105997297Y-153499382D01*
X105613249Y-153482614D01*
X105602473Y-153481671D01*
X105224042Y-153431849D01*
X105213389Y-153429971D01*
X104840727Y-153347354D01*
X104830278Y-153344554D01*
X104466244Y-153229775D01*
X104456078Y-153226075D01*
X104103427Y-153080002D01*
X104093623Y-153075430D01*
X103755057Y-152899183D01*
X103745689Y-152893775D01*
X103423755Y-152688681D01*
X103414894Y-152682476D01*
X103112069Y-152450110D01*
X103103782Y-152443156D01*
X102822364Y-152185284D01*
X102814715Y-152177635D01*
X102556843Y-151896217D01*
X102549889Y-151887930D01*
X102317523Y-151585105D01*
X102311318Y-151576244D01*
X102111673Y-151262864D01*
X102106223Y-151254309D01*
X102100816Y-151244942D01*
X102068473Y-151182812D01*
X101924566Y-150906369D01*
X101919997Y-150896572D01*
X101908459Y-150868716D01*
X101773920Y-150543911D01*
X101770224Y-150533755D01*
X101665150Y-150200500D01*
X101655442Y-150169710D01*
X101652648Y-150159284D01*
X101570025Y-149786597D01*
X101568152Y-149775971D01*
X101518326Y-149397506D01*
X101517386Y-149386771D01*
X101500618Y-149002702D01*
X101500500Y-148997293D01*
X101500500Y-144378711D01*
X108649500Y-144378711D01*
X108649500Y-144621288D01*
X108681161Y-144861785D01*
X108743947Y-145096104D01*
X108777421Y-145176917D01*
X108836776Y-145320212D01*
X108958064Y-145530289D01*
X108958066Y-145530292D01*
X108958067Y-145530293D01*
X109105733Y-145722736D01*
X109105739Y-145722743D01*
X109277256Y-145894260D01*
X109277262Y-145894265D01*
X109469711Y-146041936D01*
X109679788Y-146163224D01*
X109903900Y-146256054D01*
X110138211Y-146318838D01*
X110318586Y-146342584D01*
X110378711Y-146350500D01*
X110378712Y-146350500D01*
X110621289Y-146350500D01*
X110669388Y-146344167D01*
X110861789Y-146318838D01*
X111096100Y-146256054D01*
X111320212Y-146163224D01*
X111530289Y-146041936D01*
X111722738Y-145894265D01*
X111894265Y-145722738D01*
X112041936Y-145530289D01*
X112163224Y-145320212D01*
X112256054Y-145096100D01*
X112318838Y-144861789D01*
X112350500Y-144621288D01*
X112350500Y-144378712D01*
X112350292Y-144377135D01*
X112342444Y-144317516D01*
X112318838Y-144138211D01*
X112256054Y-143903900D01*
X112163224Y-143679788D01*
X112041936Y-143469711D01*
X111970900Y-143377135D01*
X111894266Y-143277263D01*
X111894260Y-143277256D01*
X111722743Y-143105739D01*
X111722736Y-143105733D01*
X111530293Y-142958067D01*
X111530292Y-142958066D01*
X111530289Y-142958064D01*
X111320212Y-142836776D01*
X111320205Y-142836773D01*
X111096104Y-142743947D01*
X110861785Y-142681161D01*
X110621289Y-142649500D01*
X110621288Y-142649500D01*
X110378712Y-142649500D01*
X110378711Y-142649500D01*
X110138214Y-142681161D01*
X109903895Y-142743947D01*
X109679794Y-142836773D01*
X109679785Y-142836777D01*
X109469706Y-142958067D01*
X109277263Y-143105733D01*
X109277256Y-143105739D01*
X109105739Y-143277256D01*
X109105733Y-143277263D01*
X108958067Y-143469706D01*
X108836777Y-143679785D01*
X108836773Y-143679794D01*
X108743947Y-143903895D01*
X108681161Y-144138214D01*
X108649500Y-144378711D01*
X101500500Y-144378711D01*
X101500500Y-135019054D01*
X103889498Y-135019054D01*
X103930423Y-135171785D01*
X103939909Y-135188215D01*
X104009477Y-135308712D01*
X104009481Y-135308717D01*
X104128349Y-135427585D01*
X104128355Y-135427590D01*
X106025139Y-137324374D01*
X106025149Y-137324385D01*
X106029479Y-137328715D01*
X106029480Y-137328716D01*
X106141284Y-137440520D01*
X106141286Y-137440521D01*
X106141290Y-137440524D01*
X106278209Y-137519573D01*
X106278216Y-137519577D01*
X106390019Y-137549534D01*
X106430942Y-137560500D01*
X106430943Y-137560500D01*
X123090943Y-137560500D01*
X125275500Y-137560500D01*
X125342539Y-137580185D01*
X125388294Y-137632989D01*
X125399500Y-137684500D01*
X125399500Y-140865871D01*
X125379815Y-140932910D01*
X125327011Y-140978665D01*
X125257853Y-140988609D01*
X125228048Y-140980432D01*
X125203501Y-140970264D01*
X125203489Y-140970261D01*
X125048845Y-140939500D01*
X125048842Y-140939500D01*
X124891158Y-140939500D01*
X124891155Y-140939500D01*
X124736510Y-140970261D01*
X124736498Y-140970264D01*
X124590827Y-141030602D01*
X124590814Y-141030609D01*
X124459711Y-141118210D01*
X124459707Y-141118213D01*
X124348213Y-141229707D01*
X124348210Y-141229711D01*
X124260609Y-141360814D01*
X124260602Y-141360827D01*
X124200264Y-141506498D01*
X124200261Y-141506508D01*
X124169361Y-141661850D01*
X124136976Y-141723761D01*
X124135425Y-141725339D01*
X122549481Y-143311282D01*
X122549477Y-143311287D01*
X122500754Y-143395680D01*
X122500754Y-143395681D01*
X122470423Y-143448214D01*
X122470423Y-143448215D01*
X122429499Y-143600943D01*
X122429499Y-143600945D01*
X122429499Y-143769046D01*
X122429500Y-143769059D01*
X122429500Y-145943330D01*
X122429499Y-145943348D01*
X122429499Y-146109054D01*
X122429498Y-146109054D01*
X122470424Y-146261789D01*
X122470425Y-146261790D01*
X122498411Y-146310262D01*
X122498412Y-146310263D01*
X122533251Y-146370606D01*
X122549479Y-146398714D01*
X122549481Y-146398717D01*
X122668349Y-146517585D01*
X122668355Y-146517590D01*
X123865139Y-147714374D01*
X123865149Y-147714385D01*
X123869479Y-147718715D01*
X123869480Y-147718716D01*
X123981284Y-147830520D01*
X124067853Y-147880500D01*
X124118215Y-147909577D01*
X124270943Y-147950501D01*
X124270946Y-147950501D01*
X124436653Y-147950501D01*
X124436669Y-147950500D01*
X124689236Y-147950500D01*
X124756275Y-147970185D01*
X124802030Y-148022989D01*
X124805418Y-148031167D01*
X124856202Y-148167328D01*
X124856206Y-148167335D01*
X124942452Y-148282544D01*
X124942455Y-148282547D01*
X125057664Y-148368793D01*
X125057671Y-148368797D01*
X125192517Y-148419091D01*
X125192516Y-148419091D01*
X125199444Y-148419835D01*
X125252127Y-148425500D01*
X126747872Y-148425499D01*
X126807483Y-148419091D01*
X126942331Y-148368796D01*
X127057546Y-148282546D01*
X127143796Y-148167331D01*
X127194091Y-148032483D01*
X127200500Y-147972873D01*
X127200499Y-146727128D01*
X127194842Y-146674500D01*
X127194091Y-146667516D01*
X127143797Y-146532671D01*
X127143793Y-146532664D01*
X127057547Y-146417455D01*
X127057544Y-146417452D01*
X126942335Y-146331206D01*
X126942328Y-146331202D01*
X126835027Y-146291182D01*
X126779093Y-146249311D01*
X126754676Y-146183847D01*
X126769527Y-146115574D01*
X126818932Y-146066168D01*
X126835027Y-146058818D01*
X126942328Y-146018797D01*
X126942327Y-146018797D01*
X126942331Y-146018796D01*
X127057546Y-145932546D01*
X127143796Y-145817331D01*
X127194091Y-145682483D01*
X127200500Y-145622873D01*
X127200499Y-144377128D01*
X127194091Y-144317517D01*
X127148288Y-144194714D01*
X127143797Y-144182671D01*
X127143793Y-144182664D01*
X127057547Y-144067455D01*
X127057544Y-144067452D01*
X126942335Y-143981206D01*
X126942328Y-143981202D01*
X126807482Y-143930908D01*
X126807483Y-143930908D01*
X126747883Y-143924501D01*
X126747881Y-143924500D01*
X126747873Y-143924500D01*
X126747865Y-143924500D01*
X126724500Y-143924500D01*
X126657461Y-143904815D01*
X126611706Y-143852011D01*
X126600500Y-143800500D01*
X126600500Y-142098759D01*
X126620185Y-142031720D01*
X126672989Y-141985965D01*
X126742147Y-141976021D01*
X126805703Y-142005046D01*
X126839062Y-142051308D01*
X126850605Y-142079178D01*
X126850609Y-142079185D01*
X126938210Y-142210288D01*
X126938213Y-142210292D01*
X127049707Y-142321786D01*
X127049711Y-142321789D01*
X127180814Y-142409390D01*
X127180827Y-142409397D01*
X127326498Y-142469735D01*
X127326503Y-142469737D01*
X127464417Y-142497170D01*
X127481153Y-142500499D01*
X127481156Y-142500500D01*
X127481158Y-142500500D01*
X127638844Y-142500500D01*
X127638845Y-142500499D01*
X127793497Y-142469737D01*
X127939179Y-142409394D01*
X128005431Y-142365126D01*
X128070875Y-142321398D01*
X128137553Y-142300520D01*
X128139766Y-142300500D01*
X129025598Y-142300500D01*
X129092637Y-142320185D01*
X129138392Y-142372989D01*
X129148336Y-142442147D01*
X129119311Y-142505703D01*
X129113279Y-142512181D01*
X128988967Y-142636492D01*
X128988966Y-142636493D01*
X128866330Y-142805285D01*
X128771612Y-142991179D01*
X128707137Y-143189610D01*
X128674500Y-143395675D01*
X128674500Y-143604324D01*
X128707138Y-143810389D01*
X128707138Y-143810392D01*
X128716331Y-143838683D01*
X128718326Y-143908524D01*
X128686081Y-143964682D01*
X128134741Y-144516022D01*
X128134735Y-144516028D01*
X128131286Y-144519478D01*
X128131284Y-144519480D01*
X128019480Y-144631284D01*
X127989921Y-144682483D01*
X127984236Y-144692329D01*
X127984233Y-144692333D01*
X127940423Y-144768214D01*
X127940423Y-144768215D01*
X127899499Y-144920943D01*
X127899499Y-144920945D01*
X127899499Y-145089046D01*
X127899500Y-145089059D01*
X127899500Y-148913330D01*
X127899499Y-148913348D01*
X127899499Y-149079054D01*
X127899498Y-149079054D01*
X127939275Y-149227502D01*
X127940423Y-149231785D01*
X127958635Y-149263329D01*
X127963029Y-149270938D01*
X127963030Y-149270942D01*
X127963031Y-149270942D01*
X128014828Y-149360659D01*
X128019479Y-149368714D01*
X128019481Y-149368717D01*
X128138349Y-149487585D01*
X128138355Y-149487590D01*
X129515139Y-150864374D01*
X129515149Y-150864385D01*
X129519479Y-150868715D01*
X129519480Y-150868716D01*
X129631284Y-150980520D01*
X129631286Y-150980521D01*
X129631290Y-150980524D01*
X129768209Y-151059573D01*
X129768216Y-151059577D01*
X129880019Y-151089534D01*
X129920942Y-151100500D01*
X129920943Y-151100500D01*
X131285501Y-151100500D01*
X131352540Y-151120185D01*
X131398295Y-151172989D01*
X131409501Y-151224500D01*
X131409501Y-151262876D01*
X131415908Y-151322483D01*
X131466202Y-151457328D01*
X131466206Y-151457335D01*
X131552452Y-151572544D01*
X131552455Y-151572547D01*
X131667664Y-151658793D01*
X131667671Y-151658797D01*
X131802517Y-151709091D01*
X131802516Y-151709091D01*
X131809444Y-151709835D01*
X131862127Y-151715500D01*
X132937872Y-151715499D01*
X132997483Y-151709091D01*
X133132329Y-151658797D01*
X133140112Y-151654547D01*
X133141865Y-151657757D01*
X133190999Y-151639361D01*
X133259291Y-151654127D01*
X133260263Y-151654752D01*
X133267670Y-151658797D01*
X133402517Y-151709091D01*
X133402516Y-151709091D01*
X133409444Y-151709835D01*
X133462127Y-151715500D01*
X134537872Y-151715499D01*
X134597483Y-151709091D01*
X134732331Y-151658796D01*
X134847546Y-151572546D01*
X134933796Y-151457331D01*
X134984091Y-151322483D01*
X134990500Y-151262873D01*
X134990500Y-151224500D01*
X134993050Y-151215814D01*
X134991762Y-151206853D01*
X135002740Y-151182812D01*
X135010185Y-151157461D01*
X135017025Y-151151533D01*
X135020787Y-151143297D01*
X135043021Y-151129007D01*
X135062989Y-151111706D01*
X135073503Y-151109418D01*
X135079565Y-151105523D01*
X135114500Y-151100500D01*
X135263331Y-151100500D01*
X135263347Y-151100501D01*
X135270943Y-151100501D01*
X135429054Y-151100501D01*
X135429057Y-151100501D01*
X135581785Y-151059577D01*
X135631904Y-151030639D01*
X135718716Y-150980520D01*
X135830520Y-150868716D01*
X135830520Y-150868714D01*
X135840728Y-150858507D01*
X135840729Y-150858504D01*
X136980520Y-149718716D01*
X137059577Y-149581784D01*
X137100501Y-149429057D01*
X137100501Y-149270942D01*
X137100501Y-149263347D01*
X137100500Y-149263329D01*
X137100500Y-149257661D01*
X137120185Y-149190622D01*
X137168207Y-149147175D01*
X137194714Y-149133670D01*
X137363505Y-149011035D01*
X137511035Y-148863505D01*
X137633670Y-148694714D01*
X137728389Y-148508816D01*
X137792862Y-148310389D01*
X137797272Y-148282544D01*
X137825500Y-148104324D01*
X137825500Y-147895675D01*
X137792862Y-147689610D01*
X137728387Y-147491179D01*
X137678421Y-147393116D01*
X137633670Y-147305286D01*
X137511035Y-147136495D01*
X137363505Y-146988965D01*
X137194714Y-146866330D01*
X137155801Y-146846503D01*
X137008820Y-146771612D01*
X136810389Y-146707137D01*
X136604324Y-146674500D01*
X136604319Y-146674500D01*
X136395681Y-146674500D01*
X136395676Y-146674500D01*
X136189610Y-146707137D01*
X135991179Y-146771612D01*
X135805285Y-146866330D01*
X135636493Y-146988966D01*
X135488966Y-147136493D01*
X135366330Y-147305285D01*
X135271612Y-147491179D01*
X135207137Y-147689610D01*
X135174500Y-147895675D01*
X135174500Y-148104324D01*
X135207137Y-148310389D01*
X135271612Y-148508820D01*
X135312331Y-148588735D01*
X135366330Y-148694714D01*
X135488965Y-148863505D01*
X135636495Y-149011035D01*
X135723628Y-149074341D01*
X135766293Y-149129672D01*
X135772272Y-149199285D01*
X135739666Y-149261080D01*
X135738423Y-149262340D01*
X135200280Y-149800484D01*
X135138957Y-149833969D01*
X135069266Y-149828985D01*
X135013332Y-149787114D01*
X134989309Y-149726056D01*
X134984091Y-149677516D01*
X134933797Y-149542671D01*
X134933793Y-149542664D01*
X134847547Y-149427455D01*
X134847544Y-149427452D01*
X134732335Y-149341206D01*
X134732328Y-149341202D01*
X134597482Y-149290908D01*
X134597483Y-149290908D01*
X134537883Y-149284501D01*
X134537881Y-149284500D01*
X134537873Y-149284500D01*
X134537864Y-149284500D01*
X133462129Y-149284500D01*
X133462123Y-149284501D01*
X133402516Y-149290908D01*
X133267671Y-149341202D01*
X133259886Y-149345454D01*
X133258153Y-149342280D01*
X133208698Y-149360659D01*
X133140443Y-149345725D01*
X133139497Y-149345117D01*
X133132328Y-149341202D01*
X132997482Y-149290908D01*
X132997483Y-149290908D01*
X132937883Y-149284501D01*
X132937881Y-149284500D01*
X132937873Y-149284500D01*
X132937864Y-149284500D01*
X131862129Y-149284500D01*
X131862123Y-149284501D01*
X131802516Y-149290908D01*
X131667671Y-149341202D01*
X131667664Y-149341206D01*
X131552455Y-149427452D01*
X131552452Y-149427455D01*
X131466206Y-149542664D01*
X131466202Y-149542671D01*
X131415908Y-149677517D01*
X131409501Y-149737116D01*
X131409500Y-149737135D01*
X131409500Y-149775500D01*
X131389815Y-149842539D01*
X131337011Y-149888294D01*
X131285500Y-149899500D01*
X130300097Y-149899500D01*
X130233058Y-149879815D01*
X130212416Y-149863181D01*
X129886416Y-149537181D01*
X129852931Y-149475858D01*
X129857915Y-149406166D01*
X129899787Y-149350233D01*
X129965251Y-149325816D01*
X129974097Y-149325500D01*
X130104324Y-149325500D01*
X130310389Y-149292862D01*
X130336121Y-149284501D01*
X130508816Y-149228389D01*
X130694714Y-149133670D01*
X130863505Y-149011035D01*
X131011035Y-148863505D01*
X131133670Y-148694714D01*
X131228389Y-148508816D01*
X131292862Y-148310389D01*
X131297272Y-148282544D01*
X131325500Y-148104324D01*
X131325500Y-147895675D01*
X131292862Y-147689610D01*
X131228387Y-147491179D01*
X131178421Y-147393116D01*
X131133670Y-147305286D01*
X131011035Y-147136495D01*
X130863505Y-146988965D01*
X130694714Y-146866330D01*
X130655801Y-146846503D01*
X130508820Y-146771612D01*
X130310389Y-146707137D01*
X130104324Y-146674500D01*
X130104319Y-146674500D01*
X129895681Y-146674500D01*
X129895676Y-146674500D01*
X129689610Y-146707137D01*
X129491179Y-146771612D01*
X129305281Y-146866332D01*
X129297381Y-146872072D01*
X129231574Y-146895549D01*
X129163521Y-146879721D01*
X129114828Y-146829613D01*
X129100500Y-146771751D01*
X129100500Y-145300096D01*
X129120185Y-145233057D01*
X129136815Y-145212419D01*
X129535317Y-144813916D01*
X129596638Y-144780433D01*
X129661314Y-144783668D01*
X129689610Y-144792862D01*
X129895676Y-144825500D01*
X129895681Y-144825500D01*
X130104324Y-144825500D01*
X130310389Y-144792862D01*
X130386244Y-144768215D01*
X130508816Y-144728389D01*
X130694714Y-144633670D01*
X130863505Y-144511035D01*
X131011035Y-144363505D01*
X131133670Y-144194714D01*
X131228389Y-144008816D01*
X131292862Y-143810389D01*
X131300992Y-143759057D01*
X131325500Y-143604324D01*
X131325500Y-143395675D01*
X131292862Y-143189610D01*
X131228387Y-142991179D01*
X131176092Y-142888545D01*
X131133670Y-142805286D01*
X131011035Y-142636495D01*
X130886721Y-142512181D01*
X130853236Y-142450858D01*
X130858220Y-142381166D01*
X130900092Y-142325233D01*
X130965556Y-142300816D01*
X130974402Y-142300500D01*
X135525598Y-142300500D01*
X135592637Y-142320185D01*
X135638392Y-142372989D01*
X135648336Y-142442147D01*
X135619311Y-142505703D01*
X135613279Y-142512181D01*
X135488967Y-142636492D01*
X135488966Y-142636493D01*
X135366330Y-142805285D01*
X135271612Y-142991179D01*
X135207137Y-143189610D01*
X135174500Y-143395675D01*
X135174500Y-143604324D01*
X135207137Y-143810389D01*
X135271612Y-144008820D01*
X135337542Y-144138214D01*
X135366330Y-144194714D01*
X135488965Y-144363505D01*
X135636495Y-144511035D01*
X135805286Y-144633670D01*
X135845369Y-144654093D01*
X135991179Y-144728387D01*
X135991181Y-144728387D01*
X135991184Y-144728389D01*
X136089048Y-144760187D01*
X136189610Y-144792862D01*
X136395676Y-144825500D01*
X136395681Y-144825500D01*
X136604324Y-144825500D01*
X136810389Y-144792862D01*
X136886244Y-144768215D01*
X137008816Y-144728389D01*
X137194714Y-144633670D01*
X137363505Y-144511035D01*
X137511035Y-144363505D01*
X137633670Y-144194714D01*
X137728389Y-144008816D01*
X137792862Y-143810389D01*
X137800992Y-143759057D01*
X137825500Y-143604324D01*
X137825500Y-143395675D01*
X137792862Y-143189610D01*
X137728387Y-142991179D01*
X137676092Y-142888545D01*
X137633670Y-142805286D01*
X137511035Y-142636495D01*
X137363505Y-142488965D01*
X137194714Y-142366330D01*
X137194707Y-142366326D01*
X137194704Y-142366324D01*
X137193213Y-142365565D01*
X137192748Y-142365126D01*
X137190552Y-142363780D01*
X137190834Y-142363318D01*
X137172765Y-142346250D01*
X137150248Y-142329395D01*
X137147706Y-142322580D01*
X137142420Y-142317587D01*
X137135660Y-142290284D01*
X137125830Y-142263930D01*
X137127375Y-142256824D01*
X137125628Y-142249766D01*
X137134702Y-142223142D01*
X137140681Y-142195657D01*
X137146903Y-142187344D01*
X137148169Y-142183632D01*
X137161832Y-142167403D01*
X137161831Y-142167403D01*
X137240520Y-142088716D01*
X137240521Y-142088713D01*
X140900265Y-138428969D01*
X140961587Y-138395485D01*
X141031279Y-138400469D01*
X141087212Y-138442341D01*
X141111629Y-138507805D01*
X141109923Y-138535075D01*
X141110097Y-138535093D01*
X141109618Y-138539953D01*
X141109563Y-138540839D01*
X141109500Y-138541155D01*
X141109500Y-138698846D01*
X141140261Y-138853489D01*
X141140264Y-138853501D01*
X141200602Y-138999172D01*
X141200609Y-138999185D01*
X141288210Y-139130288D01*
X141288213Y-139130292D01*
X141399707Y-139241786D01*
X141399711Y-139241789D01*
X141530814Y-139329390D01*
X141530827Y-139329397D01*
X141676498Y-139389735D01*
X141676503Y-139389737D01*
X141741147Y-139402595D01*
X141831849Y-139420638D01*
X141893760Y-139453023D01*
X141895339Y-139454574D01*
X143213181Y-140772416D01*
X143246666Y-140833739D01*
X143249500Y-140860097D01*
X143249500Y-142814235D01*
X143229815Y-142881274D01*
X143177011Y-142927029D01*
X143168834Y-142930417D01*
X143032669Y-142981203D01*
X143032664Y-142981206D01*
X142917455Y-143067452D01*
X142917452Y-143067455D01*
X142831206Y-143182664D01*
X142831202Y-143182671D01*
X142791182Y-143289972D01*
X142749311Y-143345906D01*
X142683846Y-143370323D01*
X142615573Y-143355471D01*
X142566168Y-143306066D01*
X142558818Y-143289972D01*
X142518797Y-143182671D01*
X142518793Y-143182664D01*
X142432547Y-143067455D01*
X142432544Y-143067452D01*
X142317335Y-142981206D01*
X142317328Y-142981202D01*
X142182482Y-142930908D01*
X142182483Y-142930908D01*
X142122883Y-142924501D01*
X142122881Y-142924500D01*
X142122873Y-142924500D01*
X142122864Y-142924500D01*
X140877129Y-142924500D01*
X140877123Y-142924501D01*
X140817516Y-142930908D01*
X140682671Y-142981202D01*
X140682664Y-142981206D01*
X140567455Y-143067452D01*
X140567452Y-143067455D01*
X140481206Y-143182664D01*
X140481202Y-143182671D01*
X140430908Y-143317517D01*
X140424501Y-143377116D01*
X140424501Y-143377123D01*
X140424500Y-143377135D01*
X140424500Y-144622870D01*
X140424501Y-144622876D01*
X140430908Y-144682483D01*
X140481202Y-144817328D01*
X140481206Y-144817335D01*
X140567452Y-144932544D01*
X140567455Y-144932547D01*
X140682664Y-145018793D01*
X140682671Y-145018797D01*
X140818833Y-145069582D01*
X140874767Y-145111453D01*
X140899184Y-145176917D01*
X140899500Y-145185764D01*
X140899500Y-147762819D01*
X140879815Y-147829858D01*
X140849812Y-147862085D01*
X140742452Y-147942455D01*
X140656206Y-148057664D01*
X140656202Y-148057671D01*
X140605908Y-148192517D01*
X140599501Y-148252116D01*
X140599500Y-148252135D01*
X140599500Y-149747870D01*
X140599501Y-149747876D01*
X140605908Y-149807483D01*
X140656202Y-149942328D01*
X140656206Y-149942335D01*
X140742452Y-150057544D01*
X140742455Y-150057547D01*
X140857664Y-150143793D01*
X140857671Y-150143797D01*
X140992517Y-150194091D01*
X140992516Y-150194091D01*
X140999444Y-150194835D01*
X141052127Y-150200500D01*
X142047872Y-150200499D01*
X142107483Y-150194091D01*
X142242331Y-150143796D01*
X142357546Y-150057546D01*
X142400734Y-149999854D01*
X142456667Y-149957984D01*
X142526359Y-149953000D01*
X142587682Y-149986485D01*
X142599263Y-149999850D01*
X142642454Y-150057546D01*
X142688643Y-150092123D01*
X142757664Y-150143793D01*
X142757671Y-150143797D01*
X142892517Y-150194091D01*
X142892516Y-150194091D01*
X142899444Y-150194835D01*
X142952127Y-150200500D01*
X143947872Y-150200499D01*
X144007483Y-150194091D01*
X144142331Y-150143796D01*
X144257546Y-150057546D01*
X144343796Y-149942331D01*
X144394091Y-149807483D01*
X144400500Y-149747873D01*
X144400499Y-148640096D01*
X144420184Y-148573058D01*
X144436818Y-148552416D01*
X144741753Y-148247481D01*
X145074662Y-147914572D01*
X145135983Y-147881089D01*
X145138150Y-147880638D01*
X145196085Y-147869113D01*
X145293497Y-147849737D01*
X145421623Y-147796666D01*
X145439172Y-147789397D01*
X145439172Y-147789396D01*
X145439179Y-147789394D01*
X145570289Y-147701789D01*
X145681789Y-147590289D01*
X145769394Y-147459179D01*
X145829737Y-147313497D01*
X145860500Y-147158842D01*
X145860500Y-147001158D01*
X145860500Y-147001155D01*
X145860499Y-147001153D01*
X145839493Y-146895549D01*
X145829737Y-146846503D01*
X145798774Y-146771751D01*
X145769397Y-146700827D01*
X145769390Y-146700814D01*
X145681789Y-146569711D01*
X145681786Y-146569707D01*
X145570292Y-146458213D01*
X145570288Y-146458210D01*
X145439185Y-146370609D01*
X145439172Y-146370602D01*
X145293501Y-146310264D01*
X145293489Y-146310261D01*
X145138845Y-146279500D01*
X145138842Y-146279500D01*
X144981158Y-146279500D01*
X144981155Y-146279500D01*
X144826510Y-146310261D01*
X144826498Y-146310264D01*
X144680827Y-146370602D01*
X144680814Y-146370609D01*
X144549711Y-146458210D01*
X144549707Y-146458213D01*
X144438213Y-146569707D01*
X144438210Y-146569711D01*
X144350609Y-146700814D01*
X144350602Y-146700827D01*
X144290264Y-146846498D01*
X144290261Y-146846508D01*
X144259361Y-147001850D01*
X144226976Y-147063761D01*
X144225425Y-147065339D01*
X143527582Y-147763181D01*
X143466259Y-147796666D01*
X143439901Y-147799500D01*
X142952129Y-147799500D01*
X142952123Y-147799501D01*
X142892516Y-147805908D01*
X142757671Y-147856202D01*
X142757664Y-147856206D01*
X142642455Y-147942452D01*
X142599266Y-148000145D01*
X142543332Y-148042015D01*
X142473640Y-148046999D01*
X142412317Y-148013513D01*
X142400734Y-148000145D01*
X142363569Y-147950500D01*
X142357546Y-147942454D01*
X142357544Y-147942453D01*
X142357544Y-147942452D01*
X142242335Y-147856206D01*
X142242328Y-147856202D01*
X142181167Y-147833391D01*
X142125233Y-147791520D01*
X142100816Y-147726056D01*
X142100500Y-147717209D01*
X142100500Y-145185764D01*
X142120185Y-145118725D01*
X142172989Y-145072970D01*
X142181167Y-145069582D01*
X142317328Y-145018797D01*
X142317327Y-145018797D01*
X142317331Y-145018796D01*
X142432546Y-144932546D01*
X142518796Y-144817331D01*
X142558818Y-144710027D01*
X142600689Y-144654093D01*
X142666153Y-144629676D01*
X142734426Y-144644527D01*
X142783832Y-144693932D01*
X142791182Y-144710027D01*
X142831202Y-144817328D01*
X142831206Y-144817335D01*
X142917452Y-144932544D01*
X142917455Y-144932547D01*
X143032664Y-145018793D01*
X143032671Y-145018797D01*
X143167517Y-145069091D01*
X143167516Y-145069091D01*
X143174444Y-145069835D01*
X143227127Y-145075500D01*
X144472872Y-145075499D01*
X144532483Y-145069091D01*
X144667331Y-145018796D01*
X144782546Y-144932546D01*
X144868796Y-144817331D01*
X144919091Y-144682483D01*
X144925500Y-144622873D01*
X144925500Y-144378711D01*
X154149500Y-144378711D01*
X154149500Y-144621288D01*
X154181161Y-144861785D01*
X154243947Y-145096104D01*
X154277421Y-145176917D01*
X154336776Y-145320212D01*
X154458064Y-145530289D01*
X154458066Y-145530292D01*
X154458067Y-145530293D01*
X154605733Y-145722736D01*
X154605739Y-145722743D01*
X154777256Y-145894260D01*
X154777262Y-145894265D01*
X154969711Y-146041936D01*
X155179788Y-146163224D01*
X155403900Y-146256054D01*
X155638211Y-146318838D01*
X155818586Y-146342584D01*
X155878711Y-146350500D01*
X155878712Y-146350500D01*
X156121289Y-146350500D01*
X156169388Y-146344167D01*
X156361789Y-146318838D01*
X156596100Y-146256054D01*
X156820212Y-146163224D01*
X157030289Y-146041936D01*
X157222738Y-145894265D01*
X157394265Y-145722738D01*
X157541936Y-145530289D01*
X157663224Y-145320212D01*
X157756054Y-145096100D01*
X157818838Y-144861789D01*
X157850500Y-144621288D01*
X157850500Y-144378712D01*
X157850292Y-144377135D01*
X157842444Y-144317516D01*
X157818838Y-144138211D01*
X157756054Y-143903900D01*
X157663224Y-143679788D01*
X157541936Y-143469711D01*
X157470900Y-143377135D01*
X157394266Y-143277263D01*
X157394260Y-143277256D01*
X157222743Y-143105739D01*
X157222736Y-143105733D01*
X157030293Y-142958067D01*
X157030292Y-142958066D01*
X157030289Y-142958064D01*
X156820212Y-142836776D01*
X156820205Y-142836773D01*
X156596104Y-142743947D01*
X156361785Y-142681161D01*
X156121289Y-142649500D01*
X156121288Y-142649500D01*
X155878712Y-142649500D01*
X155878711Y-142649500D01*
X155638214Y-142681161D01*
X155403895Y-142743947D01*
X155179794Y-142836773D01*
X155179785Y-142836777D01*
X154969706Y-142958067D01*
X154777263Y-143105733D01*
X154777256Y-143105739D01*
X154605739Y-143277256D01*
X154605733Y-143277263D01*
X154458067Y-143469706D01*
X154336777Y-143679785D01*
X154336773Y-143679794D01*
X154243947Y-143903895D01*
X154181161Y-144138214D01*
X154149500Y-144378711D01*
X144925500Y-144378711D01*
X144925499Y-143981206D01*
X144925499Y-143377129D01*
X144925498Y-143377123D01*
X144925497Y-143377116D01*
X144919091Y-143317517D01*
X144916767Y-143311287D01*
X144868797Y-143182671D01*
X144868793Y-143182664D01*
X144782547Y-143067455D01*
X144782544Y-143067452D01*
X144667335Y-142981206D01*
X144667330Y-142981203D01*
X144531166Y-142930417D01*
X144475233Y-142888545D01*
X144450816Y-142823081D01*
X144450500Y-142814235D01*
X144450500Y-140480945D01*
X144450500Y-140480943D01*
X144409577Y-140328216D01*
X144409577Y-140328215D01*
X144409577Y-140328214D01*
X144380639Y-140278095D01*
X144380637Y-140278092D01*
X144330520Y-140191284D01*
X144218716Y-140079480D01*
X144218715Y-140079479D01*
X144214385Y-140075149D01*
X144214374Y-140075139D01*
X142744574Y-138605339D01*
X142711089Y-138544016D01*
X142710638Y-138541849D01*
X142682515Y-138400469D01*
X142679737Y-138386503D01*
X142679735Y-138386498D01*
X142619397Y-138240827D01*
X142619390Y-138240814D01*
X142531789Y-138109711D01*
X142531786Y-138109707D01*
X142420292Y-137998213D01*
X142420288Y-137998210D01*
X142289185Y-137910609D01*
X142289172Y-137910602D01*
X142143501Y-137850264D01*
X142143489Y-137850261D01*
X141988845Y-137819500D01*
X141988842Y-137819500D01*
X141831158Y-137819500D01*
X141831150Y-137819500D01*
X141830821Y-137819566D01*
X141830645Y-137819550D01*
X141825093Y-137820097D01*
X141824989Y-137819043D01*
X141761230Y-137813326D01*
X141706060Y-137770453D01*
X141682828Y-137704559D01*
X141698908Y-137636565D01*
X141718960Y-137610274D01*
X141872418Y-137456816D01*
X141933740Y-137423334D01*
X141960097Y-137420500D01*
X159533331Y-137420500D01*
X159533347Y-137420501D01*
X159540943Y-137420501D01*
X159699054Y-137420501D01*
X159699057Y-137420501D01*
X159851785Y-137379577D01*
X159922558Y-137338716D01*
X159988716Y-137300520D01*
X160100520Y-137188716D01*
X160100520Y-137188714D01*
X160110724Y-137178511D01*
X160110728Y-137178506D01*
X161248713Y-136040521D01*
X161248716Y-136040520D01*
X161360520Y-135928716D01*
X161410639Y-135841904D01*
X161439577Y-135791785D01*
X161480500Y-135639057D01*
X161480500Y-135480943D01*
X161480500Y-122929059D01*
X161480501Y-122929046D01*
X161480501Y-122760945D01*
X161480501Y-122760943D01*
X161439577Y-122608215D01*
X161410639Y-122558095D01*
X161360520Y-122471284D01*
X161248716Y-122359480D01*
X161248715Y-122359479D01*
X161244385Y-122355149D01*
X161244374Y-122355139D01*
X159167590Y-120278355D01*
X159167588Y-120278352D01*
X159048717Y-120159481D01*
X159048716Y-120159480D01*
X158961904Y-120109360D01*
X158961904Y-120109359D01*
X158961900Y-120109358D01*
X158911785Y-120080423D01*
X158759057Y-120039499D01*
X158600943Y-120039499D01*
X158593347Y-120039499D01*
X158593331Y-120039500D01*
X157508064Y-120039500D01*
X157441025Y-120019815D01*
X157404962Y-119984391D01*
X157381789Y-119949711D01*
X157381786Y-119949707D01*
X157270292Y-119838213D01*
X157270288Y-119838210D01*
X157139185Y-119750609D01*
X157139172Y-119750602D01*
X156993501Y-119690264D01*
X156993489Y-119690261D01*
X156838845Y-119659500D01*
X156838842Y-119659500D01*
X156681158Y-119659500D01*
X156681155Y-119659500D01*
X156526510Y-119690261D01*
X156526498Y-119690264D01*
X156380827Y-119750602D01*
X156380814Y-119750609D01*
X156249711Y-119838210D01*
X156249707Y-119838213D01*
X156138213Y-119949707D01*
X156138210Y-119949711D01*
X156050609Y-120080814D01*
X156050602Y-120080827D01*
X155990264Y-120226498D01*
X155990261Y-120226510D01*
X155959500Y-120381153D01*
X155959500Y-120538846D01*
X155990261Y-120693489D01*
X155990264Y-120693501D01*
X156050602Y-120839172D01*
X156050609Y-120839185D01*
X156138210Y-120970288D01*
X156138213Y-120970292D01*
X156249707Y-121081786D01*
X156249711Y-121081789D01*
X156380814Y-121169390D01*
X156380827Y-121169397D01*
X156526498Y-121229735D01*
X156526503Y-121229737D01*
X156679574Y-121260185D01*
X156681153Y-121260499D01*
X156681156Y-121260500D01*
X156681158Y-121260500D01*
X156838843Y-121260500D01*
X156884398Y-121251438D01*
X156927408Y-121242882D01*
X156951599Y-121240500D01*
X158379903Y-121240500D01*
X158446942Y-121260185D01*
X158467584Y-121276819D01*
X160243181Y-123052416D01*
X160276666Y-123113739D01*
X160279500Y-123140097D01*
X160279500Y-135259903D01*
X160259815Y-135326942D01*
X160243181Y-135347584D01*
X159407584Y-136183181D01*
X159346261Y-136216666D01*
X159319903Y-136219500D01*
X158579096Y-136219500D01*
X158557850Y-136213261D01*
X158535763Y-136211682D01*
X158524979Y-136203609D01*
X158512057Y-136199815D01*
X158497558Y-136183083D01*
X158479829Y-136169811D01*
X158475121Y-136157188D01*
X158466302Y-136147011D01*
X158463150Y-136125095D01*
X158455412Y-136104347D01*
X158458275Y-136091185D01*
X158456358Y-136077853D01*
X158465557Y-136057708D01*
X158470264Y-136036074D01*
X158483533Y-136018346D01*
X158485383Y-136014297D01*
X158491400Y-136007833D01*
X158618509Y-135880724D01*
X158618514Y-135880721D01*
X158628714Y-135870520D01*
X158628716Y-135870520D01*
X158740520Y-135758716D01*
X158809605Y-135639057D01*
X158819577Y-135621785D01*
X158860500Y-135469057D01*
X158860500Y-135310943D01*
X158860500Y-128180943D01*
X158857455Y-128169577D01*
X158819577Y-128028215D01*
X158790639Y-127978095D01*
X158740520Y-127891284D01*
X158628716Y-127779480D01*
X158628715Y-127779479D01*
X158624385Y-127775149D01*
X158624374Y-127775139D01*
X156313918Y-125464683D01*
X156280433Y-125403360D01*
X156283669Y-125338681D01*
X156292861Y-125310391D01*
X156292862Y-125310389D01*
X156323217Y-125118735D01*
X156325500Y-125104324D01*
X156325500Y-124895675D01*
X156292862Y-124689610D01*
X156242728Y-124535316D01*
X156228389Y-124491184D01*
X156228387Y-124491181D01*
X156228387Y-124491179D01*
X156176568Y-124389478D01*
X156133670Y-124305286D01*
X156011035Y-124136495D01*
X155863505Y-123988965D01*
X155694714Y-123866330D01*
X155694705Y-123866325D01*
X155694700Y-123866322D01*
X155668202Y-123852820D01*
X155617407Y-123804844D01*
X155600500Y-123742337D01*
X155600500Y-116869060D01*
X155600501Y-116869047D01*
X155600501Y-116700944D01*
X155591544Y-116667516D01*
X155559577Y-116548216D01*
X155518788Y-116477566D01*
X155480524Y-116411290D01*
X155480518Y-116411282D01*
X153687627Y-114618391D01*
X151884156Y-112814921D01*
X151850672Y-112753599D01*
X151853909Y-112688918D01*
X151855569Y-112683811D01*
X151856285Y-112681607D01*
X151888000Y-112481368D01*
X151888000Y-112278632D01*
X151856285Y-112078393D01*
X151805126Y-111920939D01*
X151793638Y-111885582D01*
X151793637Y-111885579D01*
X151759630Y-111818838D01*
X151701597Y-111704941D01*
X151671288Y-111663224D01*
X151582437Y-111540930D01*
X151582433Y-111540925D01*
X151439074Y-111397566D01*
X151439069Y-111397562D01*
X151275062Y-111278405D01*
X151275061Y-111278404D01*
X151275059Y-111278403D01*
X151161387Y-111220484D01*
X151110592Y-111172511D01*
X151093797Y-111104690D01*
X151116334Y-111038555D01*
X151161388Y-110999515D01*
X151275059Y-110941597D01*
X151439076Y-110822432D01*
X151582432Y-110679076D01*
X151701597Y-110515059D01*
X151793637Y-110334420D01*
X151856285Y-110141607D01*
X151888000Y-109941368D01*
X151888000Y-109878711D01*
X154149500Y-109878711D01*
X154149500Y-110121288D01*
X154181161Y-110361785D01*
X154243947Y-110596104D01*
X154336773Y-110820205D01*
X154336777Y-110820214D01*
X154358974Y-110858661D01*
X154458064Y-111030289D01*
X154458066Y-111030292D01*
X154458067Y-111030293D01*
X154605733Y-111222736D01*
X154605739Y-111222743D01*
X154777256Y-111394260D01*
X154777263Y-111394266D01*
X154809616Y-111419091D01*
X154969711Y-111541936D01*
X155179788Y-111663224D01*
X155403900Y-111756054D01*
X155638211Y-111818838D01*
X155818586Y-111842584D01*
X155878711Y-111850500D01*
X155878712Y-111850500D01*
X156121289Y-111850500D01*
X156169388Y-111844167D01*
X156361789Y-111818838D01*
X156596100Y-111756054D01*
X156820212Y-111663224D01*
X157030289Y-111541936D01*
X157222738Y-111394265D01*
X157394265Y-111222738D01*
X157541936Y-111030289D01*
X157663224Y-110820212D01*
X157756054Y-110596100D01*
X157818838Y-110361789D01*
X157850500Y-110121288D01*
X157850500Y-109878712D01*
X157818838Y-109638211D01*
X157756054Y-109403900D01*
X157663224Y-109179788D01*
X157541936Y-108969711D01*
X157419517Y-108810171D01*
X157394266Y-108777263D01*
X157394260Y-108777256D01*
X157222743Y-108605739D01*
X157222736Y-108605733D01*
X157030293Y-108458067D01*
X157030292Y-108458066D01*
X157030289Y-108458064D01*
X156820212Y-108336776D01*
X156820205Y-108336773D01*
X156596104Y-108243947D01*
X156361785Y-108181161D01*
X156121289Y-108149500D01*
X156121288Y-108149500D01*
X155878712Y-108149500D01*
X155878711Y-108149500D01*
X155638214Y-108181161D01*
X155403895Y-108243947D01*
X155179794Y-108336773D01*
X155179785Y-108336777D01*
X154969706Y-108458067D01*
X154777263Y-108605733D01*
X154777256Y-108605739D01*
X154605739Y-108777256D01*
X154605733Y-108777263D01*
X154458067Y-108969706D01*
X154336777Y-109179785D01*
X154336773Y-109179794D01*
X154243947Y-109403895D01*
X154181161Y-109638214D01*
X154149500Y-109878711D01*
X151888000Y-109878711D01*
X151888000Y-109738632D01*
X151856285Y-109538393D01*
X151812586Y-109403900D01*
X151793638Y-109345582D01*
X151793637Y-109345579D01*
X151760686Y-109280909D01*
X151701597Y-109164941D01*
X151665730Y-109115574D01*
X151582437Y-109000930D01*
X151582433Y-109000925D01*
X151439074Y-108857566D01*
X151439069Y-108857562D01*
X151275062Y-108738405D01*
X151275061Y-108738404D01*
X151275059Y-108738403D01*
X151217186Y-108708915D01*
X151094420Y-108646362D01*
X151094417Y-108646361D01*
X150923411Y-108590799D01*
X150921140Y-108589246D01*
X150918397Y-108589050D01*
X150892471Y-108569643D01*
X150865736Y-108551362D01*
X150864665Y-108548828D01*
X150862463Y-108547180D01*
X150851145Y-108516837D01*
X150838537Y-108487003D01*
X150839006Y-108484291D01*
X150838045Y-108481715D01*
X150844927Y-108450073D01*
X150850451Y-108418157D01*
X150852490Y-108415307D01*
X150852896Y-108413442D01*
X150874042Y-108385193D01*
X150950520Y-108308716D01*
X150950521Y-108308713D01*
X153946041Y-105313192D01*
X154007362Y-105279709D01*
X154077054Y-105284693D01*
X154108030Y-105301608D01*
X154122547Y-105312475D01*
X154137667Y-105323795D01*
X154137671Y-105323797D01*
X154272517Y-105374091D01*
X154272516Y-105374091D01*
X154279444Y-105374835D01*
X154332127Y-105380500D01*
X156427872Y-105380499D01*
X156487483Y-105374091D01*
X156622331Y-105323796D01*
X156737546Y-105237546D01*
X156823796Y-105122331D01*
X156874091Y-104987483D01*
X156880500Y-104927873D01*
X156880499Y-102832128D01*
X156874091Y-102772517D01*
X156823796Y-102637669D01*
X156823795Y-102637668D01*
X156823793Y-102637664D01*
X156737547Y-102522455D01*
X156737544Y-102522452D01*
X156622335Y-102436206D01*
X156622328Y-102436202D01*
X156487482Y-102385908D01*
X156487483Y-102385908D01*
X156427883Y-102379501D01*
X156427881Y-102379500D01*
X156427873Y-102379500D01*
X156427864Y-102379500D01*
X154332129Y-102379500D01*
X154332123Y-102379501D01*
X154272516Y-102385908D01*
X154137671Y-102436202D01*
X154137664Y-102436206D01*
X154022455Y-102522452D01*
X154022452Y-102522455D01*
X153936206Y-102637664D01*
X153936202Y-102637671D01*
X153885908Y-102772517D01*
X153879501Y-102832116D01*
X153879501Y-102832123D01*
X153879500Y-102832135D01*
X153879500Y-103629902D01*
X153859815Y-103696941D01*
X153843181Y-103717583D01*
X150257584Y-107303181D01*
X150196261Y-107336666D01*
X150169903Y-107339500D01*
X149244500Y-107339500D01*
X149235814Y-107336949D01*
X149226853Y-107338238D01*
X149202812Y-107327259D01*
X149177461Y-107319815D01*
X149171533Y-107312974D01*
X149163297Y-107309213D01*
X149149007Y-107286978D01*
X149131706Y-107267011D01*
X149129418Y-107256496D01*
X149125523Y-107250435D01*
X149120500Y-107215500D01*
X149120500Y-107164500D01*
X149140185Y-107097461D01*
X149192989Y-107051706D01*
X149244500Y-107040500D01*
X149463331Y-107040500D01*
X149463347Y-107040501D01*
X149470943Y-107040501D01*
X149629054Y-107040501D01*
X149629057Y-107040501D01*
X149781785Y-106999577D01*
X149831904Y-106970639D01*
X149918716Y-106920520D01*
X149990595Y-106848640D01*
X149997257Y-106843572D01*
X150022380Y-106833976D01*
X150045983Y-106821088D01*
X150048152Y-106820637D01*
X150048841Y-106820500D01*
X150048842Y-106820500D01*
X150203497Y-106789737D01*
X150349179Y-106729394D01*
X150480289Y-106641789D01*
X150591789Y-106530289D01*
X150679394Y-106399179D01*
X150739737Y-106253497D01*
X150770500Y-106098842D01*
X150770500Y-105941158D01*
X150770500Y-105941155D01*
X150770499Y-105941153D01*
X150739738Y-105786510D01*
X150739737Y-105786503D01*
X150698861Y-105687819D01*
X150679397Y-105640827D01*
X150679390Y-105640814D01*
X150591789Y-105509711D01*
X150591786Y-105509707D01*
X150480292Y-105398213D01*
X150480288Y-105398210D01*
X150359649Y-105317601D01*
X150314844Y-105263989D01*
X150306137Y-105194664D01*
X150336292Y-105131636D01*
X150395735Y-105094917D01*
X150428538Y-105090499D01*
X150717872Y-105090499D01*
X150777483Y-105084091D01*
X150912331Y-105033796D01*
X151027546Y-104947546D01*
X151113796Y-104832331D01*
X151164091Y-104697483D01*
X151170500Y-104637873D01*
X151170499Y-101842128D01*
X151164091Y-101782517D01*
X151146079Y-101734225D01*
X151113797Y-101647671D01*
X151113793Y-101647664D01*
X151027547Y-101532455D01*
X151027544Y-101532452D01*
X150912335Y-101446206D01*
X150912328Y-101446202D01*
X150777482Y-101395908D01*
X150777483Y-101395908D01*
X150717883Y-101389501D01*
X150717881Y-101389500D01*
X150717873Y-101389500D01*
X150717864Y-101389500D01*
X149622129Y-101389500D01*
X149622123Y-101389501D01*
X149562516Y-101395908D01*
X149427671Y-101446202D01*
X149427664Y-101446206D01*
X149312455Y-101532452D01*
X149312452Y-101532455D01*
X149226206Y-101647664D01*
X149226202Y-101647671D01*
X149175908Y-101782517D01*
X149172145Y-101817523D01*
X149169501Y-101842123D01*
X149169500Y-101842135D01*
X149169500Y-104637870D01*
X149169501Y-104637876D01*
X149175908Y-104697483D01*
X149226202Y-104832328D01*
X149226206Y-104832335D01*
X149312452Y-104947544D01*
X149312455Y-104947547D01*
X149427664Y-105033793D01*
X149427671Y-105033797D01*
X149569785Y-105086802D01*
X149568758Y-105089554D01*
X149617492Y-105117275D01*
X149649907Y-105179171D01*
X149643712Y-105248765D01*
X149600876Y-105303963D01*
X149595819Y-105307121D01*
X149595886Y-105307221D01*
X149459711Y-105398210D01*
X149459707Y-105398213D01*
X149348213Y-105509707D01*
X149348209Y-105509712D01*
X149338268Y-105524590D01*
X149284655Y-105569393D01*
X149215329Y-105578099D01*
X149152303Y-105547942D01*
X149115585Y-105488498D01*
X149114490Y-105484207D01*
X149114091Y-105482525D01*
X149114091Y-105482517D01*
X149063796Y-105347669D01*
X149063795Y-105347668D01*
X149063793Y-105347664D01*
X148977547Y-105232455D01*
X148977544Y-105232452D01*
X148862335Y-105146206D01*
X148862328Y-105146202D01*
X148727486Y-105095910D01*
X148727485Y-105095909D01*
X148727483Y-105095909D01*
X148667873Y-105089500D01*
X148667863Y-105089500D01*
X147972129Y-105089500D01*
X147972123Y-105089501D01*
X147912516Y-105095908D01*
X147777671Y-105146202D01*
X147777662Y-105146207D01*
X147769307Y-105152462D01*
X147703842Y-105176877D01*
X147635570Y-105162023D01*
X147620693Y-105152462D01*
X147612337Y-105146207D01*
X147612328Y-105146202D01*
X147477486Y-105095910D01*
X147477485Y-105095909D01*
X147477483Y-105095909D01*
X147417873Y-105089500D01*
X147417863Y-105089500D01*
X146722129Y-105089500D01*
X146722123Y-105089501D01*
X146662516Y-105095908D01*
X146527671Y-105146202D01*
X146527662Y-105146207D01*
X146519307Y-105152462D01*
X146453842Y-105176877D01*
X146385570Y-105162023D01*
X146370693Y-105152462D01*
X146362337Y-105146207D01*
X146362328Y-105146202D01*
X146227486Y-105095910D01*
X146227485Y-105095909D01*
X146227483Y-105095909D01*
X146167873Y-105089500D01*
X146167863Y-105089500D01*
X145472129Y-105089500D01*
X145472123Y-105089501D01*
X145412516Y-105095908D01*
X145277671Y-105146202D01*
X145277662Y-105146207D01*
X145269307Y-105152462D01*
X145203842Y-105176877D01*
X145135570Y-105162023D01*
X145120693Y-105152462D01*
X145112337Y-105146207D01*
X145112328Y-105146202D01*
X144977486Y-105095910D01*
X144977485Y-105095909D01*
X144977483Y-105095909D01*
X144917873Y-105089500D01*
X144917863Y-105089500D01*
X144222129Y-105089500D01*
X144222123Y-105089501D01*
X144162516Y-105095908D01*
X144027671Y-105146202D01*
X144027664Y-105146206D01*
X143912455Y-105232452D01*
X143912452Y-105232455D01*
X143826206Y-105347664D01*
X143826202Y-105347671D01*
X143775908Y-105482517D01*
X143769501Y-105542116D01*
X143769500Y-105542135D01*
X143769501Y-107265500D01*
X143749816Y-107332539D01*
X143697013Y-107378294D01*
X143645501Y-107389500D01*
X143219903Y-107389500D01*
X143152864Y-107369815D01*
X143107230Y-107317277D01*
X143102847Y-107307739D01*
X143089577Y-107258215D01*
X143045960Y-107182669D01*
X143043079Y-107177679D01*
X143043075Y-107177670D01*
X143010524Y-107121290D01*
X143010521Y-107121286D01*
X143010520Y-107121284D01*
X142898716Y-107009480D01*
X142898715Y-107009479D01*
X142894385Y-107005149D01*
X142894374Y-107005139D01*
X138277590Y-102388355D01*
X138277588Y-102388352D01*
X138158717Y-102269481D01*
X138158716Y-102269480D01*
X138071904Y-102219360D01*
X138071904Y-102219359D01*
X138071900Y-102219358D01*
X138021785Y-102190423D01*
X137869057Y-102149499D01*
X137710943Y-102149499D01*
X137703347Y-102149499D01*
X137703331Y-102149500D01*
X125109057Y-102149500D01*
X124950942Y-102149500D01*
X124798215Y-102190423D01*
X124798214Y-102190423D01*
X124798212Y-102190424D01*
X124798209Y-102190425D01*
X124748096Y-102219359D01*
X124748095Y-102219360D01*
X124704689Y-102244420D01*
X124661285Y-102269479D01*
X124661282Y-102269481D01*
X124551264Y-102379500D01*
X124549480Y-102381284D01*
X124549478Y-102381286D01*
X118141953Y-108788812D01*
X111747584Y-115183181D01*
X111686261Y-115216666D01*
X111659903Y-115219500D01*
X109820943Y-115219500D01*
X109668216Y-115260423D01*
X109668209Y-115260426D01*
X109531290Y-115339475D01*
X109531282Y-115339481D01*
X109419481Y-115451282D01*
X109419475Y-115451290D01*
X109340426Y-115588209D01*
X109340423Y-115588216D01*
X109299500Y-115740943D01*
X109299500Y-119279057D01*
X109325342Y-119375498D01*
X109340423Y-119431783D01*
X109340426Y-119431790D01*
X109419475Y-119568709D01*
X109419479Y-119568714D01*
X109419480Y-119568716D01*
X109531284Y-119680520D01*
X109531286Y-119680521D01*
X109531290Y-119680524D01*
X109668209Y-119759573D01*
X109668216Y-119759577D01*
X109820943Y-119800500D01*
X109979057Y-119800500D01*
X110287680Y-119800500D01*
X110354719Y-119820185D01*
X110386948Y-119850191D01*
X110392454Y-119857546D01*
X110392457Y-119857548D01*
X110507664Y-119943793D01*
X110507671Y-119943797D01*
X110642517Y-119994091D01*
X110642516Y-119994091D01*
X110649444Y-119994835D01*
X110702127Y-120000500D01*
X112097872Y-120000499D01*
X112157483Y-119994091D01*
X112292331Y-119943796D01*
X112407546Y-119857546D01*
X112493796Y-119742331D01*
X112544091Y-119607483D01*
X112550500Y-119547873D01*
X112550499Y-119151064D01*
X112570183Y-119084027D01*
X112622987Y-119038272D01*
X112692146Y-119028328D01*
X112717828Y-119034882D01*
X112742517Y-119044091D01*
X112802127Y-119050500D01*
X113399902Y-119050499D01*
X113466941Y-119070183D01*
X113487583Y-119086818D01*
X114265139Y-119864374D01*
X114265149Y-119864385D01*
X114269479Y-119868715D01*
X114269480Y-119868716D01*
X114381284Y-119980520D01*
X114381286Y-119980521D01*
X114381290Y-119980524D01*
X114450562Y-120020518D01*
X114450566Y-120020519D01*
X114450567Y-120020520D01*
X114518213Y-120059576D01*
X114518214Y-120059576D01*
X114518215Y-120059577D01*
X114670943Y-120100501D01*
X114670945Y-120100501D01*
X114679003Y-120101562D01*
X114678811Y-120103018D01*
X114737275Y-120120186D01*
X114739127Y-120121399D01*
X114870814Y-120209390D01*
X114870827Y-120209397D01*
X115016498Y-120269735D01*
X115016503Y-120269737D01*
X115133393Y-120292988D01*
X115171153Y-120300499D01*
X115171156Y-120300500D01*
X115171158Y-120300500D01*
X115328842Y-120300500D01*
X115366605Y-120292988D01*
X115436195Y-120299214D01*
X115491373Y-120342076D01*
X115514619Y-120407965D01*
X115498552Y-120475963D01*
X115478478Y-120502286D01*
X114947584Y-121033181D01*
X114886261Y-121066666D01*
X114859903Y-121069500D01*
X107610940Y-121069500D01*
X107570019Y-121080464D01*
X107570019Y-121080465D01*
X107543910Y-121087461D01*
X107458214Y-121110423D01*
X107458209Y-121110426D01*
X107321290Y-121189475D01*
X107321282Y-121189481D01*
X104009481Y-124501282D01*
X104009479Y-124501285D01*
X103989832Y-124535316D01*
X103963003Y-124581785D01*
X103930423Y-124638215D01*
X103889499Y-124790943D01*
X103889499Y-124949057D01*
X103889499Y-124949059D01*
X103889500Y-124959053D01*
X103889500Y-128633330D01*
X103889499Y-128633348D01*
X103889499Y-128809046D01*
X103889500Y-128809059D01*
X103889500Y-134853330D01*
X103889499Y-134853348D01*
X103889499Y-135019054D01*
X103889498Y-135019054D01*
X101500500Y-135019054D01*
X101500500Y-109878711D01*
X108649500Y-109878711D01*
X108649500Y-110121288D01*
X108681161Y-110361785D01*
X108743947Y-110596104D01*
X108836773Y-110820205D01*
X108836777Y-110820214D01*
X108858974Y-110858661D01*
X108958064Y-111030289D01*
X108958066Y-111030292D01*
X108958067Y-111030293D01*
X109105733Y-111222736D01*
X109105739Y-111222743D01*
X109277256Y-111394260D01*
X109277263Y-111394266D01*
X109309616Y-111419091D01*
X109469711Y-111541936D01*
X109679788Y-111663224D01*
X109903900Y-111756054D01*
X110138211Y-111818838D01*
X110318586Y-111842584D01*
X110378711Y-111850500D01*
X110378712Y-111850500D01*
X110621289Y-111850500D01*
X110669388Y-111844167D01*
X110861789Y-111818838D01*
X111096100Y-111756054D01*
X111320212Y-111663224D01*
X111530289Y-111541936D01*
X111722738Y-111394265D01*
X111894265Y-111222738D01*
X112041936Y-111030289D01*
X112163224Y-110820212D01*
X112256054Y-110596100D01*
X112318838Y-110361789D01*
X112350500Y-110121288D01*
X112350500Y-109878712D01*
X112318838Y-109638211D01*
X112256054Y-109403900D01*
X112163224Y-109179788D01*
X112041936Y-108969711D01*
X111919517Y-108810171D01*
X111894266Y-108777263D01*
X111894260Y-108777256D01*
X111722743Y-108605739D01*
X111722736Y-108605733D01*
X111530293Y-108458067D01*
X111530292Y-108458066D01*
X111530289Y-108458064D01*
X111320212Y-108336776D01*
X111320205Y-108336773D01*
X111096104Y-108243947D01*
X110861785Y-108181161D01*
X110621289Y-108149500D01*
X110621288Y-108149500D01*
X110378712Y-108149500D01*
X110378711Y-108149500D01*
X110138214Y-108181161D01*
X109903895Y-108243947D01*
X109679794Y-108336773D01*
X109679785Y-108336777D01*
X109469706Y-108458067D01*
X109277263Y-108605733D01*
X109277256Y-108605739D01*
X109105739Y-108777256D01*
X109105733Y-108777263D01*
X108958067Y-108969706D01*
X108836777Y-109179785D01*
X108836773Y-109179794D01*
X108743947Y-109403895D01*
X108681161Y-109638214D01*
X108649500Y-109878711D01*
X101500500Y-109878711D01*
X101500500Y-105502706D01*
X101500618Y-105497297D01*
X101501002Y-105488498D01*
X101517386Y-105113226D01*
X101518326Y-105102495D01*
X101568152Y-104724025D01*
X101570025Y-104713405D01*
X101652649Y-104340709D01*
X101655440Y-104330295D01*
X101770230Y-103966227D01*
X101773917Y-103956095D01*
X101920003Y-103603412D01*
X101924561Y-103593638D01*
X102100822Y-103255045D01*
X102106217Y-103245700D01*
X102311325Y-102923744D01*
X102317515Y-102914905D01*
X102549896Y-102612060D01*
X102556834Y-102603791D01*
X102814726Y-102322352D01*
X102822352Y-102314726D01*
X103103791Y-102056834D01*
X103112060Y-102049896D01*
X103382820Y-101842135D01*
X141719500Y-101842135D01*
X141719500Y-104637870D01*
X141719501Y-104637876D01*
X141725908Y-104697483D01*
X141776202Y-104832328D01*
X141776206Y-104832335D01*
X141862452Y-104947544D01*
X141862455Y-104947547D01*
X141977664Y-105033793D01*
X141977671Y-105033797D01*
X142112517Y-105084091D01*
X142112516Y-105084091D01*
X142119444Y-105084835D01*
X142172127Y-105090500D01*
X143267872Y-105090499D01*
X143327483Y-105084091D01*
X143462331Y-105033796D01*
X143577546Y-104947546D01*
X143663796Y-104832331D01*
X143714091Y-104697483D01*
X143720500Y-104637873D01*
X143720499Y-101842128D01*
X143714091Y-101782517D01*
X143696079Y-101734225D01*
X143663797Y-101647671D01*
X143663793Y-101647664D01*
X143577547Y-101532455D01*
X143577544Y-101532452D01*
X143462335Y-101446206D01*
X143462328Y-101446202D01*
X143327482Y-101395908D01*
X143327483Y-101395908D01*
X143267883Y-101389501D01*
X143267881Y-101389500D01*
X143267873Y-101389500D01*
X143267864Y-101389500D01*
X142172129Y-101389500D01*
X142172123Y-101389501D01*
X142112516Y-101395908D01*
X141977671Y-101446202D01*
X141977664Y-101446206D01*
X141862455Y-101532452D01*
X141862452Y-101532455D01*
X141776206Y-101647664D01*
X141776202Y-101647671D01*
X141725908Y-101782517D01*
X141722145Y-101817523D01*
X141719501Y-101842123D01*
X141719500Y-101842135D01*
X103382820Y-101842135D01*
X103414905Y-101817515D01*
X103423744Y-101811325D01*
X103745700Y-101606217D01*
X103755045Y-101600822D01*
X104093638Y-101424561D01*
X104103412Y-101420003D01*
X104456095Y-101273917D01*
X104466227Y-101270230D01*
X104830295Y-101155440D01*
X104840709Y-101152649D01*
X105213405Y-101070025D01*
X105224025Y-101068152D01*
X105602495Y-101018326D01*
X105613226Y-101017386D01*
X105997297Y-101000617D01*
X106002706Y-101000500D01*
X106065892Y-101000500D01*
X160434108Y-101000500D01*
X160497294Y-101000500D01*
X160502702Y-101000617D01*
G37*
%TD.AperFunction*%
%TA.AperFunction,NonConductor*%
G36*
X137556942Y-103370185D02*
G01*
X137577584Y-103386819D01*
X137648905Y-103458140D01*
X137682390Y-103519463D01*
X137677406Y-103589155D01*
X137635534Y-103645088D01*
X137570070Y-103669505D01*
X137529131Y-103665596D01*
X137521718Y-103663609D01*
X137469057Y-103649499D01*
X137310943Y-103649499D01*
X137303347Y-103649499D01*
X137303331Y-103649500D01*
X125826669Y-103649500D01*
X125826653Y-103649499D01*
X125819057Y-103649499D01*
X125660943Y-103649499D01*
X125546397Y-103680192D01*
X125508214Y-103690423D01*
X125490897Y-103700422D01*
X125490894Y-103700423D01*
X125371290Y-103769475D01*
X125371282Y-103769481D01*
X125259481Y-103881282D01*
X125259480Y-103881284D01*
X125253707Y-103891284D01*
X125180423Y-104018215D01*
X125139499Y-104170943D01*
X125139499Y-104170945D01*
X125139499Y-104329057D01*
X125145275Y-104350613D01*
X125149500Y-104382706D01*
X125149500Y-106800500D01*
X125129815Y-106867539D01*
X125077011Y-106913294D01*
X125025505Y-106924500D01*
X125002132Y-106924500D01*
X125002123Y-106924501D01*
X124942516Y-106930908D01*
X124807671Y-106981202D01*
X124807664Y-106981206D01*
X124692455Y-107067452D01*
X124692452Y-107067455D01*
X124606206Y-107182664D01*
X124606204Y-107182669D01*
X124555908Y-107317517D01*
X124550964Y-107363506D01*
X124549501Y-107377123D01*
X124549500Y-107377135D01*
X124549500Y-108622870D01*
X124549501Y-108622876D01*
X124555908Y-108682483D01*
X124606202Y-108817328D01*
X124606206Y-108817335D01*
X124692452Y-108932544D01*
X124692455Y-108932547D01*
X124807664Y-109018793D01*
X124807671Y-109018797D01*
X124914972Y-109058818D01*
X124970906Y-109100689D01*
X124995323Y-109166154D01*
X124980471Y-109234427D01*
X124931066Y-109283832D01*
X124914972Y-109291182D01*
X124807671Y-109331202D01*
X124807664Y-109331206D01*
X124692455Y-109417452D01*
X124692452Y-109417455D01*
X124606206Y-109532664D01*
X124606202Y-109532671D01*
X124555418Y-109668833D01*
X124513547Y-109724767D01*
X124448083Y-109749184D01*
X124439236Y-109749500D01*
X119519057Y-109749500D01*
X119360942Y-109749500D01*
X119208215Y-109790423D01*
X119208214Y-109790423D01*
X119208212Y-109790424D01*
X119208209Y-109790425D01*
X119158096Y-109819359D01*
X119158092Y-109819362D01*
X119149878Y-109824104D01*
X119081977Y-109840574D01*
X119015951Y-109817720D01*
X118972762Y-109762797D01*
X118966123Y-109693244D01*
X118998141Y-109631142D01*
X119000200Y-109629034D01*
X119264319Y-109364916D01*
X125242416Y-103386819D01*
X125303739Y-103353334D01*
X125330097Y-103350500D01*
X137489903Y-103350500D01*
X137556942Y-103370185D01*
G37*
%TD.AperFunction*%
%TA.AperFunction,NonConductor*%
G36*
X149882737Y-108560185D02*
G01*
X149928492Y-108612989D01*
X149938436Y-108682147D01*
X149909411Y-108745703D01*
X149888583Y-108764818D01*
X149760930Y-108857562D01*
X149760925Y-108857566D01*
X149617566Y-109000925D01*
X149617562Y-109000930D01*
X149498405Y-109164937D01*
X149406362Y-109345579D01*
X149406361Y-109345582D01*
X149343715Y-109538391D01*
X149312000Y-109738632D01*
X149312000Y-109941367D01*
X149343715Y-110141610D01*
X149343715Y-110141612D01*
X149346093Y-110148930D01*
X149348084Y-110218771D01*
X149315841Y-110274922D01*
X147882181Y-111708583D01*
X147820858Y-111742068D01*
X147751166Y-111737084D01*
X147695233Y-111695212D01*
X147670816Y-111629748D01*
X147670500Y-111620902D01*
X147670500Y-108664500D01*
X147690185Y-108597461D01*
X147742989Y-108551706D01*
X147794500Y-108540500D01*
X149815698Y-108540500D01*
X149882737Y-108560185D01*
G37*
%TD.AperFunction*%
%TA.AperFunction,NonConductor*%
G36*
X146358974Y-108370780D02*
G01*
X146388834Y-108372916D01*
X146388835Y-108372916D01*
X146388836Y-108372917D01*
X146444769Y-108414789D01*
X146461508Y-108459674D01*
X146469184Y-108480252D01*
X146469500Y-108489098D01*
X146469500Y-111689902D01*
X146449815Y-111756941D01*
X146433181Y-111777583D01*
X144133817Y-114076947D01*
X144072494Y-114110432D01*
X144002802Y-114105448D01*
X143958455Y-114076947D01*
X143819074Y-113937566D01*
X143819069Y-113937562D01*
X143655062Y-113818405D01*
X143655061Y-113818404D01*
X143655059Y-113818403D01*
X143541387Y-113760484D01*
X143490592Y-113712511D01*
X143473797Y-113644690D01*
X143496334Y-113578555D01*
X143541388Y-113539515D01*
X143655059Y-113481597D01*
X143819076Y-113362432D01*
X143962432Y-113219076D01*
X144081597Y-113055059D01*
X144173637Y-112874420D01*
X144236285Y-112681607D01*
X144268000Y-112481368D01*
X144268000Y-112278632D01*
X144236285Y-112078393D01*
X144185126Y-111920939D01*
X144173638Y-111885582D01*
X144173637Y-111885579D01*
X144139630Y-111818838D01*
X144081597Y-111704941D01*
X144051288Y-111663224D01*
X143962437Y-111540930D01*
X143962433Y-111540925D01*
X143819074Y-111397566D01*
X143755806Y-111351599D01*
X143713141Y-111296269D01*
X143707162Y-111226655D01*
X143739768Y-111164860D01*
X143800607Y-111130503D01*
X143815428Y-111127992D01*
X143874983Y-111121591D01*
X144009831Y-111071296D01*
X144125046Y-110985046D01*
X144211296Y-110869831D01*
X144261591Y-110734983D01*
X144268000Y-110675373D01*
X144267999Y-109004628D01*
X144261591Y-108945017D01*
X144228972Y-108857562D01*
X144211297Y-108810171D01*
X144211295Y-108810168D01*
X144195308Y-108788812D01*
X144170890Y-108723348D01*
X144185741Y-108655075D01*
X144235146Y-108605669D01*
X144294574Y-108590500D01*
X145629973Y-108590500D01*
X145662066Y-108594725D01*
X145671990Y-108597384D01*
X145720943Y-108610501D01*
X145720945Y-108610501D01*
X145879054Y-108610501D01*
X145879057Y-108610501D01*
X146031785Y-108569577D01*
X146168716Y-108490519D01*
X146188713Y-108470521D01*
X146188716Y-108470520D01*
X146257822Y-108401413D01*
X146319144Y-108367931D01*
X146358974Y-108370780D01*
G37*
%TD.AperFunction*%
%TA.AperFunction,NonConductor*%
G36*
X118221570Y-112520177D02*
G01*
X118277504Y-112562049D01*
X118301921Y-112627513D01*
X118292798Y-112683811D01*
X118250263Y-112786503D01*
X118250262Y-112786506D01*
X118250262Y-112786507D01*
X118250261Y-112786508D01*
X118219362Y-112941848D01*
X118186977Y-113003759D01*
X118185426Y-113005337D01*
X117934691Y-113256072D01*
X117934685Y-113256078D01*
X117931286Y-113259478D01*
X117931284Y-113259480D01*
X117819480Y-113371284D01*
X117790810Y-113420943D01*
X117785081Y-113430865D01*
X117785079Y-113430868D01*
X117755791Y-113481597D01*
X117740423Y-113508215D01*
X117699499Y-113660943D01*
X117699499Y-113660945D01*
X117699499Y-113829046D01*
X117699500Y-113829059D01*
X117699500Y-113862648D01*
X117679815Y-113929687D01*
X117627011Y-113975442D01*
X117588755Y-113985938D01*
X117542516Y-113990909D01*
X117407671Y-114041202D01*
X117407664Y-114041206D01*
X117292455Y-114127452D01*
X117286183Y-114133725D01*
X117284841Y-114132383D01*
X117237823Y-114167575D01*
X117168131Y-114172553D01*
X117106811Y-114139062D01*
X117073331Y-114077736D01*
X117070500Y-114051389D01*
X117070500Y-113620097D01*
X117090185Y-113553058D01*
X117106819Y-113532416D01*
X117591029Y-113048206D01*
X118090558Y-112548676D01*
X118151879Y-112515193D01*
X118221570Y-112520177D01*
G37*
%TD.AperFunction*%
%TA.AperFunction,NonConductor*%
G36*
X112247300Y-118080224D02*
G01*
X112251856Y-118079899D01*
X112278786Y-118094604D01*
X112306703Y-118107353D01*
X112309172Y-118111195D01*
X112313180Y-118113384D01*
X112327885Y-118140314D01*
X112344477Y-118166131D01*
X112345368Y-118172329D01*
X112346666Y-118174706D01*
X112349500Y-118201066D01*
X112349500Y-118298933D01*
X112329815Y-118365972D01*
X112277011Y-118411727D01*
X112207853Y-118421671D01*
X112182168Y-118415115D01*
X112157485Y-118405909D01*
X112157483Y-118405908D01*
X112097883Y-118399501D01*
X112097881Y-118399500D01*
X112097873Y-118399500D01*
X112097864Y-118399500D01*
X110702129Y-118399500D01*
X110702120Y-118399501D01*
X110637752Y-118406420D01*
X110622347Y-118403640D01*
X110606853Y-118405868D01*
X110588665Y-118397562D01*
X110568992Y-118394012D01*
X110557536Y-118383345D01*
X110543297Y-118376843D01*
X110532487Y-118360023D01*
X110517856Y-118346400D01*
X110513479Y-118330445D01*
X110505523Y-118318065D01*
X110500500Y-118283130D01*
X110500500Y-118216868D01*
X110520185Y-118149829D01*
X110572989Y-118104074D01*
X110637756Y-118093579D01*
X110642516Y-118094090D01*
X110642517Y-118094091D01*
X110702127Y-118100500D01*
X112097872Y-118100499D01*
X112157483Y-118094091D01*
X112182165Y-118084884D01*
X112212775Y-118082694D01*
X112243147Y-118078328D01*
X112247300Y-118080224D01*
G37*
%TD.AperFunction*%
%TA.AperFunction,NonConductor*%
G36*
X115880049Y-112851698D02*
G01*
X115935982Y-112893570D01*
X115960399Y-112959034D01*
X115945547Y-113027307D01*
X115944102Y-113029880D01*
X115910424Y-113088211D01*
X115910423Y-113088215D01*
X115869499Y-113240943D01*
X115869499Y-113240945D01*
X115869499Y-113409046D01*
X115869500Y-113409059D01*
X115869500Y-117259902D01*
X115862526Y-117283650D01*
X115859690Y-117308240D01*
X115851920Y-117319771D01*
X115849815Y-117326941D01*
X115841446Y-117338453D01*
X115837539Y-117343224D01*
X115739480Y-117441284D01*
X115701999Y-117506204D01*
X115696956Y-117514938D01*
X115696954Y-117514941D01*
X115660423Y-117578214D01*
X115656607Y-117592455D01*
X115619499Y-117730943D01*
X115619499Y-117730945D01*
X115619499Y-117899046D01*
X115619500Y-117899059D01*
X115619500Y-118606221D01*
X115599815Y-118673260D01*
X115547011Y-118719015D01*
X115477853Y-118728959D01*
X115471309Y-118727838D01*
X115328845Y-118699500D01*
X115328842Y-118699500D01*
X115171158Y-118699500D01*
X115171155Y-118699500D01*
X115016511Y-118730260D01*
X115016502Y-118730263D01*
X114960814Y-118753329D01*
X114940939Y-118755465D01*
X114922210Y-118762451D01*
X114906910Y-118759122D01*
X114891345Y-118760796D01*
X114873470Y-118751848D01*
X114853937Y-118747599D01*
X114831644Y-118730911D01*
X114828866Y-118729520D01*
X114825683Y-118726448D01*
X114686818Y-118587583D01*
X114653333Y-118526260D01*
X114650499Y-118499902D01*
X114650499Y-117902129D01*
X114650498Y-117902123D01*
X114650167Y-117899046D01*
X114644091Y-117842517D01*
X114643596Y-117841191D01*
X114593797Y-117707671D01*
X114593793Y-117707664D01*
X114507547Y-117592455D01*
X114507544Y-117592452D01*
X114392335Y-117506206D01*
X114392328Y-117506202D01*
X114257482Y-117455908D01*
X114257483Y-117455908D01*
X114197883Y-117449501D01*
X114197881Y-117449500D01*
X114197873Y-117449500D01*
X114197865Y-117449500D01*
X113289096Y-117449500D01*
X113222057Y-117429815D01*
X113176302Y-117377011D01*
X113166358Y-117307853D01*
X113195383Y-117244297D01*
X113201415Y-117237819D01*
X113205375Y-117233859D01*
X113424662Y-117014572D01*
X113485983Y-116981089D01*
X113488150Y-116980638D01*
X113563854Y-116965579D01*
X113643497Y-116949737D01*
X113789179Y-116889394D01*
X113920289Y-116801789D01*
X114031789Y-116690289D01*
X114119394Y-116559179D01*
X114179737Y-116413497D01*
X114210500Y-116258842D01*
X114210500Y-116101158D01*
X114210500Y-116101155D01*
X114210499Y-116101153D01*
X114194674Y-116021597D01*
X114179737Y-115946503D01*
X114177783Y-115941785D01*
X114119397Y-115800827D01*
X114119390Y-115800814D01*
X114031789Y-115669711D01*
X114031786Y-115669707D01*
X113920292Y-115558213D01*
X113920288Y-115558210D01*
X113789185Y-115470609D01*
X113789172Y-115470602D01*
X113643501Y-115410264D01*
X113643491Y-115410261D01*
X113516933Y-115385087D01*
X113455022Y-115352702D01*
X113420448Y-115291986D01*
X113424188Y-115222217D01*
X113453442Y-115175791D01*
X115749036Y-112880197D01*
X115810357Y-112846714D01*
X115880049Y-112851698D01*
G37*
%TD.AperFunction*%
%TA.AperFunction,NonConductor*%
G36*
X147338834Y-112672914D02*
G01*
X147394767Y-112714786D01*
X147419184Y-112780250D01*
X147419500Y-112789096D01*
X147419500Y-119705500D01*
X147399815Y-119772539D01*
X147347011Y-119818294D01*
X147295500Y-119829500D01*
X146694499Y-119829500D01*
X146627460Y-119809815D01*
X146581705Y-119757011D01*
X146570499Y-119705500D01*
X146570499Y-119667129D01*
X146570498Y-119667123D01*
X146570497Y-119667116D01*
X146564091Y-119607517D01*
X146564079Y-119607486D01*
X146513797Y-119472671D01*
X146513793Y-119472664D01*
X146427547Y-119357455D01*
X146427544Y-119357452D01*
X146312335Y-119271206D01*
X146312328Y-119271202D01*
X146177482Y-119220908D01*
X146177483Y-119220908D01*
X146117883Y-119214501D01*
X146117881Y-119214500D01*
X146117873Y-119214500D01*
X146117864Y-119214500D01*
X145042129Y-119214500D01*
X145042123Y-119214501D01*
X144982516Y-119220908D01*
X144847671Y-119271202D01*
X144839886Y-119275454D01*
X144838153Y-119272280D01*
X144788698Y-119290659D01*
X144732868Y-119281657D01*
X144718294Y-119275668D01*
X144712331Y-119271204D01*
X144659291Y-119251421D01*
X144657368Y-119250631D01*
X144631633Y-119230011D01*
X144605233Y-119210248D01*
X144604493Y-119208266D01*
X144602842Y-119206943D01*
X144592337Y-119175673D01*
X144580816Y-119144783D01*
X144580679Y-119140971D01*
X144580592Y-119140710D01*
X144580660Y-119140437D01*
X144580500Y-119135938D01*
X144580500Y-118549060D01*
X144580501Y-118549047D01*
X144580501Y-118380944D01*
X144571245Y-118346400D01*
X144539577Y-118228216D01*
X144523902Y-118201066D01*
X144460524Y-118091290D01*
X144460518Y-118091282D01*
X144364756Y-117995520D01*
X144264156Y-117894921D01*
X144230672Y-117833599D01*
X144233909Y-117768918D01*
X144236285Y-117761608D01*
X144236285Y-117761607D01*
X144268000Y-117561368D01*
X144268000Y-117358632D01*
X144236285Y-117158393D01*
X144189556Y-117014574D01*
X144173638Y-116965582D01*
X144173637Y-116965579D01*
X144134816Y-116889390D01*
X144081597Y-116784941D01*
X144012831Y-116690292D01*
X143962437Y-116620930D01*
X143962433Y-116620925D01*
X143819074Y-116477566D01*
X143819069Y-116477562D01*
X143655062Y-116358405D01*
X143655061Y-116358404D01*
X143655059Y-116358403D01*
X143541387Y-116300484D01*
X143490592Y-116252511D01*
X143473797Y-116184690D01*
X143496334Y-116118555D01*
X143541388Y-116079515D01*
X143542970Y-116078709D01*
X143655059Y-116021597D01*
X143819076Y-115902432D01*
X143962432Y-115759076D01*
X144081597Y-115595059D01*
X144085084Y-115588216D01*
X144085091Y-115588203D01*
X144133066Y-115537409D01*
X144195574Y-115520501D01*
X144219054Y-115520501D01*
X144219057Y-115520501D01*
X144371785Y-115479577D01*
X144439433Y-115440520D01*
X144508716Y-115400520D01*
X144620520Y-115288716D01*
X144620520Y-115288714D01*
X144630724Y-115278511D01*
X144630727Y-115278506D01*
X147207821Y-112701413D01*
X147269142Y-112667930D01*
X147338834Y-112672914D01*
G37*
%TD.AperFunction*%
%TA.AperFunction,NonConductor*%
G36*
X152093203Y-117262884D02*
G01*
X152099681Y-117268916D01*
X152823181Y-117992416D01*
X152856666Y-118053739D01*
X152859500Y-118080097D01*
X152859500Y-121405500D01*
X152839815Y-121472539D01*
X152787011Y-121518294D01*
X152735500Y-121529500D01*
X150902190Y-121529500D01*
X150835151Y-121509815D01*
X150789396Y-121457011D01*
X150779452Y-121387853D01*
X150808477Y-121324297D01*
X150854738Y-121290939D01*
X150979172Y-121239397D01*
X150979172Y-121239396D01*
X150979179Y-121239394D01*
X151110289Y-121151789D01*
X151221789Y-121040289D01*
X151309394Y-120909179D01*
X151369737Y-120763497D01*
X151400500Y-120608842D01*
X151400500Y-120451158D01*
X151400500Y-120451155D01*
X151400499Y-120451153D01*
X151384863Y-120372546D01*
X151369737Y-120296503D01*
X151359953Y-120272883D01*
X151309397Y-120150827D01*
X151309390Y-120150814D01*
X151221398Y-120019125D01*
X151200520Y-119952447D01*
X151200500Y-119950234D01*
X151200500Y-118675573D01*
X151220185Y-118608534D01*
X151268208Y-118565087D01*
X151275059Y-118561597D01*
X151439076Y-118442432D01*
X151582432Y-118299076D01*
X151701597Y-118135059D01*
X151793637Y-117954420D01*
X151856285Y-117761607D01*
X151888000Y-117561368D01*
X151888000Y-117358632D01*
X151888000Y-117356597D01*
X151907685Y-117289558D01*
X151960489Y-117243803D01*
X152029647Y-117233859D01*
X152093203Y-117262884D01*
G37*
%TD.AperFunction*%
%TA.AperFunction,NonConductor*%
G36*
X149217898Y-112159453D02*
G01*
X149231334Y-112160414D01*
X149249060Y-112173684D01*
X149269203Y-112182883D01*
X149276485Y-112194214D01*
X149287267Y-112202286D01*
X149295004Y-112223031D01*
X149306977Y-112241661D01*
X149310128Y-112263579D01*
X149311684Y-112267750D01*
X149312000Y-112276596D01*
X149312000Y-112278632D01*
X149312000Y-112481368D01*
X149318147Y-112520177D01*
X149343715Y-112681608D01*
X149406361Y-112874417D01*
X149406362Y-112874420D01*
X149440719Y-112941848D01*
X149494911Y-113048206D01*
X149498405Y-113055062D01*
X149617562Y-113219069D01*
X149617566Y-113219074D01*
X149760925Y-113362433D01*
X149760930Y-113362437D01*
X149855118Y-113430868D01*
X149924941Y-113481597D01*
X150008432Y-113524138D01*
X150038611Y-113539515D01*
X150089407Y-113587490D01*
X150106202Y-113655311D01*
X150083664Y-113721446D01*
X150038611Y-113760485D01*
X149924937Y-113818405D01*
X149760930Y-113937562D01*
X149760925Y-113937566D01*
X149617566Y-114080925D01*
X149617562Y-114080930D01*
X149498405Y-114244937D01*
X149406362Y-114425579D01*
X149406361Y-114425582D01*
X149343715Y-114618391D01*
X149312000Y-114818632D01*
X149312000Y-115021367D01*
X149343715Y-115221608D01*
X149406361Y-115414417D01*
X149406362Y-115414420D01*
X149453142Y-115506230D01*
X149494916Y-115588216D01*
X149498405Y-115595062D01*
X149617562Y-115759069D01*
X149617566Y-115759074D01*
X149760925Y-115902433D01*
X149760930Y-115902437D01*
X149871361Y-115982669D01*
X149924941Y-116021597D01*
X150008432Y-116064138D01*
X150038611Y-116079515D01*
X150089407Y-116127490D01*
X150106202Y-116195311D01*
X150083664Y-116261446D01*
X150038611Y-116300485D01*
X149924937Y-116358405D01*
X149760930Y-116477562D01*
X149760925Y-116477566D01*
X149617566Y-116620925D01*
X149617562Y-116620930D01*
X149498405Y-116784937D01*
X149406362Y-116965579D01*
X149406361Y-116965582D01*
X149343715Y-117158391D01*
X149312000Y-117358632D01*
X149312000Y-117561367D01*
X149343715Y-117761608D01*
X149406361Y-117954417D01*
X149406362Y-117954420D01*
X149451526Y-118043058D01*
X149485684Y-118110097D01*
X149498405Y-118135062D01*
X149617562Y-118299069D01*
X149617566Y-118299074D01*
X149760925Y-118442433D01*
X149760930Y-118442437D01*
X149893923Y-118539061D01*
X149924941Y-118561597D01*
X149931791Y-118565087D01*
X149982588Y-118613058D01*
X149999500Y-118675573D01*
X149999500Y-119950234D01*
X149979815Y-120017273D01*
X149978602Y-120019125D01*
X149890609Y-120150814D01*
X149890602Y-120150827D01*
X149830264Y-120296498D01*
X149830261Y-120296510D01*
X149799500Y-120451153D01*
X149799500Y-120608846D01*
X149830261Y-120763489D01*
X149830264Y-120763501D01*
X149890602Y-120909172D01*
X149890609Y-120909185D01*
X149978210Y-121040288D01*
X149978213Y-121040292D01*
X150089707Y-121151786D01*
X150089711Y-121151789D01*
X150220814Y-121239390D01*
X150220827Y-121239397D01*
X150345262Y-121290939D01*
X150399666Y-121334779D01*
X150421731Y-121401074D01*
X150404452Y-121468773D01*
X150353315Y-121516384D01*
X150297810Y-121529500D01*
X146639364Y-121529500D01*
X146572325Y-121509815D01*
X146526570Y-121457011D01*
X146516626Y-121387853D01*
X146523182Y-121362167D01*
X146564091Y-121252482D01*
X146565498Y-121239394D01*
X146570500Y-121192873D01*
X146570500Y-121154500D01*
X146590185Y-121087461D01*
X146642989Y-121041706D01*
X146694500Y-121030500D01*
X147559963Y-121030500D01*
X147627002Y-121050185D01*
X147628853Y-121051398D01*
X147640818Y-121059393D01*
X147640822Y-121059395D01*
X147764024Y-121110426D01*
X147786503Y-121119737D01*
X147936131Y-121149500D01*
X147941153Y-121150499D01*
X147941156Y-121150500D01*
X147941158Y-121150500D01*
X148098844Y-121150500D01*
X148098845Y-121150499D01*
X148253497Y-121119737D01*
X148399179Y-121059394D01*
X148530289Y-120971789D01*
X148641789Y-120860289D01*
X148729394Y-120729179D01*
X148789737Y-120583497D01*
X148820500Y-120428842D01*
X148820500Y-120271158D01*
X148820500Y-120271155D01*
X148820499Y-120271153D01*
X148811619Y-120226510D01*
X148789737Y-120116503D01*
X148786778Y-120109359D01*
X148729397Y-119970827D01*
X148729390Y-119970814D01*
X148641398Y-119839125D01*
X148620520Y-119772447D01*
X148620500Y-119770234D01*
X148620500Y-112720096D01*
X148640185Y-112653057D01*
X148656815Y-112632419D01*
X149100319Y-112188914D01*
X149119755Y-112178302D01*
X149136489Y-112163802D01*
X149149820Y-112161885D01*
X149161642Y-112155430D01*
X149183728Y-112157009D01*
X149205647Y-112153858D01*
X149217898Y-112159453D01*
G37*
%TD.AperFunction*%
%TA.AperFunction,NonConductor*%
G36*
X137156942Y-104870185D02*
G01*
X137177584Y-104886819D01*
X137978584Y-105687819D01*
X138012069Y-105749142D01*
X138007085Y-105818834D01*
X137965213Y-105874767D01*
X137899749Y-105899184D01*
X137890903Y-105899500D01*
X137757662Y-105899500D01*
X137690623Y-105879815D01*
X137647177Y-105831795D01*
X137633669Y-105805285D01*
X137620023Y-105786503D01*
X137511035Y-105636495D01*
X137363505Y-105488965D01*
X137194714Y-105366330D01*
X137008820Y-105271612D01*
X136810389Y-105207137D01*
X136604324Y-105174500D01*
X136604319Y-105174500D01*
X136395681Y-105174500D01*
X136395676Y-105174500D01*
X136189610Y-105207137D01*
X135991179Y-105271612D01*
X135805285Y-105366330D01*
X135636493Y-105488966D01*
X135488966Y-105636493D01*
X135366330Y-105805285D01*
X135271612Y-105991179D01*
X135207137Y-106189610D01*
X135174500Y-106395675D01*
X135174500Y-106604324D01*
X135207137Y-106810389D01*
X135271612Y-107008820D01*
X135336831Y-107136819D01*
X135366330Y-107194714D01*
X135488965Y-107363505D01*
X135636495Y-107511035D01*
X135805286Y-107633670D01*
X135880335Y-107671909D01*
X135991179Y-107728387D01*
X135991181Y-107728387D01*
X135991184Y-107728389D01*
X136023026Y-107738735D01*
X136189610Y-107792862D01*
X136395676Y-107825500D01*
X136395681Y-107825500D01*
X136604324Y-107825500D01*
X136810389Y-107792862D01*
X136886244Y-107768215D01*
X137008816Y-107728389D01*
X137194714Y-107633670D01*
X137363505Y-107511035D01*
X137511035Y-107363505D01*
X137633670Y-107194714D01*
X137647177Y-107168205D01*
X137695152Y-107117409D01*
X137757662Y-107100500D01*
X139339903Y-107100500D01*
X139406942Y-107120185D01*
X139427584Y-107136819D01*
X141655681Y-109364916D01*
X141689166Y-109426239D01*
X141692000Y-109452597D01*
X141692001Y-110675363D01*
X141692001Y-110675376D01*
X141698408Y-110734983D01*
X141748702Y-110869828D01*
X141748706Y-110869835D01*
X141834952Y-110985044D01*
X141834955Y-110985047D01*
X141950164Y-111071293D01*
X141950171Y-111071297D01*
X141995118Y-111088061D01*
X142085017Y-111121591D01*
X142144565Y-111127993D01*
X142209113Y-111154730D01*
X142248961Y-111212123D01*
X142251455Y-111281948D01*
X142215803Y-111342037D01*
X142204192Y-111351600D01*
X142140930Y-111397562D01*
X142140925Y-111397566D01*
X141997566Y-111540925D01*
X141997562Y-111540930D01*
X141878403Y-111704939D01*
X141874911Y-111711794D01*
X141826938Y-111762590D01*
X141764426Y-111779500D01*
X140626670Y-111779500D01*
X140626654Y-111779499D01*
X140619058Y-111779499D01*
X140460943Y-111779499D01*
X140384579Y-111799961D01*
X140308214Y-111820423D01*
X140308209Y-111820426D01*
X140171290Y-111899475D01*
X140171282Y-111899481D01*
X137509481Y-114561282D01*
X137509479Y-114561285D01*
X137475078Y-114620871D01*
X137475077Y-114620873D01*
X137430423Y-114698214D01*
X137416781Y-114749124D01*
X137389499Y-114850943D01*
X137389499Y-114850945D01*
X137389499Y-115019046D01*
X137389500Y-115019059D01*
X137389500Y-120939903D01*
X137369815Y-121006942D01*
X137353181Y-121027584D01*
X136357584Y-122023181D01*
X136296261Y-122056666D01*
X136269903Y-122059500D01*
X130335145Y-122059500D01*
X130268106Y-122039815D01*
X130222351Y-121987011D01*
X130212407Y-121917853D01*
X130227758Y-121873500D01*
X130235852Y-121859480D01*
X130309577Y-121731784D01*
X130347314Y-121590947D01*
X130347315Y-121590945D01*
X130350500Y-121579059D01*
X130350500Y-120849499D01*
X130370185Y-120782460D01*
X130422989Y-120736705D01*
X130474500Y-120725499D01*
X130597871Y-120725499D01*
X130597872Y-120725499D01*
X130657483Y-120719091D01*
X130792331Y-120668796D01*
X130907546Y-120582546D01*
X130993796Y-120467331D01*
X131044091Y-120332483D01*
X131050500Y-120272873D01*
X131050499Y-119127128D01*
X131044091Y-119067517D01*
X131035353Y-119044090D01*
X130993797Y-118932671D01*
X130993793Y-118932664D01*
X130907547Y-118817455D01*
X130907544Y-118817452D01*
X130792335Y-118731206D01*
X130792328Y-118731202D01*
X130657482Y-118680908D01*
X130657483Y-118680908D01*
X130597883Y-118674501D01*
X130597881Y-118674500D01*
X130597873Y-118674500D01*
X130597864Y-118674500D01*
X128902129Y-118674500D01*
X128902123Y-118674501D01*
X128842516Y-118680908D01*
X128707671Y-118731202D01*
X128707664Y-118731206D01*
X128592455Y-118817452D01*
X128592452Y-118817455D01*
X128506206Y-118932664D01*
X128506202Y-118932671D01*
X128455908Y-119067517D01*
X128449501Y-119127116D01*
X128449501Y-119127123D01*
X128449500Y-119127135D01*
X128449500Y-120272870D01*
X128449501Y-120272876D01*
X128455908Y-120332483D01*
X128506202Y-120467328D01*
X128506206Y-120467335D01*
X128592452Y-120582544D01*
X128592455Y-120582547D01*
X128707664Y-120668793D01*
X128707671Y-120668797D01*
X128752618Y-120685561D01*
X128842517Y-120719091D01*
X128902127Y-120725500D01*
X129025500Y-120725499D01*
X129034185Y-120728049D01*
X129043147Y-120726761D01*
X129067184Y-120737738D01*
X129092539Y-120745183D01*
X129098467Y-120752025D01*
X129106703Y-120755786D01*
X129120989Y-120778017D01*
X129138294Y-120797987D01*
X129140581Y-120808502D01*
X129144477Y-120814564D01*
X129149500Y-120849499D01*
X129149500Y-121025500D01*
X129129815Y-121092539D01*
X129077011Y-121138294D01*
X129025500Y-121149500D01*
X117724500Y-121149500D01*
X117657461Y-121129815D01*
X117611706Y-121077011D01*
X117600500Y-121025500D01*
X117600500Y-120639499D01*
X117620185Y-120572460D01*
X117672989Y-120526705D01*
X117724495Y-120515499D01*
X118997872Y-120515499D01*
X119057483Y-120509091D01*
X119192331Y-120458796D01*
X119307546Y-120372546D01*
X119393796Y-120257331D01*
X119444091Y-120122483D01*
X119450500Y-120062873D01*
X119450499Y-119017128D01*
X119444091Y-118957517D01*
X119434823Y-118932669D01*
X119393797Y-118822671D01*
X119393793Y-118822664D01*
X119307547Y-118707455D01*
X119307544Y-118707452D01*
X119192335Y-118621206D01*
X119192328Y-118621202D01*
X119057482Y-118570908D01*
X119057483Y-118570908D01*
X118997883Y-118564501D01*
X118997881Y-118564500D01*
X118997873Y-118564500D01*
X118997864Y-118564500D01*
X117602129Y-118564500D01*
X117602123Y-118564501D01*
X117542516Y-118570908D01*
X117407671Y-118621202D01*
X117407668Y-118621204D01*
X117300272Y-118701601D01*
X117234807Y-118726018D01*
X117201770Y-118723951D01*
X117078846Y-118699500D01*
X117078842Y-118699500D01*
X116944500Y-118699500D01*
X116877461Y-118679815D01*
X116831706Y-118627011D01*
X116820500Y-118575500D01*
X116820500Y-118110097D01*
X116829143Y-118080661D01*
X116835666Y-118050673D01*
X116839422Y-118045654D01*
X116840185Y-118043058D01*
X116856816Y-118022418D01*
X116873503Y-118005730D01*
X116873506Y-118005729D01*
X116873506Y-118005728D01*
X116883713Y-117995521D01*
X116883716Y-117995520D01*
X116989823Y-117889412D01*
X117051142Y-117855930D01*
X117120834Y-117860914D01*
X117176768Y-117902785D01*
X117193682Y-117933762D01*
X117206200Y-117967324D01*
X117206206Y-117967335D01*
X117292452Y-118082544D01*
X117292455Y-118082547D01*
X117407664Y-118168793D01*
X117407671Y-118168797D01*
X117542517Y-118219091D01*
X117542516Y-118219091D01*
X117549444Y-118219835D01*
X117602127Y-118225500D01*
X118997872Y-118225499D01*
X119057483Y-118219091D01*
X119192331Y-118168796D01*
X119307546Y-118082546D01*
X119393796Y-117967331D01*
X119444091Y-117832483D01*
X119450500Y-117772873D01*
X119450499Y-116727128D01*
X119444091Y-116667517D01*
X119426715Y-116620930D01*
X119393797Y-116532671D01*
X119393793Y-116532664D01*
X119307547Y-116417455D01*
X119307544Y-116417452D01*
X119192335Y-116331206D01*
X119192328Y-116331202D01*
X119057482Y-116280908D01*
X119057483Y-116280908D01*
X118997883Y-116274501D01*
X118997881Y-116274500D01*
X118997873Y-116274500D01*
X118997864Y-116274500D01*
X117602129Y-116274500D01*
X117602123Y-116274501D01*
X117542516Y-116280908D01*
X117407671Y-116331202D01*
X117407664Y-116331206D01*
X117292455Y-116417452D01*
X117286183Y-116423725D01*
X117284841Y-116422383D01*
X117237823Y-116457575D01*
X117168131Y-116462553D01*
X117106811Y-116429062D01*
X117073331Y-116367736D01*
X117070500Y-116341389D01*
X117070500Y-115868610D01*
X117090185Y-115801571D01*
X117142989Y-115755816D01*
X117212147Y-115745872D01*
X117275703Y-115774897D01*
X117287826Y-115787918D01*
X117292455Y-115792547D01*
X117407664Y-115878793D01*
X117407671Y-115878797D01*
X117542517Y-115929091D01*
X117542516Y-115929091D01*
X117549444Y-115929835D01*
X117602127Y-115935500D01*
X118997872Y-115935499D01*
X119057483Y-115929091D01*
X119192331Y-115878796D01*
X119307546Y-115792546D01*
X119393796Y-115677331D01*
X119431167Y-115577135D01*
X123849500Y-115577135D01*
X123849500Y-118922870D01*
X123849501Y-118922876D01*
X123855908Y-118982483D01*
X123906202Y-119117328D01*
X123906206Y-119117335D01*
X123992452Y-119232544D01*
X123992455Y-119232547D01*
X124107664Y-119318793D01*
X124107671Y-119318797D01*
X124242517Y-119369091D01*
X124242516Y-119369091D01*
X124249444Y-119369835D01*
X124302127Y-119375500D01*
X125697872Y-119375499D01*
X125757483Y-119369091D01*
X125892331Y-119318796D01*
X126007546Y-119232546D01*
X126093796Y-119117331D01*
X126144091Y-118982483D01*
X126150500Y-118922873D01*
X126150499Y-115577128D01*
X126144091Y-115517517D01*
X126139881Y-115506230D01*
X126093797Y-115382671D01*
X126093793Y-115382664D01*
X126007547Y-115267455D01*
X125963301Y-115234332D01*
X125892330Y-115181203D01*
X125892328Y-115181202D01*
X125784950Y-115141153D01*
X127909500Y-115141153D01*
X127909500Y-115298846D01*
X127940261Y-115453489D01*
X127940264Y-115453501D01*
X128000602Y-115599172D01*
X128000609Y-115599185D01*
X128089023Y-115731506D01*
X128108859Y-115784200D01*
X128109498Y-115789051D01*
X128109499Y-115789054D01*
X128109499Y-115789057D01*
X128139880Y-115902437D01*
X128150423Y-115941785D01*
X128174026Y-115982665D01*
X128174027Y-115982669D01*
X128229475Y-116078709D01*
X128229481Y-116078717D01*
X128348349Y-116197585D01*
X128348355Y-116197590D01*
X128413181Y-116262416D01*
X128446666Y-116323739D01*
X128449500Y-116350097D01*
X128449500Y-117322870D01*
X128449501Y-117322876D01*
X128455908Y-117382483D01*
X128506202Y-117517328D01*
X128506206Y-117517335D01*
X128592452Y-117632544D01*
X128592455Y-117632547D01*
X128707664Y-117718793D01*
X128707671Y-117718797D01*
X128842517Y-117769091D01*
X128842516Y-117769091D01*
X128849444Y-117769835D01*
X128902127Y-117775500D01*
X130597872Y-117775499D01*
X130657483Y-117769091D01*
X130792331Y-117718796D01*
X130907546Y-117632546D01*
X130993796Y-117517331D01*
X131044091Y-117382483D01*
X131050500Y-117322873D01*
X131050499Y-116177128D01*
X131044091Y-116117517D01*
X131037989Y-116101158D01*
X130993796Y-115982669D01*
X130993793Y-115982664D01*
X130907547Y-115867455D01*
X130907544Y-115867452D01*
X130792335Y-115781206D01*
X130792328Y-115781202D01*
X130657482Y-115730908D01*
X130657483Y-115730908D01*
X130597883Y-115724501D01*
X130597881Y-115724500D01*
X130597873Y-115724500D01*
X130597865Y-115724500D01*
X129625097Y-115724500D01*
X129595656Y-115715855D01*
X129565670Y-115709332D01*
X129560654Y-115705577D01*
X129558058Y-115704815D01*
X129537416Y-115688181D01*
X129486480Y-115637245D01*
X129452995Y-115575922D01*
X129457979Y-115506230D01*
X129459600Y-115502111D01*
X129479737Y-115453497D01*
X129510500Y-115298842D01*
X129510500Y-115141158D01*
X129510500Y-115141155D01*
X129510499Y-115141153D01*
X129479738Y-114986510D01*
X129479737Y-114986503D01*
X129479735Y-114986498D01*
X129419397Y-114840827D01*
X129419390Y-114840814D01*
X129331789Y-114709711D01*
X129331786Y-114709707D01*
X129220292Y-114598213D01*
X129220288Y-114598210D01*
X129089185Y-114510609D01*
X129089172Y-114510602D01*
X128943501Y-114450264D01*
X128943489Y-114450261D01*
X128788845Y-114419500D01*
X128788842Y-114419500D01*
X128631158Y-114419500D01*
X128631155Y-114419500D01*
X128476510Y-114450261D01*
X128476498Y-114450264D01*
X128330827Y-114510602D01*
X128330814Y-114510609D01*
X128199711Y-114598210D01*
X128199707Y-114598213D01*
X128088213Y-114709707D01*
X128088210Y-114709711D01*
X128000609Y-114840814D01*
X128000602Y-114840827D01*
X127940264Y-114986498D01*
X127940261Y-114986510D01*
X127909500Y-115141153D01*
X125784950Y-115141153D01*
X125757482Y-115130908D01*
X125757483Y-115130908D01*
X125697883Y-115124501D01*
X125697881Y-115124500D01*
X125697873Y-115124500D01*
X125697864Y-115124500D01*
X124302129Y-115124500D01*
X124302123Y-115124501D01*
X124242516Y-115130908D01*
X124107671Y-115181202D01*
X124107664Y-115181206D01*
X123992455Y-115267452D01*
X123992452Y-115267455D01*
X123906206Y-115382664D01*
X123906202Y-115382671D01*
X123855908Y-115517517D01*
X123849501Y-115577116D01*
X123849501Y-115577123D01*
X123849500Y-115577135D01*
X119431167Y-115577135D01*
X119444091Y-115542483D01*
X119450500Y-115482873D01*
X119450499Y-114437128D01*
X119444091Y-114377517D01*
X119423564Y-114322482D01*
X119393797Y-114242671D01*
X119393793Y-114242664D01*
X119307547Y-114127455D01*
X119307544Y-114127452D01*
X119192335Y-114041206D01*
X119192329Y-114041203D01*
X119183045Y-114037740D01*
X119127113Y-113995867D01*
X119102698Y-113930402D01*
X119117551Y-113862129D01*
X119166958Y-113812725D01*
X119202186Y-113799943D01*
X119253497Y-113789737D01*
X119393409Y-113731784D01*
X119399172Y-113729397D01*
X119399172Y-113729396D01*
X119399179Y-113729394D01*
X119530289Y-113641789D01*
X119641789Y-113530289D01*
X119729394Y-113399179D01*
X119789737Y-113253497D01*
X119820500Y-113098842D01*
X119820500Y-112941158D01*
X119820500Y-112941155D01*
X119820499Y-112941153D01*
X119811034Y-112893570D01*
X119789737Y-112786503D01*
X119787147Y-112780250D01*
X119729397Y-112640827D01*
X119729390Y-112640814D01*
X119641789Y-112509711D01*
X119641786Y-112509707D01*
X119530292Y-112398213D01*
X119530288Y-112398210D01*
X119399185Y-112310609D01*
X119399172Y-112310602D01*
X119253501Y-112250264D01*
X119253489Y-112250261D01*
X119098845Y-112219500D01*
X119098842Y-112219500D01*
X118941158Y-112219500D01*
X118941155Y-112219500D01*
X118786510Y-112250261D01*
X118786507Y-112250262D01*
X118786506Y-112250262D01*
X118786503Y-112250263D01*
X118722929Y-112276596D01*
X118683811Y-112292799D01*
X118614341Y-112300267D01*
X118551862Y-112268991D01*
X118516210Y-112208902D01*
X118518705Y-112139077D01*
X118548676Y-112090558D01*
X118560180Y-112079054D01*
X127899498Y-112079054D01*
X127940423Y-112231786D01*
X127940424Y-112231787D01*
X127967470Y-112278632D01*
X128019480Y-112368716D01*
X128019482Y-112368718D01*
X128138349Y-112487585D01*
X128138355Y-112487590D01*
X129515139Y-113864374D01*
X129515149Y-113864385D01*
X129519479Y-113868715D01*
X129519480Y-113868716D01*
X129631284Y-113980520D01*
X129631286Y-113980521D01*
X129631290Y-113980524D01*
X129736396Y-114041206D01*
X129768216Y-114059577D01*
X129880019Y-114089534D01*
X129920942Y-114100500D01*
X129920943Y-114100500D01*
X131585501Y-114100500D01*
X131652540Y-114120185D01*
X131698295Y-114172989D01*
X131709501Y-114224500D01*
X131709501Y-114262876D01*
X131715908Y-114322483D01*
X131766202Y-114457328D01*
X131766206Y-114457335D01*
X131852452Y-114572544D01*
X131852455Y-114572547D01*
X131967664Y-114658793D01*
X131967671Y-114658797D01*
X132102517Y-114709091D01*
X132102516Y-114709091D01*
X132109444Y-114709835D01*
X132162127Y-114715500D01*
X133237872Y-114715499D01*
X133297483Y-114709091D01*
X133338322Y-114693859D01*
X133432329Y-114658797D01*
X133440112Y-114654547D01*
X133441865Y-114657757D01*
X133490999Y-114639361D01*
X133559291Y-114654127D01*
X133560263Y-114654752D01*
X133567670Y-114658797D01*
X133702517Y-114709091D01*
X133702516Y-114709091D01*
X133709444Y-114709835D01*
X133762127Y-114715500D01*
X134837872Y-114715499D01*
X134897483Y-114709091D01*
X135032331Y-114658796D01*
X135147546Y-114572546D01*
X135233796Y-114457331D01*
X135284091Y-114322483D01*
X135290500Y-114262873D01*
X135290500Y-114224500D01*
X135310185Y-114157461D01*
X135362989Y-114111706D01*
X135414500Y-114100500D01*
X136579055Y-114100500D01*
X136579057Y-114100500D01*
X136731784Y-114059577D01*
X136868716Y-113980520D01*
X136980520Y-113868716D01*
X137059577Y-113731784D01*
X137100500Y-113579057D01*
X137100500Y-112257661D01*
X137120185Y-112190622D01*
X137168207Y-112147175D01*
X137194714Y-112133670D01*
X137363505Y-112011035D01*
X137511035Y-111863505D01*
X137633670Y-111694714D01*
X137728389Y-111508816D01*
X137792862Y-111310389D01*
X137806744Y-111222743D01*
X137825500Y-111104324D01*
X137825500Y-110895675D01*
X137792862Y-110689610D01*
X137728387Y-110491179D01*
X137633669Y-110305285D01*
X137611609Y-110274922D01*
X137511035Y-110136495D01*
X137363505Y-109988965D01*
X137194714Y-109866330D01*
X137144165Y-109840574D01*
X137008820Y-109771612D01*
X136810389Y-109707137D01*
X136604324Y-109674500D01*
X136604319Y-109674500D01*
X136395681Y-109674500D01*
X136395676Y-109674500D01*
X136189610Y-109707137D01*
X135991179Y-109771612D01*
X135805285Y-109866330D01*
X135636493Y-109988966D01*
X135488966Y-110136493D01*
X135366330Y-110305285D01*
X135271612Y-110491179D01*
X135207137Y-110689610D01*
X135174500Y-110895675D01*
X135174500Y-111104324D01*
X135207137Y-111310389D01*
X135271612Y-111508820D01*
X135328721Y-111620902D01*
X135366330Y-111694714D01*
X135488965Y-111863505D01*
X135636495Y-112011035D01*
X135730114Y-112079054D01*
X135805287Y-112133671D01*
X135815898Y-112139077D01*
X135831792Y-112147175D01*
X135882589Y-112195148D01*
X135899500Y-112257661D01*
X135899500Y-112775500D01*
X135879815Y-112842539D01*
X135827011Y-112888294D01*
X135775500Y-112899500D01*
X135414499Y-112899500D01*
X135347460Y-112879815D01*
X135301705Y-112827011D01*
X135290499Y-112775500D01*
X135290499Y-112737129D01*
X135290498Y-112737123D01*
X135290497Y-112737116D01*
X135284091Y-112677517D01*
X135282374Y-112672914D01*
X135233797Y-112542671D01*
X135233793Y-112542664D01*
X135147547Y-112427455D01*
X135147544Y-112427452D01*
X135032335Y-112341206D01*
X135032328Y-112341202D01*
X134897482Y-112290908D01*
X134897483Y-112290908D01*
X134837883Y-112284501D01*
X134837881Y-112284500D01*
X134837873Y-112284500D01*
X134837864Y-112284500D01*
X133762129Y-112284500D01*
X133762123Y-112284501D01*
X133702516Y-112290908D01*
X133567671Y-112341202D01*
X133559886Y-112345454D01*
X133558153Y-112342280D01*
X133508698Y-112360659D01*
X133440443Y-112345725D01*
X133439497Y-112345117D01*
X133432328Y-112341202D01*
X133297482Y-112290908D01*
X133297483Y-112290908D01*
X133237883Y-112284501D01*
X133237881Y-112284500D01*
X133237873Y-112284500D01*
X133237864Y-112284500D01*
X132162129Y-112284500D01*
X132162123Y-112284501D01*
X132102516Y-112290908D01*
X131967671Y-112341202D01*
X131967664Y-112341206D01*
X131852455Y-112427452D01*
X131852452Y-112427455D01*
X131766206Y-112542664D01*
X131766202Y-112542671D01*
X131715908Y-112677517D01*
X131711902Y-112714786D01*
X131709501Y-112737123D01*
X131709500Y-112737135D01*
X131709500Y-112775500D01*
X131689815Y-112842539D01*
X131637011Y-112888294D01*
X131585500Y-112899500D01*
X130300097Y-112899500D01*
X130233058Y-112879815D01*
X130212416Y-112863181D01*
X129886416Y-112537181D01*
X129852931Y-112475858D01*
X129857915Y-112406166D01*
X129899787Y-112350233D01*
X129965251Y-112325816D01*
X129974097Y-112325500D01*
X130104324Y-112325500D01*
X130310389Y-112292862D01*
X130336121Y-112284501D01*
X130508816Y-112228389D01*
X130694714Y-112133670D01*
X130863505Y-112011035D01*
X131011035Y-111863505D01*
X131133670Y-111694714D01*
X131228389Y-111508816D01*
X131292862Y-111310389D01*
X131306744Y-111222743D01*
X131325500Y-111104324D01*
X131325500Y-110895675D01*
X131292862Y-110689610D01*
X131228387Y-110491179D01*
X131133669Y-110305285D01*
X131111609Y-110274922D01*
X131011035Y-110136495D01*
X130863505Y-109988965D01*
X130694714Y-109866330D01*
X130644165Y-109840574D01*
X130508820Y-109771612D01*
X130310389Y-109707137D01*
X130104324Y-109674500D01*
X130104319Y-109674500D01*
X129895681Y-109674500D01*
X129895676Y-109674500D01*
X129689610Y-109707137D01*
X129491179Y-109771612D01*
X129305281Y-109866332D01*
X129297381Y-109872072D01*
X129231574Y-109895549D01*
X129163521Y-109879721D01*
X129114828Y-109829613D01*
X129100500Y-109771751D01*
X129100500Y-108300096D01*
X129120185Y-108233057D01*
X129136815Y-108212419D01*
X129535317Y-107813916D01*
X129596638Y-107780433D01*
X129661314Y-107783668D01*
X129689610Y-107792862D01*
X129895676Y-107825500D01*
X129895681Y-107825500D01*
X130104324Y-107825500D01*
X130310389Y-107792862D01*
X130386244Y-107768215D01*
X130508816Y-107728389D01*
X130694714Y-107633670D01*
X130863505Y-107511035D01*
X131011035Y-107363505D01*
X131133670Y-107194714D01*
X131228389Y-107008816D01*
X131292862Y-106810389D01*
X131305690Y-106729397D01*
X131325500Y-106604324D01*
X131325500Y-106395675D01*
X131292862Y-106189610D01*
X131228387Y-105991179D01*
X131169072Y-105874767D01*
X131133670Y-105805286D01*
X131011035Y-105636495D01*
X130863505Y-105488965D01*
X130694714Y-105366330D01*
X130508820Y-105271612D01*
X130310389Y-105207137D01*
X130104324Y-105174500D01*
X130104319Y-105174500D01*
X129895681Y-105174500D01*
X129895676Y-105174500D01*
X129689610Y-105207137D01*
X129491179Y-105271612D01*
X129305285Y-105366330D01*
X129136493Y-105488966D01*
X128988966Y-105636493D01*
X128866330Y-105805285D01*
X128771612Y-105991179D01*
X128707137Y-106189610D01*
X128674500Y-106395675D01*
X128674500Y-106604324D01*
X128707138Y-106810389D01*
X128707138Y-106810392D01*
X128716331Y-106838683D01*
X128718326Y-106908524D01*
X128686081Y-106964682D01*
X128131286Y-107519478D01*
X128019481Y-107631282D01*
X128019475Y-107631290D01*
X127975064Y-107708214D01*
X127975064Y-107708215D01*
X127940423Y-107768215D01*
X127899499Y-107920943D01*
X127899499Y-108079057D01*
X127899499Y-108079059D01*
X127899500Y-108089053D01*
X127899500Y-111913330D01*
X127899499Y-111913348D01*
X127899499Y-112079054D01*
X127899498Y-112079054D01*
X118560180Y-112079054D01*
X119652416Y-110986819D01*
X119713739Y-110953334D01*
X119740097Y-110950500D01*
X124439236Y-110950500D01*
X124506275Y-110970185D01*
X124552030Y-111022989D01*
X124555418Y-111031167D01*
X124606202Y-111167328D01*
X124606206Y-111167335D01*
X124692452Y-111282544D01*
X124692455Y-111282547D01*
X124807664Y-111368793D01*
X124807671Y-111368797D01*
X124942517Y-111419091D01*
X124942516Y-111419091D01*
X124949444Y-111419835D01*
X125002127Y-111425500D01*
X126497872Y-111425499D01*
X126557483Y-111419091D01*
X126692331Y-111368796D01*
X126807546Y-111282546D01*
X126893796Y-111167331D01*
X126944091Y-111032483D01*
X126950500Y-110972873D01*
X126950499Y-109727128D01*
X126944842Y-109674500D01*
X126944091Y-109667516D01*
X126893797Y-109532671D01*
X126893793Y-109532664D01*
X126807547Y-109417455D01*
X126807544Y-109417452D01*
X126692335Y-109331206D01*
X126692328Y-109331202D01*
X126585027Y-109291182D01*
X126529093Y-109249311D01*
X126504676Y-109183847D01*
X126519527Y-109115574D01*
X126568932Y-109066168D01*
X126585027Y-109058818D01*
X126692328Y-109018797D01*
X126692327Y-109018797D01*
X126692331Y-109018796D01*
X126807546Y-108932546D01*
X126893796Y-108817331D01*
X126944091Y-108682483D01*
X126950500Y-108622873D01*
X126950499Y-107377128D01*
X126944091Y-107317517D01*
X126944001Y-107317277D01*
X126893796Y-107182669D01*
X126893793Y-107182664D01*
X126807547Y-107067455D01*
X126807544Y-107067452D01*
X126692335Y-106981206D01*
X126692328Y-106981202D01*
X126557482Y-106930908D01*
X126557483Y-106930908D01*
X126497883Y-106924501D01*
X126497881Y-106924500D01*
X126497873Y-106924500D01*
X126497865Y-106924500D01*
X126474500Y-106924500D01*
X126407461Y-106904815D01*
X126361706Y-106852011D01*
X126350500Y-106800500D01*
X126350500Y-104974500D01*
X126370185Y-104907461D01*
X126422989Y-104861706D01*
X126474500Y-104850500D01*
X137089903Y-104850500D01*
X137156942Y-104870185D01*
G37*
%TD.AperFunction*%
%TA.AperFunction,NonConductor*%
G36*
X116318833Y-121462915D02*
G01*
X116374766Y-121504787D01*
X116399183Y-121570251D01*
X116399496Y-121579038D01*
X116399498Y-121579054D01*
X116440423Y-121731786D01*
X116440424Y-121731787D01*
X116468504Y-121780423D01*
X116519480Y-121868716D01*
X116519482Y-121868718D01*
X116638349Y-121987585D01*
X116638355Y-121987590D01*
X116765139Y-122114374D01*
X116765149Y-122114385D01*
X116769479Y-122118715D01*
X116769480Y-122118716D01*
X116881284Y-122230520D01*
X116881286Y-122230521D01*
X116881290Y-122230524D01*
X117013439Y-122306819D01*
X117018216Y-122309577D01*
X117130019Y-122339534D01*
X117170942Y-122350500D01*
X117170943Y-122350500D01*
X119500903Y-122350500D01*
X119522148Y-122356738D01*
X119544237Y-122358318D01*
X119555020Y-122366390D01*
X119567942Y-122370185D01*
X119582441Y-122386918D01*
X119600170Y-122400190D01*
X119604877Y-122412810D01*
X119613697Y-122422989D01*
X119616848Y-122444906D01*
X119624587Y-122465654D01*
X119621724Y-122478814D01*
X119623641Y-122492147D01*
X119614441Y-122512290D01*
X119609735Y-122533927D01*
X119596466Y-122551652D01*
X119594616Y-122555703D01*
X119588584Y-122562181D01*
X119467584Y-122683181D01*
X119406261Y-122716666D01*
X119379903Y-122719500D01*
X110436670Y-122719500D01*
X110436654Y-122719499D01*
X110429058Y-122719499D01*
X110270943Y-122719499D01*
X110194579Y-122739961D01*
X110118214Y-122760423D01*
X110118209Y-122760426D01*
X109981290Y-122839475D01*
X109981282Y-122839481D01*
X107432582Y-125388181D01*
X107371259Y-125421666D01*
X107344901Y-125424500D01*
X106752129Y-125424500D01*
X106752123Y-125424501D01*
X106692516Y-125430908D01*
X106557671Y-125481202D01*
X106557664Y-125481206D01*
X106442455Y-125567452D01*
X106442452Y-125567455D01*
X106356206Y-125682664D01*
X106356202Y-125682671D01*
X106305908Y-125817517D01*
X106300964Y-125863506D01*
X106299501Y-125877123D01*
X106299500Y-125877135D01*
X106299500Y-127122870D01*
X106299501Y-127122876D01*
X106305908Y-127182483D01*
X106356202Y-127317328D01*
X106356206Y-127317335D01*
X106442452Y-127432544D01*
X106442455Y-127432547D01*
X106557664Y-127518793D01*
X106557671Y-127518797D01*
X106664972Y-127558818D01*
X106720906Y-127600689D01*
X106745323Y-127666154D01*
X106730471Y-127734427D01*
X106681066Y-127783832D01*
X106664972Y-127791182D01*
X106557671Y-127831202D01*
X106557664Y-127831206D01*
X106442455Y-127917452D01*
X106442452Y-127917455D01*
X106356206Y-128032664D01*
X106356202Y-128032671D01*
X106305418Y-128168833D01*
X106263547Y-128224767D01*
X106198083Y-128249184D01*
X106189236Y-128249500D01*
X105214500Y-128249500D01*
X105147461Y-128229815D01*
X105101706Y-128177011D01*
X105090500Y-128125500D01*
X105090500Y-125170097D01*
X105110185Y-125103058D01*
X105126819Y-125082416D01*
X107902416Y-122306819D01*
X107963739Y-122273334D01*
X107990097Y-122270500D01*
X115073331Y-122270500D01*
X115073347Y-122270501D01*
X115080943Y-122270501D01*
X115239054Y-122270501D01*
X115239057Y-122270501D01*
X115391785Y-122229577D01*
X115457244Y-122191784D01*
X115528716Y-122150520D01*
X115640520Y-122038716D01*
X115640520Y-122038714D01*
X115650724Y-122028511D01*
X115650727Y-122028506D01*
X116187819Y-121491415D01*
X116249141Y-121457931D01*
X116318833Y-121462915D01*
G37*
%TD.AperFunction*%
%TA.AperFunction,NonConductor*%
G36*
X152093203Y-114722884D02*
G01*
X152099681Y-114728916D01*
X154363181Y-116992416D01*
X154396666Y-117053739D01*
X154399500Y-117080097D01*
X154399500Y-123742337D01*
X154379815Y-123809376D01*
X154331798Y-123852820D01*
X154305299Y-123866322D01*
X154305290Y-123866327D01*
X154305286Y-123866330D01*
X154136495Y-123988965D01*
X154136493Y-123988967D01*
X154136492Y-123988967D01*
X153988966Y-124136493D01*
X153866330Y-124305285D01*
X153771612Y-124491179D01*
X153707137Y-124689610D01*
X153674500Y-124895675D01*
X153674500Y-125104324D01*
X153707137Y-125310389D01*
X153771612Y-125508820D01*
X153860190Y-125682664D01*
X153866330Y-125694714D01*
X153988965Y-125863505D01*
X154136495Y-126011035D01*
X154305286Y-126133670D01*
X154357482Y-126160265D01*
X154491179Y-126228387D01*
X154491181Y-126228387D01*
X154491184Y-126228389D01*
X154589048Y-126260187D01*
X154689610Y-126292862D01*
X154895676Y-126325500D01*
X154895681Y-126325500D01*
X155104324Y-126325500D01*
X155204222Y-126309677D01*
X155310389Y-126292862D01*
X155338682Y-126283668D01*
X155408522Y-126281672D01*
X155464683Y-126313918D01*
X157623181Y-128472416D01*
X157656666Y-128533739D01*
X157659500Y-128560097D01*
X157659500Y-135045500D01*
X157639815Y-135112539D01*
X157587011Y-135158294D01*
X157535500Y-135169500D01*
X147300097Y-135169500D01*
X147233058Y-135149815D01*
X147212416Y-135133181D01*
X145136819Y-133057584D01*
X145103334Y-132996261D01*
X145100500Y-132969903D01*
X145100500Y-130579054D01*
X146399498Y-130579054D01*
X146440423Y-130731785D01*
X146469358Y-130781900D01*
X146469359Y-130781904D01*
X146469360Y-130781904D01*
X146514828Y-130860659D01*
X146519479Y-130868714D01*
X146519481Y-130868717D01*
X146638349Y-130987585D01*
X146638355Y-130987590D01*
X148015139Y-132364374D01*
X148015149Y-132364385D01*
X148019479Y-132368715D01*
X148019480Y-132368716D01*
X148131284Y-132480520D01*
X148131286Y-132480521D01*
X148131290Y-132480524D01*
X148268209Y-132559573D01*
X148268216Y-132559577D01*
X148380019Y-132589534D01*
X148420942Y-132600500D01*
X148420943Y-132600500D01*
X150085501Y-132600500D01*
X150152540Y-132620185D01*
X150198295Y-132672989D01*
X150209501Y-132724500D01*
X150209501Y-132762876D01*
X150215908Y-132822483D01*
X150266202Y-132957328D01*
X150266206Y-132957335D01*
X150352452Y-133072544D01*
X150352455Y-133072547D01*
X150467664Y-133158793D01*
X150467671Y-133158797D01*
X150602517Y-133209091D01*
X150602516Y-133209091D01*
X150609444Y-133209835D01*
X150662127Y-133215500D01*
X151737872Y-133215499D01*
X151797483Y-133209091D01*
X151932329Y-133158797D01*
X151940112Y-133154547D01*
X151941865Y-133157757D01*
X151990999Y-133139361D01*
X152059291Y-133154127D01*
X152060263Y-133154752D01*
X152067670Y-133158797D01*
X152202517Y-133209091D01*
X152202516Y-133209091D01*
X152209444Y-133209835D01*
X152262127Y-133215500D01*
X153337872Y-133215499D01*
X153397483Y-133209091D01*
X153532331Y-133158796D01*
X153647546Y-133072546D01*
X153733796Y-132957331D01*
X153784091Y-132822483D01*
X153790500Y-132762873D01*
X153790500Y-132724500D01*
X153793050Y-132715814D01*
X153791762Y-132706853D01*
X153802740Y-132682812D01*
X153810185Y-132657461D01*
X153817025Y-132651533D01*
X153820787Y-132643297D01*
X153843021Y-132629007D01*
X153862989Y-132611706D01*
X153873503Y-132609418D01*
X153879565Y-132605523D01*
X153914500Y-132600500D01*
X154153331Y-132600500D01*
X154153347Y-132600501D01*
X154160943Y-132600501D01*
X154319054Y-132600501D01*
X154319057Y-132600501D01*
X154471785Y-132559577D01*
X154521904Y-132530639D01*
X154608716Y-132480520D01*
X154720520Y-132368716D01*
X154720520Y-132368714D01*
X154730728Y-132358507D01*
X154730730Y-132358504D01*
X155358506Y-131730728D01*
X155358511Y-131730724D01*
X155368714Y-131720520D01*
X155368716Y-131720520D01*
X155480520Y-131608716D01*
X155532040Y-131519480D01*
X155559577Y-131471785D01*
X155600500Y-131319058D01*
X155600500Y-131160943D01*
X155600500Y-130757661D01*
X155620185Y-130690622D01*
X155668207Y-130647175D01*
X155694714Y-130633670D01*
X155863505Y-130511035D01*
X156011035Y-130363505D01*
X156133670Y-130194714D01*
X156228389Y-130008816D01*
X156292862Y-129810389D01*
X156297272Y-129782544D01*
X156325500Y-129604324D01*
X156325500Y-129395675D01*
X156292862Y-129189610D01*
X156228387Y-128991179D01*
X156135592Y-128809059D01*
X156133670Y-128805286D01*
X156011035Y-128636495D01*
X155863505Y-128488965D01*
X155694714Y-128366330D01*
X155508820Y-128271612D01*
X155310389Y-128207137D01*
X155104324Y-128174500D01*
X155104319Y-128174500D01*
X154895681Y-128174500D01*
X154895676Y-128174500D01*
X154689610Y-128207137D01*
X154491179Y-128271612D01*
X154305285Y-128366330D01*
X154136493Y-128488966D01*
X153988966Y-128636493D01*
X153866330Y-128805285D01*
X153771612Y-128991179D01*
X153707137Y-129189610D01*
X153674500Y-129395675D01*
X153674500Y-129604324D01*
X153707137Y-129810389D01*
X153771612Y-130008820D01*
X153866330Y-130194714D01*
X153988965Y-130363505D01*
X154136495Y-130511035D01*
X154230114Y-130579054D01*
X154305287Y-130633671D01*
X154320565Y-130641455D01*
X154331792Y-130647175D01*
X154342856Y-130657624D01*
X154356703Y-130663948D01*
X154367744Y-130681128D01*
X154382589Y-130695148D01*
X154386830Y-130710828D01*
X154394477Y-130722726D01*
X154399500Y-130757661D01*
X154399500Y-130939903D01*
X154379815Y-131006942D01*
X154363181Y-131027584D01*
X154027584Y-131363181D01*
X153966261Y-131396666D01*
X153939903Y-131399500D01*
X153914499Y-131399500D01*
X153847460Y-131379815D01*
X153801705Y-131327011D01*
X153790499Y-131275500D01*
X153790499Y-131237129D01*
X153790498Y-131237123D01*
X153790497Y-131237116D01*
X153784091Y-131177517D01*
X153777909Y-131160943D01*
X153733797Y-131042671D01*
X153733793Y-131042664D01*
X153647547Y-130927455D01*
X153647544Y-130927452D01*
X153532335Y-130841206D01*
X153532328Y-130841202D01*
X153397482Y-130790908D01*
X153397483Y-130790908D01*
X153337883Y-130784501D01*
X153337881Y-130784500D01*
X153337873Y-130784500D01*
X153337864Y-130784500D01*
X152262129Y-130784500D01*
X152262123Y-130784501D01*
X152202516Y-130790908D01*
X152067671Y-130841202D01*
X152059886Y-130845454D01*
X152058153Y-130842280D01*
X152008698Y-130860659D01*
X151940443Y-130845725D01*
X151939497Y-130845117D01*
X151932328Y-130841202D01*
X151797482Y-130790908D01*
X151797483Y-130790908D01*
X151737883Y-130784501D01*
X151737881Y-130784500D01*
X151737873Y-130784500D01*
X151737864Y-130784500D01*
X150662129Y-130784500D01*
X150662123Y-130784501D01*
X150602516Y-130790908D01*
X150467671Y-130841202D01*
X150467664Y-130841206D01*
X150352455Y-130927452D01*
X150352452Y-130927455D01*
X150266206Y-131042664D01*
X150266202Y-131042671D01*
X150215908Y-131177517D01*
X150209501Y-131237116D01*
X150209501Y-131237123D01*
X150209500Y-131237135D01*
X150209500Y-131275500D01*
X150189815Y-131342539D01*
X150137011Y-131388294D01*
X150085500Y-131399500D01*
X148800097Y-131399500D01*
X148733058Y-131379815D01*
X148712416Y-131363181D01*
X148386416Y-131037181D01*
X148352931Y-130975858D01*
X148357915Y-130906166D01*
X148399787Y-130850233D01*
X148465251Y-130825816D01*
X148474097Y-130825500D01*
X148604324Y-130825500D01*
X148810389Y-130792862D01*
X148836121Y-130784501D01*
X149008816Y-130728389D01*
X149194714Y-130633670D01*
X149363505Y-130511035D01*
X149511035Y-130363505D01*
X149633670Y-130194714D01*
X149728389Y-130008816D01*
X149792862Y-129810389D01*
X149797272Y-129782544D01*
X149825500Y-129604324D01*
X149825500Y-129395675D01*
X149792862Y-129189610D01*
X149728387Y-128991179D01*
X149635592Y-128809059D01*
X149633670Y-128805286D01*
X149511035Y-128636495D01*
X149363505Y-128488965D01*
X149194714Y-128366330D01*
X149008820Y-128271612D01*
X148810389Y-128207137D01*
X148604324Y-128174500D01*
X148604319Y-128174500D01*
X148395681Y-128174500D01*
X148395676Y-128174500D01*
X148189610Y-128207137D01*
X147991179Y-128271612D01*
X147805281Y-128366332D01*
X147797381Y-128372072D01*
X147731574Y-128395549D01*
X147663521Y-128379721D01*
X147614828Y-128329613D01*
X147600500Y-128271751D01*
X147600500Y-126800096D01*
X147620185Y-126733057D01*
X147636815Y-126712419D01*
X148035317Y-126313916D01*
X148096638Y-126280433D01*
X148161314Y-126283668D01*
X148189610Y-126292862D01*
X148395676Y-126325500D01*
X148395681Y-126325500D01*
X148604324Y-126325500D01*
X148810389Y-126292862D01*
X148886244Y-126268215D01*
X149008816Y-126228389D01*
X149194714Y-126133670D01*
X149363505Y-126011035D01*
X149511035Y-125863505D01*
X149633670Y-125694714D01*
X149728389Y-125508816D01*
X149792862Y-125310389D01*
X149823217Y-125118735D01*
X149825500Y-125104324D01*
X149825500Y-124895675D01*
X149792862Y-124689610D01*
X149742728Y-124535316D01*
X149728389Y-124491184D01*
X149728387Y-124491181D01*
X149728387Y-124491179D01*
X149676568Y-124389478D01*
X149633670Y-124305286D01*
X149511035Y-124136495D01*
X149363505Y-123988965D01*
X149194714Y-123866330D01*
X149168199Y-123852820D01*
X149008820Y-123771612D01*
X148810389Y-123707137D01*
X148604324Y-123674500D01*
X148604319Y-123674500D01*
X148395681Y-123674500D01*
X148395676Y-123674500D01*
X148189610Y-123707137D01*
X147991179Y-123771612D01*
X147805285Y-123866330D01*
X147636493Y-123988966D01*
X147488966Y-124136493D01*
X147366330Y-124305285D01*
X147271612Y-124491179D01*
X147207137Y-124689610D01*
X147174500Y-124895675D01*
X147174500Y-125104324D01*
X147207138Y-125310389D01*
X147207138Y-125310392D01*
X147216331Y-125338683D01*
X147218326Y-125408524D01*
X147186081Y-125464682D01*
X146631286Y-126019478D01*
X146519481Y-126131282D01*
X146519479Y-126131285D01*
X146469361Y-126218094D01*
X146469359Y-126218096D01*
X146440425Y-126268209D01*
X146440424Y-126268210D01*
X146440423Y-126268215D01*
X146399499Y-126420943D01*
X146399499Y-126579057D01*
X146399499Y-126579059D01*
X146399500Y-126589053D01*
X146399500Y-130413330D01*
X146399499Y-130413348D01*
X146399499Y-130579054D01*
X146399498Y-130579054D01*
X145100500Y-130579054D01*
X145100500Y-130049499D01*
X145120185Y-129982460D01*
X145172989Y-129936705D01*
X145224500Y-129925499D01*
X145247871Y-129925499D01*
X145247872Y-129925499D01*
X145307483Y-129919091D01*
X145442331Y-129868796D01*
X145557546Y-129782546D01*
X145643796Y-129667331D01*
X145694091Y-129532483D01*
X145700500Y-129472873D01*
X145700499Y-128227128D01*
X145694313Y-128169578D01*
X145694091Y-128167516D01*
X145643797Y-128032671D01*
X145643793Y-128032664D01*
X145557547Y-127917455D01*
X145557544Y-127917452D01*
X145442335Y-127831206D01*
X145442328Y-127831202D01*
X145335027Y-127791182D01*
X145279093Y-127749311D01*
X145254676Y-127683847D01*
X145269527Y-127615574D01*
X145318932Y-127566168D01*
X145335027Y-127558818D01*
X145442328Y-127518797D01*
X145442327Y-127518797D01*
X145442331Y-127518796D01*
X145557546Y-127432546D01*
X145643796Y-127317331D01*
X145694091Y-127182483D01*
X145700500Y-127122873D01*
X145700499Y-125877128D01*
X145694831Y-125824403D01*
X145694091Y-125817516D01*
X145643797Y-125682671D01*
X145643793Y-125682664D01*
X145557547Y-125567455D01*
X145557544Y-125567452D01*
X145442335Y-125481206D01*
X145442328Y-125481202D01*
X145307482Y-125430908D01*
X145307483Y-125430908D01*
X145247883Y-125424501D01*
X145247881Y-125424500D01*
X145247873Y-125424500D01*
X145247864Y-125424500D01*
X143752129Y-125424500D01*
X143752123Y-125424501D01*
X143692516Y-125430908D01*
X143557671Y-125481202D01*
X143557664Y-125481206D01*
X143442455Y-125567452D01*
X143442452Y-125567455D01*
X143356206Y-125682664D01*
X143356202Y-125682671D01*
X143305418Y-125818833D01*
X143263547Y-125874767D01*
X143198083Y-125899184D01*
X143189236Y-125899500D01*
X142839057Y-125899500D01*
X142680943Y-125899500D01*
X142528215Y-125940423D01*
X142528214Y-125940423D01*
X142528212Y-125940424D01*
X142528209Y-125940425D01*
X142478096Y-125969359D01*
X142478093Y-125969361D01*
X142436498Y-125993375D01*
X142368598Y-126009846D01*
X142302571Y-125986993D01*
X142259382Y-125932071D01*
X142250500Y-125885987D01*
X142250500Y-124844500D01*
X142270185Y-124777461D01*
X142322989Y-124731706D01*
X142374500Y-124720500D01*
X145030234Y-124720500D01*
X145097273Y-124740185D01*
X145099125Y-124741398D01*
X145230814Y-124829390D01*
X145230827Y-124829397D01*
X145376498Y-124889735D01*
X145376503Y-124889737D01*
X145531153Y-124920499D01*
X145531156Y-124920500D01*
X145531158Y-124920500D01*
X145688844Y-124920500D01*
X145688845Y-124920499D01*
X145843497Y-124889737D01*
X145989179Y-124829394D01*
X146120289Y-124741789D01*
X146231789Y-124630289D01*
X146319394Y-124499179D01*
X146379737Y-124353497D01*
X146410500Y-124198842D01*
X146410500Y-124041158D01*
X146410500Y-124041155D01*
X146410499Y-124041153D01*
X146402545Y-124001166D01*
X146379737Y-123886503D01*
X146351497Y-123818325D01*
X146319397Y-123740827D01*
X146319390Y-123740814D01*
X146231789Y-123609711D01*
X146231786Y-123609707D01*
X146120292Y-123498213D01*
X146120288Y-123498210D01*
X145989185Y-123410609D01*
X145989172Y-123410602D01*
X145843501Y-123350264D01*
X145843489Y-123350261D01*
X145688845Y-123319500D01*
X145688842Y-123319500D01*
X145531158Y-123319500D01*
X145531155Y-123319500D01*
X145376510Y-123350261D01*
X145376498Y-123350264D01*
X145230827Y-123410602D01*
X145230814Y-123410609D01*
X145099125Y-123498602D01*
X145032447Y-123519480D01*
X145030234Y-123519500D01*
X141959057Y-123519500D01*
X141800943Y-123519500D01*
X141648215Y-123560423D01*
X141648214Y-123560423D01*
X141648212Y-123560424D01*
X141648209Y-123560425D01*
X141598096Y-123589359D01*
X141598095Y-123589360D01*
X141562853Y-123609707D01*
X141511285Y-123639479D01*
X141511282Y-123639481D01*
X141169481Y-123981282D01*
X141169479Y-123981285D01*
X141165044Y-123988967D01*
X141135036Y-124040943D01*
X141090423Y-124118215D01*
X141089091Y-124123184D01*
X141082745Y-124134541D01*
X141062771Y-124154125D01*
X141045222Y-124175905D01*
X141038165Y-124178253D01*
X141032857Y-124183459D01*
X141005472Y-124189135D01*
X140978928Y-124197971D01*
X140971722Y-124196131D01*
X140964442Y-124197641D01*
X140938332Y-124187610D01*
X140911229Y-124180693D01*
X140906162Y-124175250D01*
X140899220Y-124172584D01*
X140882677Y-124150027D01*
X140863617Y-124129557D01*
X140861693Y-124121416D01*
X140857899Y-124116243D01*
X140856990Y-124101516D01*
X140850500Y-124074050D01*
X140850500Y-122854500D01*
X140870185Y-122787461D01*
X140922989Y-122741706D01*
X140974500Y-122730500D01*
X153203331Y-122730500D01*
X153203347Y-122730501D01*
X153210943Y-122730501D01*
X153369054Y-122730501D01*
X153369057Y-122730501D01*
X153521785Y-122689577D01*
X153571904Y-122660639D01*
X153658716Y-122610520D01*
X153770520Y-122498716D01*
X153770520Y-122498714D01*
X153780728Y-122488507D01*
X153780730Y-122488504D01*
X153818506Y-122450728D01*
X153818511Y-122450724D01*
X153828714Y-122440520D01*
X153828716Y-122440520D01*
X153940520Y-122328716D01*
X153997214Y-122230519D01*
X154019577Y-122191785D01*
X154060500Y-122039058D01*
X154060500Y-121880943D01*
X154060500Y-117640943D01*
X154019577Y-117488216D01*
X153992481Y-117441284D01*
X153940524Y-117351290D01*
X153940518Y-117351282D01*
X153828717Y-117239481D01*
X153828712Y-117239477D01*
X153700890Y-117165680D01*
X153675209Y-117145974D01*
X151884157Y-115354922D01*
X151850672Y-115293599D01*
X151853909Y-115228918D01*
X151856087Y-115222217D01*
X151856285Y-115221607D01*
X151888000Y-115021368D01*
X151888000Y-114818632D01*
X151888000Y-114816597D01*
X151907685Y-114749558D01*
X151960489Y-114703803D01*
X152029647Y-114693859D01*
X152093203Y-114722884D01*
G37*
%TD.AperFunction*%
%TA.AperFunction,NonConductor*%
G36*
X124756275Y-127120185D02*
G01*
X124802030Y-127172989D01*
X124805418Y-127181167D01*
X124856202Y-127317328D01*
X124856206Y-127317335D01*
X124942452Y-127432544D01*
X124942455Y-127432547D01*
X125057664Y-127518793D01*
X125057671Y-127518797D01*
X125164972Y-127558818D01*
X125220906Y-127600689D01*
X125245323Y-127666154D01*
X125230471Y-127734427D01*
X125181066Y-127783832D01*
X125164972Y-127791182D01*
X125057671Y-127831202D01*
X125057664Y-127831206D01*
X124942455Y-127917452D01*
X124942452Y-127917455D01*
X124856206Y-128032664D01*
X124856202Y-128032671D01*
X124805908Y-128167517D01*
X124804465Y-128180943D01*
X124799501Y-128227123D01*
X124799500Y-128227135D01*
X124799500Y-129472870D01*
X124799501Y-129472876D01*
X124805908Y-129532483D01*
X124856202Y-129667328D01*
X124856206Y-129667335D01*
X124942452Y-129782544D01*
X124942455Y-129782547D01*
X125057664Y-129868793D01*
X125057671Y-129868797D01*
X125102618Y-129885561D01*
X125192517Y-129919091D01*
X125252127Y-129925500D01*
X125275497Y-129925499D01*
X125342536Y-129945181D01*
X125388292Y-129997983D01*
X125399500Y-130049499D01*
X125399500Y-135181946D01*
X125382888Y-135243945D01*
X125380424Y-135248212D01*
X125380423Y-135248214D01*
X125380423Y-135248215D01*
X125339499Y-135400943D01*
X125339499Y-135400945D01*
X125339499Y-135559054D01*
X125339498Y-135559054D01*
X125380423Y-135711785D01*
X125407516Y-135758712D01*
X125407519Y-135758716D01*
X125459480Y-135848716D01*
X125571284Y-135960520D01*
X125642756Y-136001784D01*
X125708215Y-136039577D01*
X125860943Y-136080501D01*
X125860946Y-136080501D01*
X126026653Y-136080501D01*
X126026669Y-136080500D01*
X137243331Y-136080500D01*
X137243347Y-136080501D01*
X137250943Y-136080501D01*
X137409054Y-136080501D01*
X137409057Y-136080501D01*
X137561785Y-136039577D01*
X137627244Y-136001784D01*
X137698716Y-135960520D01*
X137810520Y-135848716D01*
X137810520Y-135848714D01*
X137820724Y-135838511D01*
X137820727Y-135838506D01*
X140730520Y-132928716D01*
X140809577Y-132791784D01*
X140809577Y-132791781D01*
X140810938Y-132788498D01*
X140812831Y-132786148D01*
X140813641Y-132784746D01*
X140813859Y-132784872D01*
X140854778Y-132734093D01*
X140921072Y-132712027D01*
X140988771Y-132729305D01*
X141036383Y-132780441D01*
X141049500Y-132835948D01*
X141049500Y-133259903D01*
X141029815Y-133326942D01*
X141013181Y-133347584D01*
X138037584Y-136323181D01*
X137976261Y-136356666D01*
X137949903Y-136359500D01*
X123894500Y-136359500D01*
X123827461Y-136339815D01*
X123781706Y-136287011D01*
X123770500Y-136235500D01*
X123770500Y-127310097D01*
X123779144Y-127280656D01*
X123785668Y-127250670D01*
X123789422Y-127245654D01*
X123790185Y-127243058D01*
X123806819Y-127222416D01*
X123892416Y-127136819D01*
X123953739Y-127103334D01*
X123980097Y-127100500D01*
X124689236Y-127100500D01*
X124756275Y-127120185D01*
G37*
%TD.AperFunction*%
%TA.AperFunction,NonConductor*%
G36*
X141831465Y-113000185D02*
G01*
X141874911Y-113048206D01*
X141878403Y-113055060D01*
X141997562Y-113219069D01*
X141997566Y-113219074D01*
X142140925Y-113362433D01*
X142140930Y-113362437D01*
X142235118Y-113430868D01*
X142304941Y-113481597D01*
X142388432Y-113524138D01*
X142418611Y-113539515D01*
X142469407Y-113587490D01*
X142486202Y-113655311D01*
X142463664Y-113721446D01*
X142418611Y-113760485D01*
X142304937Y-113818405D01*
X142140930Y-113937562D01*
X142140925Y-113937566D01*
X141997566Y-114080925D01*
X141997562Y-114080930D01*
X141878405Y-114244937D01*
X141786362Y-114425579D01*
X141786361Y-114425582D01*
X141723715Y-114618391D01*
X141692000Y-114818632D01*
X141692000Y-115021367D01*
X141723715Y-115221608D01*
X141786361Y-115414417D01*
X141786362Y-115414420D01*
X141833142Y-115506230D01*
X141874916Y-115588216D01*
X141878405Y-115595062D01*
X141997562Y-115759069D01*
X141997566Y-115759074D01*
X142140925Y-115902433D01*
X142140930Y-115902437D01*
X142251361Y-115982669D01*
X142304941Y-116021597D01*
X142388432Y-116064138D01*
X142418611Y-116079515D01*
X142469407Y-116127490D01*
X142486202Y-116195311D01*
X142463664Y-116261446D01*
X142418611Y-116300485D01*
X142304937Y-116358405D01*
X142140930Y-116477562D01*
X142140925Y-116477566D01*
X141997566Y-116620925D01*
X141997562Y-116620930D01*
X141878405Y-116784937D01*
X141786362Y-116965579D01*
X141786361Y-116965582D01*
X141723715Y-117158391D01*
X141692000Y-117358632D01*
X141692000Y-117561367D01*
X141723715Y-117761608D01*
X141786361Y-117954417D01*
X141786362Y-117954420D01*
X141831526Y-118043058D01*
X141865684Y-118110097D01*
X141878405Y-118135062D01*
X141997562Y-118299069D01*
X141997566Y-118299074D01*
X142140925Y-118442433D01*
X142140930Y-118442437D01*
X142273919Y-118539058D01*
X142304941Y-118561597D01*
X142405939Y-118613058D01*
X142485579Y-118653637D01*
X142485582Y-118653638D01*
X142581986Y-118684961D01*
X142678393Y-118716285D01*
X142878632Y-118748000D01*
X142878633Y-118748000D01*
X143081367Y-118748000D01*
X143081368Y-118748000D01*
X143236103Y-118723492D01*
X143305395Y-118732446D01*
X143358847Y-118777443D01*
X143379487Y-118844194D01*
X143379500Y-118845965D01*
X143379500Y-119135938D01*
X143359815Y-119202977D01*
X143307011Y-119248732D01*
X143298834Y-119252120D01*
X143247670Y-119271203D01*
X143247664Y-119271206D01*
X143132455Y-119357452D01*
X143132452Y-119357455D01*
X143046206Y-119472664D01*
X143046202Y-119472671D01*
X142995908Y-119607517D01*
X142990320Y-119659500D01*
X142989501Y-119667123D01*
X142989500Y-119667135D01*
X142989500Y-121192870D01*
X142989501Y-121192876D01*
X142995908Y-121252483D01*
X143036818Y-121362167D01*
X143041802Y-121431859D01*
X143008317Y-121493182D01*
X142946993Y-121526666D01*
X142920636Y-121529500D01*
X140546669Y-121529500D01*
X140546653Y-121529499D01*
X140539057Y-121529499D01*
X140380943Y-121529499D01*
X140301010Y-121550917D01*
X140228216Y-121570422D01*
X140192672Y-121590944D01*
X140192671Y-121590943D01*
X140091287Y-121649477D01*
X140091282Y-121649481D01*
X139867583Y-121873181D01*
X139806260Y-121906666D01*
X139779902Y-121909500D01*
X139076670Y-121909500D01*
X139076654Y-121909499D01*
X139069058Y-121909499D01*
X138910943Y-121909499D01*
X138834579Y-121929961D01*
X138758214Y-121950423D01*
X138758209Y-121950426D01*
X138621290Y-122029475D01*
X138621282Y-122029481D01*
X136964682Y-123686080D01*
X136903359Y-123719565D01*
X136838686Y-123716331D01*
X136810390Y-123707138D01*
X136604324Y-123674500D01*
X136604319Y-123674500D01*
X136395681Y-123674500D01*
X136395676Y-123674500D01*
X136189610Y-123707137D01*
X135991179Y-123771612D01*
X135805285Y-123866330D01*
X135636493Y-123988966D01*
X135488966Y-124136493D01*
X135366330Y-124305285D01*
X135271612Y-124491179D01*
X135207137Y-124689610D01*
X135174500Y-124895675D01*
X135174500Y-125104324D01*
X135207137Y-125310389D01*
X135271612Y-125508820D01*
X135360190Y-125682664D01*
X135366330Y-125694714D01*
X135488965Y-125863505D01*
X135636495Y-126011035D01*
X135805286Y-126133670D01*
X135857482Y-126160265D01*
X135991179Y-126228387D01*
X135991181Y-126228387D01*
X135991184Y-126228389D01*
X136089048Y-126260187D01*
X136189610Y-126292862D01*
X136395676Y-126325500D01*
X136395681Y-126325500D01*
X136604324Y-126325500D01*
X136810389Y-126292862D01*
X136886244Y-126268215D01*
X137008816Y-126228389D01*
X137194714Y-126133670D01*
X137363505Y-126011035D01*
X137511035Y-125863505D01*
X137633670Y-125694714D01*
X137728389Y-125508816D01*
X137792862Y-125310389D01*
X137823217Y-125118735D01*
X137825500Y-125104324D01*
X137825500Y-124895675D01*
X137801126Y-124741789D01*
X137792862Y-124689611D01*
X137792860Y-124689606D01*
X137792860Y-124689603D01*
X137783669Y-124661317D01*
X137781672Y-124591476D01*
X137813916Y-124535318D01*
X139202417Y-123146819D01*
X139229344Y-123132115D01*
X139255163Y-123115523D01*
X139261363Y-123114631D01*
X139263740Y-123113334D01*
X139290098Y-123110500D01*
X139525500Y-123110500D01*
X139592539Y-123130185D01*
X139638294Y-123182989D01*
X139649500Y-123234500D01*
X139649500Y-132259902D01*
X139629815Y-132326941D01*
X139613181Y-132347583D01*
X137117584Y-134843181D01*
X137056261Y-134876666D01*
X137029903Y-134879500D01*
X126724500Y-134879500D01*
X126657461Y-134859815D01*
X126611706Y-134807011D01*
X126600500Y-134755500D01*
X126600500Y-130579054D01*
X127899498Y-130579054D01*
X127940423Y-130731785D01*
X127969358Y-130781900D01*
X127969359Y-130781904D01*
X127969360Y-130781904D01*
X128014828Y-130860659D01*
X128019479Y-130868714D01*
X128019481Y-130868717D01*
X128138349Y-130987585D01*
X128138355Y-130987590D01*
X129515139Y-132364374D01*
X129515149Y-132364385D01*
X129519479Y-132368715D01*
X129519480Y-132368716D01*
X129631284Y-132480520D01*
X129631286Y-132480521D01*
X129631290Y-132480524D01*
X129768209Y-132559573D01*
X129768216Y-132559577D01*
X129880019Y-132589534D01*
X129920942Y-132600500D01*
X129920943Y-132600500D01*
X131335501Y-132600500D01*
X131402540Y-132620185D01*
X131448295Y-132672989D01*
X131459501Y-132724500D01*
X131459501Y-132762876D01*
X131465908Y-132822483D01*
X131516202Y-132957328D01*
X131516206Y-132957335D01*
X131602452Y-133072544D01*
X131602455Y-133072547D01*
X131717664Y-133158793D01*
X131717671Y-133158797D01*
X131852517Y-133209091D01*
X131852516Y-133209091D01*
X131859444Y-133209835D01*
X131912127Y-133215500D01*
X132987872Y-133215499D01*
X133047483Y-133209091D01*
X133182329Y-133158797D01*
X133190112Y-133154547D01*
X133191865Y-133157757D01*
X133240999Y-133139361D01*
X133309291Y-133154127D01*
X133310263Y-133154752D01*
X133317670Y-133158797D01*
X133452517Y-133209091D01*
X133452516Y-133209091D01*
X133459444Y-133209835D01*
X133512127Y-133215500D01*
X134587872Y-133215499D01*
X134647483Y-133209091D01*
X134782331Y-133158796D01*
X134897546Y-133072546D01*
X134983796Y-132957331D01*
X135034091Y-132822483D01*
X135040500Y-132762873D01*
X135040500Y-132724500D01*
X135060185Y-132657461D01*
X135112989Y-132611706D01*
X135164500Y-132600500D01*
X136579055Y-132600500D01*
X136579057Y-132600500D01*
X136731784Y-132559577D01*
X136868716Y-132480520D01*
X136980520Y-132368716D01*
X137059577Y-132231784D01*
X137100500Y-132079057D01*
X137100500Y-130757661D01*
X137120185Y-130690622D01*
X137168207Y-130647175D01*
X137194714Y-130633670D01*
X137363505Y-130511035D01*
X137511035Y-130363505D01*
X137633670Y-130194714D01*
X137728389Y-130008816D01*
X137792862Y-129810389D01*
X137797272Y-129782544D01*
X137825500Y-129604324D01*
X137825500Y-129395675D01*
X137792862Y-129189610D01*
X137728387Y-128991179D01*
X137635592Y-128809059D01*
X137633670Y-128805286D01*
X137511035Y-128636495D01*
X137363505Y-128488965D01*
X137194714Y-128366330D01*
X137008820Y-128271612D01*
X136810389Y-128207137D01*
X136604324Y-128174500D01*
X136604319Y-128174500D01*
X136395681Y-128174500D01*
X136395676Y-128174500D01*
X136189610Y-128207137D01*
X135991179Y-128271612D01*
X135805285Y-128366330D01*
X135636493Y-128488966D01*
X135488966Y-128636493D01*
X135366330Y-128805285D01*
X135271612Y-128991179D01*
X135207137Y-129189610D01*
X135174500Y-129395675D01*
X135174500Y-129604324D01*
X135207137Y-129810389D01*
X135271612Y-130008820D01*
X135366330Y-130194714D01*
X135488965Y-130363505D01*
X135636495Y-130511035D01*
X135730114Y-130579054D01*
X135805287Y-130633671D01*
X135820565Y-130641455D01*
X135831792Y-130647175D01*
X135882589Y-130695148D01*
X135899500Y-130757661D01*
X135899500Y-131275500D01*
X135879815Y-131342539D01*
X135827011Y-131388294D01*
X135775500Y-131399500D01*
X135164499Y-131399500D01*
X135097460Y-131379815D01*
X135051705Y-131327011D01*
X135040499Y-131275500D01*
X135040499Y-131237129D01*
X135040498Y-131237123D01*
X135040497Y-131237116D01*
X135034091Y-131177517D01*
X135027909Y-131160943D01*
X134983797Y-131042671D01*
X134983793Y-131042664D01*
X134897547Y-130927455D01*
X134897544Y-130927452D01*
X134782335Y-130841206D01*
X134782328Y-130841202D01*
X134647482Y-130790908D01*
X134647483Y-130790908D01*
X134587883Y-130784501D01*
X134587881Y-130784500D01*
X134587873Y-130784500D01*
X134587864Y-130784500D01*
X133512129Y-130784500D01*
X133512123Y-130784501D01*
X133452516Y-130790908D01*
X133317671Y-130841202D01*
X133309886Y-130845454D01*
X133308153Y-130842280D01*
X133258698Y-130860659D01*
X133190443Y-130845725D01*
X133189497Y-130845117D01*
X133182328Y-130841202D01*
X133047482Y-130790908D01*
X133047483Y-130790908D01*
X132987883Y-130784501D01*
X132987881Y-130784500D01*
X132987873Y-130784500D01*
X132987864Y-130784500D01*
X131912129Y-130784500D01*
X131912123Y-130784501D01*
X131852516Y-130790908D01*
X131717671Y-130841202D01*
X131717664Y-130841206D01*
X131602455Y-130927452D01*
X131602452Y-130927455D01*
X131516206Y-131042664D01*
X131516202Y-131042671D01*
X131465908Y-131177517D01*
X131459501Y-131237116D01*
X131459501Y-131237123D01*
X131459500Y-131237135D01*
X131459500Y-131275500D01*
X131439815Y-131342539D01*
X131387011Y-131388294D01*
X131335500Y-131399500D01*
X130300097Y-131399500D01*
X130233058Y-131379815D01*
X130212416Y-131363181D01*
X129886416Y-131037181D01*
X129852931Y-130975858D01*
X129857915Y-130906166D01*
X129899787Y-130850233D01*
X129965251Y-130825816D01*
X129974097Y-130825500D01*
X130104324Y-130825500D01*
X130310389Y-130792862D01*
X130336121Y-130784501D01*
X130508816Y-130728389D01*
X130694714Y-130633670D01*
X130863505Y-130511035D01*
X131011035Y-130363505D01*
X131133670Y-130194714D01*
X131228389Y-130008816D01*
X131292862Y-129810389D01*
X131297272Y-129782544D01*
X131325500Y-129604324D01*
X131325500Y-129395675D01*
X131292862Y-129189610D01*
X131228387Y-128991179D01*
X131135592Y-128809059D01*
X131133670Y-128805286D01*
X131011035Y-128636495D01*
X130863505Y-128488965D01*
X130694714Y-128366330D01*
X130508820Y-128271612D01*
X130310389Y-128207137D01*
X130104324Y-128174500D01*
X130104319Y-128174500D01*
X129895681Y-128174500D01*
X129895676Y-128174500D01*
X129689610Y-128207137D01*
X129491179Y-128271612D01*
X129305281Y-128366332D01*
X129297381Y-128372072D01*
X129231574Y-128395549D01*
X129163521Y-128379721D01*
X129114828Y-128329613D01*
X129100500Y-128271751D01*
X129100500Y-126800096D01*
X129120185Y-126733057D01*
X129136815Y-126712419D01*
X129535317Y-126313916D01*
X129596638Y-126280433D01*
X129661314Y-126283668D01*
X129689610Y-126292862D01*
X129895676Y-126325500D01*
X129895681Y-126325500D01*
X130104324Y-126325500D01*
X130310389Y-126292862D01*
X130386244Y-126268215D01*
X130508816Y-126228389D01*
X130694714Y-126133670D01*
X130863505Y-126011035D01*
X131011035Y-125863505D01*
X131133670Y-125694714D01*
X131228389Y-125508816D01*
X131292862Y-125310389D01*
X131323217Y-125118735D01*
X131325500Y-125104324D01*
X131325500Y-124895675D01*
X131292862Y-124689610D01*
X131242728Y-124535316D01*
X131228389Y-124491184D01*
X131228387Y-124491181D01*
X131228387Y-124491179D01*
X131176568Y-124389478D01*
X131133670Y-124305286D01*
X131011035Y-124136495D01*
X130863505Y-123988965D01*
X130694714Y-123866330D01*
X130668199Y-123852820D01*
X130508820Y-123771612D01*
X130310389Y-123707137D01*
X130104324Y-123674500D01*
X130104319Y-123674500D01*
X129895681Y-123674500D01*
X129895676Y-123674500D01*
X129689610Y-123707137D01*
X129491179Y-123771612D01*
X129305285Y-123866330D01*
X129136493Y-123988966D01*
X128988966Y-124136493D01*
X128866330Y-124305285D01*
X128771612Y-124491179D01*
X128707137Y-124689610D01*
X128674500Y-124895675D01*
X128674500Y-125104324D01*
X128707138Y-125310389D01*
X128707138Y-125310392D01*
X128716331Y-125338683D01*
X128718326Y-125408524D01*
X128686081Y-125464682D01*
X128131286Y-126019478D01*
X128019481Y-126131282D01*
X128019479Y-126131285D01*
X127969361Y-126218094D01*
X127969359Y-126218096D01*
X127940425Y-126268209D01*
X127940424Y-126268210D01*
X127940423Y-126268215D01*
X127899499Y-126420943D01*
X127899499Y-126579057D01*
X127899499Y-126579059D01*
X127899500Y-126589053D01*
X127899500Y-130413330D01*
X127899499Y-130413348D01*
X127899499Y-130579054D01*
X127899498Y-130579054D01*
X126600500Y-130579054D01*
X126600500Y-130049499D01*
X126620185Y-129982460D01*
X126672989Y-129936705D01*
X126724500Y-129925499D01*
X126747871Y-129925499D01*
X126747872Y-129925499D01*
X126807483Y-129919091D01*
X126942331Y-129868796D01*
X127057546Y-129782546D01*
X127143796Y-129667331D01*
X127194091Y-129532483D01*
X127200500Y-129472873D01*
X127200499Y-128227128D01*
X127194313Y-128169578D01*
X127194091Y-128167516D01*
X127143797Y-128032671D01*
X127143793Y-128032664D01*
X127057547Y-127917455D01*
X127057544Y-127917452D01*
X126942335Y-127831206D01*
X126942328Y-127831202D01*
X126835027Y-127791182D01*
X126779093Y-127749311D01*
X126754676Y-127683847D01*
X126769527Y-127615574D01*
X126818932Y-127566168D01*
X126835027Y-127558818D01*
X126942328Y-127518797D01*
X126942327Y-127518797D01*
X126942331Y-127518796D01*
X127057546Y-127432546D01*
X127143796Y-127317331D01*
X127194091Y-127182483D01*
X127200500Y-127122873D01*
X127200499Y-125877128D01*
X127194831Y-125824403D01*
X127194091Y-125817516D01*
X127143797Y-125682671D01*
X127143793Y-125682664D01*
X127057547Y-125567455D01*
X127057544Y-125567452D01*
X126942335Y-125481206D01*
X126942328Y-125481202D01*
X126807482Y-125430908D01*
X126807483Y-125430908D01*
X126747883Y-125424501D01*
X126747881Y-125424500D01*
X126747873Y-125424500D01*
X126747864Y-125424500D01*
X125252129Y-125424500D01*
X125252123Y-125424501D01*
X125192516Y-125430908D01*
X125057671Y-125481202D01*
X125057664Y-125481206D01*
X124942455Y-125567452D01*
X124942452Y-125567455D01*
X124856206Y-125682664D01*
X124856202Y-125682671D01*
X124805418Y-125818833D01*
X124763547Y-125874767D01*
X124698083Y-125899184D01*
X124689236Y-125899500D01*
X123766669Y-125899500D01*
X123766653Y-125899499D01*
X123759057Y-125899499D01*
X123600943Y-125899499D01*
X123493587Y-125928265D01*
X123448210Y-125940424D01*
X123448209Y-125940425D01*
X123398096Y-125969359D01*
X123398095Y-125969360D01*
X123367554Y-125986993D01*
X123311285Y-126019479D01*
X123311282Y-126019481D01*
X122689481Y-126641282D01*
X122689479Y-126641285D01*
X122639361Y-126728094D01*
X122639359Y-126728096D01*
X122610425Y-126778209D01*
X122610424Y-126778210D01*
X122610423Y-126778215D01*
X122569499Y-126930943D01*
X122569499Y-126930945D01*
X122569499Y-127099046D01*
X122569500Y-127099059D01*
X122569500Y-136235500D01*
X122549815Y-136302539D01*
X122497011Y-136348294D01*
X122445500Y-136359500D01*
X106810097Y-136359500D01*
X106743058Y-136339815D01*
X106722416Y-136323181D01*
X105126819Y-134727584D01*
X105093334Y-134666261D01*
X105090500Y-134639903D01*
X105090500Y-129574500D01*
X105110185Y-129507461D01*
X105162989Y-129461706D01*
X105214500Y-129450500D01*
X106189236Y-129450500D01*
X106256275Y-129470185D01*
X106302030Y-129522989D01*
X106305418Y-129531167D01*
X106356202Y-129667328D01*
X106356206Y-129667335D01*
X106442452Y-129782544D01*
X106442455Y-129782547D01*
X106557664Y-129868793D01*
X106557671Y-129868797D01*
X106692517Y-129919091D01*
X106692516Y-129919091D01*
X106699444Y-129919835D01*
X106752127Y-129925500D01*
X108247872Y-129925499D01*
X108307483Y-129919091D01*
X108442331Y-129868796D01*
X108557546Y-129782546D01*
X108643796Y-129667331D01*
X108694091Y-129532483D01*
X108700500Y-129472873D01*
X108700499Y-128227128D01*
X108694313Y-128169578D01*
X108694091Y-128167516D01*
X108643797Y-128032671D01*
X108643793Y-128032664D01*
X108557547Y-127917455D01*
X108557544Y-127917452D01*
X108442335Y-127831206D01*
X108442328Y-127831202D01*
X108335027Y-127791182D01*
X108279093Y-127749311D01*
X108254676Y-127683847D01*
X108269527Y-127615574D01*
X108318932Y-127566168D01*
X108335027Y-127558818D01*
X108442328Y-127518797D01*
X108442327Y-127518797D01*
X108442331Y-127518796D01*
X108557546Y-127432546D01*
X108643796Y-127317331D01*
X108694091Y-127182483D01*
X108700500Y-127122873D01*
X108700499Y-125877128D01*
X108700498Y-125877116D01*
X108700488Y-125876930D01*
X108700499Y-125876883D01*
X108700499Y-125873807D01*
X108701226Y-125873807D01*
X108716552Y-125808932D01*
X108736625Y-125782608D01*
X110023621Y-124495614D01*
X110084941Y-124462131D01*
X110154633Y-124467115D01*
X110210566Y-124508987D01*
X110234983Y-124574451D01*
X110229230Y-124621614D01*
X110207139Y-124689602D01*
X110207138Y-124689609D01*
X110174500Y-124895675D01*
X110174500Y-125104324D01*
X110207138Y-125310389D01*
X110207138Y-125310392D01*
X110216331Y-125338683D01*
X110218326Y-125408524D01*
X110186081Y-125464682D01*
X109631286Y-126019478D01*
X109519481Y-126131282D01*
X109519479Y-126131285D01*
X109469361Y-126218094D01*
X109469359Y-126218096D01*
X109440425Y-126268209D01*
X109440424Y-126268210D01*
X109440423Y-126268215D01*
X109399499Y-126420943D01*
X109399499Y-126420945D01*
X109399499Y-126589046D01*
X109399500Y-126589059D01*
X109399500Y-130413330D01*
X109399499Y-130413348D01*
X109399499Y-130579054D01*
X109399498Y-130579054D01*
X109440423Y-130731785D01*
X109469358Y-130781900D01*
X109469359Y-130781904D01*
X109469360Y-130781904D01*
X109514828Y-130860659D01*
X109519479Y-130868714D01*
X109519481Y-130868717D01*
X109638349Y-130987585D01*
X109638355Y-130987590D01*
X111015139Y-132364374D01*
X111015149Y-132364385D01*
X111019479Y-132368715D01*
X111019480Y-132368716D01*
X111131284Y-132480520D01*
X111131286Y-132480521D01*
X111131290Y-132480524D01*
X111268209Y-132559573D01*
X111268216Y-132559577D01*
X111380019Y-132589534D01*
X111420942Y-132600500D01*
X111420943Y-132600500D01*
X112585501Y-132600500D01*
X112652540Y-132620185D01*
X112698295Y-132672989D01*
X112709501Y-132724500D01*
X112709501Y-132762876D01*
X112715908Y-132822483D01*
X112766202Y-132957328D01*
X112766206Y-132957335D01*
X112852452Y-133072544D01*
X112852455Y-133072547D01*
X112967664Y-133158793D01*
X112967671Y-133158797D01*
X113102517Y-133209091D01*
X113102516Y-133209091D01*
X113109444Y-133209835D01*
X113162127Y-133215500D01*
X114237872Y-133215499D01*
X114297483Y-133209091D01*
X114432329Y-133158797D01*
X114440112Y-133154547D01*
X114441865Y-133157757D01*
X114490999Y-133139361D01*
X114559291Y-133154127D01*
X114560263Y-133154752D01*
X114567670Y-133158797D01*
X114702517Y-133209091D01*
X114702516Y-133209091D01*
X114709444Y-133209835D01*
X114762127Y-133215500D01*
X115837872Y-133215499D01*
X115897483Y-133209091D01*
X116032331Y-133158796D01*
X116147546Y-133072546D01*
X116233796Y-132957331D01*
X116284091Y-132822483D01*
X116290500Y-132762873D01*
X116290500Y-132724500D01*
X116310185Y-132657461D01*
X116362989Y-132611706D01*
X116414500Y-132600500D01*
X118079055Y-132600500D01*
X118079057Y-132600500D01*
X118231784Y-132559577D01*
X118368716Y-132480520D01*
X118480520Y-132368716D01*
X118559577Y-132231784D01*
X118600500Y-132079057D01*
X118600500Y-130757661D01*
X118620185Y-130690622D01*
X118668207Y-130647175D01*
X118694714Y-130633670D01*
X118863505Y-130511035D01*
X119011035Y-130363505D01*
X119133670Y-130194714D01*
X119228389Y-130008816D01*
X119292862Y-129810389D01*
X119297272Y-129782544D01*
X119325500Y-129604324D01*
X119325500Y-129395675D01*
X119292862Y-129189610D01*
X119228387Y-128991179D01*
X119135592Y-128809059D01*
X119133670Y-128805286D01*
X119011035Y-128636495D01*
X118863505Y-128488965D01*
X118694714Y-128366330D01*
X118508820Y-128271612D01*
X118310389Y-128207137D01*
X118104324Y-128174500D01*
X118104319Y-128174500D01*
X117895681Y-128174500D01*
X117895676Y-128174500D01*
X117689610Y-128207137D01*
X117491179Y-128271612D01*
X117305285Y-128366330D01*
X117136493Y-128488966D01*
X116988966Y-128636493D01*
X116866330Y-128805285D01*
X116771612Y-128991179D01*
X116707137Y-129189610D01*
X116674500Y-129395675D01*
X116674500Y-129604324D01*
X116707137Y-129810389D01*
X116771612Y-130008820D01*
X116866330Y-130194714D01*
X116988965Y-130363505D01*
X117136495Y-130511035D01*
X117230114Y-130579054D01*
X117305287Y-130633671D01*
X117320565Y-130641455D01*
X117331792Y-130647175D01*
X117382589Y-130695148D01*
X117399500Y-130757661D01*
X117399500Y-131275500D01*
X117379815Y-131342539D01*
X117327011Y-131388294D01*
X117275500Y-131399500D01*
X116414499Y-131399500D01*
X116347460Y-131379815D01*
X116301705Y-131327011D01*
X116290499Y-131275500D01*
X116290499Y-131237129D01*
X116290498Y-131237123D01*
X116290497Y-131237116D01*
X116284091Y-131177517D01*
X116277909Y-131160943D01*
X116233797Y-131042671D01*
X116233793Y-131042664D01*
X116147547Y-130927455D01*
X116147544Y-130927452D01*
X116032335Y-130841206D01*
X116032328Y-130841202D01*
X115897482Y-130790908D01*
X115897483Y-130790908D01*
X115837883Y-130784501D01*
X115837881Y-130784500D01*
X115837873Y-130784500D01*
X115837864Y-130784500D01*
X114762129Y-130784500D01*
X114762123Y-130784501D01*
X114702516Y-130790908D01*
X114567671Y-130841202D01*
X114559886Y-130845454D01*
X114558153Y-130842280D01*
X114508698Y-130860659D01*
X114440443Y-130845725D01*
X114439497Y-130845117D01*
X114432328Y-130841202D01*
X114297482Y-130790908D01*
X114297483Y-130790908D01*
X114237883Y-130784501D01*
X114237881Y-130784500D01*
X114237873Y-130784500D01*
X114237864Y-130784500D01*
X113162129Y-130784500D01*
X113162123Y-130784501D01*
X113102516Y-130790908D01*
X112967671Y-130841202D01*
X112967664Y-130841206D01*
X112852455Y-130927452D01*
X112852452Y-130927455D01*
X112766206Y-131042664D01*
X112766202Y-131042671D01*
X112715908Y-131177517D01*
X112709501Y-131237116D01*
X112709501Y-131237123D01*
X112709500Y-131237135D01*
X112709500Y-131275500D01*
X112689815Y-131342539D01*
X112637011Y-131388294D01*
X112585500Y-131399500D01*
X111800097Y-131399500D01*
X111733058Y-131379815D01*
X111712416Y-131363181D01*
X111386416Y-131037181D01*
X111352931Y-130975858D01*
X111357915Y-130906166D01*
X111399787Y-130850233D01*
X111465251Y-130825816D01*
X111474097Y-130825500D01*
X111604324Y-130825500D01*
X111810389Y-130792862D01*
X111836121Y-130784501D01*
X112008816Y-130728389D01*
X112194714Y-130633670D01*
X112363505Y-130511035D01*
X112511035Y-130363505D01*
X112633670Y-130194714D01*
X112728389Y-130008816D01*
X112792862Y-129810389D01*
X112797272Y-129782544D01*
X112825500Y-129604324D01*
X112825500Y-129395675D01*
X112792862Y-129189610D01*
X112728387Y-128991179D01*
X112635592Y-128809059D01*
X112633670Y-128805286D01*
X112511035Y-128636495D01*
X112363505Y-128488965D01*
X112194714Y-128366330D01*
X112008820Y-128271612D01*
X111810389Y-128207137D01*
X111604324Y-128174500D01*
X111604319Y-128174500D01*
X111395681Y-128174500D01*
X111395676Y-128174500D01*
X111189610Y-128207137D01*
X110991179Y-128271612D01*
X110805281Y-128366332D01*
X110797381Y-128372072D01*
X110731574Y-128395549D01*
X110663521Y-128379721D01*
X110614828Y-128329613D01*
X110600500Y-128271751D01*
X110600500Y-126800096D01*
X110620185Y-126733057D01*
X110636815Y-126712419D01*
X111035317Y-126313916D01*
X111096638Y-126280433D01*
X111161314Y-126283668D01*
X111189610Y-126292862D01*
X111395676Y-126325500D01*
X111395681Y-126325500D01*
X111604324Y-126325500D01*
X111810389Y-126292862D01*
X111886244Y-126268215D01*
X112008816Y-126228389D01*
X112194714Y-126133670D01*
X112363505Y-126011035D01*
X112511035Y-125863505D01*
X112633670Y-125694714D01*
X112728389Y-125508816D01*
X112792862Y-125310389D01*
X112823217Y-125118735D01*
X112825500Y-125104324D01*
X112825500Y-124895675D01*
X112792862Y-124689610D01*
X112742728Y-124535316D01*
X112728389Y-124491184D01*
X112728387Y-124491181D01*
X112728387Y-124491179D01*
X112676568Y-124389478D01*
X112633670Y-124305286D01*
X112511035Y-124136495D01*
X112506721Y-124132181D01*
X112473236Y-124070858D01*
X112478220Y-124001166D01*
X112520092Y-123945233D01*
X112585556Y-123920816D01*
X112594402Y-123920500D01*
X116905598Y-123920500D01*
X116972637Y-123940185D01*
X117018392Y-123992989D01*
X117028336Y-124062147D01*
X116999311Y-124125703D01*
X116993279Y-124132181D01*
X116988967Y-124136492D01*
X116988966Y-124136493D01*
X116866330Y-124305285D01*
X116771612Y-124491179D01*
X116707137Y-124689610D01*
X116674500Y-124895675D01*
X116674500Y-125104324D01*
X116707137Y-125310389D01*
X116771612Y-125508820D01*
X116860190Y-125682664D01*
X116866330Y-125694714D01*
X116988965Y-125863505D01*
X117136495Y-126011035D01*
X117305286Y-126133670D01*
X117357482Y-126160265D01*
X117491179Y-126228387D01*
X117491181Y-126228387D01*
X117491184Y-126228389D01*
X117589048Y-126260187D01*
X117689610Y-126292862D01*
X117895676Y-126325500D01*
X117895681Y-126325500D01*
X118104324Y-126325500D01*
X118310389Y-126292862D01*
X118386244Y-126268215D01*
X118508816Y-126228389D01*
X118694714Y-126133670D01*
X118863505Y-126011035D01*
X119011035Y-125863505D01*
X119133670Y-125694714D01*
X119228389Y-125508816D01*
X119292862Y-125310389D01*
X119323217Y-125118735D01*
X119325500Y-125104324D01*
X119325500Y-124895675D01*
X119301126Y-124741789D01*
X119292862Y-124689611D01*
X119292860Y-124689606D01*
X119292860Y-124689603D01*
X119283669Y-124661317D01*
X119281672Y-124591476D01*
X119313916Y-124535318D01*
X120160520Y-123688716D01*
X120160520Y-123688714D01*
X120170724Y-123678511D01*
X120170727Y-123678506D01*
X120552416Y-123296819D01*
X120613739Y-123263334D01*
X120640097Y-123260500D01*
X136483331Y-123260500D01*
X136483347Y-123260501D01*
X136490943Y-123260501D01*
X136649054Y-123260501D01*
X136649057Y-123260501D01*
X136801785Y-123219577D01*
X136851904Y-123190639D01*
X136938716Y-123140520D01*
X137050520Y-123028716D01*
X137050520Y-123028714D01*
X137060728Y-123018507D01*
X137060730Y-123018504D01*
X138348506Y-121730728D01*
X138348511Y-121730724D01*
X138358714Y-121720520D01*
X138358716Y-121720520D01*
X138470520Y-121608716D01*
X138531817Y-121502546D01*
X138549577Y-121471785D01*
X138590500Y-121319058D01*
X138590500Y-121160943D01*
X138590500Y-115230097D01*
X138610185Y-115163058D01*
X138626819Y-115142416D01*
X140752417Y-113016819D01*
X140813740Y-112983334D01*
X140840098Y-112980500D01*
X141764426Y-112980500D01*
X141831465Y-113000185D01*
G37*
%TD.AperFunction*%
%TA.AperFunction,NonConductor*%
G36*
X143256275Y-127120185D02*
G01*
X143302030Y-127172989D01*
X143305418Y-127181167D01*
X143356202Y-127317328D01*
X143356206Y-127317335D01*
X143442452Y-127432544D01*
X143442455Y-127432547D01*
X143557664Y-127518793D01*
X143557671Y-127518797D01*
X143664972Y-127558818D01*
X143720906Y-127600689D01*
X143745323Y-127666154D01*
X143730471Y-127734427D01*
X143681066Y-127783832D01*
X143664972Y-127791182D01*
X143557671Y-127831202D01*
X143557664Y-127831206D01*
X143442455Y-127917452D01*
X143442452Y-127917455D01*
X143356206Y-128032664D01*
X143356202Y-128032671D01*
X143305908Y-128167517D01*
X143304465Y-128180943D01*
X143299501Y-128227123D01*
X143299500Y-128227135D01*
X143299500Y-129472870D01*
X143299501Y-129472876D01*
X143305908Y-129532483D01*
X143356202Y-129667328D01*
X143356206Y-129667335D01*
X143442452Y-129782544D01*
X143442455Y-129782547D01*
X143557664Y-129868793D01*
X143557671Y-129868797D01*
X143602618Y-129885561D01*
X143692517Y-129919091D01*
X143752127Y-129925500D01*
X143775497Y-129925499D01*
X143842536Y-129945181D01*
X143888292Y-129997983D01*
X143899500Y-130049499D01*
X143899500Y-133183330D01*
X143899499Y-133183348D01*
X143899499Y-133349054D01*
X143899498Y-133349054D01*
X143940423Y-133501785D01*
X143969358Y-133551900D01*
X143969359Y-133551904D01*
X143969360Y-133551904D01*
X144019479Y-133638714D01*
X144019481Y-133638717D01*
X144138349Y-133757585D01*
X144138355Y-133757590D01*
X146388584Y-136007819D01*
X146422069Y-136069142D01*
X146417085Y-136138834D01*
X146375213Y-136194767D01*
X146309749Y-136219184D01*
X146300903Y-136219500D01*
X141580940Y-136219500D01*
X141540019Y-136230464D01*
X141540019Y-136230465D01*
X141502751Y-136240451D01*
X141428214Y-136260423D01*
X141428209Y-136260426D01*
X141291290Y-136339475D01*
X141291282Y-136339481D01*
X141179478Y-136451286D01*
X136567584Y-141063181D01*
X136506261Y-141096666D01*
X136479903Y-141099500D01*
X128139766Y-141099500D01*
X128072727Y-141079815D01*
X128070875Y-141078602D01*
X127939185Y-140990609D01*
X127939172Y-140990602D01*
X127793501Y-140930264D01*
X127793489Y-140930261D01*
X127638845Y-140899500D01*
X127638842Y-140899500D01*
X127481158Y-140899500D01*
X127481155Y-140899500D01*
X127326510Y-140930261D01*
X127326498Y-140930264D01*
X127180827Y-140990602D01*
X127180814Y-140990609D01*
X127049711Y-141078210D01*
X127049707Y-141078213D01*
X126938213Y-141189707D01*
X126938210Y-141189711D01*
X126850609Y-141320814D01*
X126850602Y-141320827D01*
X126839061Y-141348692D01*
X126795220Y-141403096D01*
X126728926Y-141425161D01*
X126661227Y-141407882D01*
X126613616Y-141356745D01*
X126600500Y-141301240D01*
X126600500Y-137684500D01*
X126620185Y-137617461D01*
X126672989Y-137571706D01*
X126724500Y-137560500D01*
X135545500Y-137560500D01*
X135612539Y-137580185D01*
X135658294Y-137632989D01*
X135669500Y-137684500D01*
X135669500Y-138070166D01*
X135649815Y-138137205D01*
X135648602Y-138139057D01*
X135580609Y-138240814D01*
X135580602Y-138240827D01*
X135520264Y-138386498D01*
X135520261Y-138386510D01*
X135489500Y-138541153D01*
X135489500Y-138698846D01*
X135520261Y-138853489D01*
X135520264Y-138853501D01*
X135580602Y-138999172D01*
X135580609Y-138999185D01*
X135668210Y-139130288D01*
X135668213Y-139130292D01*
X135779707Y-139241786D01*
X135779711Y-139241789D01*
X135910814Y-139329390D01*
X135910827Y-139329397D01*
X136056498Y-139389735D01*
X136056503Y-139389737D01*
X136211153Y-139420499D01*
X136211156Y-139420500D01*
X136211158Y-139420500D01*
X136368844Y-139420500D01*
X136368845Y-139420499D01*
X136523497Y-139389737D01*
X136669179Y-139329394D01*
X136800289Y-139241789D01*
X136911789Y-139130289D01*
X136999394Y-138999179D01*
X137059737Y-138853497D01*
X137090500Y-138698842D01*
X137090500Y-138541158D01*
X137090500Y-138541155D01*
X137090499Y-138541153D01*
X137062515Y-138400469D01*
X137059737Y-138386503D01*
X137059735Y-138386498D01*
X136999397Y-138240827D01*
X136999390Y-138240814D01*
X136911789Y-138109711D01*
X136911786Y-138109707D01*
X136906819Y-138104740D01*
X136873334Y-138043417D01*
X136870500Y-138017059D01*
X136870500Y-137684500D01*
X136890185Y-137617461D01*
X136942989Y-137571706D01*
X136994500Y-137560500D01*
X138163331Y-137560500D01*
X138163347Y-137560501D01*
X138170943Y-137560501D01*
X138329054Y-137560501D01*
X138329057Y-137560501D01*
X138481785Y-137519577D01*
X138531904Y-137490639D01*
X138618716Y-137440520D01*
X138730520Y-137328716D01*
X138730520Y-137328714D01*
X138740728Y-137318507D01*
X138740730Y-137318504D01*
X142018713Y-134040521D01*
X142018716Y-134040520D01*
X142130520Y-133928716D01*
X142180639Y-133841904D01*
X142209577Y-133791785D01*
X142250500Y-133639057D01*
X142250500Y-133480943D01*
X142250500Y-127910097D01*
X142270185Y-127843058D01*
X142286819Y-127822416D01*
X142972416Y-127136819D01*
X142999343Y-127122115D01*
X143025162Y-127105523D01*
X143031362Y-127104631D01*
X143033739Y-127103334D01*
X143060097Y-127100500D01*
X143189236Y-127100500D01*
X143256275Y-127120185D01*
G37*
%TD.AperFunction*%
%TA.AperFunction,NonConductor*%
G36*
X125306575Y-142496633D02*
G01*
X125316688Y-142497170D01*
X125337287Y-142512006D01*
X125359996Y-142523374D01*
X125365164Y-142532085D01*
X125373383Y-142538005D01*
X125382691Y-142561625D01*
X125395648Y-142583463D01*
X125397683Y-142599668D01*
X125399000Y-142603009D01*
X125398450Y-142605777D01*
X125399500Y-142614129D01*
X125399500Y-143800500D01*
X125379815Y-143867539D01*
X125327011Y-143913294D01*
X125275505Y-143924500D01*
X125252132Y-143924500D01*
X125252123Y-143924501D01*
X125192516Y-143930908D01*
X125057671Y-143981202D01*
X125057664Y-143981206D01*
X124942455Y-144067452D01*
X124942452Y-144067455D01*
X124856206Y-144182664D01*
X124856202Y-144182671D01*
X124805908Y-144317517D01*
X124800964Y-144363506D01*
X124799501Y-144377123D01*
X124799500Y-144377135D01*
X124799500Y-145622870D01*
X124799501Y-145622876D01*
X124805908Y-145682483D01*
X124856202Y-145817328D01*
X124856206Y-145817335D01*
X124942452Y-145932544D01*
X124942455Y-145932547D01*
X125057664Y-146018793D01*
X125057671Y-146018797D01*
X125164972Y-146058818D01*
X125220906Y-146100689D01*
X125245323Y-146166154D01*
X125230471Y-146234427D01*
X125181066Y-146283832D01*
X125164972Y-146291182D01*
X125057671Y-146331202D01*
X125057664Y-146331206D01*
X124942455Y-146417452D01*
X124942452Y-146417455D01*
X124856206Y-146532664D01*
X124856202Y-146532671D01*
X124805418Y-146668833D01*
X124792148Y-146686559D01*
X124782949Y-146706703D01*
X124771618Y-146713984D01*
X124763547Y-146724767D01*
X124742798Y-146732505D01*
X124724171Y-146744477D01*
X124702254Y-146747628D01*
X124698083Y-146749184D01*
X124689236Y-146749500D01*
X124650097Y-146749500D01*
X124583058Y-146729815D01*
X124562416Y-146713181D01*
X123666819Y-145817584D01*
X123633334Y-145756261D01*
X123630500Y-145729903D01*
X123630500Y-143980097D01*
X123650185Y-143913058D01*
X123666819Y-143892416D01*
X124281979Y-143277256D01*
X124984662Y-142574572D01*
X124999693Y-142566184D01*
X125010922Y-142554535D01*
X125040058Y-142543658D01*
X125043758Y-142541594D01*
X125048376Y-142540500D01*
X125048842Y-142540500D01*
X125203497Y-142509737D01*
X125237239Y-142495760D01*
X125246917Y-142493468D01*
X125272271Y-142494813D01*
X125297517Y-142492099D01*
X125306575Y-142496633D01*
G37*
%TD.AperFunction*%
M02*
