%TF.GenerationSoftware,KiCad,Pcbnew,9.0.7*%
%TF.CreationDate,2026-03-07T16:05:12-07:00*%
%TF.ProjectId,controller_pcb,636f6e74-726f-46c6-9c65-725f7063622e,rev?*%
%TF.SameCoordinates,Original*%
%TF.FileFunction,Legend,Top*%
%TF.FilePolarity,Positive*%
%FSLAX46Y46*%
G04 Gerber Fmt 4.6, Leading zero omitted, Abs format (unit mm)*
G04 Created by KiCad (PCBNEW 9.0.7) date 2026-03-07 16:05:12*
%MOMM*%
%LPD*%
G01*
G04 APERTURE LIST*
%ADD10C,0.254000*%
%ADD11C,0.150000*%
%ADD12C,0.200000*%
%ADD13C,0.120000*%
G04 APERTURE END LIST*
D10*
X132669080Y-119484285D02*
X132729556Y-119302857D01*
X132729556Y-119302857D02*
X132790032Y-119242380D01*
X132790032Y-119242380D02*
X132910984Y-119181904D01*
X132910984Y-119181904D02*
X133092413Y-119181904D01*
X133092413Y-119181904D02*
X133213365Y-119242380D01*
X133213365Y-119242380D02*
X133273842Y-119302857D01*
X133273842Y-119302857D02*
X133334318Y-119423809D01*
X133334318Y-119423809D02*
X133334318Y-119907619D01*
X133334318Y-119907619D02*
X132064318Y-119907619D01*
X132064318Y-119907619D02*
X132064318Y-119484285D01*
X132064318Y-119484285D02*
X132124794Y-119363333D01*
X132124794Y-119363333D02*
X132185270Y-119302857D01*
X132185270Y-119302857D02*
X132306222Y-119242380D01*
X132306222Y-119242380D02*
X132427175Y-119242380D01*
X132427175Y-119242380D02*
X132548127Y-119302857D01*
X132548127Y-119302857D02*
X132608603Y-119363333D01*
X132608603Y-119363333D02*
X132669080Y-119484285D01*
X132669080Y-119484285D02*
X132669080Y-119907619D01*
X133213365Y-117911904D02*
X133273842Y-117972380D01*
X133273842Y-117972380D02*
X133334318Y-118153809D01*
X133334318Y-118153809D02*
X133334318Y-118274761D01*
X133334318Y-118274761D02*
X133273842Y-118456190D01*
X133273842Y-118456190D02*
X133152889Y-118577142D01*
X133152889Y-118577142D02*
X133031937Y-118637619D01*
X133031937Y-118637619D02*
X132790032Y-118698095D01*
X132790032Y-118698095D02*
X132608603Y-118698095D01*
X132608603Y-118698095D02*
X132366699Y-118637619D01*
X132366699Y-118637619D02*
X132245746Y-118577142D01*
X132245746Y-118577142D02*
X132124794Y-118456190D01*
X132124794Y-118456190D02*
X132064318Y-118274761D01*
X132064318Y-118274761D02*
X132064318Y-118153809D01*
X132064318Y-118153809D02*
X132124794Y-117972380D01*
X132124794Y-117972380D02*
X132185270Y-117911904D01*
X113482380Y-134913842D02*
X113663809Y-134974318D01*
X113663809Y-134974318D02*
X113966190Y-134974318D01*
X113966190Y-134974318D02*
X114087142Y-134913842D01*
X114087142Y-134913842D02*
X114147618Y-134853365D01*
X114147618Y-134853365D02*
X114208095Y-134732413D01*
X114208095Y-134732413D02*
X114208095Y-134611461D01*
X114208095Y-134611461D02*
X114147618Y-134490508D01*
X114147618Y-134490508D02*
X114087142Y-134430032D01*
X114087142Y-134430032D02*
X113966190Y-134369556D01*
X113966190Y-134369556D02*
X113724285Y-134309080D01*
X113724285Y-134309080D02*
X113603333Y-134248603D01*
X113603333Y-134248603D02*
X113542856Y-134188127D01*
X113542856Y-134188127D02*
X113482380Y-134067175D01*
X113482380Y-134067175D02*
X113482380Y-133946222D01*
X113482380Y-133946222D02*
X113542856Y-133825270D01*
X113542856Y-133825270D02*
X113603333Y-133764794D01*
X113603333Y-133764794D02*
X113724285Y-133704318D01*
X113724285Y-133704318D02*
X114026666Y-133704318D01*
X114026666Y-133704318D02*
X114208095Y-133764794D01*
X115296666Y-134127651D02*
X115296666Y-134974318D01*
X114994285Y-133643842D02*
X114691904Y-134550984D01*
X114691904Y-134550984D02*
X115478095Y-134550984D01*
X132312380Y-134533842D02*
X132493809Y-134594318D01*
X132493809Y-134594318D02*
X132796190Y-134594318D01*
X132796190Y-134594318D02*
X132917142Y-134533842D01*
X132917142Y-134533842D02*
X132977618Y-134473365D01*
X132977618Y-134473365D02*
X133038095Y-134352413D01*
X133038095Y-134352413D02*
X133038095Y-134231461D01*
X133038095Y-134231461D02*
X132977618Y-134110508D01*
X132977618Y-134110508D02*
X132917142Y-134050032D01*
X132917142Y-134050032D02*
X132796190Y-133989556D01*
X132796190Y-133989556D02*
X132554285Y-133929080D01*
X132554285Y-133929080D02*
X132433333Y-133868603D01*
X132433333Y-133868603D02*
X132372856Y-133808127D01*
X132372856Y-133808127D02*
X132312380Y-133687175D01*
X132312380Y-133687175D02*
X132312380Y-133566222D01*
X132312380Y-133566222D02*
X132372856Y-133445270D01*
X132372856Y-133445270D02*
X132433333Y-133384794D01*
X132433333Y-133384794D02*
X132554285Y-133324318D01*
X132554285Y-133324318D02*
X132856666Y-133324318D01*
X132856666Y-133324318D02*
X133038095Y-133384794D01*
X134187142Y-133324318D02*
X133582380Y-133324318D01*
X133582380Y-133324318D02*
X133521904Y-133929080D01*
X133521904Y-133929080D02*
X133582380Y-133868603D01*
X133582380Y-133868603D02*
X133703333Y-133808127D01*
X133703333Y-133808127D02*
X134005714Y-133808127D01*
X134005714Y-133808127D02*
X134126666Y-133868603D01*
X134126666Y-133868603D02*
X134187142Y-133929080D01*
X134187142Y-133929080D02*
X134247619Y-134050032D01*
X134247619Y-134050032D02*
X134247619Y-134352413D01*
X134247619Y-134352413D02*
X134187142Y-134473365D01*
X134187142Y-134473365D02*
X134126666Y-134533842D01*
X134126666Y-134533842D02*
X134005714Y-134594318D01*
X134005714Y-134594318D02*
X133703333Y-134594318D01*
X133703333Y-134594318D02*
X133582380Y-134533842D01*
X133582380Y-134533842D02*
X133521904Y-134473365D01*
X132232380Y-153203842D02*
X132413809Y-153264318D01*
X132413809Y-153264318D02*
X132716190Y-153264318D01*
X132716190Y-153264318D02*
X132837142Y-153203842D01*
X132837142Y-153203842D02*
X132897618Y-153143365D01*
X132897618Y-153143365D02*
X132958095Y-153022413D01*
X132958095Y-153022413D02*
X132958095Y-152901461D01*
X132958095Y-152901461D02*
X132897618Y-152780508D01*
X132897618Y-152780508D02*
X132837142Y-152720032D01*
X132837142Y-152720032D02*
X132716190Y-152659556D01*
X132716190Y-152659556D02*
X132474285Y-152599080D01*
X132474285Y-152599080D02*
X132353333Y-152538603D01*
X132353333Y-152538603D02*
X132292856Y-152478127D01*
X132292856Y-152478127D02*
X132232380Y-152357175D01*
X132232380Y-152357175D02*
X132232380Y-152236222D01*
X132232380Y-152236222D02*
X132292856Y-152115270D01*
X132292856Y-152115270D02*
X132353333Y-152054794D01*
X132353333Y-152054794D02*
X132474285Y-151994318D01*
X132474285Y-151994318D02*
X132776666Y-151994318D01*
X132776666Y-151994318D02*
X132958095Y-152054794D01*
X133381428Y-151994318D02*
X134167619Y-151994318D01*
X134167619Y-151994318D02*
X133744285Y-152478127D01*
X133744285Y-152478127D02*
X133925714Y-152478127D01*
X133925714Y-152478127D02*
X134046666Y-152538603D01*
X134046666Y-152538603D02*
X134107142Y-152599080D01*
X134107142Y-152599080D02*
X134167619Y-152720032D01*
X134167619Y-152720032D02*
X134167619Y-153022413D01*
X134167619Y-153022413D02*
X134107142Y-153143365D01*
X134107142Y-153143365D02*
X134046666Y-153203842D01*
X134046666Y-153203842D02*
X133925714Y-153264318D01*
X133925714Y-153264318D02*
X133562857Y-153264318D01*
X133562857Y-153264318D02*
X133441904Y-153203842D01*
X133441904Y-153203842D02*
X133381428Y-153143365D01*
D11*
X157116666Y-103284819D02*
X157688094Y-103284819D01*
X157402380Y-104284819D02*
X157402380Y-103284819D01*
X157926190Y-103284819D02*
X158592856Y-104284819D01*
X158592856Y-103284819D02*
X157926190Y-104284819D01*
X159592857Y-103284819D02*
X160164285Y-103284819D01*
X159878571Y-104284819D02*
X159878571Y-103284819D01*
X160497619Y-103761009D02*
X160830952Y-103761009D01*
X160973809Y-104284819D02*
X160497619Y-104284819D01*
X160497619Y-104284819D02*
X160497619Y-103284819D01*
X160497619Y-103284819D02*
X160973809Y-103284819D01*
X161354762Y-104237200D02*
X161497619Y-104284819D01*
X161497619Y-104284819D02*
X161735714Y-104284819D01*
X161735714Y-104284819D02*
X161830952Y-104237200D01*
X161830952Y-104237200D02*
X161878571Y-104189580D01*
X161878571Y-104189580D02*
X161926190Y-104094342D01*
X161926190Y-104094342D02*
X161926190Y-103999104D01*
X161926190Y-103999104D02*
X161878571Y-103903866D01*
X161878571Y-103903866D02*
X161830952Y-103856247D01*
X161830952Y-103856247D02*
X161735714Y-103808628D01*
X161735714Y-103808628D02*
X161545238Y-103761009D01*
X161545238Y-103761009D02*
X161450000Y-103713390D01*
X161450000Y-103713390D02*
X161402381Y-103665771D01*
X161402381Y-103665771D02*
X161354762Y-103570533D01*
X161354762Y-103570533D02*
X161354762Y-103475295D01*
X161354762Y-103475295D02*
X161402381Y-103380057D01*
X161402381Y-103380057D02*
X161450000Y-103332438D01*
X161450000Y-103332438D02*
X161545238Y-103284819D01*
X161545238Y-103284819D02*
X161783333Y-103284819D01*
X161783333Y-103284819D02*
X161926190Y-103332438D01*
X162211905Y-103284819D02*
X162783333Y-103284819D01*
X162497619Y-104284819D02*
X162497619Y-103284819D01*
D10*
X133058333Y-132603365D02*
X132997857Y-132663842D01*
X132997857Y-132663842D02*
X132816428Y-132724318D01*
X132816428Y-132724318D02*
X132695476Y-132724318D01*
X132695476Y-132724318D02*
X132514047Y-132663842D01*
X132514047Y-132663842D02*
X132393095Y-132542889D01*
X132393095Y-132542889D02*
X132332618Y-132421937D01*
X132332618Y-132421937D02*
X132272142Y-132180032D01*
X132272142Y-132180032D02*
X132272142Y-131998603D01*
X132272142Y-131998603D02*
X132332618Y-131756699D01*
X132332618Y-131756699D02*
X132393095Y-131635746D01*
X132393095Y-131635746D02*
X132514047Y-131514794D01*
X132514047Y-131514794D02*
X132695476Y-131454318D01*
X132695476Y-131454318D02*
X132816428Y-131454318D01*
X132816428Y-131454318D02*
X132997857Y-131514794D01*
X132997857Y-131514794D02*
X133058333Y-131575270D01*
X134207380Y-131454318D02*
X133602618Y-131454318D01*
X133602618Y-131454318D02*
X133542142Y-132059080D01*
X133542142Y-132059080D02*
X133602618Y-131998603D01*
X133602618Y-131998603D02*
X133723571Y-131938127D01*
X133723571Y-131938127D02*
X134025952Y-131938127D01*
X134025952Y-131938127D02*
X134146904Y-131998603D01*
X134146904Y-131998603D02*
X134207380Y-132059080D01*
X134207380Y-132059080D02*
X134267857Y-132180032D01*
X134267857Y-132180032D02*
X134267857Y-132482413D01*
X134267857Y-132482413D02*
X134207380Y-132603365D01*
X134207380Y-132603365D02*
X134146904Y-132663842D01*
X134146904Y-132663842D02*
X134025952Y-132724318D01*
X134025952Y-132724318D02*
X133723571Y-132724318D01*
X133723571Y-132724318D02*
X133602618Y-132663842D01*
X133602618Y-132663842D02*
X133542142Y-132603365D01*
X114308333Y-132563365D02*
X114247857Y-132623842D01*
X114247857Y-132623842D02*
X114066428Y-132684318D01*
X114066428Y-132684318D02*
X113945476Y-132684318D01*
X113945476Y-132684318D02*
X113764047Y-132623842D01*
X113764047Y-132623842D02*
X113643095Y-132502889D01*
X113643095Y-132502889D02*
X113582618Y-132381937D01*
X113582618Y-132381937D02*
X113522142Y-132140032D01*
X113522142Y-132140032D02*
X113522142Y-131958603D01*
X113522142Y-131958603D02*
X113582618Y-131716699D01*
X113582618Y-131716699D02*
X113643095Y-131595746D01*
X113643095Y-131595746D02*
X113764047Y-131474794D01*
X113764047Y-131474794D02*
X113945476Y-131414318D01*
X113945476Y-131414318D02*
X114066428Y-131414318D01*
X114066428Y-131414318D02*
X114247857Y-131474794D01*
X114247857Y-131474794D02*
X114308333Y-131535270D01*
X115396904Y-131837651D02*
X115396904Y-132684318D01*
X115094523Y-131353842D02*
X114792142Y-132260984D01*
X114792142Y-132260984D02*
X115578333Y-132260984D01*
X132988333Y-150953365D02*
X132927857Y-151013842D01*
X132927857Y-151013842D02*
X132746428Y-151074318D01*
X132746428Y-151074318D02*
X132625476Y-151074318D01*
X132625476Y-151074318D02*
X132444047Y-151013842D01*
X132444047Y-151013842D02*
X132323095Y-150892889D01*
X132323095Y-150892889D02*
X132262618Y-150771937D01*
X132262618Y-150771937D02*
X132202142Y-150530032D01*
X132202142Y-150530032D02*
X132202142Y-150348603D01*
X132202142Y-150348603D02*
X132262618Y-150106699D01*
X132262618Y-150106699D02*
X132323095Y-149985746D01*
X132323095Y-149985746D02*
X132444047Y-149864794D01*
X132444047Y-149864794D02*
X132625476Y-149804318D01*
X132625476Y-149804318D02*
X132746428Y-149804318D01*
X132746428Y-149804318D02*
X132927857Y-149864794D01*
X132927857Y-149864794D02*
X132988333Y-149925270D01*
X133411666Y-149804318D02*
X134197857Y-149804318D01*
X134197857Y-149804318D02*
X133774523Y-150288127D01*
X133774523Y-150288127D02*
X133955952Y-150288127D01*
X133955952Y-150288127D02*
X134076904Y-150348603D01*
X134076904Y-150348603D02*
X134137380Y-150409080D01*
X134137380Y-150409080D02*
X134197857Y-150530032D01*
X134197857Y-150530032D02*
X134197857Y-150832413D01*
X134197857Y-150832413D02*
X134137380Y-150953365D01*
X134137380Y-150953365D02*
X134076904Y-151013842D01*
X134076904Y-151013842D02*
X133955952Y-151074318D01*
X133955952Y-151074318D02*
X133593095Y-151074318D01*
X133593095Y-151074318D02*
X133472142Y-151013842D01*
X133472142Y-151013842D02*
X133411666Y-150953365D01*
X151788333Y-132453365D02*
X151727857Y-132513842D01*
X151727857Y-132513842D02*
X151546428Y-132574318D01*
X151546428Y-132574318D02*
X151425476Y-132574318D01*
X151425476Y-132574318D02*
X151244047Y-132513842D01*
X151244047Y-132513842D02*
X151123095Y-132392889D01*
X151123095Y-132392889D02*
X151062618Y-132271937D01*
X151062618Y-132271937D02*
X151002142Y-132030032D01*
X151002142Y-132030032D02*
X151002142Y-131848603D01*
X151002142Y-131848603D02*
X151062618Y-131606699D01*
X151062618Y-131606699D02*
X151123095Y-131485746D01*
X151123095Y-131485746D02*
X151244047Y-131364794D01*
X151244047Y-131364794D02*
X151425476Y-131304318D01*
X151425476Y-131304318D02*
X151546428Y-131304318D01*
X151546428Y-131304318D02*
X151727857Y-131364794D01*
X151727857Y-131364794D02*
X151788333Y-131425270D01*
X152272142Y-131425270D02*
X152332618Y-131364794D01*
X152332618Y-131364794D02*
X152453571Y-131304318D01*
X152453571Y-131304318D02*
X152755952Y-131304318D01*
X152755952Y-131304318D02*
X152876904Y-131364794D01*
X152876904Y-131364794D02*
X152937380Y-131425270D01*
X152937380Y-131425270D02*
X152997857Y-131546222D01*
X152997857Y-131546222D02*
X152997857Y-131667175D01*
X152997857Y-131667175D02*
X152937380Y-131848603D01*
X152937380Y-131848603D02*
X152211666Y-132574318D01*
X152211666Y-132574318D02*
X152997857Y-132574318D01*
X133288333Y-113953365D02*
X133227857Y-114013842D01*
X133227857Y-114013842D02*
X133046428Y-114074318D01*
X133046428Y-114074318D02*
X132925476Y-114074318D01*
X132925476Y-114074318D02*
X132744047Y-114013842D01*
X132744047Y-114013842D02*
X132623095Y-113892889D01*
X132623095Y-113892889D02*
X132562618Y-113771937D01*
X132562618Y-113771937D02*
X132502142Y-113530032D01*
X132502142Y-113530032D02*
X132502142Y-113348603D01*
X132502142Y-113348603D02*
X132562618Y-113106699D01*
X132562618Y-113106699D02*
X132623095Y-112985746D01*
X132623095Y-112985746D02*
X132744047Y-112864794D01*
X132744047Y-112864794D02*
X132925476Y-112804318D01*
X132925476Y-112804318D02*
X133046428Y-112804318D01*
X133046428Y-112804318D02*
X133227857Y-112864794D01*
X133227857Y-112864794D02*
X133288333Y-112925270D01*
X134497857Y-114074318D02*
X133772142Y-114074318D01*
X134134999Y-114074318D02*
X134134999Y-112804318D01*
X134134999Y-112804318D02*
X134014047Y-112985746D01*
X134014047Y-112985746D02*
X133893095Y-113106699D01*
X133893095Y-113106699D02*
X133772142Y-113167175D01*
X151072380Y-134673842D02*
X151253809Y-134734318D01*
X151253809Y-134734318D02*
X151556190Y-134734318D01*
X151556190Y-134734318D02*
X151677142Y-134673842D01*
X151677142Y-134673842D02*
X151737618Y-134613365D01*
X151737618Y-134613365D02*
X151798095Y-134492413D01*
X151798095Y-134492413D02*
X151798095Y-134371461D01*
X151798095Y-134371461D02*
X151737618Y-134250508D01*
X151737618Y-134250508D02*
X151677142Y-134190032D01*
X151677142Y-134190032D02*
X151556190Y-134129556D01*
X151556190Y-134129556D02*
X151314285Y-134069080D01*
X151314285Y-134069080D02*
X151193333Y-134008603D01*
X151193333Y-134008603D02*
X151132856Y-133948127D01*
X151132856Y-133948127D02*
X151072380Y-133827175D01*
X151072380Y-133827175D02*
X151072380Y-133706222D01*
X151072380Y-133706222D02*
X151132856Y-133585270D01*
X151132856Y-133585270D02*
X151193333Y-133524794D01*
X151193333Y-133524794D02*
X151314285Y-133464318D01*
X151314285Y-133464318D02*
X151616666Y-133464318D01*
X151616666Y-133464318D02*
X151798095Y-133524794D01*
X152281904Y-133585270D02*
X152342380Y-133524794D01*
X152342380Y-133524794D02*
X152463333Y-133464318D01*
X152463333Y-133464318D02*
X152765714Y-133464318D01*
X152765714Y-133464318D02*
X152886666Y-133524794D01*
X152886666Y-133524794D02*
X152947142Y-133585270D01*
X152947142Y-133585270D02*
X153007619Y-133706222D01*
X153007619Y-133706222D02*
X153007619Y-133827175D01*
X153007619Y-133827175D02*
X152947142Y-134008603D01*
X152947142Y-134008603D02*
X152221428Y-134734318D01*
X152221428Y-134734318D02*
X153007619Y-134734318D01*
X132612380Y-116213842D02*
X132793809Y-116274318D01*
X132793809Y-116274318D02*
X133096190Y-116274318D01*
X133096190Y-116274318D02*
X133217142Y-116213842D01*
X133217142Y-116213842D02*
X133277618Y-116153365D01*
X133277618Y-116153365D02*
X133338095Y-116032413D01*
X133338095Y-116032413D02*
X133338095Y-115911461D01*
X133338095Y-115911461D02*
X133277618Y-115790508D01*
X133277618Y-115790508D02*
X133217142Y-115730032D01*
X133217142Y-115730032D02*
X133096190Y-115669556D01*
X133096190Y-115669556D02*
X132854285Y-115609080D01*
X132854285Y-115609080D02*
X132733333Y-115548603D01*
X132733333Y-115548603D02*
X132672856Y-115488127D01*
X132672856Y-115488127D02*
X132612380Y-115367175D01*
X132612380Y-115367175D02*
X132612380Y-115246222D01*
X132612380Y-115246222D02*
X132672856Y-115125270D01*
X132672856Y-115125270D02*
X132733333Y-115064794D01*
X132733333Y-115064794D02*
X132854285Y-115004318D01*
X132854285Y-115004318D02*
X133156666Y-115004318D01*
X133156666Y-115004318D02*
X133338095Y-115064794D01*
X134547619Y-116274318D02*
X133821904Y-116274318D01*
X134184761Y-116274318D02*
X134184761Y-115004318D01*
X134184761Y-115004318D02*
X134063809Y-115185746D01*
X134063809Y-115185746D02*
X133942857Y-115306699D01*
X133942857Y-115306699D02*
X133821904Y-115367175D01*
X107619047Y-118795270D02*
X107498095Y-118734794D01*
X107498095Y-118734794D02*
X107377142Y-118613842D01*
X107377142Y-118613842D02*
X107195714Y-118432413D01*
X107195714Y-118432413D02*
X107074761Y-118371937D01*
X107074761Y-118371937D02*
X106953809Y-118371937D01*
X107014285Y-118674318D02*
X106893333Y-118613842D01*
X106893333Y-118613842D02*
X106772380Y-118492889D01*
X106772380Y-118492889D02*
X106711904Y-118250984D01*
X106711904Y-118250984D02*
X106711904Y-117827651D01*
X106711904Y-117827651D02*
X106772380Y-117585746D01*
X106772380Y-117585746D02*
X106893333Y-117464794D01*
X106893333Y-117464794D02*
X107014285Y-117404318D01*
X107014285Y-117404318D02*
X107256190Y-117404318D01*
X107256190Y-117404318D02*
X107377142Y-117464794D01*
X107377142Y-117464794D02*
X107498095Y-117585746D01*
X107498095Y-117585746D02*
X107558571Y-117827651D01*
X107558571Y-117827651D02*
X107558571Y-118250984D01*
X107558571Y-118250984D02*
X107498095Y-118492889D01*
X107498095Y-118492889D02*
X107377142Y-118613842D01*
X107377142Y-118613842D02*
X107256190Y-118674318D01*
X107256190Y-118674318D02*
X107014285Y-118674318D01*
X108768095Y-118674318D02*
X108042380Y-118674318D01*
X108405237Y-118674318D02*
X108405237Y-117404318D01*
X108405237Y-117404318D02*
X108284285Y-117585746D01*
X108284285Y-117585746D02*
X108163333Y-117706699D01*
X108163333Y-117706699D02*
X108042380Y-117767175D01*
X142556667Y-109144318D02*
X142556667Y-110051461D01*
X142556667Y-110051461D02*
X142496190Y-110232889D01*
X142496190Y-110232889D02*
X142375238Y-110353842D01*
X142375238Y-110353842D02*
X142193809Y-110414318D01*
X142193809Y-110414318D02*
X142072857Y-110414318D01*
X143826667Y-110414318D02*
X143100952Y-110414318D01*
X143463809Y-110414318D02*
X143463809Y-109144318D01*
X143463809Y-109144318D02*
X143342857Y-109325746D01*
X143342857Y-109325746D02*
X143221905Y-109446699D01*
X143221905Y-109446699D02*
X143100952Y-109507175D01*
X140806666Y-152074318D02*
X140806666Y-150804318D01*
X140806666Y-150804318D02*
X141290476Y-150804318D01*
X141290476Y-150804318D02*
X141411428Y-150864794D01*
X141411428Y-150864794D02*
X141471905Y-150925270D01*
X141471905Y-150925270D02*
X141532381Y-151046222D01*
X141532381Y-151046222D02*
X141532381Y-151227651D01*
X141532381Y-151227651D02*
X141471905Y-151348603D01*
X141471905Y-151348603D02*
X141411428Y-151409080D01*
X141411428Y-151409080D02*
X141290476Y-151469556D01*
X141290476Y-151469556D02*
X140806666Y-151469556D01*
X141955714Y-150804318D02*
X142258095Y-152074318D01*
X142258095Y-152074318D02*
X142500000Y-151167175D01*
X142500000Y-151167175D02*
X142741905Y-152074318D01*
X142741905Y-152074318D02*
X143044286Y-150804318D01*
X144253810Y-152074318D02*
X143830476Y-151469556D01*
X143528095Y-152074318D02*
X143528095Y-150804318D01*
X143528095Y-150804318D02*
X144011905Y-150804318D01*
X144011905Y-150804318D02*
X144132857Y-150864794D01*
X144132857Y-150864794D02*
X144193334Y-150925270D01*
X144193334Y-150925270D02*
X144253810Y-151046222D01*
X144253810Y-151046222D02*
X144253810Y-151227651D01*
X144253810Y-151227651D02*
X144193334Y-151348603D01*
X144193334Y-151348603D02*
X144132857Y-151409080D01*
X144132857Y-151409080D02*
X144011905Y-151469556D01*
X144011905Y-151469556D02*
X143528095Y-151469556D01*
X119392143Y-111944318D02*
X119815476Y-113214318D01*
X119815476Y-113214318D02*
X120238810Y-111944318D01*
X121387857Y-113214318D02*
X120964523Y-112609556D01*
X120662142Y-113214318D02*
X120662142Y-111944318D01*
X120662142Y-111944318D02*
X121145952Y-111944318D01*
X121145952Y-111944318D02*
X121266904Y-112004794D01*
X121266904Y-112004794D02*
X121327381Y-112065270D01*
X121327381Y-112065270D02*
X121387857Y-112186222D01*
X121387857Y-112186222D02*
X121387857Y-112367651D01*
X121387857Y-112367651D02*
X121327381Y-112488603D01*
X121327381Y-112488603D02*
X121266904Y-112549080D01*
X121266904Y-112549080D02*
X121145952Y-112609556D01*
X121145952Y-112609556D02*
X120662142Y-112609556D01*
X121932142Y-112549080D02*
X122355476Y-112549080D01*
X122536904Y-113214318D02*
X121932142Y-113214318D01*
X121932142Y-113214318D02*
X121932142Y-111944318D01*
X121932142Y-111944318D02*
X122536904Y-111944318D01*
X123746429Y-112004794D02*
X123625476Y-111944318D01*
X123625476Y-111944318D02*
X123444048Y-111944318D01*
X123444048Y-111944318D02*
X123262619Y-112004794D01*
X123262619Y-112004794D02*
X123141667Y-112125746D01*
X123141667Y-112125746D02*
X123081190Y-112246699D01*
X123081190Y-112246699D02*
X123020714Y-112488603D01*
X123020714Y-112488603D02*
X123020714Y-112670032D01*
X123020714Y-112670032D02*
X123081190Y-112911937D01*
X123081190Y-112911937D02*
X123141667Y-113032889D01*
X123141667Y-113032889D02*
X123262619Y-113153842D01*
X123262619Y-113153842D02*
X123444048Y-113214318D01*
X123444048Y-113214318D02*
X123565000Y-113214318D01*
X123565000Y-113214318D02*
X123746429Y-113153842D01*
X123746429Y-113153842D02*
X123806905Y-113093365D01*
X123806905Y-113093365D02*
X123806905Y-112670032D01*
X123806905Y-112670032D02*
X123565000Y-112670032D01*
X142463333Y-144574318D02*
X142039999Y-143969556D01*
X141737618Y-144574318D02*
X141737618Y-143304318D01*
X141737618Y-143304318D02*
X142221428Y-143304318D01*
X142221428Y-143304318D02*
X142342380Y-143364794D01*
X142342380Y-143364794D02*
X142402857Y-143425270D01*
X142402857Y-143425270D02*
X142463333Y-143546222D01*
X142463333Y-143546222D02*
X142463333Y-143727651D01*
X142463333Y-143727651D02*
X142402857Y-143848603D01*
X142402857Y-143848603D02*
X142342380Y-143909080D01*
X142342380Y-143909080D02*
X142221428Y-143969556D01*
X142221428Y-143969556D02*
X141737618Y-143969556D01*
X143551904Y-143304318D02*
X143309999Y-143304318D01*
X143309999Y-143304318D02*
X143189047Y-143364794D01*
X143189047Y-143364794D02*
X143128571Y-143425270D01*
X143128571Y-143425270D02*
X143007618Y-143606699D01*
X143007618Y-143606699D02*
X142947142Y-143848603D01*
X142947142Y-143848603D02*
X142947142Y-144332413D01*
X142947142Y-144332413D02*
X143007618Y-144453365D01*
X143007618Y-144453365D02*
X143068095Y-144513842D01*
X143068095Y-144513842D02*
X143189047Y-144574318D01*
X143189047Y-144574318D02*
X143430952Y-144574318D01*
X143430952Y-144574318D02*
X143551904Y-144513842D01*
X143551904Y-144513842D02*
X143612380Y-144453365D01*
X143612380Y-144453365D02*
X143672857Y-144332413D01*
X143672857Y-144332413D02*
X143672857Y-144030032D01*
X143672857Y-144030032D02*
X143612380Y-143909080D01*
X143612380Y-143909080D02*
X143551904Y-143848603D01*
X143551904Y-143848603D02*
X143430952Y-143788127D01*
X143430952Y-143788127D02*
X143189047Y-143788127D01*
X143189047Y-143788127D02*
X143068095Y-143848603D01*
X143068095Y-143848603D02*
X143007618Y-143909080D01*
X143007618Y-143909080D02*
X142947142Y-144030032D01*
D12*
%TO.C,BC*%
X129850000Y-120625000D02*
G75*
G02*
X129650000Y-120625000I-100000J0D01*
G01*
X129650000Y-120625000D02*
G75*
G02*
X129850000Y-120625000I100000J0D01*
G01*
X130550000Y-118925000D02*
X130550000Y-117525000D01*
X128950000Y-118925000D02*
X128950000Y-117525000D01*
X129850000Y-120625000D02*
X129850000Y-120625000D01*
X129650000Y-120625000D02*
X129650000Y-120625000D01*
%TO.C,S4*%
X111750000Y-126050000D02*
X111750000Y-128450000D01*
X112250000Y-124250000D02*
X117250000Y-124250000D01*
X112250000Y-130250000D02*
X117250000Y-130250000D01*
X117750000Y-126050000D02*
X117750000Y-128450000D01*
X119379880Y-130523000D02*
G75*
G02*
X119174120Y-130523000I-102880J0D01*
G01*
X119174120Y-130523000D02*
G75*
G02*
X119379880Y-130523000I102880J0D01*
G01*
%TO.C,S5*%
X130250000Y-126050000D02*
X130250000Y-128450000D01*
X130750000Y-124250000D02*
X135750000Y-124250000D01*
X130750000Y-130250000D02*
X135750000Y-130250000D01*
X136250000Y-126050000D02*
X136250000Y-128450000D01*
X137879880Y-130523000D02*
G75*
G02*
X137674120Y-130523000I-102880J0D01*
G01*
X137674120Y-130523000D02*
G75*
G02*
X137879880Y-130523000I102880J0D01*
G01*
%TO.C,S3*%
X137879880Y-149023000D02*
G75*
G02*
X137674120Y-149023000I-102880J0D01*
G01*
X137674120Y-149023000D02*
G75*
G02*
X137879880Y-149023000I102880J0D01*
G01*
X136250000Y-144550000D02*
X136250000Y-146950000D01*
X130750000Y-148750000D02*
X135750000Y-148750000D01*
X130750000Y-142750000D02*
X135750000Y-142750000D01*
X130250000Y-144550000D02*
X130250000Y-146950000D01*
D13*
%TO.C,TX TEST*%
X154180000Y-102680000D02*
X156580000Y-102680000D01*
X154180000Y-105080000D02*
X154180000Y-102680000D01*
X156580000Y-102680000D02*
X156580000Y-105080000D01*
X156580000Y-105080000D02*
X154180000Y-105080000D01*
D12*
%TO.C,J2*%
X150570000Y-106240000D02*
X150570000Y-104840000D01*
X150570000Y-106240000D02*
X148945000Y-106240000D01*
X149345000Y-101990000D02*
X143545000Y-101990000D01*
X142320000Y-106240000D02*
X143945000Y-106240000D01*
X142320000Y-106240000D02*
X142320000Y-104840000D01*
%TO.C,S2*%
X156379880Y-130523000D02*
G75*
G02*
X156174120Y-130523000I-102880J0D01*
G01*
X156174120Y-130523000D02*
G75*
G02*
X156379880Y-130523000I102880J0D01*
G01*
X154750000Y-126050000D02*
X154750000Y-128450000D01*
X149250000Y-130250000D02*
X154250000Y-130250000D01*
X149250000Y-124250000D02*
X154250000Y-124250000D01*
X148750000Y-126050000D02*
X148750000Y-128450000D01*
%TO.C,R2*%
X144600000Y-129775000D02*
X144600000Y-129775000D01*
X144400000Y-129775000D02*
X144400000Y-129775000D01*
X144600000Y-129775000D02*
G75*
G02*
X144400000Y-129775000I-100000J0D01*
G01*
X144400000Y-129775000D02*
G75*
G02*
X144600000Y-129775000I100000J0D01*
G01*
%TO.C,R4*%
X107400000Y-125575000D02*
X107400000Y-125575000D01*
X107600000Y-125575000D02*
X107600000Y-125575000D01*
X107400000Y-125575000D02*
G75*
G02*
X107600000Y-125575000I100000J0D01*
G01*
X107600000Y-125575000D02*
G75*
G02*
X107400000Y-125575000I-100000J0D01*
G01*
%TO.C,R3*%
X126100000Y-148275000D02*
X126100000Y-148275000D01*
X125900000Y-148275000D02*
X125900000Y-148275000D01*
X126100000Y-148275000D02*
G75*
G02*
X125900000Y-148275000I-100000J0D01*
G01*
X125900000Y-148275000D02*
G75*
G02*
X126100000Y-148275000I100000J0D01*
G01*
%TO.C,S1*%
X130250000Y-107550000D02*
X130250000Y-109950000D01*
X130750000Y-105750000D02*
X135750000Y-105750000D01*
X130750000Y-111750000D02*
X135750000Y-111750000D01*
X136250000Y-107550000D02*
X136250000Y-109950000D01*
X137879880Y-112023000D02*
G75*
G02*
X137674120Y-112023000I-102880J0D01*
G01*
X137674120Y-112023000D02*
G75*
G02*
X137879880Y-112023000I102880J0D01*
G01*
%TO.C,Q1*%
X110750000Y-116750000D02*
X112050000Y-116750000D01*
X112400000Y-116790000D02*
X112500000Y-116790000D01*
X112400000Y-119710000D02*
X112400000Y-116790000D01*
X112500000Y-116790000D02*
X112500000Y-119710000D01*
X112500000Y-119710000D02*
X112400000Y-119710000D01*
%TO.C,R1*%
X125650000Y-107075000D02*
X125650000Y-107075000D01*
X125850000Y-107075000D02*
X125850000Y-107075000D01*
X125650000Y-107075000D02*
G75*
G02*
X125850000Y-107075000I100000J0D01*
G01*
X125850000Y-107075000D02*
G75*
G02*
X125650000Y-107075000I-100000J0D01*
G01*
%TO.C,R5*%
X126100000Y-129775000D02*
X126100000Y-129775000D01*
X125900000Y-129775000D02*
X125900000Y-129775000D01*
X126100000Y-129775000D02*
G75*
G02*
X125900000Y-129775000I-100000J0D01*
G01*
X125900000Y-129775000D02*
G75*
G02*
X126100000Y-129775000I100000J0D01*
G01*
%TO.C,J1*%
X141610000Y-108470000D02*
X141610000Y-109840000D01*
X141610000Y-118830000D02*
X151970000Y-118830000D01*
X151970000Y-108470000D02*
X141610000Y-108470000D01*
%TO.C,PWR*%
X144250000Y-150050000D02*
X144250000Y-147950000D01*
X144250000Y-147950000D02*
X141550000Y-147950000D01*
X141550000Y-150050000D02*
X144250000Y-150050000D01*
%TO.C,VREG*%
X117650000Y-114135000D02*
X118950000Y-114135000D01*
X119898000Y-113998000D02*
X123402000Y-113998000D01*
X119898000Y-120502000D02*
X119898000Y-113998000D01*
X123402000Y-113998000D02*
X123402000Y-120502000D01*
X123402000Y-120502000D02*
X119898000Y-120502000D01*
%TO.C,R6*%
X140475000Y-143900000D02*
X140475000Y-143900000D01*
X140475000Y-144100000D02*
X140475000Y-144100000D01*
X142675000Y-143475000D02*
X142675000Y-144525000D01*
X140475000Y-143900000D02*
G75*
G02*
X140475000Y-144100000I0J-100000D01*
G01*
X140475000Y-144100000D02*
G75*
G02*
X140475000Y-143900000I0J100000D01*
G01*
%TD*%
M02*
