%TF.GenerationSoftware,KiCad,Pcbnew,9.0.7*%
%TF.CreationDate,2026-03-07T16:05:12-07:00*%
%TF.ProjectId,controller_pcb,636f6e74-726f-46c6-9c65-725f7063622e,rev?*%
%TF.SameCoordinates,Original*%
%TF.FileFunction,Soldermask,Top*%
%TF.FilePolarity,Negative*%
%FSLAX46Y46*%
G04 Gerber Fmt 4.6, Leading zero omitted, Abs format (unit mm)*
G04 Created by KiCad (PCBNEW 9.0.7) date 2026-03-07 16:05:12*
%MOMM*%
%LPD*%
G01*
G04 APERTURE LIST*
%ADD10R,1.600000X1.050000*%
%ADD11C,1.650000*%
%ADD12R,2.000000X2.000000*%
%ADD13R,0.600000X1.700000*%
%ADD14R,1.000000X2.700000*%
%ADD15R,0.980000X1.430000*%
%ADD16R,1.400000X1.150000*%
%ADD17C,3.200000*%
%ADD18R,1.300000X0.600000*%
%ADD19R,1.575000X1.575000*%
%ADD20C,1.575000*%
%ADD21R,0.900000X1.400000*%
%ADD22R,1.300000X0.950000*%
%ADD23R,1.300000X3.250000*%
%ADD24R,1.150000X1.150000*%
G04 APERTURE END LIST*
D10*
%TO.C,BC*%
X129750000Y-116750000D03*
X129750000Y-119700000D03*
%TD*%
D11*
%TO.C,S4*%
X118000000Y-129500000D03*
X111500000Y-129500000D03*
X118000000Y-125000000D03*
X111500000Y-125000000D03*
%TD*%
%TO.C,S5*%
X136500000Y-129500000D03*
X130000000Y-129500000D03*
X136500000Y-125000000D03*
X130000000Y-125000000D03*
%TD*%
%TO.C,S3*%
X130000000Y-143500000D03*
X136500000Y-143500000D03*
X130000000Y-148000000D03*
X136500000Y-148000000D03*
%TD*%
D12*
%TO.C,TX TEST*%
X155380000Y-103880000D03*
%TD*%
D13*
%TO.C,J2*%
X148320000Y-106440000D03*
X147070000Y-106440000D03*
X145820000Y-106440000D03*
X144570000Y-106440000D03*
D14*
X150170000Y-103240000D03*
X142720000Y-103240000D03*
%TD*%
D15*
%TO.C,C5*%
X134050000Y-132000000D03*
X132450000Y-132000000D03*
%TD*%
%TO.C,C4*%
X115300000Y-132000000D03*
X113700000Y-132000000D03*
%TD*%
%TO.C,C3*%
X134000000Y-150500000D03*
X132400000Y-150500000D03*
%TD*%
%TO.C,C2*%
X152800000Y-132000000D03*
X151200000Y-132000000D03*
%TD*%
%TO.C,C1*%
X134300000Y-113500000D03*
X132700000Y-113500000D03*
%TD*%
D11*
%TO.C,S2*%
X148500000Y-125000000D03*
X155000000Y-125000000D03*
X148500000Y-129500000D03*
X155000000Y-129500000D03*
%TD*%
D16*
%TO.C,R2*%
X144500000Y-128850000D03*
X144500000Y-126500000D03*
%TD*%
%TO.C,R4*%
X107500000Y-126500000D03*
X107500000Y-128850000D03*
%TD*%
%TO.C,R3*%
X126000000Y-147350000D03*
X126000000Y-145000000D03*
%TD*%
D11*
%TO.C,S1*%
X136500000Y-111000000D03*
X130000000Y-111000000D03*
X136500000Y-106500000D03*
X130000000Y-106500000D03*
%TD*%
D17*
%TO.C,REF\u002A\u002A*%
X110500000Y-110000000D03*
%TD*%
D18*
%TO.C,Q1*%
X111400000Y-117300000D03*
X111400000Y-119200000D03*
X113500000Y-118250000D03*
%TD*%
D17*
%TO.C,REF\u002A\u002A*%
X110500000Y-144500000D03*
%TD*%
D16*
%TO.C,R1*%
X125750000Y-108000000D03*
X125750000Y-110350000D03*
%TD*%
%TO.C,R5*%
X126000000Y-128850000D03*
X126000000Y-126500000D03*
%TD*%
D17*
%TO.C,REF\u002A\u002A*%
X156000000Y-144500000D03*
%TD*%
D19*
%TO.C,J1*%
X142980000Y-109840000D03*
D20*
X142980000Y-112380000D03*
X142980000Y-114920000D03*
X142980000Y-117460000D03*
X150600000Y-117460000D03*
X150600000Y-114920000D03*
X150600000Y-112380000D03*
X150600000Y-109840000D03*
%TD*%
D21*
%TO.C,PWR*%
X143450000Y-149000000D03*
X141550000Y-149000000D03*
%TD*%
D22*
%TO.C,VREG*%
X118300000Y-114960000D03*
X118300000Y-117250000D03*
X118300000Y-119540000D03*
D23*
X125000000Y-117250000D03*
%TD*%
D17*
%TO.C,REF\u002A\u002A*%
X156000000Y-110000000D03*
%TD*%
D24*
%TO.C,R6*%
X141500000Y-144000000D03*
X143850000Y-144000000D03*
%TD*%
M02*
