%TF.GenerationSoftware,KiCad,Pcbnew,9.0.7*%
%TF.CreationDate,2026-03-07T16:05:12-07:00*%
%TF.ProjectId,controller_pcb,636f6e74-726f-46c6-9c65-725f7063622e,rev?*%
%TF.SameCoordinates,Original*%
%TF.FileFunction,Legend,Bot*%
%TF.FilePolarity,Positive*%
%FSLAX46Y46*%
G04 Gerber Fmt 4.6, Leading zero omitted, Abs format (unit mm)*
G04 Created by KiCad (PCBNEW 9.0.7) date 2026-03-07 16:05:12*
%MOMM*%
%LPD*%
G01*
G04 APERTURE LIST*
%ADD10C,0.300000*%
%ADD11C,0.000000*%
G04 APERTURE END LIST*
D10*
X135251427Y-125699757D02*
X135394285Y-125628328D01*
X135394285Y-125628328D02*
X135608570Y-125628328D01*
X135608570Y-125628328D02*
X135822856Y-125699757D01*
X135822856Y-125699757D02*
X135965713Y-125842614D01*
X135965713Y-125842614D02*
X136037142Y-125985471D01*
X136037142Y-125985471D02*
X136108570Y-126271185D01*
X136108570Y-126271185D02*
X136108570Y-126485471D01*
X136108570Y-126485471D02*
X136037142Y-126771185D01*
X136037142Y-126771185D02*
X135965713Y-126914042D01*
X135965713Y-126914042D02*
X135822856Y-127056900D01*
X135822856Y-127056900D02*
X135608570Y-127128328D01*
X135608570Y-127128328D02*
X135465713Y-127128328D01*
X135465713Y-127128328D02*
X135251427Y-127056900D01*
X135251427Y-127056900D02*
X135179999Y-126985471D01*
X135179999Y-126985471D02*
X135179999Y-126485471D01*
X135179999Y-126485471D02*
X135465713Y-126485471D01*
X134322856Y-125628328D02*
X134322856Y-125985471D01*
X134679999Y-125842614D02*
X134322856Y-125985471D01*
X134322856Y-125985471D02*
X133965713Y-125842614D01*
X134537142Y-126271185D02*
X134322856Y-125985471D01*
X134322856Y-125985471D02*
X134108570Y-126271185D01*
X133179999Y-125628328D02*
X133179999Y-125985471D01*
X133537142Y-125842614D02*
X133179999Y-125985471D01*
X133179999Y-125985471D02*
X132822856Y-125842614D01*
X133394285Y-126271185D02*
X133179999Y-125985471D01*
X133179999Y-125985471D02*
X132965713Y-126271185D01*
X132037142Y-125628328D02*
X132037142Y-125985471D01*
X132394285Y-125842614D02*
X132037142Y-125985471D01*
X132037142Y-125985471D02*
X131679999Y-125842614D01*
X132251428Y-126271185D02*
X132037142Y-125985471D01*
X132037142Y-125985471D02*
X131822856Y-126271185D01*
D11*
%TO.C,G\u002A\u002A\u002A*%
G36*
X143816305Y-124618123D02*
G01*
X143821035Y-124969159D01*
X143824996Y-125368432D01*
X143828306Y-125820297D01*
X143831084Y-126329109D01*
X143833446Y-126899223D01*
X143835512Y-127534995D01*
X143837398Y-128240781D01*
X143839223Y-129020935D01*
X143841105Y-129879814D01*
X143843161Y-130821772D01*
X143844331Y-131374179D01*
X143845733Y-132153880D01*
X143846094Y-132354930D01*
X143847257Y-133251505D01*
X143847812Y-134066038D01*
X143847749Y-134800661D01*
X143847687Y-134859143D01*
X143847058Y-135457506D01*
X143845731Y-136038707D01*
X143843758Y-136546394D01*
X143841130Y-136982703D01*
X143837837Y-137349763D01*
X143833872Y-137649709D01*
X143829223Y-137884673D01*
X143823882Y-138056788D01*
X143817841Y-138168185D01*
X143811088Y-138220998D01*
X143762980Y-138384939D01*
X133915131Y-138384939D01*
X133740846Y-138384937D01*
X132605799Y-138384807D01*
X131555124Y-138384464D01*
X130586150Y-138383895D01*
X129696207Y-138383086D01*
X128882625Y-138382023D01*
X128142732Y-138380690D01*
X127473859Y-138379075D01*
X126873334Y-138377163D01*
X126338487Y-138374939D01*
X125866649Y-138372391D01*
X125455148Y-138369502D01*
X125101313Y-138366261D01*
X124802475Y-138362651D01*
X124555963Y-138358659D01*
X124359106Y-138354272D01*
X124209233Y-138349474D01*
X124103675Y-138344252D01*
X124039761Y-138338591D01*
X124014820Y-138332478D01*
X124012066Y-138327015D01*
X124005216Y-138285974D01*
X123998968Y-138203874D01*
X123993301Y-138077625D01*
X123988192Y-137904134D01*
X123983619Y-137680310D01*
X123979560Y-137403062D01*
X123979164Y-137365978D01*
X125811989Y-137365978D01*
X125817925Y-137416861D01*
X125843607Y-137445864D01*
X125872354Y-137455660D01*
X125979257Y-137469862D01*
X126136202Y-137478791D01*
X126320300Y-137482465D01*
X126508663Y-137480906D01*
X126678406Y-137474130D01*
X126806639Y-137462158D01*
X126870477Y-137445008D01*
X126898041Y-137408863D01*
X126950613Y-137305519D01*
X127004562Y-137169186D01*
X127040560Y-137073565D01*
X127091966Y-136959491D01*
X127130531Y-136899790D01*
X127144043Y-136894431D01*
X127232471Y-136881796D01*
X127387102Y-136870457D01*
X127592815Y-136860910D01*
X127834488Y-136853656D01*
X128097000Y-136849190D01*
X128365230Y-136848011D01*
X128624055Y-136850617D01*
X128848402Y-136854819D01*
X128951938Y-137149913D01*
X129055474Y-137445008D01*
X129580087Y-137445008D01*
X129740863Y-137444671D01*
X129911037Y-137441782D01*
X130018913Y-137433787D01*
X130079386Y-137418163D01*
X130107354Y-137392387D01*
X130117714Y-137353936D01*
X130114047Y-137329225D01*
X130081478Y-137228507D01*
X130019094Y-137064229D01*
X129931087Y-136846657D01*
X129821650Y-136586056D01*
X129694975Y-136292691D01*
X129555256Y-135976828D01*
X129507218Y-135869443D01*
X129354836Y-135528415D01*
X129205510Y-135193680D01*
X129065782Y-134879937D01*
X129008398Y-134750832D01*
X130195556Y-134750832D01*
X130196587Y-135064320D01*
X130202995Y-135383675D01*
X130215127Y-135696299D01*
X130226980Y-135893271D01*
X130259068Y-136201830D01*
X130308722Y-136450160D01*
X130381252Y-136655621D01*
X130481971Y-136835572D01*
X130616187Y-137007376D01*
X130797108Y-137189053D01*
X131034029Y-137353936D01*
X131041606Y-137359209D01*
X131328796Y-137478059D01*
X131482490Y-137519651D01*
X131904343Y-137571633D01*
X132348050Y-137539847D01*
X132811539Y-137424367D01*
X132938692Y-137367168D01*
X133947371Y-137367168D01*
X133965195Y-137432112D01*
X133994581Y-137445747D01*
X134100109Y-137464178D01*
X134256473Y-137476902D01*
X134440871Y-137483637D01*
X134630500Y-137484098D01*
X134802559Y-137478002D01*
X134934244Y-137465067D01*
X135002754Y-137445008D01*
X135028398Y-137411979D01*
X135079126Y-137310318D01*
X135129707Y-137175137D01*
X135161048Y-137087430D01*
X135214952Y-136967921D01*
X135260523Y-136900917D01*
X135268609Y-136896066D01*
X135357443Y-136878088D01*
X135531893Y-136866893D01*
X135792478Y-136862459D01*
X136139719Y-136864764D01*
X136960999Y-136876677D01*
X137074495Y-137160843D01*
X137187991Y-137445008D01*
X137712094Y-137445008D01*
X137868046Y-137444687D01*
X138039765Y-137441841D01*
X138148837Y-137433931D01*
X138210154Y-137418457D01*
X138238609Y-137392918D01*
X138249097Y-137354811D01*
X138243243Y-137322415D01*
X138206810Y-137214284D01*
X138140891Y-137043446D01*
X138049618Y-136819948D01*
X137937122Y-136553840D01*
X137811112Y-136263415D01*
X138560001Y-136263415D01*
X138568160Y-136549966D01*
X138582795Y-136624898D01*
X138687524Y-136889796D01*
X138865674Y-137110726D01*
X139113522Y-137283979D01*
X139295924Y-137354811D01*
X139427344Y-137405845D01*
X139466079Y-137415638D01*
X139597120Y-137439187D01*
X139768282Y-137456948D01*
X139991383Y-137469673D01*
X140278241Y-137478114D01*
X140640672Y-137483023D01*
X140741070Y-137483734D01*
X141029059Y-137484337D01*
X141292366Y-137482864D01*
X141515304Y-137479521D01*
X141682189Y-137474515D01*
X141777333Y-137468052D01*
X141952204Y-137445008D01*
X141963620Y-135611535D01*
X141965071Y-135328690D01*
X141965766Y-134859143D01*
X141963850Y-134468928D01*
X141959351Y-134159660D01*
X141952298Y-133932952D01*
X141942719Y-133790417D01*
X141930642Y-133733669D01*
X141926510Y-133730891D01*
X141852577Y-133716914D01*
X141696643Y-133706606D01*
X141463281Y-133700107D01*
X141157064Y-133697553D01*
X140782565Y-133699083D01*
X140676014Y-133700131D01*
X140288284Y-133706538D01*
X139974274Y-133717640D01*
X139722977Y-133735202D01*
X139523388Y-133760992D01*
X139364500Y-133796777D01*
X139235308Y-133844325D01*
X139124804Y-133905402D01*
X139021982Y-133981777D01*
X138949583Y-134048779D01*
X138800878Y-134249772D01*
X138703091Y-134481279D01*
X138658369Y-134724798D01*
X138668861Y-134961827D01*
X138736712Y-135173862D01*
X138864070Y-135342403D01*
X138881147Y-135358065D01*
X138946602Y-135445383D01*
X138936810Y-135527912D01*
X138850708Y-135628408D01*
X138745085Y-135750036D01*
X138621239Y-135989390D01*
X138560001Y-136263415D01*
X137811112Y-136263415D01*
X137807534Y-136255169D01*
X137664983Y-135933985D01*
X137594803Y-135777518D01*
X137441428Y-135435263D01*
X137292964Y-135103575D01*
X137155595Y-134796292D01*
X137035504Y-134527251D01*
X136938875Y-134310290D01*
X136871892Y-134159249D01*
X136789238Y-133979101D01*
X136706018Y-133821384D01*
X136638917Y-133728365D01*
X136581651Y-133689880D01*
X136546648Y-133683341D01*
X136419220Y-133672587D01*
X136243897Y-133666634D01*
X136047701Y-133665464D01*
X135857650Y-133669062D01*
X135700768Y-133677409D01*
X135604073Y-133690490D01*
X135524815Y-133744244D01*
X135455952Y-133875694D01*
X135453880Y-133881969D01*
X135406034Y-134004907D01*
X135333550Y-134169180D01*
X135251267Y-134341049D01*
X135163541Y-134524829D01*
X135080216Y-134713475D01*
X135019569Y-134865662D01*
X134999448Y-134919708D01*
X134925120Y-135105587D01*
X134825282Y-135343051D01*
X134708630Y-135612391D01*
X134593938Y-135871170D01*
X134583863Y-135893901D01*
X134459677Y-136167873D01*
X134344769Y-136414599D01*
X134247838Y-136614371D01*
X134150193Y-136813809D01*
X134038284Y-137062604D01*
X133971205Y-137245528D01*
X133947371Y-137367168D01*
X132938692Y-137367168D01*
X133102115Y-137293653D01*
X133353452Y-137097702D01*
X133536311Y-136848358D01*
X133648473Y-136548718D01*
X133687719Y-136201877D01*
X133689553Y-135871170D01*
X133191637Y-135871170D01*
X132693721Y-135871170D01*
X132642089Y-136074517D01*
X132620308Y-136151809D01*
X132517306Y-136381741D01*
X132373894Y-136535494D01*
X132186664Y-136615787D01*
X131952207Y-136625342D01*
X131790054Y-136594047D01*
X131591032Y-136492015D01*
X131418933Y-136313524D01*
X131399662Y-136285887D01*
X131371911Y-136231298D01*
X131351752Y-136158702D01*
X131337591Y-136054214D01*
X131327829Y-135903947D01*
X131320872Y-135694018D01*
X131315123Y-135410539D01*
X131301450Y-134628129D01*
X131796018Y-134615742D01*
X132290586Y-134603356D01*
X132303249Y-134191956D01*
X132305280Y-134091815D01*
X132303450Y-133924620D01*
X132295139Y-133802284D01*
X132281390Y-133746042D01*
X132274936Y-133742611D01*
X132200260Y-133729802D01*
X132057699Y-133717512D01*
X131862707Y-133706132D01*
X131630740Y-133696055D01*
X131377253Y-133687674D01*
X131117701Y-133681381D01*
X130867539Y-133677568D01*
X130642223Y-133676628D01*
X130457208Y-133678953D01*
X130327948Y-133684936D01*
X130269900Y-133694970D01*
X130259008Y-133712337D01*
X130238320Y-133807517D01*
X130221286Y-133971555D01*
X130208251Y-134191852D01*
X130199559Y-134455810D01*
X130195556Y-134750832D01*
X129008398Y-134750832D01*
X128942194Y-134601885D01*
X128841287Y-134374221D01*
X128769605Y-134211644D01*
X128699439Y-134058066D01*
X128607821Y-133878349D01*
X128532114Y-133755084D01*
X128479567Y-133701034D01*
X128416161Y-133688512D01*
X128280703Y-133677174D01*
X128103675Y-133670017D01*
X127909975Y-133667337D01*
X127724502Y-133669429D01*
X127572154Y-133676590D01*
X127477830Y-133689116D01*
X127445361Y-133704993D01*
X127363950Y-133801844D01*
X127275359Y-133983614D01*
X127260705Y-134019038D01*
X127183368Y-134203324D01*
X127091781Y-134418570D01*
X127002752Y-134625214D01*
X126973494Y-134692646D01*
X126872391Y-134926247D01*
X126762497Y-135180814D01*
X126662908Y-135412134D01*
X126627691Y-135493161D01*
X126531288Y-135710006D01*
X126414480Y-135968025D01*
X126288914Y-136241591D01*
X126166237Y-136505077D01*
X126052102Y-136750044D01*
X125945856Y-136985248D01*
X125872635Y-137159852D01*
X125829119Y-137283535D01*
X125811989Y-137365978D01*
X123979164Y-137365978D01*
X123975993Y-137069296D01*
X123972895Y-136675922D01*
X123970244Y-136219847D01*
X123968019Y-135697980D01*
X123966197Y-135107229D01*
X123964756Y-134444502D01*
X123963674Y-133706707D01*
X123962929Y-132890752D01*
X123962498Y-131993546D01*
X123962482Y-131881927D01*
X127662732Y-131881927D01*
X127684264Y-131915660D01*
X127748272Y-132013441D01*
X127840644Y-132153244D01*
X127949477Y-132317008D01*
X127993256Y-132382898D01*
X128092507Y-132537639D01*
X128154198Y-132651666D01*
X128187236Y-132748403D01*
X128200527Y-132851274D01*
X128202978Y-132983703D01*
X128202978Y-133269965D01*
X128421567Y-133269965D01*
X128640156Y-133269965D01*
X128640156Y-133237177D01*
X129077951Y-133237177D01*
X129095710Y-133249829D01*
X129178744Y-133264105D01*
X129306851Y-133269447D01*
X129370147Y-133269022D01*
X129471788Y-133260524D01*
X129543428Y-133228436D01*
X129611623Y-133156635D01*
X129702933Y-133028999D01*
X129807139Y-132889817D01*
X129894987Y-132805525D01*
X129953211Y-132800706D01*
X129985466Y-132875368D01*
X129995405Y-133029517D01*
X129995405Y-133269965D01*
X130213994Y-133269965D01*
X130432583Y-133269965D01*
X130432583Y-133263124D01*
X130629757Y-133263124D01*
X130644618Y-133269132D01*
X130725778Y-133282852D01*
X130849366Y-133294390D01*
X130915711Y-133298137D01*
X131010885Y-133292759D01*
X131061319Y-133257740D01*
X131095910Y-133179630D01*
X131112955Y-133133915D01*
X131143859Y-133086798D01*
X131198797Y-133062228D01*
X131298902Y-133052866D01*
X131465308Y-133051376D01*
X131534935Y-133051572D01*
X131676173Y-133056013D01*
X131758461Y-133070904D01*
X131802700Y-133102246D01*
X131829790Y-133156042D01*
X131866942Y-133219269D01*
X131939961Y-133257895D01*
X132072949Y-133276883D01*
X132136806Y-133280350D01*
X132244438Y-133277177D01*
X132295584Y-133261878D01*
X132288356Y-133224942D01*
X132250630Y-133119344D01*
X132186508Y-132959203D01*
X132101393Y-132757944D01*
X132074713Y-132697289D01*
X132408507Y-132697289D01*
X132418723Y-132926010D01*
X132472573Y-133088721D01*
X132577433Y-133198447D01*
X132725853Y-133261878D01*
X132740681Y-133268215D01*
X132989816Y-133312352D01*
X133253677Y-133297141D01*
X133479011Y-133214889D01*
X133656806Y-133070945D01*
X133748046Y-132920223D01*
X133886283Y-132920223D01*
X133886283Y-133095094D01*
X133886283Y-133269965D01*
X134446670Y-133269965D01*
X135007056Y-133269965D01*
X135007119Y-133263398D01*
X135220794Y-133263398D01*
X135230587Y-133267468D01*
X135304131Y-133277959D01*
X135421799Y-133285257D01*
X135543299Y-133281824D01*
X135618844Y-133249274D01*
X135676099Y-133171876D01*
X135692307Y-133144380D01*
X135734353Y-133093185D01*
X135794673Y-133065448D01*
X135896314Y-133053995D01*
X136062322Y-133051653D01*
X136131927Y-133051782D01*
X136270598Y-133056134D01*
X136350956Y-133071428D01*
X136394295Y-133104122D01*
X136421911Y-133160671D01*
X136435254Y-133192182D01*
X136476586Y-133242686D01*
X136551902Y-133264968D01*
X136687813Y-133269965D01*
X136752816Y-133269425D01*
X136851975Y-133261491D01*
X136889424Y-133238515D01*
X136883130Y-133193459D01*
X136870363Y-133162466D01*
X136846270Y-133106738D01*
X137033202Y-133106738D01*
X137096316Y-133181039D01*
X137208326Y-133238515D01*
X137240215Y-133254878D01*
X137257386Y-133261748D01*
X137466270Y-133307850D01*
X137692641Y-133303016D01*
X137911500Y-133252747D01*
X138097848Y-133162540D01*
X138226688Y-133037894D01*
X138241491Y-133013285D01*
X138301198Y-132883354D01*
X138349777Y-132736589D01*
X138369222Y-132568261D01*
X138331135Y-132336096D01*
X138229087Y-132118784D01*
X138072686Y-131943808D01*
X137957820Y-131869149D01*
X137828805Y-131827280D01*
X138564080Y-131827280D01*
X138564080Y-132341645D01*
X138565143Y-132469030D01*
X138570260Y-132568261D01*
X138578295Y-132724057D01*
X138610530Y-132913287D01*
X138666953Y-133051481D01*
X138752674Y-133153398D01*
X138872800Y-133233799D01*
X139045453Y-133293198D01*
X139260105Y-133314037D01*
X139471908Y-133292218D01*
X139643971Y-133228017D01*
X139655438Y-133220911D01*
X139769190Y-133130865D01*
X139850311Y-133016600D01*
X139904485Y-132862453D01*
X139937398Y-132652758D01*
X139954736Y-132371853D01*
X139960206Y-132153880D01*
X139954474Y-131985249D01*
X139930576Y-131879774D01*
X139882506Y-131824855D01*
X139804254Y-131807893D01*
X139689811Y-131816287D01*
X139525870Y-131836846D01*
X139525870Y-132266394D01*
X139524611Y-132373730D01*
X139516334Y-132562750D01*
X139502029Y-132715681D01*
X139483699Y-132806862D01*
X139467486Y-132841020D01*
X139373963Y-132928074D01*
X139246263Y-132950658D01*
X139110233Y-132902176D01*
X139076723Y-132878810D01*
X139040879Y-132841045D01*
X139018664Y-132784296D01*
X139006824Y-132691452D01*
X139002107Y-132545399D01*
X139001257Y-132329026D01*
X139001257Y-131827280D01*
X138782669Y-131827280D01*
X138564080Y-131827280D01*
X137828805Y-131827280D01*
X137727061Y-131794261D01*
X137478646Y-131793835D01*
X137233359Y-131869705D01*
X137112535Y-131936351D01*
X137047031Y-132005262D01*
X137057431Y-132079249D01*
X137139129Y-132173147D01*
X137180751Y-132209587D01*
X137256395Y-132246122D01*
X137332985Y-132224485D01*
X137392953Y-132197248D01*
X137565663Y-132168938D01*
X137722164Y-132207285D01*
X137848210Y-132298886D01*
X137929557Y-132430334D01*
X137951960Y-132588226D01*
X137901173Y-132759156D01*
X137837260Y-132854664D01*
X137712479Y-132943326D01*
X137554935Y-132953986D01*
X137358687Y-132888055D01*
X137199553Y-132812169D01*
X137097011Y-132940769D01*
X137045079Y-133019273D01*
X137033202Y-133106738D01*
X136846270Y-133106738D01*
X136824638Y-133056702D01*
X136754024Y-132896084D01*
X136665330Y-132696070D01*
X136565364Y-132472116D01*
X136276630Y-131827280D01*
X136054176Y-131827730D01*
X135831722Y-131828181D01*
X135518813Y-132538143D01*
X135429312Y-132743300D01*
X135342349Y-132947425D01*
X135275038Y-133110837D01*
X135232735Y-133220505D01*
X135220794Y-133263398D01*
X135007119Y-133263398D01*
X135014029Y-132548622D01*
X135021002Y-131827280D01*
X134803384Y-131827280D01*
X134585767Y-131827280D01*
X134585767Y-132373751D01*
X134585767Y-132532265D01*
X134585767Y-132920223D01*
X134236025Y-132920223D01*
X133886283Y-132920223D01*
X133748046Y-132920223D01*
X133778048Y-132870661D01*
X133833726Y-132619385D01*
X133837148Y-132532265D01*
X133804680Y-132283955D01*
X133702935Y-132084400D01*
X133528634Y-131926152D01*
X133478527Y-131895899D01*
X133249589Y-131811892D01*
X133001562Y-131791097D01*
X132761279Y-131833190D01*
X132555570Y-131937851D01*
X132529101Y-131958510D01*
X132498479Y-131998649D01*
X132518488Y-132047241D01*
X132594547Y-132131150D01*
X132624437Y-132161978D01*
X132697415Y-132224019D01*
X132758016Y-132232535D01*
X132841075Y-132196803D01*
X132973360Y-132147536D01*
X133143340Y-132145860D01*
X133280464Y-132217422D01*
X133372042Y-132354313D01*
X133405388Y-132548622D01*
X133403467Y-132601375D01*
X133356026Y-132784442D01*
X133250231Y-132904838D01*
X133093113Y-132957255D01*
X132891705Y-132936386D01*
X132825974Y-132901043D01*
X132793340Y-132805830D01*
X132793358Y-132801074D01*
X132805140Y-132736152D01*
X132855303Y-132707845D01*
X132968211Y-132701634D01*
X133018755Y-132701302D01*
X133104626Y-132690287D01*
X133137668Y-132647310D01*
X133143082Y-132550603D01*
X133136399Y-132455488D01*
X133097555Y-132402075D01*
X133000999Y-132377021D01*
X132954766Y-132371322D01*
X132802917Y-132362968D01*
X132640328Y-132364202D01*
X132421739Y-132373933D01*
X132409058Y-132682674D01*
X132408507Y-132697289D01*
X132074713Y-132697289D01*
X132000684Y-132528989D01*
X131686515Y-131827280D01*
X131463938Y-131828026D01*
X131241360Y-131828772D01*
X131135014Y-132079403D01*
X131093864Y-132174864D01*
X131012631Y-132359476D01*
X130926135Y-132553300D01*
X130917088Y-132573572D01*
X130820326Y-132787692D01*
X130744536Y-132958228D01*
X130680185Y-133111703D01*
X130639732Y-133218805D01*
X130629757Y-133263124D01*
X130432583Y-133263124D01*
X130432583Y-132553300D01*
X130431178Y-132299901D01*
X130425691Y-132081944D01*
X130415430Y-131934672D01*
X130399732Y-131849157D01*
X130377935Y-131816469D01*
X130312445Y-131807679D01*
X130178522Y-131805752D01*
X130004443Y-131810832D01*
X129814910Y-131821494D01*
X129634622Y-131836317D01*
X129488283Y-131853879D01*
X129479382Y-131855795D01*
X129400592Y-131872756D01*
X129343451Y-131900588D01*
X129222702Y-132016864D01*
X129153363Y-132174483D01*
X129138843Y-132349697D01*
X129182552Y-132518758D01*
X129287897Y-132657917D01*
X129416935Y-132767211D01*
X129247753Y-132985800D01*
X129168217Y-133092335D01*
X129103155Y-133187966D01*
X129077951Y-133237177D01*
X128640156Y-133237177D01*
X128640156Y-132986136D01*
X128640546Y-132920390D01*
X128646977Y-132807330D01*
X128667961Y-132710340D01*
X128711921Y-132607171D01*
X128787281Y-132475576D01*
X128902462Y-132293309D01*
X128993367Y-132149789D01*
X129082166Y-132005316D01*
X129142512Y-131901960D01*
X129164768Y-131855795D01*
X129146229Y-131844642D01*
X129062217Y-131832143D01*
X128933356Y-131827280D01*
X128907406Y-131827294D01*
X128785900Y-131832063D01*
X128709548Y-131857902D01*
X128648445Y-131922864D01*
X128572685Y-132045001D01*
X128514171Y-132138848D01*
X128450545Y-132228575D01*
X128414387Y-132263590D01*
X128387994Y-132241747D01*
X128327409Y-132162772D01*
X128250850Y-132045868D01*
X128116351Y-131827280D01*
X127872919Y-131827280D01*
X127870894Y-131827280D01*
X127730633Y-131832380D01*
X127665239Y-131849558D01*
X127662732Y-131881927D01*
X123962482Y-131881927D01*
X123962359Y-131011997D01*
X123962438Y-130067355D01*
X123962703Y-129198526D01*
X123963188Y-128408997D01*
X123963928Y-127694686D01*
X123964960Y-127051510D01*
X123966318Y-126475386D01*
X123968037Y-125962230D01*
X123970154Y-125507961D01*
X123972002Y-125218355D01*
X125042852Y-125218355D01*
X125213018Y-125265603D01*
X125388788Y-125304269D01*
X125543213Y-125306225D01*
X125700585Y-125266724D01*
X125792517Y-125245090D01*
X125894647Y-125256570D01*
X126032593Y-125310442D01*
X126091288Y-125334613D01*
X126249818Y-125381960D01*
X126384964Y-125400774D01*
X126394079Y-125400910D01*
X126542546Y-125426530D01*
X126685504Y-125483035D01*
X126710279Y-125496063D01*
X126862234Y-125556376D01*
X127022058Y-125597412D01*
X127032438Y-125599181D01*
X127138121Y-125621780D01*
X127168503Y-125643914D01*
X127134559Y-125672953D01*
X127122831Y-125679030D01*
X127030686Y-125708868D01*
X126885185Y-125732745D01*
X126674972Y-125752114D01*
X126388693Y-125768431D01*
X126225434Y-125782004D01*
X126063119Y-125806983D01*
X125951515Y-125837041D01*
X125843562Y-125863561D01*
X125681992Y-125881676D01*
X125503409Y-125886948D01*
X125406200Y-125885865D01*
X125281985Y-125888650D01*
X125216435Y-125902813D01*
X125190830Y-125934409D01*
X125186455Y-125989494D01*
X125186542Y-125994453D01*
X125200373Y-126095616D01*
X125234444Y-126260349D01*
X125283916Y-126470119D01*
X125343949Y-126706392D01*
X125409702Y-126950637D01*
X125476338Y-127184320D01*
X125539014Y-127388908D01*
X125592893Y-127545868D01*
X125641097Y-127670780D01*
X125744559Y-127912509D01*
X125836375Y-128082736D01*
X125922244Y-128191097D01*
X126007870Y-128247231D01*
X126101833Y-128291840D01*
X126196081Y-128355448D01*
X126221534Y-128375579D01*
X126274050Y-128390021D01*
X126350438Y-128366927D01*
X126475581Y-128301493D01*
X126685226Y-128184320D01*
X126799266Y-128317442D01*
X126846475Y-128364969D01*
X126979370Y-128467436D01*
X127127602Y-128554154D01*
X127341899Y-128657745D01*
X126745072Y-128669908D01*
X126678744Y-128671461D01*
X126470411Y-128679196D01*
X126301990Y-128689783D01*
X126189321Y-128702033D01*
X126148245Y-128714756D01*
X126167883Y-128766089D01*
X126229893Y-128877558D01*
X126325096Y-129032351D01*
X126444065Y-129215949D01*
X126577374Y-129413836D01*
X126715596Y-129611494D01*
X126849304Y-129794405D01*
X126962725Y-129940506D01*
X127113227Y-130124675D01*
X127274213Y-130313815D01*
X127434746Y-130495786D01*
X127583891Y-130658449D01*
X127710711Y-130789667D01*
X127804271Y-130877299D01*
X127853634Y-130909208D01*
X127859057Y-130907828D01*
X127897781Y-130858515D01*
X127939273Y-130760435D01*
X127999528Y-130645293D01*
X128102893Y-130582920D01*
X128217414Y-130554177D01*
X128081833Y-130471725D01*
X128073172Y-130466340D01*
X127968526Y-130384227D01*
X127899430Y-130301784D01*
X127898642Y-130300335D01*
X127827334Y-130216617D01*
X127723016Y-130137744D01*
X127722505Y-130137442D01*
X127618935Y-130048038D01*
X127551433Y-129940731D01*
X127535918Y-129890658D01*
X127537568Y-129826350D01*
X127593511Y-129793586D01*
X127647276Y-129783776D01*
X127724829Y-129796102D01*
X127756377Y-129798909D01*
X127859829Y-129782811D01*
X128012783Y-129746212D01*
X128195186Y-129693487D01*
X128290241Y-129664497D01*
X128509212Y-129601542D01*
X128713806Y-129547265D01*
X128869674Y-129510962D01*
X128965847Y-129488147D01*
X129079846Y-129445355D01*
X129121051Y-129402488D01*
X129094407Y-129349154D01*
X129021159Y-129307847D01*
X128947188Y-129312887D01*
X128918184Y-129313641D01*
X128858345Y-129269311D01*
X128821038Y-129234962D01*
X128746269Y-129204216D01*
X128718113Y-129198634D01*
X128653257Y-129146272D01*
X128626385Y-129114378D01*
X128541791Y-129060209D01*
X128501066Y-129035685D01*
X128465285Y-128970240D01*
X128448823Y-128929954D01*
X128377669Y-128885478D01*
X128327916Y-128860701D01*
X128314605Y-128798585D01*
X128317020Y-128759993D01*
X128266532Y-128706735D01*
X128231139Y-128681881D01*
X128217703Y-128616855D01*
X128220595Y-128575503D01*
X128178521Y-128502576D01*
X128147190Y-128465967D01*
X128115543Y-128370806D01*
X128109659Y-128326393D01*
X128074254Y-128265786D01*
X128061953Y-128247225D01*
X128046499Y-128160487D01*
X128046481Y-128109944D01*
X132193314Y-128109944D01*
X132207577Y-128103853D01*
X132268727Y-128070217D01*
X132335508Y-128042716D01*
X132462705Y-128002003D01*
X132618469Y-127958966D01*
X132756437Y-127917488D01*
X132946541Y-127845012D01*
X133099364Y-127770315D01*
X133115549Y-127760874D01*
X133196018Y-127718566D01*
X133278830Y-127687848D01*
X133380996Y-127665870D01*
X133519525Y-127649785D01*
X133711429Y-127636744D01*
X133973719Y-127623899D01*
X134129253Y-127616744D01*
X134405744Y-127602429D01*
X134618084Y-127587316D01*
X134782108Y-127568762D01*
X134913653Y-127544124D01*
X135028554Y-127510760D01*
X135142647Y-127466027D01*
X135271767Y-127407282D01*
X135279896Y-127403493D01*
X135420411Y-127342204D01*
X135623158Y-127258817D01*
X135869742Y-127160661D01*
X136141773Y-127055068D01*
X136420856Y-126949366D01*
X136493502Y-126922051D01*
X136742654Y-126825688D01*
X136959307Y-126737815D01*
X137131029Y-126663743D01*
X137245389Y-126608779D01*
X137289953Y-126578233D01*
X137292588Y-126554649D01*
X137256623Y-126556775D01*
X137216486Y-126562832D01*
X137115797Y-126549532D01*
X136988402Y-126518494D01*
X136862496Y-126477989D01*
X136766275Y-126436290D01*
X136727935Y-126401669D01*
X136718937Y-126386748D01*
X136662727Y-126390331D01*
X136624728Y-126393694D01*
X136570615Y-126345241D01*
X136549292Y-126310573D01*
X136482811Y-126275128D01*
X136457023Y-126271269D01*
X136421911Y-126234357D01*
X136405129Y-126205083D01*
X136348330Y-126173530D01*
X138577944Y-126173530D01*
X138621723Y-126187693D01*
X138654230Y-126183295D01*
X138717092Y-126143975D01*
X138733174Y-126126559D01*
X138807976Y-126100257D01*
X138833505Y-126095674D01*
X138927877Y-126056717D01*
X139044975Y-125990963D01*
X139096991Y-125959867D01*
X139209386Y-125903859D01*
X139284554Y-125881669D01*
X139315529Y-125876595D01*
X139350999Y-125837951D01*
X139344421Y-125826418D01*
X139278683Y-125803164D01*
X139165199Y-125793636D01*
X139130247Y-125793101D01*
X138988120Y-125783775D01*
X138881033Y-125766679D01*
X138810016Y-125760309D01*
X138782669Y-125804218D01*
X138760995Y-125865774D01*
X138694965Y-125947488D01*
X138641038Y-126007484D01*
X138629009Y-126048606D01*
X138633156Y-126068624D01*
X138602065Y-126129023D01*
X138577944Y-126173530D01*
X136348330Y-126173530D01*
X136334476Y-126165834D01*
X136283381Y-126138699D01*
X136247040Y-126080551D01*
X136230634Y-126042812D01*
X136159605Y-126000155D01*
X136108871Y-125973873D01*
X136072169Y-125907620D01*
X136065069Y-125873459D01*
X136017265Y-125837951D01*
X135984545Y-125826804D01*
X135946169Y-125778696D01*
X135897576Y-125678212D01*
X135830040Y-125510068D01*
X135822095Y-125485625D01*
X135797763Y-125369537D01*
X135780163Y-125228488D01*
X135775078Y-125173166D01*
X135762144Y-125068728D01*
X135750995Y-125021309D01*
X135728491Y-125021677D01*
X135640859Y-125047647D01*
X135506629Y-125097533D01*
X135345660Y-125163419D01*
X135177812Y-125237387D01*
X135022944Y-125311523D01*
X134916580Y-125362680D01*
X134746812Y-125436512D01*
X134607626Y-125488470D01*
X134488425Y-125532585D01*
X134328835Y-125600580D01*
X134320144Y-125604283D01*
X134148589Y-125684817D01*
X134125461Y-125696088D01*
X133933187Y-125781240D01*
X133712795Y-125868486D01*
X133707611Y-125870538D01*
X133492823Y-125946396D01*
X133373395Y-125986518D01*
X133185707Y-126052962D01*
X133185305Y-126053110D01*
X132986304Y-126126442D01*
X132908283Y-126156185D01*
X132794024Y-126199743D01*
X132627705Y-126265652D01*
X132506183Y-126316954D01*
X132448298Y-126346434D01*
X132446179Y-126361584D01*
X132478238Y-126417203D01*
X132491483Y-126443100D01*
X132510322Y-126545617D01*
X132511409Y-126680566D01*
X132508987Y-126748916D01*
X132516219Y-126848164D01*
X132536115Y-126887177D01*
X132552020Y-126893766D01*
X132572637Y-126949772D01*
X132567656Y-127026747D01*
X132536896Y-127080283D01*
X132517272Y-127122558D01*
X132520030Y-127213472D01*
X132521705Y-127292572D01*
X132469334Y-127350774D01*
X132425122Y-127381030D01*
X132445805Y-127436308D01*
X132464995Y-127493290D01*
X132407566Y-127548289D01*
X132359007Y-127594850D01*
X132345769Y-127666351D01*
X132348709Y-127708302D01*
X132305058Y-127778782D01*
X132304026Y-127779561D01*
X132250182Y-127855641D01*
X132211612Y-127969190D01*
X132209052Y-127982329D01*
X132194093Y-128073388D01*
X132193314Y-128109944D01*
X128046481Y-128109944D01*
X128046455Y-128033688D01*
X128048579Y-127970076D01*
X128040530Y-127847062D01*
X128018404Y-127774376D01*
X128003563Y-127745568D01*
X128010441Y-127667311D01*
X128021368Y-127640001D01*
X128041848Y-127536853D01*
X128054769Y-127400422D01*
X128085692Y-127215072D01*
X128177966Y-127040437D01*
X128202492Y-127006629D01*
X128265261Y-126900544D01*
X128290414Y-126824517D01*
X128298725Y-126791245D01*
X128355990Y-126756023D01*
X128386457Y-126749082D01*
X128421567Y-126695779D01*
X128444186Y-126641728D01*
X128515891Y-126572906D01*
X128552738Y-126544676D01*
X128579669Y-126508476D01*
X128595158Y-126454992D01*
X128598372Y-126374448D01*
X128588481Y-126257069D01*
X128564656Y-126093077D01*
X128526064Y-125872699D01*
X128471876Y-125586157D01*
X128401262Y-125223675D01*
X128349391Y-124958951D01*
X128637481Y-124958951D01*
X128642599Y-125032836D01*
X128660350Y-125170884D01*
X128688903Y-125359464D01*
X128726428Y-125584946D01*
X128744803Y-125689491D01*
X128793918Y-125944336D01*
X128837763Y-126122180D01*
X128879941Y-126230391D01*
X128924053Y-126276337D01*
X128973703Y-126267386D01*
X129032493Y-126210904D01*
X129039394Y-126201371D01*
X129052983Y-126156185D01*
X129047021Y-126083268D01*
X129018354Y-125969226D01*
X128963831Y-125800666D01*
X128880300Y-125564193D01*
X128854597Y-125493260D01*
X128779281Y-125289773D01*
X128714488Y-125120983D01*
X128666423Y-125002803D01*
X128641290Y-124951148D01*
X128637481Y-124958951D01*
X128349391Y-124958951D01*
X128321892Y-124818610D01*
X128902745Y-124818610D01*
X128905956Y-124832897D01*
X128933202Y-124916579D01*
X128983729Y-125059663D01*
X129052078Y-125246861D01*
X129132790Y-125462883D01*
X129172173Y-125565632D01*
X129252745Y-125766079D01*
X129322820Y-125927718D01*
X129375963Y-126036086D01*
X129405743Y-126076717D01*
X129406556Y-126076808D01*
X129471724Y-126077354D01*
X129596977Y-126074034D01*
X129755950Y-126067540D01*
X130062965Y-126053110D01*
X130046883Y-125884471D01*
X130041892Y-125838565D01*
X130018421Y-125751792D01*
X129960623Y-125702604D01*
X129862399Y-125669746D01*
X131595951Y-125669746D01*
X131610360Y-125706610D01*
X131696073Y-125748725D01*
X131804035Y-125805067D01*
X131879171Y-125864513D01*
X131910356Y-125895575D01*
X131968056Y-125925387D01*
X131996714Y-125917497D01*
X132000527Y-125868486D01*
X131948270Y-125787418D01*
X131847550Y-125689202D01*
X131817839Y-125664768D01*
X131732042Y-125603634D01*
X131677678Y-125593779D01*
X131629244Y-125628061D01*
X131595951Y-125669746D01*
X129862399Y-125669746D01*
X129842878Y-125663216D01*
X129644137Y-125580682D01*
X129426213Y-125414649D01*
X129261785Y-125195985D01*
X129166829Y-124941738D01*
X129160949Y-124916300D01*
X129120385Y-124840499D01*
X129339639Y-124840499D01*
X129344087Y-124875690D01*
X129388354Y-124996147D01*
X129465056Y-125137163D01*
X129555539Y-125266980D01*
X129641153Y-125353844D01*
X129649772Y-125359877D01*
X129764378Y-125424770D01*
X129876456Y-125466624D01*
X129961600Y-125478561D01*
X129989918Y-125457735D01*
X131845125Y-125457735D01*
X131877248Y-125512455D01*
X131916309Y-125554656D01*
X132000718Y-125618331D01*
X132067015Y-125636533D01*
X132093856Y-125600580D01*
X132058796Y-125531815D01*
X131973009Y-125470597D01*
X131872789Y-125444492D01*
X131853554Y-125453700D01*
X131845125Y-125457735D01*
X129989918Y-125457735D01*
X129995405Y-125453700D01*
X129971526Y-125392491D01*
X129901622Y-125286451D01*
X129801668Y-125157474D01*
X129687825Y-125024386D01*
X129576256Y-124906015D01*
X129483119Y-124821186D01*
X129424578Y-124788726D01*
X129376058Y-124798067D01*
X129339639Y-124840499D01*
X129120385Y-124840499D01*
X129114493Y-124829489D01*
X129021131Y-124796751D01*
X128939747Y-124797052D01*
X128902745Y-124818610D01*
X128321892Y-124818610D01*
X128199633Y-124194668D01*
X128226113Y-123212953D01*
X128233903Y-122880738D01*
X128241067Y-122481317D01*
X128246528Y-122071132D01*
X128249855Y-121682898D01*
X128250619Y-121349331D01*
X128250078Y-121151104D01*
X128248348Y-120900219D01*
X128247844Y-120877139D01*
X128596438Y-120877139D01*
X128596438Y-121871142D01*
X128596438Y-122865146D01*
X128752924Y-122865146D01*
X128784374Y-122865061D01*
X128869536Y-122856692D01*
X128893011Y-122817395D01*
X128875615Y-122723063D01*
X128854886Y-122594116D01*
X128851330Y-122471686D01*
X128853717Y-122437601D01*
X128853860Y-122434747D01*
X134638226Y-122434747D01*
X134643781Y-122465704D01*
X134660395Y-122495696D01*
X134692741Y-122463863D01*
X134753239Y-122362392D01*
X134775115Y-122324035D01*
X134856593Y-122184208D01*
X134925549Y-122069776D01*
X134928722Y-122064594D01*
X134968496Y-121975124D01*
X134966960Y-121920234D01*
X134955186Y-121914139D01*
X134894210Y-121936140D01*
X134813364Y-122006013D01*
X134732916Y-122103801D01*
X134673133Y-122209547D01*
X134643254Y-122318060D01*
X134638226Y-122434747D01*
X128853860Y-122434747D01*
X128859913Y-122314029D01*
X128866795Y-122141772D01*
X128873266Y-121947073D01*
X128877125Y-121856261D01*
X128892479Y-121663936D01*
X128901106Y-121601225D01*
X130164502Y-121601225D01*
X130462484Y-121881555D01*
X130533943Y-121947473D01*
X130661051Y-122057967D01*
X130759357Y-122134608D01*
X130811990Y-122163773D01*
X130818913Y-122163542D01*
X130894269Y-122127641D01*
X130967813Y-122056462D01*
X131000913Y-121986296D01*
X130993226Y-121963690D01*
X130935336Y-121919165D01*
X130894846Y-121881788D01*
X130869760Y-121792330D01*
X130855592Y-121726756D01*
X130790107Y-121665378D01*
X130752042Y-121643897D01*
X130667881Y-121550091D01*
X130584727Y-121410025D01*
X130516721Y-121249566D01*
X130478006Y-121094578D01*
X130471422Y-121054556D01*
X130443192Y-120960208D01*
X130410724Y-120925079D01*
X130403926Y-120928845D01*
X130367012Y-120989649D01*
X130318055Y-121108796D01*
X130265754Y-121265838D01*
X130249631Y-121319244D01*
X130164502Y-121601225D01*
X128901106Y-121601225D01*
X128914521Y-121503708D01*
X128939864Y-121403245D01*
X128945860Y-121388833D01*
X128966863Y-121319244D01*
X128955656Y-121259505D01*
X128901895Y-121186206D01*
X128795236Y-121075937D01*
X128596438Y-120877139D01*
X128247844Y-120877139D01*
X128244301Y-120714995D01*
X128236514Y-120582086D01*
X128223565Y-120488142D01*
X128204033Y-120419817D01*
X128176495Y-120363764D01*
X128139529Y-120306634D01*
X128113683Y-120267977D01*
X128063360Y-120176442D01*
X128059851Y-120126414D01*
X128783267Y-120126414D01*
X128784594Y-120167741D01*
X128830350Y-120242053D01*
X128925383Y-120356045D01*
X129074540Y-120516413D01*
X129282666Y-120729855D01*
X129408546Y-120856193D01*
X129567160Y-121011939D01*
X129697592Y-121135972D01*
X129788919Y-121217964D01*
X129830220Y-121247590D01*
X129868588Y-121213183D01*
X129912124Y-121127366D01*
X129922366Y-121101145D01*
X129967249Y-120989950D01*
X130035496Y-120823390D01*
X130119824Y-120619195D01*
X130212950Y-120395094D01*
X130313995Y-120150445D01*
X130364324Y-120024225D01*
X130782324Y-120024225D01*
X130794630Y-120032892D01*
X130864776Y-120021459D01*
X130976338Y-119980940D01*
X130986434Y-119976662D01*
X131197671Y-119904363D01*
X131424691Y-119852772D01*
X131635919Y-119827515D01*
X131799778Y-119834217D01*
X131929142Y-119866137D01*
X132051368Y-119923850D01*
X132094526Y-119992243D01*
X132098516Y-120020783D01*
X132133595Y-120105988D01*
X132151386Y-120124216D01*
X132201456Y-120127345D01*
X132290159Y-120090255D01*
X132433739Y-120007623D01*
X132437801Y-120005159D01*
X132574710Y-119926208D01*
X132684743Y-119870022D01*
X132744411Y-119848622D01*
X132761737Y-119850268D01*
X132796548Y-119889579D01*
X132774678Y-119970856D01*
X132702338Y-120080202D01*
X132585738Y-120203718D01*
X132541136Y-120245001D01*
X132448196Y-120338544D01*
X132401691Y-120414380D01*
X132387968Y-120503160D01*
X132393373Y-120635534D01*
X132394713Y-120655144D01*
X132423176Y-120845631D01*
X132474316Y-120952465D01*
X132547929Y-120975197D01*
X132562012Y-120975248D01*
X132640377Y-121005264D01*
X132743780Y-121068559D01*
X132776914Y-121092609D01*
X132851323Y-121161697D01*
X132876585Y-121238992D01*
X132869242Y-121363363D01*
X132858024Y-121442004D01*
X132811118Y-121583470D01*
X132721314Y-121671691D01*
X132569659Y-121729856D01*
X132533860Y-121740290D01*
X132431216Y-121790755D01*
X132399880Y-121858200D01*
X132425101Y-121948749D01*
X132459699Y-121986296D01*
X132509603Y-122040453D01*
X132622364Y-122078226D01*
X132656910Y-122086151D01*
X132752550Y-122141620D01*
X132857402Y-122232637D01*
X132907141Y-122282959D01*
X132977335Y-122343125D01*
X133018401Y-122349273D01*
X133049812Y-122309143D01*
X133054165Y-122303990D01*
X134323460Y-122303990D01*
X134336557Y-122374708D01*
X134376700Y-122367275D01*
X134442653Y-122279354D01*
X134533168Y-122112089D01*
X134537249Y-122103838D01*
X134601431Y-121968689D01*
X134643759Y-121869461D01*
X134655252Y-121827115D01*
X134654044Y-121826229D01*
X134617042Y-121850132D01*
X134552319Y-121925765D01*
X134475237Y-122031047D01*
X134401158Y-122143898D01*
X134345445Y-122242239D01*
X134323460Y-122303990D01*
X133054165Y-122303990D01*
X133097976Y-122252121D01*
X133199229Y-122161237D01*
X133327575Y-122062000D01*
X133387149Y-122018387D01*
X133484708Y-121939339D01*
X133566997Y-121855222D01*
X133648414Y-121748177D01*
X133743359Y-121600343D01*
X133866230Y-121393860D01*
X133925360Y-121304998D01*
X134051175Y-121154221D01*
X134198177Y-121008872D01*
X134347954Y-120885082D01*
X134482092Y-120798980D01*
X134582180Y-120766695D01*
X134612404Y-120770715D01*
X134720750Y-120813056D01*
X134840061Y-120886670D01*
X134897853Y-120930575D01*
X135003157Y-121020698D01*
X135043721Y-121079154D01*
X135027189Y-121115283D01*
X135017410Y-121127532D01*
X134990194Y-121206290D01*
X134967722Y-121326765D01*
X134964406Y-121353063D01*
X134958638Y-121462986D01*
X134983248Y-121522958D01*
X135048605Y-121563301D01*
X135103542Y-121582244D01*
X135239363Y-121572612D01*
X135360650Y-121479974D01*
X135462649Y-121307269D01*
X135549750Y-121104071D01*
X135384712Y-120897482D01*
X135316772Y-120812475D01*
X134966502Y-120375503D01*
X134645029Y-119976645D01*
X134355952Y-119620284D01*
X134102867Y-119310801D01*
X133889371Y-119052577D01*
X133719062Y-118849993D01*
X133595537Y-118707431D01*
X133522393Y-118629272D01*
X133503379Y-118611248D01*
X133418502Y-118538388D01*
X133342837Y-118502453D01*
X133244323Y-118494149D01*
X133090903Y-118504181D01*
X132975641Y-118521802D01*
X132811499Y-118562954D01*
X132599674Y-118629298D01*
X132333805Y-118723084D01*
X132007535Y-118846562D01*
X131614504Y-119001983D01*
X131214337Y-119164756D01*
X131148352Y-119191596D01*
X131138481Y-119196375D01*
X131074047Y-119262270D01*
X131002464Y-119396218D01*
X130957481Y-119509638D01*
X130918834Y-119607082D01*
X130888508Y-119691891D01*
X130834040Y-119850107D01*
X130796384Y-119967795D01*
X130782324Y-120024225D01*
X130364324Y-120024225D01*
X130412994Y-119902166D01*
X130480416Y-119718315D01*
X130518729Y-119590327D01*
X130530402Y-119509638D01*
X130517905Y-119467683D01*
X130483706Y-119455898D01*
X130482459Y-119455924D01*
X130396206Y-119476588D01*
X130233426Y-119535088D01*
X129995994Y-119630671D01*
X129685783Y-119762584D01*
X129304664Y-119930072D01*
X129186839Y-119981324D01*
X129023790Y-120048133D01*
X128899662Y-120093931D01*
X128834699Y-120110929D01*
X128821523Y-120111375D01*
X128783267Y-120126414D01*
X128059851Y-120126414D01*
X128058504Y-120107217D01*
X128093221Y-120024388D01*
X128130494Y-119970500D01*
X128244364Y-119881147D01*
X128430881Y-119792678D01*
X128478377Y-119773603D01*
X128615940Y-119718293D01*
X128820996Y-119635806D01*
X128971156Y-119575387D01*
X129558699Y-119575387D01*
X129560910Y-119595523D01*
X129591016Y-119626224D01*
X129601366Y-119624402D01*
X129687711Y-119597054D01*
X129823881Y-119544635D01*
X129991166Y-119475378D01*
X130170856Y-119397520D01*
X130344241Y-119319293D01*
X130492613Y-119248934D01*
X130597261Y-119194677D01*
X130639477Y-119164756D01*
X130638135Y-119160640D01*
X130586013Y-119164451D01*
X130470618Y-119194652D01*
X130306260Y-119247129D01*
X130107251Y-119317768D01*
X130058004Y-119336225D01*
X129862477Y-119414183D01*
X129703959Y-119484785D01*
X129597637Y-119540897D01*
X129558699Y-119575387D01*
X128971156Y-119575387D01*
X129085120Y-119529532D01*
X129399889Y-119402861D01*
X129756876Y-119259184D01*
X130147659Y-119101890D01*
X130560004Y-118935904D01*
X131175784Y-118935904D01*
X131175932Y-118942750D01*
X131181646Y-118959970D01*
X131203662Y-118965223D01*
X131252762Y-118955015D01*
X131339728Y-118925851D01*
X131475344Y-118874239D01*
X131670392Y-118796683D01*
X131935655Y-118689691D01*
X131981964Y-118670966D01*
X132235624Y-118567943D01*
X132419712Y-118491576D01*
X132544284Y-118436848D01*
X132619395Y-118398742D01*
X132655102Y-118372241D01*
X132661458Y-118352326D01*
X132648520Y-118333980D01*
X132643190Y-118332411D01*
X132577290Y-118346617D01*
X132451369Y-118388265D01*
X132281199Y-118450911D01*
X132082551Y-118528108D01*
X131871195Y-118613410D01*
X131662903Y-118700372D01*
X131473445Y-118782548D01*
X131318591Y-118853493D01*
X131214114Y-118906760D01*
X131175784Y-118935904D01*
X130560004Y-118935904D01*
X130563812Y-118934371D01*
X130996911Y-118760016D01*
X131315500Y-118631856D01*
X131776772Y-118446984D01*
X132168116Y-118291547D01*
X132372130Y-118211851D01*
X133154178Y-118211851D01*
X133161472Y-118261044D01*
X133241447Y-118275381D01*
X133255692Y-118275577D01*
X133353106Y-118285853D01*
X133444092Y-118318372D01*
X133495158Y-118352326D01*
X133540602Y-118382542D01*
X133654586Y-118487773D01*
X133797997Y-118643475D01*
X133982784Y-118859058D01*
X134031645Y-118917035D01*
X134210866Y-119129407D01*
X134425596Y-119383529D01*
X134660013Y-119660691D01*
X134898295Y-119942182D01*
X135124619Y-120209294D01*
X135336894Y-120457593D01*
X135529966Y-120677519D01*
X135678897Y-120838871D01*
X135788911Y-120947055D01*
X135865230Y-121007479D01*
X135913076Y-121025550D01*
X135972060Y-121021349D01*
X136068331Y-120996910D01*
X136116005Y-120946797D01*
X136112720Y-120865145D01*
X136056114Y-120746088D01*
X135943824Y-120583759D01*
X135773490Y-120372293D01*
X135542749Y-120105825D01*
X135190996Y-119708981D01*
X134833570Y-119308108D01*
X134527909Y-118968320D01*
X134271316Y-118686719D01*
X134061094Y-118460406D01*
X133894544Y-118286482D01*
X133768970Y-118162047D01*
X133681675Y-118084204D01*
X133629960Y-118050052D01*
X133611838Y-118043721D01*
X133457741Y-118025256D01*
X133309441Y-118057356D01*
X133203828Y-118132853D01*
X133154178Y-118211851D01*
X132372130Y-118211851D01*
X132496382Y-118163313D01*
X132768420Y-118060046D01*
X132991079Y-117979513D01*
X133171211Y-117919482D01*
X133315665Y-117877717D01*
X133431291Y-117851986D01*
X133524940Y-117840055D01*
X133603460Y-117839689D01*
X133673703Y-117848656D01*
X133742519Y-117864722D01*
X133770400Y-117883830D01*
X133855518Y-117962205D01*
X133987851Y-118094517D01*
X134160982Y-118274009D01*
X134368493Y-118493927D01*
X134603967Y-118747513D01*
X134860987Y-119028012D01*
X135133135Y-119328669D01*
X135328511Y-119545348D01*
X135586463Y-119829972D01*
X135822569Y-120088827D01*
X136030757Y-120315345D01*
X136204952Y-120502959D01*
X136339082Y-120645100D01*
X136427074Y-120735201D01*
X136462854Y-120766695D01*
X136490246Y-120756734D01*
X136551694Y-120702769D01*
X136556469Y-120697583D01*
X136636233Y-120644636D01*
X136766411Y-120582343D01*
X136916708Y-120522833D01*
X137056827Y-120478232D01*
X137156471Y-120460671D01*
X137178464Y-120458223D01*
X137278922Y-120426620D01*
X137400781Y-120370201D01*
X137421194Y-120359564D01*
X137492469Y-120328931D01*
X137575921Y-120306821D01*
X137686602Y-120291645D01*
X137839563Y-120281815D01*
X138049855Y-120275741D01*
X138332529Y-120271836D01*
X138601722Y-120269478D01*
X138805103Y-120269699D01*
X138947429Y-120273987D01*
X139042068Y-120283738D01*
X139102386Y-120300349D01*
X139141749Y-120325218D01*
X139173524Y-120359742D01*
X139187241Y-120378725D01*
X139243261Y-120497240D01*
X139280789Y-120638279D01*
X139310010Y-120821013D01*
X139545022Y-120801524D01*
X139655353Y-120796059D01*
X139785594Y-120810322D01*
X139880315Y-120857678D01*
X139903662Y-120876690D01*
X139945809Y-120938683D01*
X139942829Y-120946797D01*
X139922938Y-121000961D01*
X139828846Y-121071933D01*
X139766262Y-121104071D01*
X139657328Y-121160011D01*
X139436267Y-121263551D01*
X139456167Y-121725536D01*
X139456350Y-121729777D01*
X139461246Y-121827115D01*
X139466658Y-121934693D01*
X139470265Y-121975124D01*
X139478486Y-122067291D01*
X139495082Y-122142417D01*
X139519697Y-122174916D01*
X139555580Y-122179633D01*
X139601685Y-122184599D01*
X139670089Y-122234280D01*
X139702310Y-122267862D01*
X139790349Y-122296815D01*
X139839355Y-122308810D01*
X139875612Y-122362392D01*
X139889804Y-122399136D01*
X139957694Y-122427968D01*
X140007414Y-122437218D01*
X140093801Y-122493064D01*
X140130606Y-122525704D01*
X140184669Y-122535388D01*
X140185347Y-122534994D01*
X140232648Y-122552349D01*
X140294038Y-122623305D01*
X140361879Y-122700503D01*
X140427111Y-122733992D01*
X140454586Y-122741009D01*
X140487660Y-122798031D01*
X140505463Y-122846175D01*
X140575095Y-122908863D01*
X140627362Y-122953259D01*
X140662531Y-123037911D01*
X140670565Y-123085017D01*
X140712903Y-123136956D01*
X140713720Y-123137244D01*
X140759220Y-123192348D01*
X140805516Y-123309295D01*
X140846054Y-123463289D01*
X140874284Y-123629529D01*
X140883653Y-123783218D01*
X140883044Y-123822260D01*
X140880834Y-123984379D01*
X140879403Y-124120313D01*
X140879346Y-124124871D01*
X140865695Y-124228933D01*
X140835846Y-124286934D01*
X140814730Y-124326885D01*
X140818925Y-124415035D01*
X140824351Y-124486248D01*
X140797226Y-124546089D01*
X140771762Y-124575288D01*
X140749966Y-124660152D01*
X140742121Y-124708508D01*
X140706249Y-124745008D01*
X140680585Y-124762034D01*
X140662531Y-124833815D01*
X140650957Y-124888485D01*
X140596954Y-124947787D01*
X140566595Y-124966118D01*
X140531378Y-125031371D01*
X140507559Y-125086513D01*
X140435650Y-125156842D01*
X140377378Y-125209451D01*
X140365655Y-125249624D01*
X140407779Y-125245334D01*
X140502277Y-125205858D01*
X140624757Y-125142641D01*
X140751874Y-125068585D01*
X140860282Y-124996594D01*
X140926636Y-124939570D01*
X140963518Y-124907664D01*
X141055332Y-124876161D01*
X141081914Y-124871443D01*
X141177515Y-124826996D01*
X141289043Y-124750885D01*
X141324114Y-124724110D01*
X141460736Y-124633466D01*
X141583257Y-124569038D01*
X141607816Y-124559191D01*
X141691668Y-124538356D01*
X141749914Y-124562940D01*
X141797772Y-124646172D01*
X141850463Y-124801280D01*
X141853614Y-124811574D01*
X141879295Y-124918334D01*
X141866824Y-124980057D01*
X141810243Y-125030725D01*
X141779939Y-125057356D01*
X141702252Y-125169005D01*
X141637418Y-125314216D01*
X141598869Y-125458658D01*
X141600036Y-125568001D01*
X141606117Y-125610957D01*
X141572836Y-125686479D01*
X141473189Y-125779941D01*
X141428806Y-125816937D01*
X141407079Y-125837951D01*
X141349650Y-125893495D01*
X141318298Y-125941116D01*
X141317771Y-125944307D01*
X141283318Y-125999722D01*
X141205655Y-126097210D01*
X141099708Y-126217875D01*
X141084534Y-126234569D01*
X140981478Y-126353303D01*
X140908697Y-126446411D01*
X140881120Y-126494966D01*
X140881632Y-126498109D01*
X140924388Y-126507747D01*
X141014869Y-126486261D01*
X141085131Y-126465952D01*
X141167861Y-126473455D01*
X141255316Y-126539874D01*
X141265499Y-126554649D01*
X141332992Y-126652574D01*
X141361191Y-126809860D01*
X141329661Y-126975668D01*
X141246204Y-127129708D01*
X141118626Y-127251692D01*
X140954731Y-127321330D01*
X140952178Y-127321862D01*
X140854587Y-127360390D01*
X140815461Y-127413557D01*
X140800999Y-127480179D01*
X140756230Y-127581195D01*
X140753613Y-127585852D01*
X140719881Y-127685566D01*
X140749727Y-127782943D01*
X140768911Y-127827458D01*
X140769029Y-127889792D01*
X140728875Y-127970856D01*
X140640078Y-128094432D01*
X140563118Y-128189174D01*
X140456700Y-128302771D01*
X140372906Y-128373165D01*
X140306186Y-128433053D01*
X140288505Y-128492318D01*
X140296373Y-128536842D01*
X140266646Y-128660517D01*
X140183888Y-128805204D01*
X140062084Y-128952710D01*
X139915218Y-129084842D01*
X139757276Y-129183407D01*
X139713324Y-129207165D01*
X139583175Y-129295778D01*
X139456494Y-129401698D01*
X139428869Y-129428068D01*
X139350179Y-129513673D01*
X139327870Y-129570928D01*
X139351976Y-129620712D01*
X139377887Y-129668674D01*
X139360167Y-129728209D01*
X139283908Y-129817845D01*
X139256964Y-129844641D01*
X139166402Y-129917975D01*
X139101000Y-129947418D01*
X139072349Y-129951250D01*
X139021544Y-129999832D01*
X139024365Y-130082172D01*
X139083076Y-130170157D01*
X139145978Y-130242426D01*
X139170618Y-130340236D01*
X139110552Y-130428313D01*
X139107157Y-130431148D01*
X139054371Y-130488825D01*
X139067236Y-130524538D01*
X139152825Y-130542300D01*
X139318211Y-130546124D01*
X139483862Y-130553655D01*
X139676704Y-130593199D01*
X139808957Y-130662383D01*
X139868391Y-130756528D01*
X139881899Y-130809346D01*
X139914321Y-130875911D01*
X139941696Y-130870175D01*
X140019481Y-130812316D01*
X140134524Y-130707496D01*
X140275748Y-130566836D01*
X140432081Y-130401456D01*
X140592446Y-130222477D01*
X140745771Y-130041019D01*
X140870131Y-129883786D01*
X141037122Y-129659176D01*
X141200854Y-129425583D01*
X141354320Y-129194296D01*
X141490512Y-128976608D01*
X141602419Y-128783809D01*
X141683035Y-128627192D01*
X141725349Y-128518047D01*
X141722354Y-128467666D01*
X141713512Y-128464014D01*
X141631868Y-128451359D01*
X141493366Y-128442496D01*
X141322323Y-128439156D01*
X141269453Y-128439056D01*
X141116020Y-128437478D01*
X141008867Y-128434380D01*
X140968571Y-128430278D01*
X140983778Y-128419657D01*
X141064454Y-128380782D01*
X141200567Y-128321198D01*
X141376220Y-128248014D01*
X141474576Y-128219846D01*
X141540072Y-128222536D01*
X141547158Y-128225306D01*
X141619095Y-128215839D01*
X141722596Y-128173164D01*
X141736361Y-128165985D01*
X141846600Y-128109542D01*
X141923633Y-128071743D01*
X141966398Y-128028187D01*
X142033497Y-127907030D01*
X142112198Y-127723432D01*
X142198349Y-127490069D01*
X142287797Y-127219621D01*
X142376390Y-126924763D01*
X142459976Y-126618173D01*
X142534402Y-126312530D01*
X142595515Y-126020509D01*
X142608001Y-125952970D01*
X142638590Y-125766699D01*
X142661057Y-125584129D01*
X142676602Y-125387038D01*
X142686420Y-125157204D01*
X142691710Y-124876405D01*
X142693667Y-124526419D01*
X142693708Y-124482407D01*
X142689812Y-124051639D01*
X142678339Y-123677178D01*
X142659728Y-123369325D01*
X142634419Y-123138381D01*
X142573432Y-122733992D01*
X142426760Y-122733992D01*
X142412109Y-122733774D01*
X142318401Y-122719660D01*
X142280087Y-122690275D01*
X142278708Y-122686848D01*
X142221423Y-122669919D01*
X142085255Y-122657251D01*
X141877397Y-122649308D01*
X141605042Y-122646557D01*
X141473787Y-122645818D01*
X141255311Y-122641002D01*
X141077435Y-122632447D01*
X140955767Y-122621022D01*
X140905919Y-122607596D01*
X140905576Y-122606976D01*
X140933901Y-122576731D01*
X141027134Y-122535426D01*
X141165645Y-122491814D01*
X141166272Y-122491644D01*
X141308937Y-122448600D01*
X141410657Y-122409525D01*
X141449450Y-122382858D01*
X141477419Y-122353733D01*
X141555223Y-122331164D01*
X141641366Y-122326611D01*
X141693521Y-122346396D01*
X141701965Y-122356885D01*
X141778321Y-122383146D01*
X141883012Y-122367853D01*
X141977913Y-122315189D01*
X142047625Y-122272813D01*
X142136723Y-122290280D01*
X142190388Y-122308790D01*
X142280355Y-122296649D01*
X142313312Y-122281057D01*
X142373344Y-122278554D01*
X142409601Y-122287501D01*
X142426253Y-122241330D01*
X142410708Y-122127592D01*
X142362297Y-121941986D01*
X142280351Y-121680213D01*
X142181095Y-121396859D01*
X141864947Y-120658498D01*
X141475554Y-119938595D01*
X141022820Y-119252713D01*
X140516651Y-118616416D01*
X139966952Y-118045266D01*
X139606050Y-117706454D01*
X138505805Y-117702903D01*
X138224465Y-117701528D01*
X137945181Y-117698518D01*
X137740162Y-117693700D01*
X137602088Y-117686669D01*
X137523641Y-117677021D01*
X137497501Y-117664351D01*
X137516351Y-117648256D01*
X137536480Y-117638443D01*
X137653592Y-117571135D01*
X137778657Y-117487865D01*
X137865177Y-117432511D01*
X137955798Y-117399657D01*
X138074161Y-117387488D01*
X138249912Y-117389838D01*
X138256275Y-117390057D01*
X138445903Y-117390113D01*
X138566210Y-117373222D01*
X138633626Y-117337129D01*
X138717392Y-117295549D01*
X138849429Y-117285110D01*
X138869036Y-117286430D01*
X138963021Y-117284975D01*
X139001257Y-117270223D01*
X138985425Y-117246384D01*
X138905343Y-117181610D01*
X138769383Y-117089728D01*
X138590747Y-116978633D01*
X138382641Y-116856225D01*
X138158269Y-116730399D01*
X137930837Y-116609054D01*
X137713548Y-116500086D01*
X137490956Y-116396476D01*
X136678981Y-116077936D01*
X135852809Y-115843424D01*
X135017435Y-115692200D01*
X134177859Y-115623519D01*
X133339076Y-115636640D01*
X132506085Y-115730820D01*
X131683882Y-115905318D01*
X130877465Y-116159389D01*
X130091831Y-116492293D01*
X129331978Y-116903287D01*
X128602902Y-117391628D01*
X127909602Y-117956574D01*
X127774839Y-118083947D01*
X127670350Y-118200073D01*
X127622362Y-118278692D01*
X127634450Y-118313669D01*
X127710188Y-118298869D01*
X127751212Y-118292779D01*
X127836919Y-118323101D01*
X127889140Y-118349862D01*
X127962491Y-118318535D01*
X128039103Y-118286429D01*
X128148292Y-118311238D01*
X128191805Y-118325928D01*
X128331238Y-118360525D01*
X128487144Y-118387801D01*
X128666172Y-118432594D01*
X128878286Y-118542757D01*
X128935113Y-118581380D01*
X129048097Y-118643664D01*
X129127083Y-118668244D01*
X129168176Y-118674605D01*
X129234124Y-118718075D01*
X129221320Y-118733808D01*
X129154534Y-118744673D01*
X129026941Y-118750497D01*
X128831913Y-118751418D01*
X128562821Y-118747571D01*
X128213037Y-118739094D01*
X127161152Y-118710281D01*
X126857146Y-119115510D01*
X126852563Y-119121624D01*
X126358708Y-119847435D01*
X125945635Y-120600195D01*
X125610608Y-121386322D01*
X125350887Y-122212232D01*
X125163736Y-123084343D01*
X125142859Y-123236849D01*
X125119261Y-123474361D01*
X125097796Y-123755969D01*
X125080204Y-124058481D01*
X125068221Y-124358704D01*
X125042852Y-125218355D01*
X123972002Y-125218355D01*
X123972703Y-125108496D01*
X123975721Y-124759750D01*
X123979241Y-124457642D01*
X123983300Y-124198089D01*
X123987933Y-123977008D01*
X123993175Y-123790315D01*
X123999062Y-123633928D01*
X124005629Y-123503765D01*
X124012911Y-123395741D01*
X124020945Y-123305775D01*
X124029764Y-123229783D01*
X124174180Y-122392359D01*
X124412045Y-121490120D01*
X124730012Y-120621984D01*
X125126947Y-119790301D01*
X125601715Y-118997418D01*
X126153182Y-118245682D01*
X126780213Y-117537443D01*
X127406923Y-116944752D01*
X128121524Y-116379905D01*
X128881996Y-115883007D01*
X129680589Y-115458609D01*
X130509556Y-115111265D01*
X131361147Y-114845529D01*
X131754303Y-114747521D01*
X132102142Y-114671669D01*
X132424355Y-114616027D01*
X132743501Y-114577906D01*
X133082141Y-114554614D01*
X133462835Y-114543460D01*
X133908142Y-114541755D01*
X134181112Y-114543587D01*
X134475894Y-114548327D01*
X134717768Y-114557013D01*
X134926304Y-114571049D01*
X135121068Y-114591837D01*
X135321630Y-114620780D01*
X135547557Y-114659280D01*
X136079058Y-114768053D01*
X136985939Y-115021324D01*
X137855869Y-115352435D01*
X138685652Y-115759736D01*
X139472092Y-116241578D01*
X140211993Y-116796312D01*
X140902160Y-117422288D01*
X141165093Y-117694667D01*
X141743180Y-118378067D01*
X142260411Y-119113672D01*
X142711487Y-119891788D01*
X143091107Y-120702720D01*
X143393972Y-121536772D01*
X143614780Y-122384251D01*
X143631241Y-122462449D01*
X143656690Y-122582754D01*
X143679838Y-122694676D01*
X143700802Y-122802569D01*
X143719701Y-122910789D01*
X143736653Y-123023691D01*
X143751775Y-123145632D01*
X143765186Y-123280965D01*
X143777003Y-123434047D01*
X143787343Y-123609232D01*
X143796326Y-123810878D01*
X143804069Y-124043337D01*
X143810689Y-124310967D01*
X143813824Y-124482407D01*
X143816305Y-124618123D01*
G37*
G36*
X139239545Y-119251721D02*
G01*
X139373907Y-119317522D01*
X139383529Y-119323277D01*
X139522902Y-119393662D01*
X139671931Y-119452869D01*
X139710411Y-119466555D01*
X139791745Y-119505540D01*
X139811681Y-119533666D01*
X139809645Y-119535261D01*
X139748484Y-119555600D01*
X139627295Y-119582633D01*
X139469940Y-119610963D01*
X139451968Y-119613721D01*
X139310670Y-119629278D01*
X139129107Y-119642196D01*
X138925498Y-119652047D01*
X138718059Y-119658404D01*
X138525006Y-119660841D01*
X138364557Y-119658931D01*
X138254929Y-119652248D01*
X138214338Y-119640366D01*
X138214495Y-119637298D01*
X138256057Y-119579471D01*
X138350467Y-119520324D01*
X138467690Y-119478988D01*
X138472626Y-119477883D01*
X138575168Y-119444726D01*
X138631735Y-119408082D01*
X138668762Y-119383250D01*
X138758393Y-119367727D01*
X138863076Y-119349664D01*
X138985331Y-119302420D01*
X138990535Y-119299719D01*
X139125523Y-119246322D01*
X139239545Y-119251721D01*
G37*
G36*
X140564819Y-135939142D02*
G01*
X140730479Y-135946147D01*
X140843628Y-135956651D01*
X140886809Y-135969535D01*
X140893011Y-136025258D01*
X140899696Y-136146867D01*
X140903655Y-136293606D01*
X140904508Y-136437358D01*
X140901875Y-136550008D01*
X140895376Y-136603442D01*
X140895324Y-136603526D01*
X140846081Y-136616228D01*
X140727271Y-136626626D01*
X140556641Y-136633650D01*
X140351940Y-136636230D01*
X140195880Y-136635868D01*
X140020599Y-136632554D01*
X139903219Y-136623225D01*
X139825953Y-136604860D01*
X139771013Y-136574433D01*
X139720613Y-136528923D01*
X139691450Y-136497067D01*
X139621446Y-136356902D01*
X139638053Y-136211394D01*
X139741096Y-136064537D01*
X139789466Y-136017874D01*
X139843609Y-135978642D01*
X139910583Y-135954673D01*
X140009039Y-135942207D01*
X140157629Y-135937485D01*
X140375003Y-135936746D01*
X140564819Y-135939142D01*
G37*
G36*
X136171423Y-134959969D02*
G01*
X136217486Y-135021603D01*
X136274235Y-135137863D01*
X136350819Y-135322682D01*
X136390788Y-135424163D01*
X136463179Y-135624668D01*
X136500418Y-135763970D01*
X136505196Y-135854228D01*
X136480202Y-135907601D01*
X136474582Y-135910949D01*
X136403192Y-135924068D01*
X136272978Y-135933273D01*
X136107229Y-135936746D01*
X135998323Y-135935638D01*
X135854215Y-135926562D01*
X135772801Y-135905965D01*
X135738178Y-135871017D01*
X135737253Y-135833023D01*
X135758035Y-135722026D01*
X135800581Y-135563847D01*
X135859774Y-135379192D01*
X135883410Y-135311345D01*
X135950144Y-135133408D01*
X136003302Y-135021516D01*
X136050521Y-134961665D01*
X136099442Y-134939850D01*
X136126899Y-134939027D01*
X136171423Y-134959969D01*
G37*
G36*
X132723989Y-116376756D02*
G01*
X132855201Y-116396069D01*
X132928709Y-116421985D01*
X132972092Y-116445883D01*
X133086254Y-116488645D01*
X133230517Y-116529692D01*
X133470965Y-116588477D01*
X133317953Y-116619987D01*
X133289655Y-116624625D01*
X133154035Y-116634821D01*
X132972309Y-116637687D01*
X132775694Y-116632503D01*
X132735689Y-116630599D01*
X132513521Y-116621340D01*
X132294190Y-116614011D01*
X132119928Y-116610059D01*
X131998401Y-116605150D01*
X131923227Y-116594755D01*
X131918985Y-116581328D01*
X131933726Y-116575012D01*
X132024091Y-116527593D01*
X132137574Y-116460217D01*
X132140289Y-116458523D01*
X132256911Y-116401698D01*
X132391836Y-116374108D01*
X132578967Y-116368725D01*
X132723989Y-116376756D01*
G37*
G36*
X140666789Y-134583698D02*
G01*
X140782065Y-134590774D01*
X140847696Y-134606827D01*
X140880498Y-134635356D01*
X140897283Y-134679862D01*
X140911557Y-134744180D01*
X140923740Y-134898218D01*
X140905479Y-135024359D01*
X140859325Y-135094710D01*
X140828865Y-135104207D01*
X140719249Y-135119667D01*
X140557867Y-135131709D01*
X140367500Y-135138313D01*
X140263087Y-135139197D01*
X140040712Y-135131026D01*
X139889616Y-135103488D01*
X139798690Y-135051425D01*
X139756823Y-134969682D01*
X139752906Y-134853104D01*
X139759542Y-134801822D01*
X139794020Y-134709752D01*
X139865641Y-134646749D01*
X139986861Y-134607813D01*
X140170133Y-134587943D01*
X140427914Y-134582141D01*
X140485058Y-134582097D01*
X140666789Y-134583698D01*
G37*
G36*
X128012165Y-134942319D02*
G01*
X128054024Y-134973726D01*
X128100327Y-135047621D01*
X128159314Y-135177318D01*
X128239227Y-135376129D01*
X128306869Y-135555231D01*
X128360914Y-135721702D01*
X128380917Y-135827144D01*
X128369400Y-135881350D01*
X128337916Y-135901601D01*
X128233690Y-135926474D01*
X128088283Y-135938896D01*
X127927288Y-135939215D01*
X127776295Y-135927777D01*
X127660895Y-135904928D01*
X127606681Y-135871017D01*
X127605756Y-135833023D01*
X127626537Y-135722026D01*
X127669084Y-135563847D01*
X127728277Y-135379192D01*
X127754846Y-135303021D01*
X127820587Y-135128485D01*
X127873038Y-135019189D01*
X127919953Y-134960979D01*
X127969088Y-134939700D01*
X128012165Y-134942319D01*
G37*
G36*
X131500893Y-132369621D02*
G01*
X131552771Y-132450699D01*
X131595318Y-132547747D01*
X131612961Y-132633887D01*
X131588501Y-132680785D01*
X131489094Y-132701634D01*
X131397907Y-132694754D01*
X131339652Y-132676059D01*
X131337626Y-132673351D01*
X131336918Y-132612582D01*
X131360884Y-132512160D01*
X131398899Y-132407981D01*
X131440337Y-132335940D01*
X131455257Y-132331394D01*
X131500893Y-132369621D01*
G37*
G36*
X129882887Y-132150447D02*
G01*
X129938988Y-132170091D01*
X129984446Y-132223992D01*
X129995405Y-132333262D01*
X129995405Y-132487836D01*
X129787746Y-132474512D01*
X129724350Y-132469800D01*
X129627515Y-132452567D01*
X129583023Y-132414673D01*
X129566289Y-132341333D01*
X129569023Y-132284184D01*
X129627026Y-132192291D01*
X129738447Y-132143613D01*
X129882887Y-132150447D01*
G37*
G36*
X136079159Y-132349257D02*
G01*
X136134026Y-132432134D01*
X136163707Y-132491954D01*
X136197743Y-132590661D01*
X136178921Y-132644023D01*
X136104958Y-132670781D01*
X136039974Y-132683513D01*
X135981091Y-132695681D01*
X135946725Y-132692671D01*
X135925124Y-132632902D01*
X135950553Y-132512118D01*
X135986168Y-132416049D01*
X136032725Y-132342652D01*
X136079159Y-132349257D01*
G37*
%TD*%
M02*
