%TF.GenerationSoftware,KiCad,Pcbnew,9.0.7*%
%TF.CreationDate,2026-03-07T16:05:12-07:00*%
%TF.ProjectId,controller_pcb,636f6e74-726f-46c6-9c65-725f7063622e,rev?*%
%TF.SameCoordinates,Original*%
%TF.FileFunction,Copper,L2,Bot*%
%TF.FilePolarity,Positive*%
%FSLAX46Y46*%
G04 Gerber Fmt 4.6, Leading zero omitted, Abs format (unit mm)*
G04 Created by KiCad (PCBNEW 9.0.7) date 2026-03-07 16:05:12*
%MOMM*%
%LPD*%
G01*
G04 APERTURE LIST*
%TA.AperFunction,ComponentPad*%
%ADD10C,1.650000*%
%TD*%
%TA.AperFunction,ComponentPad*%
%ADD11R,1.575000X1.575000*%
%TD*%
%TA.AperFunction,ComponentPad*%
%ADD12C,1.575000*%
%TD*%
%TA.AperFunction,ViaPad*%
%ADD13C,0.600000*%
%TD*%
%TA.AperFunction,Conductor*%
%ADD14C,0.200000*%
%TD*%
G04 APERTURE END LIST*
D10*
%TO.P,S4,1,1*%
%TO.N,Net-(C4-Pad1)*%
X118000000Y-129500000D03*
%TO.P,S4,2,2*%
%TO.N,GND*%
X111500000Y-129500000D03*
%TO.P,S4,3,3*%
%TO.N,Net-(J1-Pad2)*%
X118000000Y-125000000D03*
%TO.P,S4,4,4*%
%TO.N,Net-(C4-Pad2)*%
X111500000Y-125000000D03*
%TD*%
%TO.P,S5,1,1*%
%TO.N,Net-(C5-Pad1)*%
X136500000Y-129500000D03*
%TO.P,S5,2,2*%
%TO.N,GND*%
X130000000Y-129500000D03*
%TO.P,S5,3,3*%
%TO.N,Net-(J1-Pad6)*%
X136500000Y-125000000D03*
%TO.P,S5,4,4*%
%TO.N,Net-(C5-Pad2)*%
X130000000Y-125000000D03*
%TD*%
%TO.P,S3,4,4*%
%TO.N,Net-(C3-Pad2)*%
X130000000Y-143500000D03*
%TO.P,S3,3,3*%
%TO.N,Net-(J1-Pad5)*%
X136500000Y-143500000D03*
%TO.P,S3,2,2*%
%TO.N,GND*%
X130000000Y-148000000D03*
%TO.P,S3,1,1*%
%TO.N,Net-(C3-Pad1)*%
X136500000Y-148000000D03*
%TD*%
%TO.P,S2,4,4*%
%TO.N,Net-(C2-Pad2)*%
X148500000Y-125000000D03*
%TO.P,S2,3,3*%
%TO.N,Net-(J1-Pad7)*%
X155000000Y-125000000D03*
%TO.P,S2,2,2*%
%TO.N,GND*%
X148500000Y-129500000D03*
%TO.P,S2,1,1*%
%TO.N,Net-(C2-Pad1)*%
X155000000Y-129500000D03*
%TD*%
%TO.P,S1,1,1*%
%TO.N,Net-(C1-Pad1)*%
X136500000Y-111000000D03*
%TO.P,S1,2,2*%
%TO.N,GND*%
X130000000Y-111000000D03*
%TO.P,S1,3,3*%
%TO.N,Net-(J1-Pad1)*%
X136500000Y-106500000D03*
%TO.P,S1,4,4*%
%TO.N,Net-(C1-Pad2)*%
X130000000Y-106500000D03*
%TD*%
D11*
%TO.P,J1,1,1*%
%TO.N,Net-(J1-Pad1)*%
X142980000Y-109840000D03*
D12*
%TO.P,J1,2,2*%
%TO.N,Net-(J1-Pad2)*%
X142980000Y-112380000D03*
%TO.P,J1,3,3*%
%TO.N,Net-(J1-Pad3)*%
X142980000Y-114920000D03*
%TO.P,J1,4,4*%
%TO.N,GND*%
X142980000Y-117460000D03*
%TO.P,J1,5,5*%
%TO.N,Net-(J1-Pad5)*%
X150600000Y-117460000D03*
%TO.P,J1,6,6*%
%TO.N,Net-(J1-Pad6)*%
X150600000Y-114920000D03*
%TO.P,J1,7,7*%
%TO.N,Net-(J1-Pad7)*%
X150600000Y-112380000D03*
%TO.P,J1,8,8*%
%TO.N,Net-(IC1-VOUT)*%
X150600000Y-109840000D03*
%TD*%
D13*
%TO.N,Net-(J1-Pad5)*%
X127560000Y-141700000D03*
X124970000Y-141740000D03*
X150600000Y-120530000D03*
X156760000Y-120460000D03*
%TO.N,Net-(IC1-VOUT)*%
X145610000Y-124120000D03*
X148020000Y-120350000D03*
X136290000Y-138620000D03*
X141910000Y-138620000D03*
%TO.N,GND*%
X148320000Y-106440000D03*
X129750000Y-116750000D03*
X111400000Y-117300000D03*
X143450000Y-149000000D03*
X118300000Y-114960000D03*
%TO.N,Net-(IC1-VIN)*%
X117000000Y-119500000D03*
X115250000Y-119500000D03*
%TD*%
D14*
%TO.N,Net-(J1-Pad5)*%
X127520000Y-141740000D02*
X127560000Y-141700000D01*
X124970000Y-141740000D02*
X127520000Y-141740000D01*
X156690000Y-120530000D02*
X150600000Y-120530000D01*
X156760000Y-120460000D02*
X156690000Y-120530000D01*
%TO.N,Net-(IC1-VOUT)*%
X148020000Y-121710000D02*
X145610000Y-124120000D01*
X148020000Y-120350000D02*
X148020000Y-121710000D01*
X141910000Y-138620000D02*
X136290000Y-138620000D01*
%TO.N,Net-(IC1-VIN)*%
X115250000Y-119500000D02*
X117000000Y-119500000D01*
%TD*%
%TA.AperFunction,Conductor*%
%TO.N,GND*%
G36*
X160502702Y-101000617D02*
G01*
X160886771Y-101017386D01*
X160897506Y-101018326D01*
X161275971Y-101068152D01*
X161286597Y-101070025D01*
X161659284Y-101152648D01*
X161669710Y-101155442D01*
X162033765Y-101270227D01*
X162043911Y-101273920D01*
X162396578Y-101420000D01*
X162406369Y-101424566D01*
X162744942Y-101600816D01*
X162754310Y-101606224D01*
X163076244Y-101811318D01*
X163085105Y-101817523D01*
X163387930Y-102049889D01*
X163396217Y-102056843D01*
X163677635Y-102314715D01*
X163685284Y-102322364D01*
X163943156Y-102603782D01*
X163950110Y-102612069D01*
X164182476Y-102914894D01*
X164188681Y-102923755D01*
X164393775Y-103245689D01*
X164399183Y-103255057D01*
X164575430Y-103593623D01*
X164580002Y-103603427D01*
X164726075Y-103956078D01*
X164729775Y-103966244D01*
X164844554Y-104330278D01*
X164847354Y-104340727D01*
X164929971Y-104713389D01*
X164931849Y-104724042D01*
X164981671Y-105102473D01*
X164982614Y-105113249D01*
X164999382Y-105497297D01*
X164999500Y-105502706D01*
X164999500Y-148997293D01*
X164999382Y-149002702D01*
X164982614Y-149386750D01*
X164981671Y-149397526D01*
X164931849Y-149775957D01*
X164929971Y-149786610D01*
X164847354Y-150159272D01*
X164844554Y-150169721D01*
X164729775Y-150533755D01*
X164726075Y-150543921D01*
X164580002Y-150896572D01*
X164575430Y-150906376D01*
X164399183Y-151244942D01*
X164393775Y-151254310D01*
X164188681Y-151576244D01*
X164182476Y-151585105D01*
X163950110Y-151887930D01*
X163943156Y-151896217D01*
X163685284Y-152177635D01*
X163677635Y-152185284D01*
X163396217Y-152443156D01*
X163387930Y-152450110D01*
X163085105Y-152682476D01*
X163076244Y-152688681D01*
X162754310Y-152893775D01*
X162744942Y-152899183D01*
X162406376Y-153075430D01*
X162396572Y-153080002D01*
X162043921Y-153226075D01*
X162033755Y-153229775D01*
X161669721Y-153344554D01*
X161659272Y-153347354D01*
X161286610Y-153429971D01*
X161275957Y-153431849D01*
X160897526Y-153481671D01*
X160886750Y-153482614D01*
X160502703Y-153499382D01*
X160497294Y-153499500D01*
X106002706Y-153499500D01*
X105997297Y-153499382D01*
X105613249Y-153482614D01*
X105602473Y-153481671D01*
X105224042Y-153431849D01*
X105213389Y-153429971D01*
X104840727Y-153347354D01*
X104830278Y-153344554D01*
X104466244Y-153229775D01*
X104456078Y-153226075D01*
X104103427Y-153080002D01*
X104093623Y-153075430D01*
X103755057Y-152899183D01*
X103745689Y-152893775D01*
X103423755Y-152688681D01*
X103414894Y-152682476D01*
X103112069Y-152450110D01*
X103103782Y-152443156D01*
X102822364Y-152185284D01*
X102814715Y-152177635D01*
X102556843Y-151896217D01*
X102549889Y-151887930D01*
X102317523Y-151585105D01*
X102311318Y-151576244D01*
X102106224Y-151254310D01*
X102100816Y-151244942D01*
X101924569Y-150906376D01*
X101919997Y-150896572D01*
X101773924Y-150543921D01*
X101770224Y-150533755D01*
X101655442Y-150169710D01*
X101652648Y-150159284D01*
X101570025Y-149786597D01*
X101568152Y-149775971D01*
X101518326Y-149397506D01*
X101517386Y-149386771D01*
X101500618Y-149002702D01*
X101500500Y-148997293D01*
X101500500Y-147895675D01*
X135174500Y-147895675D01*
X135174500Y-148104324D01*
X135207137Y-148310389D01*
X135271612Y-148508820D01*
X135366330Y-148694714D01*
X135488965Y-148863505D01*
X135636495Y-149011035D01*
X135805286Y-149133670D01*
X135893116Y-149178421D01*
X135991179Y-149228387D01*
X135991181Y-149228387D01*
X135991184Y-149228389D01*
X136097545Y-149262948D01*
X136189610Y-149292862D01*
X136395676Y-149325500D01*
X136395681Y-149325500D01*
X136604324Y-149325500D01*
X136810389Y-149292862D01*
X137008816Y-149228389D01*
X137194714Y-149133670D01*
X137363505Y-149011035D01*
X137511035Y-148863505D01*
X137633670Y-148694714D01*
X137728389Y-148508816D01*
X137792862Y-148310389D01*
X137825500Y-148104324D01*
X137825500Y-147895675D01*
X137792862Y-147689610D01*
X137728387Y-147491179D01*
X137633669Y-147305285D01*
X137511035Y-147136495D01*
X137363505Y-146988965D01*
X137194714Y-146866330D01*
X137008820Y-146771612D01*
X136810389Y-146707137D01*
X136604324Y-146674500D01*
X136604319Y-146674500D01*
X136395681Y-146674500D01*
X136395676Y-146674500D01*
X136189610Y-146707137D01*
X135991179Y-146771612D01*
X135805285Y-146866330D01*
X135636493Y-146988966D01*
X135488966Y-147136493D01*
X135366330Y-147305285D01*
X135271612Y-147491179D01*
X135207137Y-147689610D01*
X135174500Y-147895675D01*
X101500500Y-147895675D01*
X101500500Y-144378711D01*
X108649500Y-144378711D01*
X108649500Y-144621288D01*
X108681161Y-144861785D01*
X108743947Y-145096104D01*
X108836773Y-145320205D01*
X108836776Y-145320212D01*
X108958064Y-145530289D01*
X108958066Y-145530292D01*
X108958067Y-145530293D01*
X109105733Y-145722736D01*
X109105739Y-145722743D01*
X109277256Y-145894260D01*
X109277262Y-145894265D01*
X109469711Y-146041936D01*
X109679788Y-146163224D01*
X109903900Y-146256054D01*
X110138211Y-146318838D01*
X110318586Y-146342584D01*
X110378711Y-146350500D01*
X110378712Y-146350500D01*
X110621289Y-146350500D01*
X110669388Y-146344167D01*
X110861789Y-146318838D01*
X111096100Y-146256054D01*
X111320212Y-146163224D01*
X111530289Y-146041936D01*
X111722738Y-145894265D01*
X111894265Y-145722738D01*
X112041936Y-145530289D01*
X112163224Y-145320212D01*
X112256054Y-145096100D01*
X112318838Y-144861789D01*
X112350500Y-144621288D01*
X112350500Y-144378712D01*
X112318838Y-144138211D01*
X112256054Y-143903900D01*
X112163224Y-143679788D01*
X112041936Y-143469711D01*
X112039314Y-143466294D01*
X112039314Y-143466293D01*
X111985127Y-143395675D01*
X128674500Y-143395675D01*
X128674500Y-143604324D01*
X128707137Y-143810389D01*
X128771612Y-144008820D01*
X128837542Y-144138214D01*
X128866330Y-144194714D01*
X128988965Y-144363505D01*
X129136495Y-144511035D01*
X129305286Y-144633670D01*
X129393116Y-144678421D01*
X129491179Y-144728387D01*
X129491181Y-144728387D01*
X129491184Y-144728389D01*
X129597545Y-144762948D01*
X129689610Y-144792862D01*
X129895676Y-144825500D01*
X129895681Y-144825500D01*
X130104324Y-144825500D01*
X130310389Y-144792862D01*
X130508816Y-144728389D01*
X130694714Y-144633670D01*
X130863505Y-144511035D01*
X131011035Y-144363505D01*
X131133670Y-144194714D01*
X131228389Y-144008816D01*
X131292862Y-143810389D01*
X131325500Y-143604324D01*
X131325500Y-143395675D01*
X135174500Y-143395675D01*
X135174500Y-143604324D01*
X135207137Y-143810389D01*
X135271612Y-144008820D01*
X135337542Y-144138214D01*
X135366330Y-144194714D01*
X135488965Y-144363505D01*
X135636495Y-144511035D01*
X135805286Y-144633670D01*
X135893116Y-144678421D01*
X135991179Y-144728387D01*
X135991181Y-144728387D01*
X135991184Y-144728389D01*
X136097545Y-144762948D01*
X136189610Y-144792862D01*
X136395676Y-144825500D01*
X136395681Y-144825500D01*
X136604324Y-144825500D01*
X136810389Y-144792862D01*
X137008816Y-144728389D01*
X137194714Y-144633670D01*
X137363505Y-144511035D01*
X137495829Y-144378711D01*
X154149500Y-144378711D01*
X154149500Y-144621288D01*
X154181161Y-144861785D01*
X154243947Y-145096104D01*
X154336773Y-145320205D01*
X154336776Y-145320212D01*
X154458064Y-145530289D01*
X154458066Y-145530292D01*
X154458067Y-145530293D01*
X154605733Y-145722736D01*
X154605739Y-145722743D01*
X154777256Y-145894260D01*
X154777262Y-145894265D01*
X154969711Y-146041936D01*
X155179788Y-146163224D01*
X155403900Y-146256054D01*
X155638211Y-146318838D01*
X155818586Y-146342584D01*
X155878711Y-146350500D01*
X155878712Y-146350500D01*
X156121289Y-146350500D01*
X156169388Y-146344167D01*
X156361789Y-146318838D01*
X156596100Y-146256054D01*
X156820212Y-146163224D01*
X157030289Y-146041936D01*
X157222738Y-145894265D01*
X157394265Y-145722738D01*
X157541936Y-145530289D01*
X157663224Y-145320212D01*
X157756054Y-145096100D01*
X157818838Y-144861789D01*
X157850500Y-144621288D01*
X157850500Y-144378712D01*
X157818838Y-144138211D01*
X157756054Y-143903900D01*
X157663224Y-143679788D01*
X157541936Y-143469711D01*
X157394265Y-143277262D01*
X157394260Y-143277256D01*
X157222743Y-143105739D01*
X157222736Y-143105733D01*
X157030293Y-142958067D01*
X157030292Y-142958066D01*
X157030289Y-142958064D01*
X156820212Y-142836776D01*
X156820205Y-142836773D01*
X156596104Y-142743947D01*
X156361785Y-142681161D01*
X156121289Y-142649500D01*
X156121288Y-142649500D01*
X155878712Y-142649500D01*
X155878711Y-142649500D01*
X155638214Y-142681161D01*
X155403895Y-142743947D01*
X155179794Y-142836773D01*
X155179785Y-142836777D01*
X154969706Y-142958067D01*
X154777263Y-143105733D01*
X154777256Y-143105739D01*
X154605739Y-143277256D01*
X154605733Y-143277263D01*
X154458067Y-143469706D01*
X154336777Y-143679785D01*
X154336773Y-143679794D01*
X154243947Y-143903895D01*
X154181161Y-144138214D01*
X154149500Y-144378711D01*
X137495829Y-144378711D01*
X137511035Y-144363505D01*
X137633670Y-144194714D01*
X137728389Y-144008816D01*
X137792862Y-143810389D01*
X137825500Y-143604324D01*
X137825500Y-143395675D01*
X137792862Y-143189610D01*
X137728387Y-142991179D01*
X137633669Y-142805285D01*
X137589103Y-142743946D01*
X137511035Y-142636495D01*
X137363505Y-142488965D01*
X137194714Y-142366330D01*
X137144059Y-142340520D01*
X137008820Y-142271612D01*
X136810389Y-142207137D01*
X136604324Y-142174500D01*
X136604319Y-142174500D01*
X136395681Y-142174500D01*
X136395676Y-142174500D01*
X136189610Y-142207137D01*
X135991179Y-142271612D01*
X135805285Y-142366330D01*
X135636493Y-142488966D01*
X135488966Y-142636493D01*
X135366330Y-142805285D01*
X135271612Y-142991179D01*
X135207137Y-143189610D01*
X135174500Y-143395675D01*
X131325500Y-143395675D01*
X131292862Y-143189610D01*
X131228387Y-142991179D01*
X131133669Y-142805285D01*
X131089103Y-142743946D01*
X131011035Y-142636495D01*
X130863505Y-142488965D01*
X130694714Y-142366330D01*
X130644059Y-142340520D01*
X130508820Y-142271612D01*
X130310389Y-142207137D01*
X130104324Y-142174500D01*
X130104319Y-142174500D01*
X129895681Y-142174500D01*
X129895676Y-142174500D01*
X129689610Y-142207137D01*
X129491179Y-142271612D01*
X129305285Y-142366330D01*
X129136493Y-142488966D01*
X128988966Y-142636493D01*
X128866330Y-142805285D01*
X128771612Y-142991179D01*
X128707137Y-143189610D01*
X128674500Y-143395675D01*
X111985127Y-143395675D01*
X111894266Y-143277263D01*
X111894260Y-143277256D01*
X111722743Y-143105739D01*
X111722736Y-143105733D01*
X111530293Y-142958067D01*
X111530292Y-142958066D01*
X111530289Y-142958064D01*
X111320212Y-142836776D01*
X111320205Y-142836773D01*
X111096104Y-142743947D01*
X110861785Y-142681161D01*
X110621289Y-142649500D01*
X110621288Y-142649500D01*
X110378712Y-142649500D01*
X110378711Y-142649500D01*
X110138214Y-142681161D01*
X109903895Y-142743947D01*
X109679794Y-142836773D01*
X109679785Y-142836777D01*
X109469706Y-142958067D01*
X109277263Y-143105733D01*
X109277256Y-143105739D01*
X109105739Y-143277256D01*
X109105733Y-143277263D01*
X108958067Y-143469706D01*
X108836777Y-143679785D01*
X108836773Y-143679794D01*
X108743947Y-143903895D01*
X108681161Y-144138214D01*
X108649500Y-144378711D01*
X101500500Y-144378711D01*
X101500500Y-141661153D01*
X124169500Y-141661153D01*
X124169500Y-141818846D01*
X124200261Y-141973489D01*
X124200264Y-141973501D01*
X124260602Y-142119172D01*
X124260609Y-142119185D01*
X124348210Y-142250288D01*
X124348213Y-142250292D01*
X124459707Y-142361786D01*
X124459711Y-142361789D01*
X124590814Y-142449390D01*
X124590827Y-142449397D01*
X124736498Y-142509735D01*
X124736503Y-142509737D01*
X124891153Y-142540499D01*
X124891156Y-142540500D01*
X124891158Y-142540500D01*
X125048844Y-142540500D01*
X125048845Y-142540499D01*
X125203497Y-142509737D01*
X125349179Y-142449394D01*
X125409039Y-142409397D01*
X125480875Y-142361398D01*
X125547553Y-142340520D01*
X125549766Y-142340500D01*
X127040099Y-142340500D01*
X127107138Y-142360185D01*
X127108990Y-142361398D01*
X127180821Y-142409394D01*
X127180823Y-142409395D01*
X127180827Y-142409397D01*
X127326498Y-142469735D01*
X127326503Y-142469737D01*
X127481153Y-142500499D01*
X127481156Y-142500500D01*
X127481158Y-142500500D01*
X127638844Y-142500500D01*
X127638845Y-142500499D01*
X127793497Y-142469737D01*
X127939179Y-142409394D01*
X128070289Y-142321789D01*
X128181789Y-142210289D01*
X128269394Y-142079179D01*
X128329737Y-141933497D01*
X128360500Y-141778842D01*
X128360500Y-141621158D01*
X128360500Y-141621155D01*
X128360499Y-141621153D01*
X128337695Y-141506510D01*
X128329737Y-141466503D01*
X128285965Y-141360827D01*
X128269397Y-141320827D01*
X128269390Y-141320814D01*
X128181789Y-141189711D01*
X128181786Y-141189707D01*
X128070292Y-141078213D01*
X128070288Y-141078210D01*
X127939185Y-140990609D01*
X127939172Y-140990602D01*
X127793501Y-140930264D01*
X127793489Y-140930261D01*
X127638845Y-140899500D01*
X127638842Y-140899500D01*
X127481158Y-140899500D01*
X127481155Y-140899500D01*
X127326510Y-140930261D01*
X127326498Y-140930264D01*
X127180827Y-140990602D01*
X127180814Y-140990609D01*
X127049711Y-141078210D01*
X127049707Y-141078213D01*
X127024740Y-141103181D01*
X126963417Y-141136666D01*
X126937059Y-141139500D01*
X125549766Y-141139500D01*
X125482727Y-141119815D01*
X125480875Y-141118602D01*
X125349185Y-141030609D01*
X125349172Y-141030602D01*
X125203501Y-140970264D01*
X125203489Y-140970261D01*
X125048845Y-140939500D01*
X125048842Y-140939500D01*
X124891158Y-140939500D01*
X124891155Y-140939500D01*
X124736510Y-140970261D01*
X124736498Y-140970264D01*
X124590827Y-141030602D01*
X124590814Y-141030609D01*
X124459711Y-141118210D01*
X124459707Y-141118213D01*
X124348213Y-141229707D01*
X124348210Y-141229711D01*
X124260609Y-141360814D01*
X124260602Y-141360827D01*
X124200264Y-141506498D01*
X124200261Y-141506510D01*
X124169500Y-141661153D01*
X101500500Y-141661153D01*
X101500500Y-138541153D01*
X135489500Y-138541153D01*
X135489500Y-138698846D01*
X135520261Y-138853489D01*
X135520264Y-138853501D01*
X135580602Y-138999172D01*
X135580609Y-138999185D01*
X135668210Y-139130288D01*
X135668213Y-139130292D01*
X135779707Y-139241786D01*
X135779711Y-139241789D01*
X135910814Y-139329390D01*
X135910827Y-139329397D01*
X136056498Y-139389735D01*
X136056503Y-139389737D01*
X136211153Y-139420499D01*
X136211156Y-139420500D01*
X136211158Y-139420500D01*
X136368844Y-139420500D01*
X136368845Y-139420499D01*
X136523497Y-139389737D01*
X136669179Y-139329394D01*
X136669185Y-139329390D01*
X136800875Y-139241398D01*
X136867553Y-139220520D01*
X136869766Y-139220500D01*
X141330234Y-139220500D01*
X141397273Y-139240185D01*
X141399125Y-139241398D01*
X141530814Y-139329390D01*
X141530827Y-139329397D01*
X141676498Y-139389735D01*
X141676503Y-139389737D01*
X141831153Y-139420499D01*
X141831156Y-139420500D01*
X141831158Y-139420500D01*
X141988844Y-139420500D01*
X141988845Y-139420499D01*
X142143497Y-139389737D01*
X142289179Y-139329394D01*
X142420289Y-139241789D01*
X142531789Y-139130289D01*
X142619394Y-138999179D01*
X142679737Y-138853497D01*
X142710500Y-138698842D01*
X142710500Y-138541158D01*
X142710500Y-138541155D01*
X142710499Y-138541153D01*
X142679738Y-138386510D01*
X142679737Y-138386503D01*
X142679735Y-138386498D01*
X142619397Y-138240827D01*
X142619390Y-138240814D01*
X142531789Y-138109711D01*
X142531786Y-138109707D01*
X142420292Y-137998213D01*
X142420288Y-137998210D01*
X142289185Y-137910609D01*
X142289172Y-137910602D01*
X142143501Y-137850264D01*
X142143489Y-137850261D01*
X141988845Y-137819500D01*
X141988842Y-137819500D01*
X141831158Y-137819500D01*
X141831155Y-137819500D01*
X141676510Y-137850261D01*
X141676498Y-137850264D01*
X141530827Y-137910602D01*
X141530814Y-137910609D01*
X141399125Y-137998602D01*
X141332447Y-138019480D01*
X141330234Y-138019500D01*
X136869766Y-138019500D01*
X136802727Y-137999815D01*
X136800875Y-137998602D01*
X136669185Y-137910609D01*
X136669172Y-137910602D01*
X136523501Y-137850264D01*
X136523489Y-137850261D01*
X136368845Y-137819500D01*
X136368842Y-137819500D01*
X136211158Y-137819500D01*
X136211155Y-137819500D01*
X136056510Y-137850261D01*
X136056498Y-137850264D01*
X135910827Y-137910602D01*
X135910814Y-137910609D01*
X135779711Y-137998210D01*
X135779707Y-137998213D01*
X135668213Y-138109707D01*
X135668210Y-138109711D01*
X135580609Y-138240814D01*
X135580602Y-138240827D01*
X135520264Y-138386498D01*
X135520261Y-138386510D01*
X135489500Y-138541153D01*
X101500500Y-138541153D01*
X101500500Y-129395675D01*
X116674500Y-129395675D01*
X116674500Y-129604324D01*
X116707137Y-129810389D01*
X116771612Y-130008820D01*
X116866330Y-130194714D01*
X116988965Y-130363505D01*
X117136495Y-130511035D01*
X117305286Y-130633670D01*
X117393116Y-130678421D01*
X117491179Y-130728387D01*
X117491181Y-130728387D01*
X117491184Y-130728389D01*
X117597545Y-130762948D01*
X117689610Y-130792862D01*
X117895676Y-130825500D01*
X117895681Y-130825500D01*
X118104324Y-130825500D01*
X118310389Y-130792862D01*
X118508816Y-130728389D01*
X118694714Y-130633670D01*
X118863505Y-130511035D01*
X119011035Y-130363505D01*
X119133670Y-130194714D01*
X119228389Y-130008816D01*
X119292862Y-129810389D01*
X119325500Y-129604324D01*
X119325500Y-129395675D01*
X135174500Y-129395675D01*
X135174500Y-129604324D01*
X135207137Y-129810389D01*
X135271612Y-130008820D01*
X135366330Y-130194714D01*
X135488965Y-130363505D01*
X135636495Y-130511035D01*
X135805286Y-130633670D01*
X135893116Y-130678421D01*
X135991179Y-130728387D01*
X135991181Y-130728387D01*
X135991184Y-130728389D01*
X136097545Y-130762948D01*
X136189610Y-130792862D01*
X136395676Y-130825500D01*
X136395681Y-130825500D01*
X136604324Y-130825500D01*
X136810389Y-130792862D01*
X137008816Y-130728389D01*
X137194714Y-130633670D01*
X137363505Y-130511035D01*
X137511035Y-130363505D01*
X137633670Y-130194714D01*
X137728389Y-130008816D01*
X137792862Y-129810389D01*
X137825500Y-129604324D01*
X137825500Y-129395675D01*
X153674500Y-129395675D01*
X153674500Y-129604324D01*
X153707137Y-129810389D01*
X153771612Y-130008820D01*
X153866330Y-130194714D01*
X153988965Y-130363505D01*
X154136495Y-130511035D01*
X154305286Y-130633670D01*
X154393116Y-130678421D01*
X154491179Y-130728387D01*
X154491181Y-130728387D01*
X154491184Y-130728389D01*
X154597545Y-130762948D01*
X154689610Y-130792862D01*
X154895676Y-130825500D01*
X154895681Y-130825500D01*
X155104324Y-130825500D01*
X155310389Y-130792862D01*
X155508816Y-130728389D01*
X155694714Y-130633670D01*
X155863505Y-130511035D01*
X156011035Y-130363505D01*
X156133670Y-130194714D01*
X156228389Y-130008816D01*
X156292862Y-129810389D01*
X156325500Y-129604324D01*
X156325500Y-129395675D01*
X156292862Y-129189610D01*
X156228387Y-128991179D01*
X156133669Y-128805285D01*
X156011035Y-128636495D01*
X155863505Y-128488965D01*
X155694714Y-128366330D01*
X155508820Y-128271612D01*
X155310389Y-128207137D01*
X155104324Y-128174500D01*
X155104319Y-128174500D01*
X154895681Y-128174500D01*
X154895676Y-128174500D01*
X154689610Y-128207137D01*
X154491179Y-128271612D01*
X154305285Y-128366330D01*
X154136493Y-128488966D01*
X153988966Y-128636493D01*
X153866330Y-128805285D01*
X153771612Y-128991179D01*
X153707137Y-129189610D01*
X153674500Y-129395675D01*
X137825500Y-129395675D01*
X137792862Y-129189610D01*
X137728387Y-128991179D01*
X137633669Y-128805285D01*
X137511035Y-128636495D01*
X137363505Y-128488965D01*
X137194714Y-128366330D01*
X137008820Y-128271612D01*
X136810389Y-128207137D01*
X136604324Y-128174500D01*
X136604319Y-128174500D01*
X136395681Y-128174500D01*
X136395676Y-128174500D01*
X136189610Y-128207137D01*
X135991179Y-128271612D01*
X135805285Y-128366330D01*
X135636493Y-128488966D01*
X135488966Y-128636493D01*
X135366330Y-128805285D01*
X135271612Y-128991179D01*
X135207137Y-129189610D01*
X135174500Y-129395675D01*
X119325500Y-129395675D01*
X119292862Y-129189610D01*
X119228387Y-128991179D01*
X119133669Y-128805285D01*
X119011035Y-128636495D01*
X118863505Y-128488965D01*
X118694714Y-128366330D01*
X118508820Y-128271612D01*
X118310389Y-128207137D01*
X118104324Y-128174500D01*
X118104319Y-128174500D01*
X117895681Y-128174500D01*
X117895676Y-128174500D01*
X117689610Y-128207137D01*
X117491179Y-128271612D01*
X117305285Y-128366330D01*
X117136493Y-128488966D01*
X116988966Y-128636493D01*
X116866330Y-128805285D01*
X116771612Y-128991179D01*
X116707137Y-129189610D01*
X116674500Y-129395675D01*
X101500500Y-129395675D01*
X101500500Y-124895675D01*
X110174500Y-124895675D01*
X110174500Y-125104324D01*
X110207137Y-125310389D01*
X110271612Y-125508820D01*
X110366330Y-125694714D01*
X110488965Y-125863505D01*
X110636495Y-126011035D01*
X110805286Y-126133670D01*
X110893116Y-126178421D01*
X110991179Y-126228387D01*
X110991181Y-126228387D01*
X110991184Y-126228389D01*
X111097545Y-126262948D01*
X111189610Y-126292862D01*
X111395676Y-126325500D01*
X111395681Y-126325500D01*
X111604324Y-126325500D01*
X111810389Y-126292862D01*
X112008816Y-126228389D01*
X112194714Y-126133670D01*
X112363505Y-126011035D01*
X112511035Y-125863505D01*
X112633670Y-125694714D01*
X112728389Y-125508816D01*
X112792862Y-125310389D01*
X112825500Y-125104324D01*
X112825500Y-124895675D01*
X116674500Y-124895675D01*
X116674500Y-125104324D01*
X116707137Y-125310389D01*
X116771612Y-125508820D01*
X116866330Y-125694714D01*
X116988965Y-125863505D01*
X117136495Y-126011035D01*
X117305286Y-126133670D01*
X117393116Y-126178421D01*
X117491179Y-126228387D01*
X117491181Y-126228387D01*
X117491184Y-126228389D01*
X117597545Y-126262948D01*
X117689610Y-126292862D01*
X117895676Y-126325500D01*
X117895681Y-126325500D01*
X118104324Y-126325500D01*
X118310389Y-126292862D01*
X118508816Y-126228389D01*
X118694714Y-126133670D01*
X118863505Y-126011035D01*
X119011035Y-125863505D01*
X119133670Y-125694714D01*
X119228389Y-125508816D01*
X119292862Y-125310389D01*
X119325500Y-125104324D01*
X119325500Y-124895675D01*
X128674500Y-124895675D01*
X128674500Y-125104324D01*
X128707137Y-125310389D01*
X128771612Y-125508820D01*
X128866330Y-125694714D01*
X128988965Y-125863505D01*
X129136495Y-126011035D01*
X129305286Y-126133670D01*
X129393116Y-126178421D01*
X129491179Y-126228387D01*
X129491181Y-126228387D01*
X129491184Y-126228389D01*
X129597545Y-126262948D01*
X129689610Y-126292862D01*
X129895676Y-126325500D01*
X129895681Y-126325500D01*
X130104324Y-126325500D01*
X130310389Y-126292862D01*
X130508816Y-126228389D01*
X130694714Y-126133670D01*
X130863505Y-126011035D01*
X131011035Y-125863505D01*
X131133670Y-125694714D01*
X131228389Y-125508816D01*
X131292862Y-125310389D01*
X131325500Y-125104324D01*
X131325500Y-124895675D01*
X135174500Y-124895675D01*
X135174500Y-125104324D01*
X135207137Y-125310389D01*
X135271612Y-125508820D01*
X135366330Y-125694714D01*
X135488965Y-125863505D01*
X135636495Y-126011035D01*
X135805286Y-126133670D01*
X135893116Y-126178421D01*
X135991179Y-126228387D01*
X135991181Y-126228387D01*
X135991184Y-126228389D01*
X136097545Y-126262948D01*
X136189610Y-126292862D01*
X136395676Y-126325500D01*
X136395681Y-126325500D01*
X136604324Y-126325500D01*
X136810389Y-126292862D01*
X137008816Y-126228389D01*
X137194714Y-126133670D01*
X137363505Y-126011035D01*
X137511035Y-125863505D01*
X137633670Y-125694714D01*
X137728389Y-125508816D01*
X137792862Y-125310389D01*
X137825500Y-125104324D01*
X137825500Y-124895675D01*
X137792862Y-124689610D01*
X137762948Y-124597545D01*
X137728389Y-124491184D01*
X137728387Y-124491181D01*
X137728387Y-124491179D01*
X137678421Y-124393116D01*
X137633670Y-124305286D01*
X137511035Y-124136495D01*
X137415693Y-124041153D01*
X144809500Y-124041153D01*
X144809500Y-124198846D01*
X144840261Y-124353489D01*
X144840264Y-124353501D01*
X144900602Y-124499172D01*
X144900609Y-124499185D01*
X144988210Y-124630288D01*
X144988213Y-124630292D01*
X145099707Y-124741786D01*
X145099711Y-124741789D01*
X145230814Y-124829390D01*
X145230827Y-124829397D01*
X145376498Y-124889735D01*
X145376503Y-124889737D01*
X145531153Y-124920499D01*
X145531156Y-124920500D01*
X145531158Y-124920500D01*
X145688844Y-124920500D01*
X145688845Y-124920499D01*
X145813644Y-124895675D01*
X147174500Y-124895675D01*
X147174500Y-125104324D01*
X147207137Y-125310389D01*
X147271612Y-125508820D01*
X147366330Y-125694714D01*
X147488965Y-125863505D01*
X147636495Y-126011035D01*
X147805286Y-126133670D01*
X147893116Y-126178421D01*
X147991179Y-126228387D01*
X147991181Y-126228387D01*
X147991184Y-126228389D01*
X148097545Y-126262948D01*
X148189610Y-126292862D01*
X148395676Y-126325500D01*
X148395681Y-126325500D01*
X148604324Y-126325500D01*
X148810389Y-126292862D01*
X149008816Y-126228389D01*
X149194714Y-126133670D01*
X149363505Y-126011035D01*
X149511035Y-125863505D01*
X149633670Y-125694714D01*
X149728389Y-125508816D01*
X149792862Y-125310389D01*
X149825500Y-125104324D01*
X149825500Y-124895675D01*
X153674500Y-124895675D01*
X153674500Y-125104324D01*
X153707137Y-125310389D01*
X153771612Y-125508820D01*
X153866330Y-125694714D01*
X153988965Y-125863505D01*
X154136495Y-126011035D01*
X154305286Y-126133670D01*
X154393116Y-126178421D01*
X154491179Y-126228387D01*
X154491181Y-126228387D01*
X154491184Y-126228389D01*
X154597545Y-126262948D01*
X154689610Y-126292862D01*
X154895676Y-126325500D01*
X154895681Y-126325500D01*
X155104324Y-126325500D01*
X155310389Y-126292862D01*
X155508816Y-126228389D01*
X155694714Y-126133670D01*
X155863505Y-126011035D01*
X156011035Y-125863505D01*
X156133670Y-125694714D01*
X156228389Y-125508816D01*
X156292862Y-125310389D01*
X156325500Y-125104324D01*
X156325500Y-124895675D01*
X156292862Y-124689610D01*
X156262948Y-124597545D01*
X156228389Y-124491184D01*
X156228387Y-124491181D01*
X156228387Y-124491179D01*
X156178421Y-124393116D01*
X156133670Y-124305286D01*
X156011035Y-124136495D01*
X155863505Y-123988965D01*
X155694714Y-123866330D01*
X155508820Y-123771612D01*
X155310389Y-123707137D01*
X155104324Y-123674500D01*
X155104319Y-123674500D01*
X154895681Y-123674500D01*
X154895676Y-123674500D01*
X154689610Y-123707137D01*
X154491179Y-123771612D01*
X154305285Y-123866330D01*
X154136493Y-123988966D01*
X153988966Y-124136493D01*
X153866330Y-124305285D01*
X153771612Y-124491179D01*
X153707137Y-124689610D01*
X153674500Y-124895675D01*
X149825500Y-124895675D01*
X149792862Y-124689610D01*
X149762948Y-124597545D01*
X149728389Y-124491184D01*
X149728387Y-124491181D01*
X149728387Y-124491179D01*
X149678421Y-124393116D01*
X149633670Y-124305286D01*
X149511035Y-124136495D01*
X149363505Y-123988965D01*
X149194714Y-123866330D01*
X149008820Y-123771612D01*
X148810389Y-123707137D01*
X148604324Y-123674500D01*
X148604319Y-123674500D01*
X148395681Y-123674500D01*
X148395676Y-123674500D01*
X148189610Y-123707137D01*
X147991179Y-123771612D01*
X147805285Y-123866330D01*
X147636493Y-123988966D01*
X147488966Y-124136493D01*
X147366330Y-124305285D01*
X147271612Y-124491179D01*
X147207137Y-124689610D01*
X147174500Y-124895675D01*
X145813644Y-124895675D01*
X145843497Y-124889737D01*
X145989179Y-124829394D01*
X145989185Y-124829390D01*
X146051569Y-124787707D01*
X146087024Y-124764015D01*
X146120289Y-124741789D01*
X146231789Y-124630289D01*
X146319394Y-124499179D01*
X146379737Y-124353497D01*
X146399113Y-124256085D01*
X146410638Y-124198150D01*
X146443023Y-124136239D01*
X146444517Y-124134717D01*
X148500520Y-122078716D01*
X148579577Y-121941784D01*
X148620501Y-121789057D01*
X148620501Y-121630942D01*
X148620501Y-121623347D01*
X148620500Y-121623329D01*
X148620500Y-120929765D01*
X148640185Y-120862726D01*
X148641398Y-120860874D01*
X148729390Y-120729185D01*
X148729390Y-120729184D01*
X148729394Y-120729179D01*
X148789737Y-120583497D01*
X148816062Y-120451153D01*
X149799500Y-120451153D01*
X149799500Y-120608846D01*
X149830261Y-120763489D01*
X149830264Y-120763501D01*
X149890602Y-120909172D01*
X149890609Y-120909185D01*
X149978210Y-121040288D01*
X149978213Y-121040292D01*
X150089707Y-121151786D01*
X150089711Y-121151789D01*
X150220814Y-121239390D01*
X150220827Y-121239397D01*
X150366498Y-121299735D01*
X150366503Y-121299737D01*
X150521153Y-121330499D01*
X150521156Y-121330500D01*
X150521158Y-121330500D01*
X150678844Y-121330500D01*
X150678845Y-121330499D01*
X150833497Y-121299737D01*
X150979179Y-121239394D01*
X151083937Y-121169397D01*
X151110875Y-121151398D01*
X151177553Y-121130520D01*
X151179766Y-121130500D01*
X156284997Y-121130500D01*
X156352036Y-121150185D01*
X156353889Y-121151399D01*
X156380812Y-121169389D01*
X156380827Y-121169397D01*
X156526498Y-121229735D01*
X156526503Y-121229737D01*
X156681153Y-121260499D01*
X156681156Y-121260500D01*
X156681158Y-121260500D01*
X156838844Y-121260500D01*
X156838845Y-121260499D01*
X156993497Y-121229737D01*
X157139179Y-121169394D01*
X157270289Y-121081789D01*
X157381789Y-120970289D01*
X157469394Y-120839179D01*
X157529737Y-120693497D01*
X157560500Y-120538842D01*
X157560500Y-120381158D01*
X157560500Y-120381155D01*
X157560499Y-120381153D01*
X157529738Y-120226510D01*
X157529737Y-120226503D01*
X157522649Y-120209390D01*
X157469397Y-120080827D01*
X157469390Y-120080814D01*
X157381789Y-119949711D01*
X157381786Y-119949707D01*
X157270292Y-119838213D01*
X157270288Y-119838210D01*
X157139185Y-119750609D01*
X157139172Y-119750602D01*
X156993501Y-119690264D01*
X156993489Y-119690261D01*
X156838845Y-119659500D01*
X156838842Y-119659500D01*
X156681158Y-119659500D01*
X156681155Y-119659500D01*
X156526510Y-119690261D01*
X156526498Y-119690264D01*
X156380827Y-119750602D01*
X156380814Y-119750609D01*
X156249712Y-119838209D01*
X156222227Y-119865695D01*
X156194739Y-119893182D01*
X156133419Y-119926666D01*
X156107060Y-119929500D01*
X151179766Y-119929500D01*
X151112727Y-119909815D01*
X151110875Y-119908602D01*
X150979185Y-119820609D01*
X150979172Y-119820602D01*
X150833501Y-119760264D01*
X150833489Y-119760261D01*
X150678845Y-119729500D01*
X150678842Y-119729500D01*
X150521158Y-119729500D01*
X150521155Y-119729500D01*
X150366510Y-119760261D01*
X150366498Y-119760264D01*
X150220827Y-119820602D01*
X150220814Y-119820609D01*
X150089711Y-119908210D01*
X150089707Y-119908213D01*
X149978213Y-120019707D01*
X149978210Y-120019711D01*
X149890609Y-120150814D01*
X149890602Y-120150827D01*
X149830264Y-120296498D01*
X149830261Y-120296510D01*
X149799500Y-120451153D01*
X148816062Y-120451153D01*
X148820500Y-120428842D01*
X148820500Y-120271158D01*
X148820500Y-120271155D01*
X148820499Y-120271153D01*
X148811619Y-120226510D01*
X148789737Y-120116503D01*
X148783117Y-120100520D01*
X148729397Y-119970827D01*
X148729390Y-119970814D01*
X148641789Y-119839711D01*
X148641786Y-119839707D01*
X148530292Y-119728213D01*
X148530288Y-119728210D01*
X148399185Y-119640609D01*
X148399172Y-119640602D01*
X148253501Y-119580264D01*
X148253489Y-119580261D01*
X148098845Y-119549500D01*
X148098842Y-119549500D01*
X147941158Y-119549500D01*
X147941155Y-119549500D01*
X147786510Y-119580261D01*
X147786498Y-119580264D01*
X147640827Y-119640602D01*
X147640814Y-119640609D01*
X147509711Y-119728210D01*
X147509707Y-119728213D01*
X147398213Y-119839707D01*
X147398210Y-119839711D01*
X147310609Y-119970814D01*
X147310602Y-119970827D01*
X147250264Y-120116498D01*
X147250261Y-120116510D01*
X147219500Y-120271153D01*
X147219500Y-120428846D01*
X147250261Y-120583489D01*
X147250264Y-120583501D01*
X147310602Y-120729172D01*
X147310609Y-120729185D01*
X147398602Y-120860874D01*
X147419480Y-120927551D01*
X147419500Y-120929765D01*
X147419500Y-121409902D01*
X147399815Y-121476941D01*
X147383181Y-121497583D01*
X145595339Y-123285425D01*
X145534016Y-123318910D01*
X145531850Y-123319361D01*
X145376508Y-123350261D01*
X145376498Y-123350264D01*
X145230827Y-123410602D01*
X145230814Y-123410609D01*
X145099711Y-123498210D01*
X145099707Y-123498213D01*
X144988213Y-123609707D01*
X144988210Y-123609711D01*
X144900609Y-123740814D01*
X144900602Y-123740827D01*
X144840264Y-123886498D01*
X144840261Y-123886510D01*
X144809500Y-124041153D01*
X137415693Y-124041153D01*
X137363505Y-123988965D01*
X137194714Y-123866330D01*
X137008820Y-123771612D01*
X136810389Y-123707137D01*
X136604324Y-123674500D01*
X136604319Y-123674500D01*
X136395681Y-123674500D01*
X136395676Y-123674500D01*
X136189610Y-123707137D01*
X135991179Y-123771612D01*
X135805285Y-123866330D01*
X135636493Y-123988966D01*
X135488966Y-124136493D01*
X135366330Y-124305285D01*
X135271612Y-124491179D01*
X135207137Y-124689610D01*
X135174500Y-124895675D01*
X131325500Y-124895675D01*
X131292862Y-124689610D01*
X131262948Y-124597545D01*
X131228389Y-124491184D01*
X131228387Y-124491181D01*
X131228387Y-124491179D01*
X131178421Y-124393116D01*
X131133670Y-124305286D01*
X131011035Y-124136495D01*
X130863505Y-123988965D01*
X130694714Y-123866330D01*
X130508820Y-123771612D01*
X130310389Y-123707137D01*
X130104324Y-123674500D01*
X130104319Y-123674500D01*
X129895681Y-123674500D01*
X129895676Y-123674500D01*
X129689610Y-123707137D01*
X129491179Y-123771612D01*
X129305285Y-123866330D01*
X129136493Y-123988966D01*
X128988966Y-124136493D01*
X128866330Y-124305285D01*
X128771612Y-124491179D01*
X128707137Y-124689610D01*
X128674500Y-124895675D01*
X119325500Y-124895675D01*
X119292862Y-124689610D01*
X119262948Y-124597545D01*
X119228389Y-124491184D01*
X119228387Y-124491181D01*
X119228387Y-124491179D01*
X119178421Y-124393116D01*
X119133670Y-124305286D01*
X119011035Y-124136495D01*
X118863505Y-123988965D01*
X118694714Y-123866330D01*
X118508820Y-123771612D01*
X118310389Y-123707137D01*
X118104324Y-123674500D01*
X118104319Y-123674500D01*
X117895681Y-123674500D01*
X117895676Y-123674500D01*
X117689610Y-123707137D01*
X117491179Y-123771612D01*
X117305285Y-123866330D01*
X117136493Y-123988966D01*
X116988966Y-124136493D01*
X116866330Y-124305285D01*
X116771612Y-124491179D01*
X116707137Y-124689610D01*
X116674500Y-124895675D01*
X112825500Y-124895675D01*
X112792862Y-124689610D01*
X112762948Y-124597545D01*
X112728389Y-124491184D01*
X112728387Y-124491181D01*
X112728387Y-124491179D01*
X112678421Y-124393116D01*
X112633670Y-124305286D01*
X112511035Y-124136495D01*
X112363505Y-123988965D01*
X112194714Y-123866330D01*
X112008820Y-123771612D01*
X111810389Y-123707137D01*
X111604324Y-123674500D01*
X111604319Y-123674500D01*
X111395681Y-123674500D01*
X111395676Y-123674500D01*
X111189610Y-123707137D01*
X110991179Y-123771612D01*
X110805285Y-123866330D01*
X110636493Y-123988966D01*
X110488966Y-124136493D01*
X110366330Y-124305285D01*
X110271612Y-124491179D01*
X110207137Y-124689610D01*
X110174500Y-124895675D01*
X101500500Y-124895675D01*
X101500500Y-119421153D01*
X114449500Y-119421153D01*
X114449500Y-119578846D01*
X114480261Y-119733489D01*
X114480264Y-119733501D01*
X114540602Y-119879172D01*
X114540609Y-119879185D01*
X114628210Y-120010288D01*
X114628213Y-120010292D01*
X114739707Y-120121786D01*
X114739711Y-120121789D01*
X114870814Y-120209390D01*
X114870827Y-120209397D01*
X115016498Y-120269735D01*
X115016503Y-120269737D01*
X115151039Y-120296498D01*
X115171153Y-120300499D01*
X115171156Y-120300500D01*
X115171158Y-120300500D01*
X115328844Y-120300500D01*
X115328845Y-120300499D01*
X115483497Y-120269737D01*
X115629179Y-120209394D01*
X115716840Y-120150821D01*
X115760875Y-120121398D01*
X115827553Y-120100520D01*
X115829766Y-120100500D01*
X116420234Y-120100500D01*
X116487273Y-120120185D01*
X116489125Y-120121398D01*
X116620814Y-120209390D01*
X116620827Y-120209397D01*
X116766498Y-120269735D01*
X116766503Y-120269737D01*
X116901039Y-120296498D01*
X116921153Y-120300499D01*
X116921156Y-120300500D01*
X116921158Y-120300500D01*
X117078844Y-120300500D01*
X117078845Y-120300499D01*
X117233497Y-120269737D01*
X117379179Y-120209394D01*
X117510289Y-120121789D01*
X117621789Y-120010289D01*
X117709394Y-119879179D01*
X117769737Y-119733497D01*
X117800500Y-119578842D01*
X117800500Y-119421158D01*
X117800500Y-119421155D01*
X117800499Y-119421153D01*
X117769738Y-119266510D01*
X117769737Y-119266503D01*
X117769735Y-119266498D01*
X117709397Y-119120827D01*
X117709390Y-119120814D01*
X117621789Y-118989711D01*
X117621786Y-118989707D01*
X117510292Y-118878213D01*
X117510288Y-118878210D01*
X117379185Y-118790609D01*
X117379172Y-118790602D01*
X117233501Y-118730264D01*
X117233489Y-118730261D01*
X117078845Y-118699500D01*
X117078842Y-118699500D01*
X116921158Y-118699500D01*
X116921155Y-118699500D01*
X116766510Y-118730261D01*
X116766498Y-118730264D01*
X116620827Y-118790602D01*
X116620814Y-118790609D01*
X116489125Y-118878602D01*
X116422447Y-118899480D01*
X116420234Y-118899500D01*
X115829766Y-118899500D01*
X115762727Y-118879815D01*
X115760875Y-118878602D01*
X115629185Y-118790609D01*
X115629172Y-118790602D01*
X115483501Y-118730264D01*
X115483489Y-118730261D01*
X115328845Y-118699500D01*
X115328842Y-118699500D01*
X115171158Y-118699500D01*
X115171155Y-118699500D01*
X115016510Y-118730261D01*
X115016498Y-118730264D01*
X114870827Y-118790602D01*
X114870814Y-118790609D01*
X114739711Y-118878210D01*
X114739707Y-118878213D01*
X114628213Y-118989707D01*
X114628210Y-118989711D01*
X114540609Y-119120814D01*
X114540602Y-119120827D01*
X114480264Y-119266498D01*
X114480261Y-119266510D01*
X114449500Y-119421153D01*
X101500500Y-119421153D01*
X101500500Y-109878711D01*
X108649500Y-109878711D01*
X108649500Y-110121288D01*
X108681161Y-110361785D01*
X108743947Y-110596104D01*
X108836773Y-110820205D01*
X108836777Y-110820214D01*
X108841739Y-110828809D01*
X108958064Y-111030289D01*
X108958066Y-111030292D01*
X108958067Y-111030293D01*
X109105733Y-111222736D01*
X109105739Y-111222743D01*
X109277256Y-111394260D01*
X109277263Y-111394266D01*
X109390321Y-111481018D01*
X109469711Y-111541936D01*
X109679788Y-111663224D01*
X109903900Y-111756054D01*
X110138211Y-111818838D01*
X110318586Y-111842584D01*
X110378711Y-111850500D01*
X110378712Y-111850500D01*
X110621289Y-111850500D01*
X110669388Y-111844167D01*
X110861789Y-111818838D01*
X111096100Y-111756054D01*
X111320212Y-111663224D01*
X111530289Y-111541936D01*
X111722738Y-111394265D01*
X111894265Y-111222738D01*
X112041936Y-111030289D01*
X112119655Y-110895675D01*
X135174500Y-110895675D01*
X135174500Y-111104324D01*
X135207137Y-111310389D01*
X135271612Y-111508820D01*
X135350284Y-111663222D01*
X135366330Y-111694714D01*
X135488965Y-111863505D01*
X135636495Y-112011035D01*
X135805286Y-112133670D01*
X135893116Y-112178421D01*
X135991179Y-112228387D01*
X135991181Y-112228387D01*
X135991184Y-112228389D01*
X136097545Y-112262948D01*
X136189610Y-112292862D01*
X136395676Y-112325500D01*
X136395681Y-112325500D01*
X136604324Y-112325500D01*
X136810389Y-112292862D01*
X136854184Y-112278632D01*
X137008816Y-112228389D01*
X137194714Y-112133670D01*
X137363505Y-112011035D01*
X137511035Y-111863505D01*
X137633670Y-111694714D01*
X137728389Y-111508816D01*
X137792862Y-111310389D01*
X137806744Y-111222743D01*
X137825500Y-111104324D01*
X137825500Y-110895675D01*
X137792862Y-110689610D01*
X137728387Y-110491179D01*
X137633669Y-110305285D01*
X137511035Y-110136495D01*
X137363505Y-109988965D01*
X137194714Y-109866330D01*
X137008820Y-109771612D01*
X136810389Y-109707137D01*
X136604324Y-109674500D01*
X136604319Y-109674500D01*
X136395681Y-109674500D01*
X136395676Y-109674500D01*
X136189610Y-109707137D01*
X135991179Y-109771612D01*
X135805285Y-109866330D01*
X135636493Y-109988966D01*
X135488966Y-110136493D01*
X135366330Y-110305285D01*
X135271612Y-110491179D01*
X135207137Y-110689610D01*
X135174500Y-110895675D01*
X112119655Y-110895675D01*
X112163224Y-110820212D01*
X112256054Y-110596100D01*
X112318838Y-110361789D01*
X112350500Y-110121288D01*
X112350500Y-109878712D01*
X112318838Y-109638211D01*
X112256054Y-109403900D01*
X112163224Y-109179788D01*
X112062099Y-109004635D01*
X141692000Y-109004635D01*
X141692001Y-110675363D01*
X141692001Y-110675376D01*
X141698408Y-110734983D01*
X141748702Y-110869828D01*
X141748706Y-110869835D01*
X141834952Y-110985044D01*
X141834955Y-110985047D01*
X141950164Y-111071293D01*
X141950171Y-111071297D01*
X141995118Y-111088061D01*
X142085017Y-111121591D01*
X142144565Y-111127993D01*
X142209113Y-111154730D01*
X142248961Y-111212123D01*
X142251455Y-111281948D01*
X142215803Y-111342037D01*
X142204192Y-111351600D01*
X142140930Y-111397562D01*
X142140925Y-111397566D01*
X141997566Y-111540925D01*
X141997562Y-111540930D01*
X141878405Y-111704937D01*
X141786362Y-111885579D01*
X141786361Y-111885582D01*
X141723715Y-112078391D01*
X141692000Y-112278632D01*
X141692000Y-112481367D01*
X141723715Y-112681608D01*
X141786361Y-112874417D01*
X141786362Y-112874420D01*
X141878405Y-113055062D01*
X141997562Y-113219069D01*
X141997566Y-113219074D01*
X142140925Y-113362433D01*
X142140930Y-113362437D01*
X142283986Y-113466372D01*
X142304941Y-113481597D01*
X142388432Y-113524138D01*
X142418611Y-113539515D01*
X142469407Y-113587490D01*
X142486202Y-113655311D01*
X142463664Y-113721446D01*
X142418611Y-113760485D01*
X142304937Y-113818405D01*
X142140930Y-113937562D01*
X142140925Y-113937566D01*
X141997566Y-114080925D01*
X141997562Y-114080930D01*
X141878405Y-114244937D01*
X141786362Y-114425579D01*
X141786361Y-114425582D01*
X141723715Y-114618391D01*
X141692000Y-114818632D01*
X141692000Y-115021367D01*
X141723715Y-115221608D01*
X141786361Y-115414417D01*
X141786362Y-115414420D01*
X141878405Y-115595062D01*
X141997562Y-115759069D01*
X141997566Y-115759074D01*
X142140925Y-115902433D01*
X142140930Y-115902437D01*
X142283986Y-116006372D01*
X142304941Y-116021597D01*
X142418612Y-116079515D01*
X142485579Y-116113637D01*
X142485582Y-116113638D01*
X142581986Y-116144961D01*
X142678393Y-116176285D01*
X142878632Y-116208000D01*
X142878633Y-116208000D01*
X143081367Y-116208000D01*
X143081368Y-116208000D01*
X143281607Y-116176285D01*
X143474420Y-116113637D01*
X143655059Y-116021597D01*
X143819076Y-115902432D01*
X143962432Y-115759076D01*
X144081597Y-115595059D01*
X144173637Y-115414420D01*
X144236285Y-115221607D01*
X144268000Y-115021368D01*
X144268000Y-114818632D01*
X144236285Y-114618393D01*
X144173637Y-114425580D01*
X144173637Y-114425579D01*
X144141764Y-114363026D01*
X144081597Y-114244941D01*
X144066372Y-114223986D01*
X143962437Y-114080930D01*
X143962433Y-114080925D01*
X143819074Y-113937566D01*
X143819069Y-113937562D01*
X143655062Y-113818405D01*
X143655061Y-113818404D01*
X143655059Y-113818403D01*
X143541387Y-113760484D01*
X143490592Y-113712511D01*
X143473797Y-113644690D01*
X143496334Y-113578555D01*
X143541388Y-113539515D01*
X143655059Y-113481597D01*
X143819076Y-113362432D01*
X143962432Y-113219076D01*
X144081597Y-113055059D01*
X144173637Y-112874420D01*
X144236285Y-112681607D01*
X144268000Y-112481368D01*
X144268000Y-112278632D01*
X144236285Y-112078393D01*
X144173637Y-111885580D01*
X144173637Y-111885579D01*
X144107639Y-111756052D01*
X144081597Y-111704941D01*
X144051288Y-111663224D01*
X143962437Y-111540930D01*
X143962433Y-111540925D01*
X143819074Y-111397566D01*
X143755806Y-111351599D01*
X143713141Y-111296269D01*
X143707162Y-111226655D01*
X143739768Y-111164860D01*
X143800607Y-111130503D01*
X143815428Y-111127992D01*
X143874983Y-111121591D01*
X144009831Y-111071296D01*
X144125046Y-110985046D01*
X144211296Y-110869831D01*
X144261591Y-110734983D01*
X144268000Y-110675373D01*
X144267999Y-109738632D01*
X149312000Y-109738632D01*
X149312000Y-109941367D01*
X149343715Y-110141608D01*
X149406361Y-110334417D01*
X149406362Y-110334420D01*
X149498405Y-110515062D01*
X149617562Y-110679069D01*
X149617566Y-110679074D01*
X149760925Y-110822433D01*
X149760930Y-110822437D01*
X149861743Y-110895681D01*
X149924941Y-110941597D01*
X150008432Y-110984138D01*
X150038611Y-110999515D01*
X150089407Y-111047490D01*
X150106202Y-111115311D01*
X150083664Y-111181446D01*
X150038611Y-111220485D01*
X149924937Y-111278405D01*
X149760930Y-111397562D01*
X149760925Y-111397566D01*
X149617566Y-111540925D01*
X149617562Y-111540930D01*
X149498405Y-111704937D01*
X149406362Y-111885579D01*
X149406361Y-111885582D01*
X149343715Y-112078391D01*
X149312000Y-112278632D01*
X149312000Y-112481367D01*
X149343715Y-112681608D01*
X149406361Y-112874417D01*
X149406362Y-112874420D01*
X149498405Y-113055062D01*
X149617562Y-113219069D01*
X149617566Y-113219074D01*
X149760925Y-113362433D01*
X149760930Y-113362437D01*
X149903986Y-113466372D01*
X149924941Y-113481597D01*
X150008432Y-113524138D01*
X150038611Y-113539515D01*
X150089407Y-113587490D01*
X150106202Y-113655311D01*
X150083664Y-113721446D01*
X150038611Y-113760485D01*
X149924937Y-113818405D01*
X149760930Y-113937562D01*
X149760925Y-113937566D01*
X149617566Y-114080925D01*
X149617562Y-114080930D01*
X149498405Y-114244937D01*
X149406362Y-114425579D01*
X149406361Y-114425582D01*
X149343715Y-114618391D01*
X149312000Y-114818632D01*
X149312000Y-115021367D01*
X149343715Y-115221608D01*
X149406361Y-115414417D01*
X149406362Y-115414420D01*
X149498405Y-115595062D01*
X149617562Y-115759069D01*
X149617566Y-115759074D01*
X149760925Y-115902433D01*
X149760930Y-115902437D01*
X149903986Y-116006372D01*
X149924941Y-116021597D01*
X150008432Y-116064138D01*
X150038611Y-116079515D01*
X150089407Y-116127490D01*
X150106202Y-116195311D01*
X150083664Y-116261446D01*
X150038611Y-116300485D01*
X149924937Y-116358405D01*
X149760930Y-116477562D01*
X149760925Y-116477566D01*
X149617566Y-116620925D01*
X149617562Y-116620930D01*
X149498405Y-116784937D01*
X149406362Y-116965579D01*
X149406361Y-116965582D01*
X149343715Y-117158391D01*
X149312000Y-117358632D01*
X149312000Y-117561367D01*
X149343715Y-117761608D01*
X149406361Y-117954417D01*
X149406362Y-117954420D01*
X149498405Y-118135062D01*
X149617562Y-118299069D01*
X149617566Y-118299074D01*
X149760925Y-118442433D01*
X149760930Y-118442437D01*
X149903986Y-118546372D01*
X149924941Y-118561597D01*
X150043026Y-118621764D01*
X150105579Y-118653637D01*
X150105582Y-118653638D01*
X150201986Y-118684961D01*
X150298393Y-118716285D01*
X150498632Y-118748000D01*
X150498633Y-118748000D01*
X150701367Y-118748000D01*
X150701368Y-118748000D01*
X150901607Y-118716285D01*
X151094420Y-118653637D01*
X151275059Y-118561597D01*
X151439076Y-118442432D01*
X151582432Y-118299076D01*
X151701597Y-118135059D01*
X151793637Y-117954420D01*
X151856285Y-117761607D01*
X151888000Y-117561368D01*
X151888000Y-117358632D01*
X151856285Y-117158393D01*
X151793637Y-116965580D01*
X151793637Y-116965579D01*
X151761764Y-116903026D01*
X151701597Y-116784941D01*
X151686372Y-116763986D01*
X151582437Y-116620930D01*
X151582433Y-116620925D01*
X151439074Y-116477566D01*
X151439069Y-116477562D01*
X151275062Y-116358405D01*
X151275061Y-116358404D01*
X151275059Y-116358403D01*
X151161387Y-116300484D01*
X151110592Y-116252511D01*
X151093797Y-116184690D01*
X151116334Y-116118555D01*
X151161388Y-116079515D01*
X151275059Y-116021597D01*
X151439076Y-115902432D01*
X151582432Y-115759076D01*
X151701597Y-115595059D01*
X151793637Y-115414420D01*
X151856285Y-115221607D01*
X151888000Y-115021368D01*
X151888000Y-114818632D01*
X151856285Y-114618393D01*
X151793637Y-114425580D01*
X151793637Y-114425579D01*
X151761764Y-114363026D01*
X151701597Y-114244941D01*
X151686372Y-114223986D01*
X151582437Y-114080930D01*
X151582433Y-114080925D01*
X151439074Y-113937566D01*
X151439069Y-113937562D01*
X151275062Y-113818405D01*
X151275061Y-113818404D01*
X151275059Y-113818403D01*
X151161387Y-113760484D01*
X151110592Y-113712511D01*
X151093797Y-113644690D01*
X151116334Y-113578555D01*
X151161388Y-113539515D01*
X151275059Y-113481597D01*
X151439076Y-113362432D01*
X151582432Y-113219076D01*
X151701597Y-113055059D01*
X151793637Y-112874420D01*
X151856285Y-112681607D01*
X151888000Y-112481368D01*
X151888000Y-112278632D01*
X151856285Y-112078393D01*
X151793637Y-111885580D01*
X151793637Y-111885579D01*
X151727639Y-111756052D01*
X151701597Y-111704941D01*
X151671288Y-111663224D01*
X151582437Y-111540930D01*
X151582433Y-111540925D01*
X151439074Y-111397566D01*
X151439069Y-111397562D01*
X151275062Y-111278405D01*
X151275061Y-111278404D01*
X151275059Y-111278403D01*
X151161387Y-111220484D01*
X151110592Y-111172511D01*
X151093797Y-111104690D01*
X151116334Y-111038555D01*
X151161388Y-110999515D01*
X151275059Y-110941597D01*
X151439076Y-110822432D01*
X151582432Y-110679076D01*
X151701597Y-110515059D01*
X151793637Y-110334420D01*
X151856285Y-110141607D01*
X151888000Y-109941368D01*
X151888000Y-109878711D01*
X154149500Y-109878711D01*
X154149500Y-110121288D01*
X154181161Y-110361785D01*
X154243947Y-110596104D01*
X154336773Y-110820205D01*
X154336777Y-110820214D01*
X154341739Y-110828809D01*
X154458064Y-111030289D01*
X154458066Y-111030292D01*
X154458067Y-111030293D01*
X154605733Y-111222736D01*
X154605739Y-111222743D01*
X154777256Y-111394260D01*
X154777263Y-111394266D01*
X154890321Y-111481018D01*
X154969711Y-111541936D01*
X155179788Y-111663224D01*
X155403900Y-111756054D01*
X155638211Y-111818838D01*
X155818586Y-111842584D01*
X155878711Y-111850500D01*
X155878712Y-111850500D01*
X156121289Y-111850500D01*
X156169388Y-111844167D01*
X156361789Y-111818838D01*
X156596100Y-111756054D01*
X156820212Y-111663224D01*
X157030289Y-111541936D01*
X157222738Y-111394265D01*
X157394265Y-111222738D01*
X157541936Y-111030289D01*
X157663224Y-110820212D01*
X157756054Y-110596100D01*
X157818838Y-110361789D01*
X157850500Y-110121288D01*
X157850500Y-109878712D01*
X157818838Y-109638211D01*
X157756054Y-109403900D01*
X157663224Y-109179788D01*
X157541936Y-108969711D01*
X157419517Y-108810171D01*
X157394266Y-108777263D01*
X157394260Y-108777256D01*
X157222743Y-108605739D01*
X157222736Y-108605733D01*
X157030293Y-108458067D01*
X157030292Y-108458066D01*
X157030289Y-108458064D01*
X156820212Y-108336776D01*
X156820205Y-108336773D01*
X156596104Y-108243947D01*
X156361785Y-108181161D01*
X156121289Y-108149500D01*
X156121288Y-108149500D01*
X155878712Y-108149500D01*
X155878711Y-108149500D01*
X155638214Y-108181161D01*
X155403895Y-108243947D01*
X155179794Y-108336773D01*
X155179785Y-108336777D01*
X154969706Y-108458067D01*
X154777263Y-108605733D01*
X154777256Y-108605739D01*
X154605739Y-108777256D01*
X154605733Y-108777263D01*
X154458067Y-108969706D01*
X154336777Y-109179785D01*
X154336773Y-109179794D01*
X154243947Y-109403895D01*
X154181161Y-109638214D01*
X154149500Y-109878711D01*
X151888000Y-109878711D01*
X151888000Y-109738632D01*
X151856285Y-109538393D01*
X151812586Y-109403900D01*
X151793638Y-109345582D01*
X151793637Y-109345579D01*
X151761764Y-109283026D01*
X151701597Y-109164941D01*
X151627755Y-109063306D01*
X151582437Y-109000930D01*
X151582433Y-109000925D01*
X151439074Y-108857566D01*
X151439069Y-108857562D01*
X151275062Y-108738405D01*
X151275061Y-108738404D01*
X151275059Y-108738403D01*
X151217186Y-108708915D01*
X151094420Y-108646362D01*
X151094417Y-108646361D01*
X150901608Y-108583715D01*
X150801487Y-108567857D01*
X150701368Y-108552000D01*
X150498632Y-108552000D01*
X150431885Y-108562571D01*
X150298391Y-108583715D01*
X150105582Y-108646361D01*
X150105579Y-108646362D01*
X149924937Y-108738405D01*
X149760930Y-108857562D01*
X149760925Y-108857566D01*
X149617566Y-109000925D01*
X149617562Y-109000930D01*
X149498405Y-109164937D01*
X149406362Y-109345579D01*
X149406361Y-109345582D01*
X149343715Y-109538391D01*
X149312000Y-109738632D01*
X144267999Y-109738632D01*
X144267999Y-109004628D01*
X144261591Y-108945017D01*
X144228972Y-108857562D01*
X144211297Y-108810171D01*
X144211293Y-108810164D01*
X144125047Y-108694955D01*
X144125044Y-108694952D01*
X144009835Y-108608706D01*
X144009828Y-108608702D01*
X143874982Y-108558408D01*
X143874983Y-108558408D01*
X143815383Y-108552001D01*
X143815381Y-108552000D01*
X143815373Y-108552000D01*
X143815364Y-108552000D01*
X142144629Y-108552000D01*
X142144623Y-108552001D01*
X142085016Y-108558408D01*
X141950171Y-108608702D01*
X141950164Y-108608706D01*
X141834955Y-108694952D01*
X141834952Y-108694955D01*
X141748706Y-108810164D01*
X141748702Y-108810171D01*
X141698408Y-108945017D01*
X141692398Y-109000924D01*
X141692001Y-109004623D01*
X141692000Y-109004635D01*
X112062099Y-109004635D01*
X112041936Y-108969711D01*
X111919517Y-108810171D01*
X111894266Y-108777263D01*
X111894260Y-108777256D01*
X111722743Y-108605739D01*
X111722736Y-108605733D01*
X111530293Y-108458067D01*
X111530292Y-108458066D01*
X111530289Y-108458064D01*
X111320212Y-108336776D01*
X111320205Y-108336773D01*
X111096104Y-108243947D01*
X110861785Y-108181161D01*
X110621289Y-108149500D01*
X110621288Y-108149500D01*
X110378712Y-108149500D01*
X110378711Y-108149500D01*
X110138214Y-108181161D01*
X109903895Y-108243947D01*
X109679794Y-108336773D01*
X109679785Y-108336777D01*
X109469706Y-108458067D01*
X109277263Y-108605733D01*
X109277256Y-108605739D01*
X109105739Y-108777256D01*
X109105733Y-108777263D01*
X108958067Y-108969706D01*
X108836777Y-109179785D01*
X108836773Y-109179794D01*
X108743947Y-109403895D01*
X108681161Y-109638214D01*
X108649500Y-109878711D01*
X101500500Y-109878711D01*
X101500500Y-106395675D01*
X128674500Y-106395675D01*
X128674500Y-106604324D01*
X128707137Y-106810389D01*
X128771612Y-107008820D01*
X128866330Y-107194714D01*
X128988965Y-107363505D01*
X129136495Y-107511035D01*
X129305286Y-107633670D01*
X129393116Y-107678421D01*
X129491179Y-107728387D01*
X129491181Y-107728387D01*
X129491184Y-107728389D01*
X129597545Y-107762948D01*
X129689610Y-107792862D01*
X129895676Y-107825500D01*
X129895681Y-107825500D01*
X130104324Y-107825500D01*
X130310389Y-107792862D01*
X130508816Y-107728389D01*
X130694714Y-107633670D01*
X130863505Y-107511035D01*
X131011035Y-107363505D01*
X131133670Y-107194714D01*
X131228389Y-107008816D01*
X131292862Y-106810389D01*
X131325500Y-106604324D01*
X131325500Y-106395675D01*
X135174500Y-106395675D01*
X135174500Y-106604324D01*
X135207137Y-106810389D01*
X135271612Y-107008820D01*
X135366330Y-107194714D01*
X135488965Y-107363505D01*
X135636495Y-107511035D01*
X135805286Y-107633670D01*
X135893116Y-107678421D01*
X135991179Y-107728387D01*
X135991181Y-107728387D01*
X135991184Y-107728389D01*
X136097545Y-107762948D01*
X136189610Y-107792862D01*
X136395676Y-107825500D01*
X136395681Y-107825500D01*
X136604324Y-107825500D01*
X136810389Y-107792862D01*
X137008816Y-107728389D01*
X137194714Y-107633670D01*
X137363505Y-107511035D01*
X137511035Y-107363505D01*
X137633670Y-107194714D01*
X137728389Y-107008816D01*
X137792862Y-106810389D01*
X137825500Y-106604324D01*
X137825500Y-106395675D01*
X137792862Y-106189610D01*
X137728387Y-105991179D01*
X137633669Y-105805285D01*
X137511035Y-105636495D01*
X137363505Y-105488965D01*
X137194714Y-105366330D01*
X137008820Y-105271612D01*
X136810389Y-105207137D01*
X136604324Y-105174500D01*
X136604319Y-105174500D01*
X136395681Y-105174500D01*
X136395676Y-105174500D01*
X136189610Y-105207137D01*
X135991179Y-105271612D01*
X135805285Y-105366330D01*
X135636493Y-105488966D01*
X135488966Y-105636493D01*
X135366330Y-105805285D01*
X135271612Y-105991179D01*
X135207137Y-106189610D01*
X135174500Y-106395675D01*
X131325500Y-106395675D01*
X131292862Y-106189610D01*
X131228387Y-105991179D01*
X131133669Y-105805285D01*
X131011035Y-105636495D01*
X130863505Y-105488965D01*
X130694714Y-105366330D01*
X130508820Y-105271612D01*
X130310389Y-105207137D01*
X130104324Y-105174500D01*
X130104319Y-105174500D01*
X129895681Y-105174500D01*
X129895676Y-105174500D01*
X129689610Y-105207137D01*
X129491179Y-105271612D01*
X129305285Y-105366330D01*
X129136493Y-105488966D01*
X128988966Y-105636493D01*
X128866330Y-105805285D01*
X128771612Y-105991179D01*
X128707137Y-106189610D01*
X128674500Y-106395675D01*
X101500500Y-106395675D01*
X101500500Y-105502706D01*
X101500618Y-105497297D01*
X101506336Y-105366330D01*
X101517386Y-105113226D01*
X101518326Y-105102495D01*
X101568152Y-104724025D01*
X101570025Y-104713405D01*
X101652649Y-104340709D01*
X101655440Y-104330295D01*
X101770230Y-103966227D01*
X101773917Y-103956095D01*
X101920003Y-103603412D01*
X101924561Y-103593638D01*
X102100822Y-103255045D01*
X102106217Y-103245700D01*
X102311325Y-102923744D01*
X102317515Y-102914905D01*
X102549896Y-102612060D01*
X102556834Y-102603791D01*
X102814726Y-102322352D01*
X102822352Y-102314726D01*
X103103791Y-102056834D01*
X103112060Y-102049896D01*
X103414905Y-101817515D01*
X103423744Y-101811325D01*
X103745700Y-101606217D01*
X103755045Y-101600822D01*
X104093638Y-101424561D01*
X104103412Y-101420003D01*
X104456095Y-101273917D01*
X104466227Y-101270230D01*
X104830295Y-101155440D01*
X104840709Y-101152649D01*
X105213405Y-101070025D01*
X105224025Y-101068152D01*
X105602495Y-101018326D01*
X105613226Y-101017386D01*
X105997297Y-101000617D01*
X106002706Y-101000500D01*
X106065892Y-101000500D01*
X160434108Y-101000500D01*
X160497294Y-101000500D01*
X160502702Y-101000617D01*
G37*
%TD.AperFunction*%
%TD*%
M02*
